%TF.GenerationSoftware,KiCad,Pcbnew,(6.0.4-0)*%
%TF.CreationDate,2022-07-24T18:31:06-05:00*%
%TF.ProjectId,beyblock20,62657962-6c6f-4636-9b32-302e6b696361,rev?*%
%TF.SameCoordinates,Original*%
%TF.FileFunction,Legend,Bot*%
%TF.FilePolarity,Positive*%
%FSLAX46Y46*%
G04 Gerber Fmt 4.6, Leading zero omitted, Abs format (unit mm)*
G04 Created by KiCad (PCBNEW (6.0.4-0)) date 2022-07-24 18:31:06*
%MOMM*%
%LPD*%
G01*
G04 APERTURE LIST*
%ADD10C,0.300000*%
%ADD11C,0.600000*%
%ADD12C,0.050000*%
%ADD13C,0.101600*%
%ADD14C,0.076200*%
%ADD15C,0.150000*%
%ADD16C,0.254000*%
%ADD17C,0.127000*%
%ADD18C,0.066040*%
%ADD19C,0.120000*%
G04 APERTURE END LIST*
D10*
X140108035Y-28426071D02*
X140108035Y-26926071D01*
X140108035Y-27497500D02*
X139965178Y-27426071D01*
X139679464Y-27426071D01*
X139536607Y-27497500D01*
X139465178Y-27568928D01*
X139393750Y-27711785D01*
X139393750Y-28140357D01*
X139465178Y-28283214D01*
X139536607Y-28354642D01*
X139679464Y-28426071D01*
X139965178Y-28426071D01*
X140108035Y-28354642D01*
X138179464Y-28354642D02*
X138322321Y-28426071D01*
X138608035Y-28426071D01*
X138750892Y-28354642D01*
X138822321Y-28211785D01*
X138822321Y-27640357D01*
X138750892Y-27497500D01*
X138608035Y-27426071D01*
X138322321Y-27426071D01*
X138179464Y-27497500D01*
X138108035Y-27640357D01*
X138108035Y-27783214D01*
X138822321Y-27926071D01*
X137608035Y-27426071D02*
X137250892Y-28426071D01*
X136893750Y-27426071D02*
X137250892Y-28426071D01*
X137393750Y-28783214D01*
X137465178Y-28854642D01*
X137608035Y-28926071D01*
X136322321Y-28426071D02*
X136322321Y-26926071D01*
X136322321Y-27497500D02*
X136179464Y-27426071D01*
X135893750Y-27426071D01*
X135750892Y-27497500D01*
X135679464Y-27568928D01*
X135608035Y-27711785D01*
X135608035Y-28140357D01*
X135679464Y-28283214D01*
X135750892Y-28354642D01*
X135893750Y-28426071D01*
X136179464Y-28426071D01*
X136322321Y-28354642D01*
X134750892Y-28426071D02*
X134893750Y-28354642D01*
X134965178Y-28211785D01*
X134965178Y-26926071D01*
X133965178Y-28426071D02*
X134108035Y-28354642D01*
X134179464Y-28283214D01*
X134250892Y-28140357D01*
X134250892Y-27711785D01*
X134179464Y-27568928D01*
X134108035Y-27497500D01*
X133965178Y-27426071D01*
X133750892Y-27426071D01*
X133608035Y-27497500D01*
X133536607Y-27568928D01*
X133465178Y-27711785D01*
X133465178Y-28140357D01*
X133536607Y-28283214D01*
X133608035Y-28354642D01*
X133750892Y-28426071D01*
X133965178Y-28426071D01*
X132179464Y-28354642D02*
X132322321Y-28426071D01*
X132608035Y-28426071D01*
X132750892Y-28354642D01*
X132822321Y-28283214D01*
X132893750Y-28140357D01*
X132893750Y-27711785D01*
X132822321Y-27568928D01*
X132750892Y-27497500D01*
X132608035Y-27426071D01*
X132322321Y-27426071D01*
X132179464Y-27497500D01*
X131536607Y-28426071D02*
X131536607Y-26926071D01*
X131393750Y-27854642D02*
X130965178Y-28426071D01*
X130965178Y-27426071D02*
X131536607Y-27997500D01*
X130393750Y-27068928D02*
X130322321Y-26997500D01*
X130179464Y-26926071D01*
X129822321Y-26926071D01*
X129679464Y-26997500D01*
X129608035Y-27068928D01*
X129536607Y-27211785D01*
X129536607Y-27354642D01*
X129608035Y-27568928D01*
X130465178Y-28426071D01*
X129536607Y-28426071D01*
X128608035Y-26926071D02*
X128465178Y-26926071D01*
X128322321Y-26997500D01*
X128250892Y-27068928D01*
X128179464Y-27211785D01*
X128108035Y-27497500D01*
X128108035Y-27854642D01*
X128179464Y-28140357D01*
X128250892Y-28283214D01*
X128322321Y-28354642D01*
X128465178Y-28426071D01*
X128608035Y-28426071D01*
X128750892Y-28354642D01*
X128822321Y-28283214D01*
X128893750Y-28140357D01*
X128965178Y-27854642D01*
X128965178Y-27497500D01*
X128893750Y-27211785D01*
X128822321Y-27068928D01*
X128750892Y-26997500D01*
X128608035Y-26926071D01*
X136286607Y-29841071D02*
X135929464Y-30841071D01*
X135572321Y-29841071D01*
X134215178Y-30841071D02*
X135072321Y-30841071D01*
X134643750Y-30841071D02*
X134643750Y-29341071D01*
X134786607Y-29555357D01*
X134929464Y-29698214D01*
X135072321Y-29769642D01*
X133572321Y-30698214D02*
X133500892Y-30769642D01*
X133572321Y-30841071D01*
X133643750Y-30769642D01*
X133572321Y-30698214D01*
X133572321Y-30841071D01*
X132572321Y-29341071D02*
X132429464Y-29341071D01*
X132286607Y-29412500D01*
X132215178Y-29483928D01*
X132143750Y-29626785D01*
X132072321Y-29912500D01*
X132072321Y-30269642D01*
X132143750Y-30555357D01*
X132215178Y-30698214D01*
X132286607Y-30769642D01*
X132429464Y-30841071D01*
X132572321Y-30841071D01*
X132715178Y-30769642D01*
X132786607Y-30698214D01*
X132858035Y-30555357D01*
X132929464Y-30269642D01*
X132929464Y-29912500D01*
X132858035Y-29626785D01*
X132786607Y-29483928D01*
X132715178Y-29412500D01*
X132572321Y-29341071D01*
X140822321Y-33256071D02*
X140822321Y-31756071D01*
X140822321Y-32327500D02*
X140679464Y-32256071D01*
X140393750Y-32256071D01*
X140250892Y-32327500D01*
X140179464Y-32398928D01*
X140108035Y-32541785D01*
X140108035Y-32970357D01*
X140179464Y-33113214D01*
X140250892Y-33184642D01*
X140393750Y-33256071D01*
X140679464Y-33256071D01*
X140822321Y-33184642D01*
X139608035Y-32256071D02*
X139250892Y-33256071D01*
X138893750Y-32256071D02*
X139250892Y-33256071D01*
X139393750Y-33613214D01*
X139465178Y-33684642D01*
X139608035Y-33756071D01*
X137250892Y-33184642D02*
X137108035Y-33256071D01*
X136822321Y-33256071D01*
X136679464Y-33184642D01*
X136608035Y-33041785D01*
X136608035Y-32970357D01*
X136679464Y-32827500D01*
X136822321Y-32756071D01*
X137036607Y-32756071D01*
X137179464Y-32684642D01*
X137250892Y-32541785D01*
X137250892Y-32470357D01*
X137179464Y-32327500D01*
X137036607Y-32256071D01*
X136822321Y-32256071D01*
X136679464Y-32327500D01*
X135965178Y-32256071D02*
X135965178Y-33756071D01*
X135965178Y-32327500D02*
X135822321Y-32256071D01*
X135536607Y-32256071D01*
X135393750Y-32327500D01*
X135322321Y-32398928D01*
X135250892Y-32541785D01*
X135250892Y-32970357D01*
X135322321Y-33113214D01*
X135393750Y-33184642D01*
X135536607Y-33256071D01*
X135822321Y-33256071D01*
X135965178Y-33184642D01*
X134393750Y-33256071D02*
X134536607Y-33184642D01*
X134608035Y-33113214D01*
X134679464Y-32970357D01*
X134679464Y-32541785D01*
X134608035Y-32398928D01*
X134536607Y-32327500D01*
X134393750Y-32256071D01*
X134179464Y-32256071D01*
X134036607Y-32327500D01*
X133965178Y-32398928D01*
X133893750Y-32541785D01*
X133893750Y-32970357D01*
X133965178Y-33113214D01*
X134036607Y-33184642D01*
X134179464Y-33256071D01*
X134393750Y-33256071D01*
X133250892Y-33256071D02*
X133250892Y-32256071D01*
X133250892Y-32541785D02*
X133179464Y-32398928D01*
X133108035Y-32327500D01*
X132965178Y-32256071D01*
X132822321Y-32256071D01*
X131750892Y-33184642D02*
X131893750Y-33256071D01*
X132179464Y-33256071D01*
X132322321Y-33184642D01*
X132393750Y-33041785D01*
X132393750Y-32470357D01*
X132322321Y-32327500D01*
X132179464Y-32256071D01*
X131893750Y-32256071D01*
X131750892Y-32327500D01*
X131679464Y-32470357D01*
X131679464Y-32613214D01*
X132393750Y-32756071D01*
X131179464Y-32256071D02*
X130893750Y-33256071D01*
X130608035Y-32541785D01*
X130322321Y-33256071D01*
X130036607Y-32256071D01*
X129250892Y-33256071D02*
X129393750Y-33184642D01*
X129465178Y-33113214D01*
X129536607Y-32970357D01*
X129536607Y-32541785D01*
X129465178Y-32398928D01*
X129393750Y-32327500D01*
X129250892Y-32256071D01*
X129036607Y-32256071D01*
X128893750Y-32327500D01*
X128822321Y-32398928D01*
X128750892Y-32541785D01*
X128750892Y-32970357D01*
X128822321Y-33113214D01*
X128893750Y-33184642D01*
X129036607Y-33256071D01*
X129250892Y-33256071D01*
X128108035Y-33256071D02*
X128108035Y-31756071D01*
X127465178Y-33256071D02*
X127465178Y-32470357D01*
X127536607Y-32327500D01*
X127679464Y-32256071D01*
X127893750Y-32256071D01*
X128036607Y-32327500D01*
X128108035Y-32398928D01*
D11*
X128093749Y-114633035D02*
X128093749Y-108633035D01*
X128093749Y-110918750D02*
X127522321Y-110633035D01*
X126379464Y-110633035D01*
X125808035Y-110918750D01*
X125522321Y-111204464D01*
X125236607Y-111775892D01*
X125236607Y-113490178D01*
X125522321Y-114061607D01*
X125808035Y-114347321D01*
X126379464Y-114633035D01*
X127522321Y-114633035D01*
X128093749Y-114347321D01*
X120093749Y-110633035D02*
X120093749Y-114633035D01*
X122665178Y-110633035D02*
X122665178Y-113775892D01*
X122379464Y-114347321D01*
X121808035Y-114633035D01*
X120950892Y-114633035D01*
X120379464Y-114347321D01*
X120093749Y-114061607D01*
X117522321Y-114347321D02*
X116950892Y-114633035D01*
X115808035Y-114633035D01*
X115236607Y-114347321D01*
X114950892Y-113775892D01*
X114950892Y-113490178D01*
X115236607Y-112918750D01*
X115808035Y-112633035D01*
X116665178Y-112633035D01*
X117236607Y-112347321D01*
X117522321Y-111775892D01*
X117522321Y-111490178D01*
X117236607Y-110918750D01*
X116665178Y-110633035D01*
X115808035Y-110633035D01*
X115236607Y-110918750D01*
X112665178Y-114347321D02*
X112093749Y-114633035D01*
X110950892Y-114633035D01*
X110379464Y-114347321D01*
X110093749Y-113775892D01*
X110093749Y-113490178D01*
X110379464Y-112918750D01*
X110950892Y-112633035D01*
X111808035Y-112633035D01*
X112379464Y-112347321D01*
X112665178Y-111775892D01*
X112665178Y-111490178D01*
X112379464Y-110918750D01*
X111808035Y-110633035D01*
X110950892Y-110633035D01*
X110379464Y-110918750D01*
X107522321Y-114633035D02*
X107522321Y-110633035D01*
X107522321Y-108633035D02*
X107808035Y-108918750D01*
X107522321Y-109204464D01*
X107236607Y-108918750D01*
X107522321Y-108633035D01*
X107522321Y-109204464D01*
X104665178Y-110633035D02*
X104665178Y-114633035D01*
X104665178Y-111204464D02*
X104379464Y-110918750D01*
X103808035Y-110633035D01*
X102950892Y-110633035D01*
X102379464Y-110918750D01*
X102093749Y-111490178D01*
X102093749Y-114633035D01*
D12*
G36*
X115887512Y-106314081D02*
G01*
X88877952Y-90720117D01*
X88877959Y-75610330D01*
X93415222Y-75610330D01*
X93435740Y-76578614D01*
X93496741Y-77536478D01*
X93597395Y-78483093D01*
X93736874Y-79417629D01*
X93914346Y-80339255D01*
X94128983Y-81247144D01*
X94379955Y-82140464D01*
X94666433Y-83018387D01*
X94987586Y-83880083D01*
X95342585Y-84724722D01*
X95730601Y-85551475D01*
X96150804Y-86359512D01*
X96602365Y-87148004D01*
X97084453Y-87916120D01*
X97596239Y-88663032D01*
X98136894Y-89387910D01*
X98215093Y-88847411D01*
X98309289Y-88312233D01*
X98419228Y-87782627D01*
X98544659Y-87258846D01*
X98685330Y-86741143D01*
X98840989Y-86229767D01*
X99007480Y-85736538D01*
X106600914Y-85736538D01*
X106602599Y-85776111D01*
X106606124Y-85815586D01*
X106611487Y-85854892D01*
X106618691Y-85893960D01*
X106627734Y-85932719D01*
X106638616Y-85971100D01*
X106651338Y-86009033D01*
X106665899Y-86046448D01*
X106682300Y-86083276D01*
X106700540Y-86119445D01*
X106720619Y-86154888D01*
X106742538Y-86189533D01*
X106766297Y-86223312D01*
X106791895Y-86256153D01*
X106819332Y-86287988D01*
X106848609Y-86318746D01*
X106879368Y-86348023D01*
X106911202Y-86375460D01*
X106944044Y-86401058D01*
X106977822Y-86424817D01*
X107012467Y-86446736D01*
X107047910Y-86466815D01*
X107084079Y-86485055D01*
X107120907Y-86501456D01*
X107158322Y-86516017D01*
X107196255Y-86528739D01*
X107234636Y-86539621D01*
X107273395Y-86548663D01*
X107312462Y-86555866D01*
X107351768Y-86561230D01*
X107391243Y-86564754D01*
X107430817Y-86566439D01*
X107470420Y-86566284D01*
X107509982Y-86564290D01*
X107549434Y-86560456D01*
X107588705Y-86554783D01*
X107627726Y-86547270D01*
X107666426Y-86537918D01*
X107704737Y-86526726D01*
X107742589Y-86513695D01*
X107779910Y-86498825D01*
X107816633Y-86482115D01*
X107852686Y-86463565D01*
X107888000Y-86443176D01*
X107922505Y-86420947D01*
X107956131Y-86396879D01*
X107988809Y-86370972D01*
X108020469Y-86343225D01*
X108020530Y-86343289D01*
X108020592Y-86343354D01*
X108020719Y-86343484D01*
X108020849Y-86343614D01*
X108020980Y-86343744D01*
X108045974Y-86318746D01*
X109921142Y-84443578D01*
X111821319Y-86343744D01*
X111821572Y-86343484D01*
X111821700Y-86343354D01*
X111821830Y-86343225D01*
X111853488Y-86370972D01*
X111886165Y-86396879D01*
X111919791Y-86420947D01*
X111954295Y-86443176D01*
X111989608Y-86463565D01*
X112025660Y-86482115D01*
X112062382Y-86498825D01*
X112099703Y-86513695D01*
X112137554Y-86526726D01*
X112175864Y-86537918D01*
X112214565Y-86547270D01*
X112253586Y-86554783D01*
X112292856Y-86560456D01*
X112332308Y-86564290D01*
X112371870Y-86566284D01*
X112411473Y-86566439D01*
X112451047Y-86564754D01*
X112490521Y-86561230D01*
X112529828Y-86555866D01*
X112568895Y-86548663D01*
X112607655Y-86539621D01*
X112646036Y-86528739D01*
X112683969Y-86516017D01*
X112721384Y-86501456D01*
X112758212Y-86485055D01*
X112794382Y-86466815D01*
X112829824Y-86446736D01*
X112864470Y-86424817D01*
X112898248Y-86401058D01*
X112931089Y-86375460D01*
X112962924Y-86348023D01*
X112993682Y-86318746D01*
X113022960Y-86287988D01*
X113050398Y-86256153D01*
X113075996Y-86223312D01*
X113099756Y-86189533D01*
X113121675Y-86154888D01*
X113141755Y-86119445D01*
X113159995Y-86083276D01*
X113176396Y-86046448D01*
X113190958Y-86009033D01*
X113203679Y-85971100D01*
X113214562Y-85932719D01*
X113223605Y-85893960D01*
X113230808Y-85854892D01*
X113236172Y-85815586D01*
X113239696Y-85776111D01*
X113241381Y-85736538D01*
X113241226Y-85696935D01*
X113239232Y-85657373D01*
X113235399Y-85617922D01*
X113229726Y-85578651D01*
X113222213Y-85539630D01*
X113212861Y-85500930D01*
X113201670Y-85462619D01*
X113188639Y-85424768D01*
X113173769Y-85387447D01*
X113157059Y-85350725D01*
X113138510Y-85314673D01*
X113118121Y-85279360D01*
X113095893Y-85244855D01*
X113071826Y-85211230D01*
X113045919Y-85178552D01*
X113018173Y-85146894D01*
X113018676Y-85146375D01*
X111118514Y-83246209D01*
X111118521Y-83246202D01*
X117508636Y-83246202D01*
X117509683Y-83288654D01*
X117512793Y-83330566D01*
X117517915Y-83371889D01*
X117525000Y-83412574D01*
X117533998Y-83452572D01*
X117544862Y-83491832D01*
X117557540Y-83530306D01*
X117571984Y-83567944D01*
X117588144Y-83604697D01*
X117605971Y-83640515D01*
X117625416Y-83675350D01*
X117646428Y-83709151D01*
X117668960Y-83741870D01*
X117692961Y-83773456D01*
X117718381Y-83803861D01*
X117745173Y-83833036D01*
X117773286Y-83860930D01*
X117802670Y-83887495D01*
X117833277Y-83912680D01*
X117865057Y-83936438D01*
X117897961Y-83958717D01*
X117931939Y-83979470D01*
X117966942Y-83998646D01*
X118002921Y-84016196D01*
X118039826Y-84032072D01*
X118077608Y-84046222D01*
X118116217Y-84058599D01*
X118155604Y-84069152D01*
X118195720Y-84077833D01*
X118236515Y-84084592D01*
X118277940Y-84089379D01*
X118319946Y-84092145D01*
X118319946Y-84092870D01*
X121007194Y-84092870D01*
X121007194Y-86780111D01*
X121007919Y-86780111D01*
X121010685Y-86822117D01*
X121015472Y-86863543D01*
X121022231Y-86904338D01*
X121030912Y-86944455D01*
X121041465Y-86983842D01*
X121053842Y-87022452D01*
X121067993Y-87060234D01*
X121083868Y-87097139D01*
X121101418Y-87133118D01*
X121120595Y-87168121D01*
X121141347Y-87202099D01*
X121163627Y-87235003D01*
X121187384Y-87266783D01*
X121212570Y-87297389D01*
X121239134Y-87326774D01*
X121267028Y-87354886D01*
X121296202Y-87381678D01*
X121326607Y-87407098D01*
X121358193Y-87431099D01*
X121390912Y-87453630D01*
X121424713Y-87474642D01*
X121459547Y-87494087D01*
X121495364Y-87511914D01*
X121532117Y-87528074D01*
X121569754Y-87542517D01*
X121608227Y-87555195D01*
X121647487Y-87566058D01*
X121687483Y-87575057D01*
X121728167Y-87582142D01*
X121769489Y-87587264D01*
X121811400Y-87590373D01*
X121853851Y-87591420D01*
X121896303Y-87590373D01*
X121938215Y-87587264D01*
X121979538Y-87582142D01*
X122020223Y-87575057D01*
X122060221Y-87566058D01*
X122099481Y-87555195D01*
X122137955Y-87542517D01*
X122175594Y-87528074D01*
X122212347Y-87511914D01*
X122248165Y-87494087D01*
X122283000Y-87474642D01*
X122316801Y-87453630D01*
X122349520Y-87431099D01*
X122381107Y-87407098D01*
X122411512Y-87381678D01*
X122440687Y-87354886D01*
X122468581Y-87326774D01*
X122495146Y-87297389D01*
X122520332Y-87266783D01*
X122544089Y-87235003D01*
X122566369Y-87202099D01*
X122587122Y-87168121D01*
X122606298Y-87133118D01*
X122623849Y-87097139D01*
X122639724Y-87060234D01*
X122653875Y-87022452D01*
X122666251Y-86983842D01*
X122676805Y-86944455D01*
X122685486Y-86904338D01*
X122692244Y-86863543D01*
X122697032Y-86822117D01*
X122699798Y-86780111D01*
X122700515Y-86780111D01*
X122700515Y-84092870D01*
X125387763Y-84092870D01*
X125387763Y-84092145D01*
X125429769Y-84089379D01*
X125471194Y-84084592D01*
X125511989Y-84077833D01*
X125552105Y-84069152D01*
X125591492Y-84058599D01*
X125630102Y-84046222D01*
X125667883Y-84032072D01*
X125704788Y-84016196D01*
X125740767Y-83998646D01*
X125775770Y-83979470D01*
X125809748Y-83958717D01*
X125842652Y-83936438D01*
X125874432Y-83912680D01*
X125905039Y-83887495D01*
X125934424Y-83860930D01*
X125962536Y-83833036D01*
X125989328Y-83803861D01*
X126014749Y-83773456D01*
X126038749Y-83741870D01*
X126061281Y-83709151D01*
X126082294Y-83675350D01*
X126101738Y-83640515D01*
X126119565Y-83604697D01*
X126135725Y-83567944D01*
X126150169Y-83530306D01*
X126162847Y-83491832D01*
X126173711Y-83452572D01*
X126182710Y-83412574D01*
X126189795Y-83371889D01*
X126194916Y-83330566D01*
X126198026Y-83288654D01*
X126199073Y-83246202D01*
X126198026Y-83203751D01*
X126194917Y-83161839D01*
X126189795Y-83120516D01*
X126182710Y-83079832D01*
X126173711Y-83039835D01*
X126162848Y-83000575D01*
X126150170Y-82962102D01*
X126135726Y-82924464D01*
X126119566Y-82887711D01*
X126101740Y-82851893D01*
X126082295Y-82817059D01*
X126061283Y-82783258D01*
X126038752Y-82750540D01*
X126014751Y-82718954D01*
X125989330Y-82688549D01*
X125962539Y-82659375D01*
X125934427Y-82631481D01*
X125905042Y-82604916D01*
X125874435Y-82579731D01*
X125842655Y-82555973D01*
X125809752Y-82533694D01*
X125775773Y-82512941D01*
X125740770Y-82493765D01*
X125704791Y-82476215D01*
X125667886Y-82460340D01*
X125630105Y-82446189D01*
X125591495Y-82433812D01*
X125552108Y-82423259D01*
X125511991Y-82414578D01*
X125471195Y-82407820D01*
X125429770Y-82403032D01*
X125387763Y-82400266D01*
X125387763Y-82399541D01*
X122700515Y-82399541D01*
X122700515Y-79712293D01*
X122699798Y-79712293D01*
X122697032Y-79670287D01*
X122692244Y-79628862D01*
X122685486Y-79588067D01*
X122676805Y-79547951D01*
X122666251Y-79508564D01*
X122653875Y-79469954D01*
X122639724Y-79432173D01*
X122623849Y-79395268D01*
X122606298Y-79359289D01*
X122587122Y-79324285D01*
X122566369Y-79290307D01*
X122544089Y-79257403D01*
X122520332Y-79225623D01*
X122495146Y-79195016D01*
X122468581Y-79165631D01*
X122440687Y-79137518D01*
X122411512Y-79110727D01*
X122381107Y-79085306D01*
X122349520Y-79061305D01*
X122316801Y-79038773D01*
X122283000Y-79017760D01*
X122248165Y-78998315D01*
X122212347Y-78980488D01*
X122175594Y-78964328D01*
X122137955Y-78949884D01*
X122099481Y-78937205D01*
X122060221Y-78926342D01*
X122020223Y-78917343D01*
X121979538Y-78910258D01*
X121938215Y-78905136D01*
X121896303Y-78902027D01*
X121853851Y-78900979D01*
X121811400Y-78902027D01*
X121769489Y-78905136D01*
X121728167Y-78910258D01*
X121687483Y-78917343D01*
X121647486Y-78926342D01*
X121608227Y-78937205D01*
X121569753Y-78949884D01*
X121532116Y-78964328D01*
X121495363Y-78980488D01*
X121459545Y-78998315D01*
X121424710Y-79017760D01*
X121390909Y-79038773D01*
X121358191Y-79061305D01*
X121326604Y-79085306D01*
X121296199Y-79110727D01*
X121267024Y-79137518D01*
X121239130Y-79165631D01*
X121212565Y-79195016D01*
X121187379Y-79225623D01*
X121163622Y-79257403D01*
X121141342Y-79290307D01*
X121120589Y-79324285D01*
X121101412Y-79359289D01*
X121083862Y-79395268D01*
X121067986Y-79432173D01*
X121053835Y-79469954D01*
X121041458Y-79508564D01*
X121030904Y-79547951D01*
X121022224Y-79588067D01*
X121015465Y-79628862D01*
X121010678Y-79670287D01*
X121007911Y-79712293D01*
X121007194Y-79712293D01*
X121007194Y-82399549D01*
X118354255Y-82399549D01*
X118319946Y-82399541D01*
X118319946Y-82400258D01*
X118277940Y-82403025D01*
X118236515Y-82407812D01*
X118195720Y-82414571D01*
X118155604Y-82423251D01*
X118116217Y-82433805D01*
X118077608Y-82446181D01*
X118039826Y-82460332D01*
X118002921Y-82476207D01*
X117966942Y-82493758D01*
X117931939Y-82512934D01*
X117897961Y-82533686D01*
X117865057Y-82555966D01*
X117833277Y-82579723D01*
X117802670Y-82604909D01*
X117773286Y-82631474D01*
X117745173Y-82659368D01*
X117718381Y-82688542D01*
X117692961Y-82718947D01*
X117668960Y-82750534D01*
X117646428Y-82783252D01*
X117625416Y-82817054D01*
X117605971Y-82851888D01*
X117588144Y-82887707D01*
X117571984Y-82924460D01*
X117557540Y-82962098D01*
X117544862Y-83000572D01*
X117533998Y-83039832D01*
X117525000Y-83079829D01*
X117517915Y-83120515D01*
X117512793Y-83161838D01*
X117509683Y-83203750D01*
X117508636Y-83246202D01*
X111118521Y-83246202D01*
X112993682Y-81371034D01*
X113018684Y-81346036D01*
X113018173Y-81345525D01*
X113045919Y-81313866D01*
X113071826Y-81281188D01*
X113095893Y-81247562D01*
X113118121Y-81213057D01*
X113138510Y-81177743D01*
X113157059Y-81141691D01*
X113173769Y-81104969D01*
X113188639Y-81067647D01*
X113201670Y-81029796D01*
X113212861Y-80991486D01*
X113222213Y-80952785D01*
X113229726Y-80913764D01*
X113235399Y-80874493D01*
X113239232Y-80835042D01*
X113241226Y-80795480D01*
X113241381Y-80755877D01*
X113239696Y-80716304D01*
X113236172Y-80676829D01*
X113230808Y-80637523D01*
X113223605Y-80598455D01*
X113214562Y-80559696D01*
X113203679Y-80521315D01*
X113190958Y-80483382D01*
X113176396Y-80445966D01*
X113159995Y-80409139D01*
X113141755Y-80372969D01*
X113121675Y-80337526D01*
X113099756Y-80302880D01*
X113075996Y-80269101D01*
X113050398Y-80236260D01*
X113022960Y-80204424D01*
X112993682Y-80173665D01*
X112962924Y-80144388D01*
X112931089Y-80116951D01*
X112898248Y-80091353D01*
X112864470Y-80067594D01*
X112829824Y-80045675D01*
X112794382Y-80025596D01*
X112758212Y-80007355D01*
X112721384Y-79990955D01*
X112683969Y-79976394D01*
X112646036Y-79963672D01*
X112607655Y-79952790D01*
X112568895Y-79943747D01*
X112529828Y-79936543D01*
X112490521Y-79931180D01*
X112451047Y-79927655D01*
X112411473Y-79925970D01*
X112371870Y-79926125D01*
X112332308Y-79928119D01*
X112292856Y-79931953D01*
X112253586Y-79937626D01*
X112214565Y-79945138D01*
X112175864Y-79954490D01*
X112137554Y-79965682D01*
X112099703Y-79978713D01*
X112062382Y-79993583D01*
X112025660Y-80010293D01*
X111989608Y-80028843D01*
X111954295Y-80049232D01*
X111919791Y-80071460D01*
X111886165Y-80095528D01*
X111853488Y-80121436D01*
X111821830Y-80149183D01*
X111821319Y-80148668D01*
X111796310Y-80173665D01*
X109921142Y-82048841D01*
X108045967Y-80173673D01*
X108045603Y-80173303D01*
X108045420Y-80173118D01*
X108045234Y-80172933D01*
X108020988Y-80148668D01*
X108020920Y-80148731D01*
X108020853Y-80148795D01*
X108020723Y-80148925D01*
X108020469Y-80149183D01*
X107988809Y-80121436D01*
X107956132Y-80095529D01*
X107922505Y-80071462D01*
X107888000Y-80049234D01*
X107852686Y-80028845D01*
X107816633Y-80010296D01*
X107779911Y-79993586D01*
X107742590Y-79978716D01*
X107704739Y-79965685D01*
X107666428Y-79954494D01*
X107627727Y-79945142D01*
X107588707Y-79937629D01*
X107549436Y-79931956D01*
X107509984Y-79928123D01*
X107470423Y-79926129D01*
X107430820Y-79925974D01*
X107391246Y-79927659D01*
X107351772Y-79931183D01*
X107312466Y-79936547D01*
X107273398Y-79943751D01*
X107234639Y-79952794D01*
X107196258Y-79963676D01*
X107158325Y-79976398D01*
X107120910Y-79990959D01*
X107084082Y-80007360D01*
X107047912Y-80025600D01*
X107012470Y-80045680D01*
X106977824Y-80067600D01*
X106944045Y-80091359D01*
X106911204Y-80116957D01*
X106879368Y-80144395D01*
X106848609Y-80173673D01*
X106819332Y-80204431D01*
X106791895Y-80236266D01*
X106766297Y-80269107D01*
X106742538Y-80302886D01*
X106720619Y-80337531D01*
X106700540Y-80372973D01*
X106682300Y-80409143D01*
X106665899Y-80445971D01*
X106651338Y-80483386D01*
X106638616Y-80521319D01*
X106627734Y-80559700D01*
X106618691Y-80598459D01*
X106611487Y-80637526D01*
X106606124Y-80676833D01*
X106602599Y-80716307D01*
X106600914Y-80755881D01*
X106601069Y-80795484D01*
X106603063Y-80835046D01*
X106606897Y-80874497D01*
X106612570Y-80913768D01*
X106620082Y-80952789D01*
X106629434Y-80991489D01*
X106640626Y-81029800D01*
X106653657Y-81067651D01*
X106668527Y-81104972D01*
X106685237Y-81141693D01*
X106703787Y-81177746D01*
X106724176Y-81213059D01*
X106746404Y-81247564D01*
X106770472Y-81281189D01*
X106796380Y-81313866D01*
X106824127Y-81345525D01*
X106823996Y-81345653D01*
X106823738Y-81345911D01*
X106823608Y-81346044D01*
X106848609Y-81371042D01*
X108723785Y-83246209D01*
X106848609Y-85121377D01*
X106823608Y-85146375D01*
X106824127Y-85146894D01*
X106796380Y-85178552D01*
X106770472Y-85211230D01*
X106746404Y-85244855D01*
X106724176Y-85279360D01*
X106703787Y-85314673D01*
X106685237Y-85350725D01*
X106668527Y-85387447D01*
X106653657Y-85424768D01*
X106640626Y-85462619D01*
X106629434Y-85500930D01*
X106620082Y-85539630D01*
X106612570Y-85578651D01*
X106606897Y-85617922D01*
X106603063Y-85657373D01*
X106601069Y-85696935D01*
X106600914Y-85736538D01*
X99007480Y-85736538D01*
X99011384Y-85724973D01*
X99196264Y-85227011D01*
X99395375Y-84736134D01*
X99608468Y-84252593D01*
X99835288Y-83776640D01*
X100075586Y-83308528D01*
X100329108Y-82848508D01*
X100595603Y-82396832D01*
X100874819Y-81953753D01*
X101166503Y-81519521D01*
X100812790Y-81234834D01*
X100475910Y-80930973D01*
X100156689Y-80608762D01*
X99855954Y-80269029D01*
X99574531Y-79912600D01*
X99313245Y-79540299D01*
X99072923Y-79152954D01*
X98854391Y-78751391D01*
X98658476Y-78336435D01*
X98486002Y-77908912D01*
X98337796Y-77469649D01*
X98214684Y-77019472D01*
X98117493Y-76559206D01*
X98047047Y-76089678D01*
X98004174Y-75611713D01*
X97989700Y-75126138D01*
X98000146Y-74713448D01*
X98031150Y-74306153D01*
X98082204Y-73904758D01*
X98152804Y-73509769D01*
X98242444Y-73121690D01*
X98350619Y-72741028D01*
X98476823Y-72368287D01*
X98620551Y-72003974D01*
X98781299Y-71648593D01*
X98958559Y-71302650D01*
X99151827Y-70966650D01*
X99360598Y-70641099D01*
X99584366Y-70326502D01*
X99822626Y-70023364D01*
X100074872Y-69732191D01*
X100340599Y-69453489D01*
X100619302Y-69187762D01*
X100910475Y-68935515D01*
X101213613Y-68697256D01*
X101528210Y-68473488D01*
X101853761Y-68264717D01*
X102189760Y-68071449D01*
X102535703Y-67894188D01*
X102891084Y-67733441D01*
X103255397Y-67589713D01*
X103628137Y-67463508D01*
X104008799Y-67355333D01*
X104396877Y-67265694D01*
X104791866Y-67195094D01*
X105193260Y-67144040D01*
X105600555Y-67113037D01*
X106013244Y-67102590D01*
X106387474Y-67111177D01*
X106757312Y-67136685D01*
X107122381Y-67178741D01*
X107482306Y-67236966D01*
X107836711Y-67310985D01*
X108185219Y-67400421D01*
X108527454Y-67504899D01*
X108863041Y-67624043D01*
X109191602Y-67757475D01*
X109512761Y-67904821D01*
X109826143Y-68065703D01*
X110131371Y-68239745D01*
X110428070Y-68426573D01*
X110715862Y-68625808D01*
X110994372Y-68837075D01*
X111263223Y-69059998D01*
X111522040Y-69294201D01*
X111770446Y-69539307D01*
X112008065Y-69794941D01*
X112234521Y-70060726D01*
X112449437Y-70336285D01*
X112652438Y-70621244D01*
X112843147Y-70915225D01*
X113021189Y-71217852D01*
X113186186Y-71528750D01*
X113337763Y-71847542D01*
X113475544Y-72173851D01*
X113599152Y-72507302D01*
X113708212Y-72847519D01*
X113802346Y-73194125D01*
X113881179Y-73546744D01*
X113944335Y-73905000D01*
X114184164Y-73880699D01*
X114424910Y-73859570D01*
X114666555Y-73841634D01*
X114909075Y-73826911D01*
X115152451Y-73815423D01*
X115396660Y-73807191D01*
X115641683Y-73802237D01*
X115887496Y-73800580D01*
X115887504Y-73800580D01*
X116151111Y-73802485D01*
X116413806Y-73808182D01*
X116675561Y-73817645D01*
X116936351Y-73830848D01*
X117196150Y-73847764D01*
X117454931Y-73868368D01*
X117712669Y-73892633D01*
X117969337Y-73920533D01*
X118036457Y-73567160D01*
X118118861Y-73219426D01*
X118216183Y-72877697D01*
X118328058Y-72542338D01*
X118454120Y-72213716D01*
X118594003Y-71892197D01*
X118747341Y-71578146D01*
X118913768Y-71271929D01*
X119092918Y-70973913D01*
X119284426Y-70684463D01*
X119487925Y-70403944D01*
X119703050Y-70132723D01*
X119929434Y-69871166D01*
X120166712Y-69619639D01*
X120414519Y-69378507D01*
X120672487Y-69148136D01*
X120940251Y-68928893D01*
X121217446Y-68721143D01*
X121503705Y-68525251D01*
X121798663Y-68341585D01*
X122101953Y-68170509D01*
X122413210Y-68012390D01*
X122732068Y-67867593D01*
X123058161Y-67736485D01*
X123391123Y-67619431D01*
X123730589Y-67516797D01*
X124076192Y-67428949D01*
X124427566Y-67356253D01*
X124784346Y-67299075D01*
X125146165Y-67257780D01*
X125512659Y-67232735D01*
X125883460Y-67224305D01*
X126296150Y-67234752D01*
X126703445Y-67265755D01*
X127104840Y-67316809D01*
X127499829Y-67387409D01*
X127887907Y-67477049D01*
X128268569Y-67585224D01*
X128641310Y-67711428D01*
X129005623Y-67855157D01*
X129361004Y-68015904D01*
X129706947Y-68193164D01*
X130042947Y-68386432D01*
X130368498Y-68595203D01*
X130683095Y-68818971D01*
X130986233Y-69057231D01*
X131277406Y-69309477D01*
X131556108Y-69575204D01*
X131821836Y-69853907D01*
X132074082Y-70145080D01*
X132312342Y-70448217D01*
X132536110Y-70762815D01*
X132744881Y-71088366D01*
X132938149Y-71424365D01*
X133115410Y-71770309D01*
X133276157Y-72125689D01*
X133419885Y-72490003D01*
X133546090Y-72862743D01*
X133654265Y-73243406D01*
X133743905Y-73631484D01*
X133814505Y-74026474D01*
X133865559Y-74427869D01*
X133896562Y-74835164D01*
X133907009Y-75247854D01*
X133907008Y-75247854D01*
X133907007Y-75247853D01*
X133907006Y-75247853D01*
X133907006Y-75247852D01*
X133907005Y-75247852D01*
X133907005Y-75247850D01*
X133892405Y-75735514D01*
X133849164Y-76215499D01*
X133778118Y-76686966D01*
X133680104Y-77149080D01*
X133555959Y-77601003D01*
X133406520Y-78041899D01*
X133232623Y-78470931D01*
X133035106Y-78887262D01*
X132814805Y-79290055D01*
X132572557Y-79678473D01*
X132309199Y-80051680D01*
X132025568Y-80408838D01*
X131722501Y-80749112D01*
X131400833Y-81071663D01*
X131061403Y-81375656D01*
X130705047Y-81660253D01*
X130986947Y-82088394D01*
X131256807Y-82524951D01*
X131514391Y-82969689D01*
X131664089Y-83246202D01*
X131759462Y-83422369D01*
X131991784Y-83882756D01*
X132211119Y-84350613D01*
X132417230Y-84825702D01*
X132609881Y-85307787D01*
X132788836Y-85796631D01*
X132953856Y-86291998D01*
X133104706Y-86793650D01*
X133241148Y-87301350D01*
X133362946Y-87814863D01*
X133469863Y-88333950D01*
X133561662Y-88858376D01*
X133638107Y-89387903D01*
X134178761Y-88663025D01*
X134690546Y-87916113D01*
X135172634Y-87147997D01*
X135624193Y-86359506D01*
X136044395Y-85551469D01*
X136432411Y-84724717D01*
X136787410Y-83880078D01*
X137108562Y-83018383D01*
X137395039Y-82140461D01*
X137646011Y-81247141D01*
X137860648Y-80339254D01*
X138038120Y-79417627D01*
X138177598Y-78483092D01*
X138278252Y-77536478D01*
X138339253Y-76578614D01*
X138359771Y-75610330D01*
X138330512Y-74454472D01*
X138243679Y-73313724D01*
X138100687Y-72189501D01*
X137902952Y-71083218D01*
X137651889Y-69996292D01*
X137348914Y-68930137D01*
X136995442Y-67886169D01*
X136592888Y-66865804D01*
X136142669Y-65870456D01*
X135646200Y-64901542D01*
X135104895Y-63960477D01*
X134520172Y-63048677D01*
X133893444Y-62167557D01*
X133226129Y-61318531D01*
X132519640Y-60503017D01*
X131775394Y-59722430D01*
X130994806Y-58978184D01*
X130179292Y-58271695D01*
X129330267Y-57604380D01*
X128449146Y-56977653D01*
X127537345Y-56392929D01*
X126596281Y-55851625D01*
X125627367Y-55355156D01*
X124632019Y-54904937D01*
X123611654Y-54502384D01*
X122567687Y-54148912D01*
X121501532Y-53845937D01*
X120414606Y-53594874D01*
X119308324Y-53397139D01*
X118184101Y-53254147D01*
X117043353Y-53167314D01*
X115887496Y-53138055D01*
X114731639Y-53167314D01*
X113590892Y-53254147D01*
X112466669Y-53397139D01*
X111360387Y-53594874D01*
X110273461Y-53845937D01*
X109207306Y-54148912D01*
X108163339Y-54502384D01*
X107142973Y-54904937D01*
X106147626Y-55355156D01*
X105178712Y-55851625D01*
X104237647Y-56392929D01*
X103325847Y-56977653D01*
X102444726Y-57604380D01*
X101595701Y-58271695D01*
X100780187Y-58978184D01*
X99999599Y-59722430D01*
X99255353Y-60503017D01*
X98548864Y-61318531D01*
X97881548Y-62167557D01*
X97254821Y-63048677D01*
X96670097Y-63960477D01*
X96128793Y-64901542D01*
X95632324Y-65870456D01*
X95182105Y-66865804D01*
X94779551Y-67886169D01*
X94426079Y-68930137D01*
X94123104Y-69996292D01*
X93872041Y-71083218D01*
X93674306Y-72189501D01*
X93531314Y-73313724D01*
X93444481Y-74454472D01*
X93415222Y-75610330D01*
X88877959Y-75610330D01*
X88877967Y-59532167D01*
X115887489Y-43938213D01*
X142897048Y-59532178D01*
X142897043Y-75610330D01*
X142897037Y-90720125D01*
X115887512Y-106314081D01*
G37*
X115887512Y-106314081D02*
X88877952Y-90720117D01*
X88877959Y-75610330D01*
X93415222Y-75610330D01*
X93435740Y-76578614D01*
X93496741Y-77536478D01*
X93597395Y-78483093D01*
X93736874Y-79417629D01*
X93914346Y-80339255D01*
X94128983Y-81247144D01*
X94379955Y-82140464D01*
X94666433Y-83018387D01*
X94987586Y-83880083D01*
X95342585Y-84724722D01*
X95730601Y-85551475D01*
X96150804Y-86359512D01*
X96602365Y-87148004D01*
X97084453Y-87916120D01*
X97596239Y-88663032D01*
X98136894Y-89387910D01*
X98215093Y-88847411D01*
X98309289Y-88312233D01*
X98419228Y-87782627D01*
X98544659Y-87258846D01*
X98685330Y-86741143D01*
X98840989Y-86229767D01*
X99007480Y-85736538D01*
X106600914Y-85736538D01*
X106602599Y-85776111D01*
X106606124Y-85815586D01*
X106611487Y-85854892D01*
X106618691Y-85893960D01*
X106627734Y-85932719D01*
X106638616Y-85971100D01*
X106651338Y-86009033D01*
X106665899Y-86046448D01*
X106682300Y-86083276D01*
X106700540Y-86119445D01*
X106720619Y-86154888D01*
X106742538Y-86189533D01*
X106766297Y-86223312D01*
X106791895Y-86256153D01*
X106819332Y-86287988D01*
X106848609Y-86318746D01*
X106879368Y-86348023D01*
X106911202Y-86375460D01*
X106944044Y-86401058D01*
X106977822Y-86424817D01*
X107012467Y-86446736D01*
X107047910Y-86466815D01*
X107084079Y-86485055D01*
X107120907Y-86501456D01*
X107158322Y-86516017D01*
X107196255Y-86528739D01*
X107234636Y-86539621D01*
X107273395Y-86548663D01*
X107312462Y-86555866D01*
X107351768Y-86561230D01*
X107391243Y-86564754D01*
X107430817Y-86566439D01*
X107470420Y-86566284D01*
X107509982Y-86564290D01*
X107549434Y-86560456D01*
X107588705Y-86554783D01*
X107627726Y-86547270D01*
X107666426Y-86537918D01*
X107704737Y-86526726D01*
X107742589Y-86513695D01*
X107779910Y-86498825D01*
X107816633Y-86482115D01*
X107852686Y-86463565D01*
X107888000Y-86443176D01*
X107922505Y-86420947D01*
X107956131Y-86396879D01*
X107988809Y-86370972D01*
X108020469Y-86343225D01*
X108020530Y-86343289D01*
X108020592Y-86343354D01*
X108020719Y-86343484D01*
X108020849Y-86343614D01*
X108020980Y-86343744D01*
X108045974Y-86318746D01*
X109921142Y-84443578D01*
X111821319Y-86343744D01*
X111821572Y-86343484D01*
X111821700Y-86343354D01*
X111821830Y-86343225D01*
X111853488Y-86370972D01*
X111886165Y-86396879D01*
X111919791Y-86420947D01*
X111954295Y-86443176D01*
X111989608Y-86463565D01*
X112025660Y-86482115D01*
X112062382Y-86498825D01*
X112099703Y-86513695D01*
X112137554Y-86526726D01*
X112175864Y-86537918D01*
X112214565Y-86547270D01*
X112253586Y-86554783D01*
X112292856Y-86560456D01*
X112332308Y-86564290D01*
X112371870Y-86566284D01*
X112411473Y-86566439D01*
X112451047Y-86564754D01*
X112490521Y-86561230D01*
X112529828Y-86555866D01*
X112568895Y-86548663D01*
X112607655Y-86539621D01*
X112646036Y-86528739D01*
X112683969Y-86516017D01*
X112721384Y-86501456D01*
X112758212Y-86485055D01*
X112794382Y-86466815D01*
X112829824Y-86446736D01*
X112864470Y-86424817D01*
X112898248Y-86401058D01*
X112931089Y-86375460D01*
X112962924Y-86348023D01*
X112993682Y-86318746D01*
X113022960Y-86287988D01*
X113050398Y-86256153D01*
X113075996Y-86223312D01*
X113099756Y-86189533D01*
X113121675Y-86154888D01*
X113141755Y-86119445D01*
X113159995Y-86083276D01*
X113176396Y-86046448D01*
X113190958Y-86009033D01*
X113203679Y-85971100D01*
X113214562Y-85932719D01*
X113223605Y-85893960D01*
X113230808Y-85854892D01*
X113236172Y-85815586D01*
X113239696Y-85776111D01*
X113241381Y-85736538D01*
X113241226Y-85696935D01*
X113239232Y-85657373D01*
X113235399Y-85617922D01*
X113229726Y-85578651D01*
X113222213Y-85539630D01*
X113212861Y-85500930D01*
X113201670Y-85462619D01*
X113188639Y-85424768D01*
X113173769Y-85387447D01*
X113157059Y-85350725D01*
X113138510Y-85314673D01*
X113118121Y-85279360D01*
X113095893Y-85244855D01*
X113071826Y-85211230D01*
X113045919Y-85178552D01*
X113018173Y-85146894D01*
X113018676Y-85146375D01*
X111118514Y-83246209D01*
X111118521Y-83246202D01*
X117508636Y-83246202D01*
X117509683Y-83288654D01*
X117512793Y-83330566D01*
X117517915Y-83371889D01*
X117525000Y-83412574D01*
X117533998Y-83452572D01*
X117544862Y-83491832D01*
X117557540Y-83530306D01*
X117571984Y-83567944D01*
X117588144Y-83604697D01*
X117605971Y-83640515D01*
X117625416Y-83675350D01*
X117646428Y-83709151D01*
X117668960Y-83741870D01*
X117692961Y-83773456D01*
X117718381Y-83803861D01*
X117745173Y-83833036D01*
X117773286Y-83860930D01*
X117802670Y-83887495D01*
X117833277Y-83912680D01*
X117865057Y-83936438D01*
X117897961Y-83958717D01*
X117931939Y-83979470D01*
X117966942Y-83998646D01*
X118002921Y-84016196D01*
X118039826Y-84032072D01*
X118077608Y-84046222D01*
X118116217Y-84058599D01*
X118155604Y-84069152D01*
X118195720Y-84077833D01*
X118236515Y-84084592D01*
X118277940Y-84089379D01*
X118319946Y-84092145D01*
X118319946Y-84092870D01*
X121007194Y-84092870D01*
X121007194Y-86780111D01*
X121007919Y-86780111D01*
X121010685Y-86822117D01*
X121015472Y-86863543D01*
X121022231Y-86904338D01*
X121030912Y-86944455D01*
X121041465Y-86983842D01*
X121053842Y-87022452D01*
X121067993Y-87060234D01*
X121083868Y-87097139D01*
X121101418Y-87133118D01*
X121120595Y-87168121D01*
X121141347Y-87202099D01*
X121163627Y-87235003D01*
X121187384Y-87266783D01*
X121212570Y-87297389D01*
X121239134Y-87326774D01*
X121267028Y-87354886D01*
X121296202Y-87381678D01*
X121326607Y-87407098D01*
X121358193Y-87431099D01*
X121390912Y-87453630D01*
X121424713Y-87474642D01*
X121459547Y-87494087D01*
X121495364Y-87511914D01*
X121532117Y-87528074D01*
X121569754Y-87542517D01*
X121608227Y-87555195D01*
X121647487Y-87566058D01*
X121687483Y-87575057D01*
X121728167Y-87582142D01*
X121769489Y-87587264D01*
X121811400Y-87590373D01*
X121853851Y-87591420D01*
X121896303Y-87590373D01*
X121938215Y-87587264D01*
X121979538Y-87582142D01*
X122020223Y-87575057D01*
X122060221Y-87566058D01*
X122099481Y-87555195D01*
X122137955Y-87542517D01*
X122175594Y-87528074D01*
X122212347Y-87511914D01*
X122248165Y-87494087D01*
X122283000Y-87474642D01*
X122316801Y-87453630D01*
X122349520Y-87431099D01*
X122381107Y-87407098D01*
X122411512Y-87381678D01*
X122440687Y-87354886D01*
X122468581Y-87326774D01*
X122495146Y-87297389D01*
X122520332Y-87266783D01*
X122544089Y-87235003D01*
X122566369Y-87202099D01*
X122587122Y-87168121D01*
X122606298Y-87133118D01*
X122623849Y-87097139D01*
X122639724Y-87060234D01*
X122653875Y-87022452D01*
X122666251Y-86983842D01*
X122676805Y-86944455D01*
X122685486Y-86904338D01*
X122692244Y-86863543D01*
X122697032Y-86822117D01*
X122699798Y-86780111D01*
X122700515Y-86780111D01*
X122700515Y-84092870D01*
X125387763Y-84092870D01*
X125387763Y-84092145D01*
X125429769Y-84089379D01*
X125471194Y-84084592D01*
X125511989Y-84077833D01*
X125552105Y-84069152D01*
X125591492Y-84058599D01*
X125630102Y-84046222D01*
X125667883Y-84032072D01*
X125704788Y-84016196D01*
X125740767Y-83998646D01*
X125775770Y-83979470D01*
X125809748Y-83958717D01*
X125842652Y-83936438D01*
X125874432Y-83912680D01*
X125905039Y-83887495D01*
X125934424Y-83860930D01*
X125962536Y-83833036D01*
X125989328Y-83803861D01*
X126014749Y-83773456D01*
X126038749Y-83741870D01*
X126061281Y-83709151D01*
X126082294Y-83675350D01*
X126101738Y-83640515D01*
X126119565Y-83604697D01*
X126135725Y-83567944D01*
X126150169Y-83530306D01*
X126162847Y-83491832D01*
X126173711Y-83452572D01*
X126182710Y-83412574D01*
X126189795Y-83371889D01*
X126194916Y-83330566D01*
X126198026Y-83288654D01*
X126199073Y-83246202D01*
X126198026Y-83203751D01*
X126194917Y-83161839D01*
X126189795Y-83120516D01*
X126182710Y-83079832D01*
X126173711Y-83039835D01*
X126162848Y-83000575D01*
X126150170Y-82962102D01*
X126135726Y-82924464D01*
X126119566Y-82887711D01*
X126101740Y-82851893D01*
X126082295Y-82817059D01*
X126061283Y-82783258D01*
X126038752Y-82750540D01*
X126014751Y-82718954D01*
X125989330Y-82688549D01*
X125962539Y-82659375D01*
X125934427Y-82631481D01*
X125905042Y-82604916D01*
X125874435Y-82579731D01*
X125842655Y-82555973D01*
X125809752Y-82533694D01*
X125775773Y-82512941D01*
X125740770Y-82493765D01*
X125704791Y-82476215D01*
X125667886Y-82460340D01*
X125630105Y-82446189D01*
X125591495Y-82433812D01*
X125552108Y-82423259D01*
X125511991Y-82414578D01*
X125471195Y-82407820D01*
X125429770Y-82403032D01*
X125387763Y-82400266D01*
X125387763Y-82399541D01*
X122700515Y-82399541D01*
X122700515Y-79712293D01*
X122699798Y-79712293D01*
X122697032Y-79670287D01*
X122692244Y-79628862D01*
X122685486Y-79588067D01*
X122676805Y-79547951D01*
X122666251Y-79508564D01*
X122653875Y-79469954D01*
X122639724Y-79432173D01*
X122623849Y-79395268D01*
X122606298Y-79359289D01*
X122587122Y-79324285D01*
X122566369Y-79290307D01*
X122544089Y-79257403D01*
X122520332Y-79225623D01*
X122495146Y-79195016D01*
X122468581Y-79165631D01*
X122440687Y-79137518D01*
X122411512Y-79110727D01*
X122381107Y-79085306D01*
X122349520Y-79061305D01*
X122316801Y-79038773D01*
X122283000Y-79017760D01*
X122248165Y-78998315D01*
X122212347Y-78980488D01*
X122175594Y-78964328D01*
X122137955Y-78949884D01*
X122099481Y-78937205D01*
X122060221Y-78926342D01*
X122020223Y-78917343D01*
X121979538Y-78910258D01*
X121938215Y-78905136D01*
X121896303Y-78902027D01*
X121853851Y-78900979D01*
X121811400Y-78902027D01*
X121769489Y-78905136D01*
X121728167Y-78910258D01*
X121687483Y-78917343D01*
X121647486Y-78926342D01*
X121608227Y-78937205D01*
X121569753Y-78949884D01*
X121532116Y-78964328D01*
X121495363Y-78980488D01*
X121459545Y-78998315D01*
X121424710Y-79017760D01*
X121390909Y-79038773D01*
X121358191Y-79061305D01*
X121326604Y-79085306D01*
X121296199Y-79110727D01*
X121267024Y-79137518D01*
X121239130Y-79165631D01*
X121212565Y-79195016D01*
X121187379Y-79225623D01*
X121163622Y-79257403D01*
X121141342Y-79290307D01*
X121120589Y-79324285D01*
X121101412Y-79359289D01*
X121083862Y-79395268D01*
X121067986Y-79432173D01*
X121053835Y-79469954D01*
X121041458Y-79508564D01*
X121030904Y-79547951D01*
X121022224Y-79588067D01*
X121015465Y-79628862D01*
X121010678Y-79670287D01*
X121007911Y-79712293D01*
X121007194Y-79712293D01*
X121007194Y-82399549D01*
X118354255Y-82399549D01*
X118319946Y-82399541D01*
X118319946Y-82400258D01*
X118277940Y-82403025D01*
X118236515Y-82407812D01*
X118195720Y-82414571D01*
X118155604Y-82423251D01*
X118116217Y-82433805D01*
X118077608Y-82446181D01*
X118039826Y-82460332D01*
X118002921Y-82476207D01*
X117966942Y-82493758D01*
X117931939Y-82512934D01*
X117897961Y-82533686D01*
X117865057Y-82555966D01*
X117833277Y-82579723D01*
X117802670Y-82604909D01*
X117773286Y-82631474D01*
X117745173Y-82659368D01*
X117718381Y-82688542D01*
X117692961Y-82718947D01*
X117668960Y-82750534D01*
X117646428Y-82783252D01*
X117625416Y-82817054D01*
X117605971Y-82851888D01*
X117588144Y-82887707D01*
X117571984Y-82924460D01*
X117557540Y-82962098D01*
X117544862Y-83000572D01*
X117533998Y-83039832D01*
X117525000Y-83079829D01*
X117517915Y-83120515D01*
X117512793Y-83161838D01*
X117509683Y-83203750D01*
X117508636Y-83246202D01*
X111118521Y-83246202D01*
X112993682Y-81371034D01*
X113018684Y-81346036D01*
X113018173Y-81345525D01*
X113045919Y-81313866D01*
X113071826Y-81281188D01*
X113095893Y-81247562D01*
X113118121Y-81213057D01*
X113138510Y-81177743D01*
X113157059Y-81141691D01*
X113173769Y-81104969D01*
X113188639Y-81067647D01*
X113201670Y-81029796D01*
X113212861Y-80991486D01*
X113222213Y-80952785D01*
X113229726Y-80913764D01*
X113235399Y-80874493D01*
X113239232Y-80835042D01*
X113241226Y-80795480D01*
X113241381Y-80755877D01*
X113239696Y-80716304D01*
X113236172Y-80676829D01*
X113230808Y-80637523D01*
X113223605Y-80598455D01*
X113214562Y-80559696D01*
X113203679Y-80521315D01*
X113190958Y-80483382D01*
X113176396Y-80445966D01*
X113159995Y-80409139D01*
X113141755Y-80372969D01*
X113121675Y-80337526D01*
X113099756Y-80302880D01*
X113075996Y-80269101D01*
X113050398Y-80236260D01*
X113022960Y-80204424D01*
X112993682Y-80173665D01*
X112962924Y-80144388D01*
X112931089Y-80116951D01*
X112898248Y-80091353D01*
X112864470Y-80067594D01*
X112829824Y-80045675D01*
X112794382Y-80025596D01*
X112758212Y-80007355D01*
X112721384Y-79990955D01*
X112683969Y-79976394D01*
X112646036Y-79963672D01*
X112607655Y-79952790D01*
X112568895Y-79943747D01*
X112529828Y-79936543D01*
X112490521Y-79931180D01*
X112451047Y-79927655D01*
X112411473Y-79925970D01*
X112371870Y-79926125D01*
X112332308Y-79928119D01*
X112292856Y-79931953D01*
X112253586Y-79937626D01*
X112214565Y-79945138D01*
X112175864Y-79954490D01*
X112137554Y-79965682D01*
X112099703Y-79978713D01*
X112062382Y-79993583D01*
X112025660Y-80010293D01*
X111989608Y-80028843D01*
X111954295Y-80049232D01*
X111919791Y-80071460D01*
X111886165Y-80095528D01*
X111853488Y-80121436D01*
X111821830Y-80149183D01*
X111821319Y-80148668D01*
X111796310Y-80173665D01*
X109921142Y-82048841D01*
X108045967Y-80173673D01*
X108045603Y-80173303D01*
X108045420Y-80173118D01*
X108045234Y-80172933D01*
X108020988Y-80148668D01*
X108020920Y-80148731D01*
X108020853Y-80148795D01*
X108020723Y-80148925D01*
X108020469Y-80149183D01*
X107988809Y-80121436D01*
X107956132Y-80095529D01*
X107922505Y-80071462D01*
X107888000Y-80049234D01*
X107852686Y-80028845D01*
X107816633Y-80010296D01*
X107779911Y-79993586D01*
X107742590Y-79978716D01*
X107704739Y-79965685D01*
X107666428Y-79954494D01*
X107627727Y-79945142D01*
X107588707Y-79937629D01*
X107549436Y-79931956D01*
X107509984Y-79928123D01*
X107470423Y-79926129D01*
X107430820Y-79925974D01*
X107391246Y-79927659D01*
X107351772Y-79931183D01*
X107312466Y-79936547D01*
X107273398Y-79943751D01*
X107234639Y-79952794D01*
X107196258Y-79963676D01*
X107158325Y-79976398D01*
X107120910Y-79990959D01*
X107084082Y-80007360D01*
X107047912Y-80025600D01*
X107012470Y-80045680D01*
X106977824Y-80067600D01*
X106944045Y-80091359D01*
X106911204Y-80116957D01*
X106879368Y-80144395D01*
X106848609Y-80173673D01*
X106819332Y-80204431D01*
X106791895Y-80236266D01*
X106766297Y-80269107D01*
X106742538Y-80302886D01*
X106720619Y-80337531D01*
X106700540Y-80372973D01*
X106682300Y-80409143D01*
X106665899Y-80445971D01*
X106651338Y-80483386D01*
X106638616Y-80521319D01*
X106627734Y-80559700D01*
X106618691Y-80598459D01*
X106611487Y-80637526D01*
X106606124Y-80676833D01*
X106602599Y-80716307D01*
X106600914Y-80755881D01*
X106601069Y-80795484D01*
X106603063Y-80835046D01*
X106606897Y-80874497D01*
X106612570Y-80913768D01*
X106620082Y-80952789D01*
X106629434Y-80991489D01*
X106640626Y-81029800D01*
X106653657Y-81067651D01*
X106668527Y-81104972D01*
X106685237Y-81141693D01*
X106703787Y-81177746D01*
X106724176Y-81213059D01*
X106746404Y-81247564D01*
X106770472Y-81281189D01*
X106796380Y-81313866D01*
X106824127Y-81345525D01*
X106823996Y-81345653D01*
X106823738Y-81345911D01*
X106823608Y-81346044D01*
X106848609Y-81371042D01*
X108723785Y-83246209D01*
X106848609Y-85121377D01*
X106823608Y-85146375D01*
X106824127Y-85146894D01*
X106796380Y-85178552D01*
X106770472Y-85211230D01*
X106746404Y-85244855D01*
X106724176Y-85279360D01*
X106703787Y-85314673D01*
X106685237Y-85350725D01*
X106668527Y-85387447D01*
X106653657Y-85424768D01*
X106640626Y-85462619D01*
X106629434Y-85500930D01*
X106620082Y-85539630D01*
X106612570Y-85578651D01*
X106606897Y-85617922D01*
X106603063Y-85657373D01*
X106601069Y-85696935D01*
X106600914Y-85736538D01*
X99007480Y-85736538D01*
X99011384Y-85724973D01*
X99196264Y-85227011D01*
X99395375Y-84736134D01*
X99608468Y-84252593D01*
X99835288Y-83776640D01*
X100075586Y-83308528D01*
X100329108Y-82848508D01*
X100595603Y-82396832D01*
X100874819Y-81953753D01*
X101166503Y-81519521D01*
X100812790Y-81234834D01*
X100475910Y-80930973D01*
X100156689Y-80608762D01*
X99855954Y-80269029D01*
X99574531Y-79912600D01*
X99313245Y-79540299D01*
X99072923Y-79152954D01*
X98854391Y-78751391D01*
X98658476Y-78336435D01*
X98486002Y-77908912D01*
X98337796Y-77469649D01*
X98214684Y-77019472D01*
X98117493Y-76559206D01*
X98047047Y-76089678D01*
X98004174Y-75611713D01*
X97989700Y-75126138D01*
X98000146Y-74713448D01*
X98031150Y-74306153D01*
X98082204Y-73904758D01*
X98152804Y-73509769D01*
X98242444Y-73121690D01*
X98350619Y-72741028D01*
X98476823Y-72368287D01*
X98620551Y-72003974D01*
X98781299Y-71648593D01*
X98958559Y-71302650D01*
X99151827Y-70966650D01*
X99360598Y-70641099D01*
X99584366Y-70326502D01*
X99822626Y-70023364D01*
X100074872Y-69732191D01*
X100340599Y-69453489D01*
X100619302Y-69187762D01*
X100910475Y-68935515D01*
X101213613Y-68697256D01*
X101528210Y-68473488D01*
X101853761Y-68264717D01*
X102189760Y-68071449D01*
X102535703Y-67894188D01*
X102891084Y-67733441D01*
X103255397Y-67589713D01*
X103628137Y-67463508D01*
X104008799Y-67355333D01*
X104396877Y-67265694D01*
X104791866Y-67195094D01*
X105193260Y-67144040D01*
X105600555Y-67113037D01*
X106013244Y-67102590D01*
X106387474Y-67111177D01*
X106757312Y-67136685D01*
X107122381Y-67178741D01*
X107482306Y-67236966D01*
X107836711Y-67310985D01*
X108185219Y-67400421D01*
X108527454Y-67504899D01*
X108863041Y-67624043D01*
X109191602Y-67757475D01*
X109512761Y-67904821D01*
X109826143Y-68065703D01*
X110131371Y-68239745D01*
X110428070Y-68426573D01*
X110715862Y-68625808D01*
X110994372Y-68837075D01*
X111263223Y-69059998D01*
X111522040Y-69294201D01*
X111770446Y-69539307D01*
X112008065Y-69794941D01*
X112234521Y-70060726D01*
X112449437Y-70336285D01*
X112652438Y-70621244D01*
X112843147Y-70915225D01*
X113021189Y-71217852D01*
X113186186Y-71528750D01*
X113337763Y-71847542D01*
X113475544Y-72173851D01*
X113599152Y-72507302D01*
X113708212Y-72847519D01*
X113802346Y-73194125D01*
X113881179Y-73546744D01*
X113944335Y-73905000D01*
X114184164Y-73880699D01*
X114424910Y-73859570D01*
X114666555Y-73841634D01*
X114909075Y-73826911D01*
X115152451Y-73815423D01*
X115396660Y-73807191D01*
X115641683Y-73802237D01*
X115887496Y-73800580D01*
X115887504Y-73800580D01*
X116151111Y-73802485D01*
X116413806Y-73808182D01*
X116675561Y-73817645D01*
X116936351Y-73830848D01*
X117196150Y-73847764D01*
X117454931Y-73868368D01*
X117712669Y-73892633D01*
X117969337Y-73920533D01*
X118036457Y-73567160D01*
X118118861Y-73219426D01*
X118216183Y-72877697D01*
X118328058Y-72542338D01*
X118454120Y-72213716D01*
X118594003Y-71892197D01*
X118747341Y-71578146D01*
X118913768Y-71271929D01*
X119092918Y-70973913D01*
X119284426Y-70684463D01*
X119487925Y-70403944D01*
X119703050Y-70132723D01*
X119929434Y-69871166D01*
X120166712Y-69619639D01*
X120414519Y-69378507D01*
X120672487Y-69148136D01*
X120940251Y-68928893D01*
X121217446Y-68721143D01*
X121503705Y-68525251D01*
X121798663Y-68341585D01*
X122101953Y-68170509D01*
X122413210Y-68012390D01*
X122732068Y-67867593D01*
X123058161Y-67736485D01*
X123391123Y-67619431D01*
X123730589Y-67516797D01*
X124076192Y-67428949D01*
X124427566Y-67356253D01*
X124784346Y-67299075D01*
X125146165Y-67257780D01*
X125512659Y-67232735D01*
X125883460Y-67224305D01*
X126296150Y-67234752D01*
X126703445Y-67265755D01*
X127104840Y-67316809D01*
X127499829Y-67387409D01*
X127887907Y-67477049D01*
X128268569Y-67585224D01*
X128641310Y-67711428D01*
X129005623Y-67855157D01*
X129361004Y-68015904D01*
X129706947Y-68193164D01*
X130042947Y-68386432D01*
X130368498Y-68595203D01*
X130683095Y-68818971D01*
X130986233Y-69057231D01*
X131277406Y-69309477D01*
X131556108Y-69575204D01*
X131821836Y-69853907D01*
X132074082Y-70145080D01*
X132312342Y-70448217D01*
X132536110Y-70762815D01*
X132744881Y-71088366D01*
X132938149Y-71424365D01*
X133115410Y-71770309D01*
X133276157Y-72125689D01*
X133419885Y-72490003D01*
X133546090Y-72862743D01*
X133654265Y-73243406D01*
X133743905Y-73631484D01*
X133814505Y-74026474D01*
X133865559Y-74427869D01*
X133896562Y-74835164D01*
X133907009Y-75247854D01*
X133907008Y-75247854D01*
X133907007Y-75247853D01*
X133907006Y-75247853D01*
X133907006Y-75247852D01*
X133907005Y-75247852D01*
X133907005Y-75247850D01*
X133892405Y-75735514D01*
X133849164Y-76215499D01*
X133778118Y-76686966D01*
X133680104Y-77149080D01*
X133555959Y-77601003D01*
X133406520Y-78041899D01*
X133232623Y-78470931D01*
X133035106Y-78887262D01*
X132814805Y-79290055D01*
X132572557Y-79678473D01*
X132309199Y-80051680D01*
X132025568Y-80408838D01*
X131722501Y-80749112D01*
X131400833Y-81071663D01*
X131061403Y-81375656D01*
X130705047Y-81660253D01*
X130986947Y-82088394D01*
X131256807Y-82524951D01*
X131514391Y-82969689D01*
X131664089Y-83246202D01*
X131759462Y-83422369D01*
X131991784Y-83882756D01*
X132211119Y-84350613D01*
X132417230Y-84825702D01*
X132609881Y-85307787D01*
X132788836Y-85796631D01*
X132953856Y-86291998D01*
X133104706Y-86793650D01*
X133241148Y-87301350D01*
X133362946Y-87814863D01*
X133469863Y-88333950D01*
X133561662Y-88858376D01*
X133638107Y-89387903D01*
X134178761Y-88663025D01*
X134690546Y-87916113D01*
X135172634Y-87147997D01*
X135624193Y-86359506D01*
X136044395Y-85551469D01*
X136432411Y-84724717D01*
X136787410Y-83880078D01*
X137108562Y-83018383D01*
X137395039Y-82140461D01*
X137646011Y-81247141D01*
X137860648Y-80339254D01*
X138038120Y-79417627D01*
X138177598Y-78483092D01*
X138278252Y-77536478D01*
X138339253Y-76578614D01*
X138359771Y-75610330D01*
X138330512Y-74454472D01*
X138243679Y-73313724D01*
X138100687Y-72189501D01*
X137902952Y-71083218D01*
X137651889Y-69996292D01*
X137348914Y-68930137D01*
X136995442Y-67886169D01*
X136592888Y-66865804D01*
X136142669Y-65870456D01*
X135646200Y-64901542D01*
X135104895Y-63960477D01*
X134520172Y-63048677D01*
X133893444Y-62167557D01*
X133226129Y-61318531D01*
X132519640Y-60503017D01*
X131775394Y-59722430D01*
X130994806Y-58978184D01*
X130179292Y-58271695D01*
X129330267Y-57604380D01*
X128449146Y-56977653D01*
X127537345Y-56392929D01*
X126596281Y-55851625D01*
X125627367Y-55355156D01*
X124632019Y-54904937D01*
X123611654Y-54502384D01*
X122567687Y-54148912D01*
X121501532Y-53845937D01*
X120414606Y-53594874D01*
X119308324Y-53397139D01*
X118184101Y-53254147D01*
X117043353Y-53167314D01*
X115887496Y-53138055D01*
X114731639Y-53167314D01*
X113590892Y-53254147D01*
X112466669Y-53397139D01*
X111360387Y-53594874D01*
X110273461Y-53845937D01*
X109207306Y-54148912D01*
X108163339Y-54502384D01*
X107142973Y-54904937D01*
X106147626Y-55355156D01*
X105178712Y-55851625D01*
X104237647Y-56392929D01*
X103325847Y-56977653D01*
X102444726Y-57604380D01*
X101595701Y-58271695D01*
X100780187Y-58978184D01*
X99999599Y-59722430D01*
X99255353Y-60503017D01*
X98548864Y-61318531D01*
X97881548Y-62167557D01*
X97254821Y-63048677D01*
X96670097Y-63960477D01*
X96128793Y-64901542D01*
X95632324Y-65870456D01*
X95182105Y-66865804D01*
X94779551Y-67886169D01*
X94426079Y-68930137D01*
X94123104Y-69996292D01*
X93872041Y-71083218D01*
X93674306Y-72189501D01*
X93531314Y-73313724D01*
X93444481Y-74454472D01*
X93415222Y-75610330D01*
X88877959Y-75610330D01*
X88877967Y-59532167D01*
X115887489Y-43938213D01*
X142897048Y-59532178D01*
X142897043Y-75610330D01*
X142897037Y-90720125D01*
X115887512Y-106314081D01*
D13*
%TO.C,U1*%
X115395993Y-19007666D02*
X115395993Y-19727333D01*
X115353660Y-19812000D01*
X115311326Y-19854333D01*
X115226660Y-19896666D01*
X115057326Y-19896666D01*
X114972660Y-19854333D01*
X114930326Y-19812000D01*
X114887993Y-19727333D01*
X114887993Y-19007666D01*
X113998993Y-19896666D02*
X114506993Y-19896666D01*
X114252993Y-19896666D02*
X114252993Y-19007666D01*
X114337660Y-19134666D01*
X114422326Y-19219333D01*
X114506993Y-19261666D01*
D14*
X118385331Y-30726742D02*
X118298245Y-30755771D01*
X118153102Y-30755771D01*
X118095045Y-30726742D01*
X118066017Y-30697714D01*
X118036988Y-30639657D01*
X118036988Y-30581600D01*
X118066017Y-30523542D01*
X118095045Y-30494514D01*
X118153102Y-30465485D01*
X118269217Y-30436457D01*
X118327274Y-30407428D01*
X118356302Y-30378400D01*
X118385331Y-30320342D01*
X118385331Y-30262285D01*
X118356302Y-30204228D01*
X118327274Y-30175200D01*
X118269217Y-30146171D01*
X118124074Y-30146171D01*
X118036988Y-30175200D01*
X117543502Y-30726742D02*
X117601560Y-30755771D01*
X117717674Y-30755771D01*
X117775731Y-30726742D01*
X117804760Y-30668685D01*
X117804760Y-30436457D01*
X117775731Y-30378400D01*
X117717674Y-30349371D01*
X117601560Y-30349371D01*
X117543502Y-30378400D01*
X117514474Y-30436457D01*
X117514474Y-30494514D01*
X117804760Y-30552571D01*
X117020988Y-30726742D02*
X117079045Y-30755771D01*
X117195160Y-30755771D01*
X117253217Y-30726742D01*
X117282245Y-30668685D01*
X117282245Y-30436457D01*
X117253217Y-30378400D01*
X117195160Y-30349371D01*
X117079045Y-30349371D01*
X117020988Y-30378400D01*
X116991960Y-30436457D01*
X116991960Y-30494514D01*
X117282245Y-30552571D01*
X116498474Y-30726742D02*
X116556531Y-30755771D01*
X116672645Y-30755771D01*
X116730702Y-30726742D01*
X116759731Y-30668685D01*
X116759731Y-30436457D01*
X116730702Y-30378400D01*
X116672645Y-30349371D01*
X116556531Y-30349371D01*
X116498474Y-30378400D01*
X116469445Y-30436457D01*
X116469445Y-30494514D01*
X116759731Y-30552571D01*
X115946931Y-30755771D02*
X115946931Y-30146171D01*
X115946931Y-30726742D02*
X116004988Y-30755771D01*
X116121102Y-30755771D01*
X116179160Y-30726742D01*
X116208188Y-30697714D01*
X116237217Y-30639657D01*
X116237217Y-30465485D01*
X116208188Y-30407428D01*
X116179160Y-30378400D01*
X116121102Y-30349371D01*
X116004988Y-30349371D01*
X115946931Y-30378400D01*
X115395388Y-30349371D02*
X115395388Y-30755771D01*
X115656645Y-30349371D02*
X115656645Y-30668685D01*
X115627617Y-30726742D01*
X115569560Y-30755771D01*
X115482474Y-30755771D01*
X115424417Y-30726742D01*
X115395388Y-30697714D01*
X115105102Y-30755771D02*
X115105102Y-30349371D01*
X115105102Y-30146171D02*
X115134131Y-30175200D01*
X115105102Y-30204228D01*
X115076074Y-30175200D01*
X115105102Y-30146171D01*
X115105102Y-30204228D01*
X114814817Y-30349371D02*
X114814817Y-30755771D01*
X114814817Y-30407428D02*
X114785788Y-30378400D01*
X114727731Y-30349371D01*
X114640645Y-30349371D01*
X114582588Y-30378400D01*
X114553560Y-30436457D01*
X114553560Y-30755771D01*
X114176188Y-30755771D02*
X114234245Y-30726742D01*
X114263274Y-30697714D01*
X114292302Y-30639657D01*
X114292302Y-30465485D01*
X114263274Y-30407428D01*
X114234245Y-30378400D01*
X114176188Y-30349371D01*
X114089102Y-30349371D01*
X114031045Y-30378400D01*
X114002017Y-30407428D01*
X113972988Y-30465485D01*
X113972988Y-30639657D01*
X114002017Y-30697714D01*
X114031045Y-30726742D01*
X114089102Y-30755771D01*
X114176188Y-30755771D01*
X113769788Y-30146171D02*
X113363388Y-30755771D01*
X113363388Y-30146171D02*
X113769788Y-30755771D01*
X113131160Y-30755771D02*
X113131160Y-30146171D01*
X112869902Y-30581600D02*
X112579617Y-30581600D01*
X112927960Y-30755771D02*
X112724760Y-30146171D01*
X112521560Y-30755771D01*
X112202245Y-30146171D02*
X112086131Y-30146171D01*
X112028074Y-30175200D01*
X111970017Y-30233257D01*
X111940988Y-30349371D01*
X111940988Y-30552571D01*
X111970017Y-30668685D01*
X112028074Y-30726742D01*
X112086131Y-30755771D01*
X112202245Y-30755771D01*
X112260302Y-30726742D01*
X112318360Y-30668685D01*
X112347388Y-30552571D01*
X112347388Y-30349371D01*
X112318360Y-30233257D01*
X112260302Y-30175200D01*
X112202245Y-30146171D01*
D15*
%TO.C,SW20*%
X78803273Y-101037261D02*
X78660416Y-101084880D01*
X78422321Y-101084880D01*
X78327083Y-101037261D01*
X78279464Y-100989642D01*
X78231845Y-100894404D01*
X78231845Y-100799166D01*
X78279464Y-100703928D01*
X78327083Y-100656309D01*
X78422321Y-100608690D01*
X78612797Y-100561071D01*
X78708035Y-100513452D01*
X78755654Y-100465833D01*
X78803273Y-100370595D01*
X78803273Y-100275357D01*
X78755654Y-100180119D01*
X78708035Y-100132500D01*
X78612797Y-100084880D01*
X78374702Y-100084880D01*
X78231845Y-100132500D01*
X77898511Y-100084880D02*
X77660416Y-101084880D01*
X77469940Y-100370595D01*
X77279464Y-101084880D01*
X77041369Y-100084880D01*
X76708035Y-100180119D02*
X76660416Y-100132500D01*
X76565178Y-100084880D01*
X76327083Y-100084880D01*
X76231845Y-100132500D01*
X76184226Y-100180119D01*
X76136607Y-100275357D01*
X76136607Y-100370595D01*
X76184226Y-100513452D01*
X76755654Y-101084880D01*
X76136607Y-101084880D01*
X75517559Y-100084880D02*
X75422321Y-100084880D01*
X75327083Y-100132500D01*
X75279464Y-100180119D01*
X75231845Y-100275357D01*
X75184226Y-100465833D01*
X75184226Y-100703928D01*
X75231845Y-100894404D01*
X75279464Y-100989642D01*
X75327083Y-101037261D01*
X75422321Y-101084880D01*
X75517559Y-101084880D01*
X75612797Y-101037261D01*
X75660416Y-100989642D01*
X75708035Y-100894404D01*
X75755654Y-100703928D01*
X75755654Y-100465833D01*
X75708035Y-100275357D01*
X75660416Y-100180119D01*
X75612797Y-100132500D01*
X75517559Y-100084880D01*
%TO.C,SW19*%
X97853273Y-101037261D02*
X97710416Y-101084880D01*
X97472321Y-101084880D01*
X97377083Y-101037261D01*
X97329464Y-100989642D01*
X97281845Y-100894404D01*
X97281845Y-100799166D01*
X97329464Y-100703928D01*
X97377083Y-100656309D01*
X97472321Y-100608690D01*
X97662797Y-100561071D01*
X97758035Y-100513452D01*
X97805654Y-100465833D01*
X97853273Y-100370595D01*
X97853273Y-100275357D01*
X97805654Y-100180119D01*
X97758035Y-100132500D01*
X97662797Y-100084880D01*
X97424702Y-100084880D01*
X97281845Y-100132500D01*
X96948511Y-100084880D02*
X96710416Y-101084880D01*
X96519940Y-100370595D01*
X96329464Y-101084880D01*
X96091369Y-100084880D01*
X95186607Y-101084880D02*
X95758035Y-101084880D01*
X95472321Y-101084880D02*
X95472321Y-100084880D01*
X95567559Y-100227738D01*
X95662797Y-100322976D01*
X95758035Y-100370595D01*
X94710416Y-101084880D02*
X94519940Y-101084880D01*
X94424702Y-101037261D01*
X94377083Y-100989642D01*
X94281845Y-100846785D01*
X94234226Y-100656309D01*
X94234226Y-100275357D01*
X94281845Y-100180119D01*
X94329464Y-100132500D01*
X94424702Y-100084880D01*
X94615178Y-100084880D01*
X94710416Y-100132500D01*
X94758035Y-100180119D01*
X94805654Y-100275357D01*
X94805654Y-100513452D01*
X94758035Y-100608690D01*
X94710416Y-100656309D01*
X94615178Y-100703928D01*
X94424702Y-100703928D01*
X94329464Y-100656309D01*
X94281845Y-100608690D01*
X94234226Y-100513452D01*
%TO.C,SW18*%
X116903273Y-101037261D02*
X116760416Y-101084880D01*
X116522321Y-101084880D01*
X116427083Y-101037261D01*
X116379464Y-100989642D01*
X116331845Y-100894404D01*
X116331845Y-100799166D01*
X116379464Y-100703928D01*
X116427083Y-100656309D01*
X116522321Y-100608690D01*
X116712797Y-100561071D01*
X116808035Y-100513452D01*
X116855654Y-100465833D01*
X116903273Y-100370595D01*
X116903273Y-100275357D01*
X116855654Y-100180119D01*
X116808035Y-100132500D01*
X116712797Y-100084880D01*
X116474702Y-100084880D01*
X116331845Y-100132500D01*
X115998511Y-100084880D02*
X115760416Y-101084880D01*
X115569940Y-100370595D01*
X115379464Y-101084880D01*
X115141369Y-100084880D01*
X114236607Y-101084880D02*
X114808035Y-101084880D01*
X114522321Y-101084880D02*
X114522321Y-100084880D01*
X114617559Y-100227738D01*
X114712797Y-100322976D01*
X114808035Y-100370595D01*
X113665178Y-100513452D02*
X113760416Y-100465833D01*
X113808035Y-100418214D01*
X113855654Y-100322976D01*
X113855654Y-100275357D01*
X113808035Y-100180119D01*
X113760416Y-100132500D01*
X113665178Y-100084880D01*
X113474702Y-100084880D01*
X113379464Y-100132500D01*
X113331845Y-100180119D01*
X113284226Y-100275357D01*
X113284226Y-100322976D01*
X113331845Y-100418214D01*
X113379464Y-100465833D01*
X113474702Y-100513452D01*
X113665178Y-100513452D01*
X113760416Y-100561071D01*
X113808035Y-100608690D01*
X113855654Y-100703928D01*
X113855654Y-100894404D01*
X113808035Y-100989642D01*
X113760416Y-101037261D01*
X113665178Y-101084880D01*
X113474702Y-101084880D01*
X113379464Y-101037261D01*
X113331845Y-100989642D01*
X113284226Y-100894404D01*
X113284226Y-100703928D01*
X113331845Y-100608690D01*
X113379464Y-100561071D01*
X113474702Y-100513452D01*
%TO.C,SW17*%
X135953273Y-101037261D02*
X135810416Y-101084880D01*
X135572321Y-101084880D01*
X135477083Y-101037261D01*
X135429464Y-100989642D01*
X135381845Y-100894404D01*
X135381845Y-100799166D01*
X135429464Y-100703928D01*
X135477083Y-100656309D01*
X135572321Y-100608690D01*
X135762797Y-100561071D01*
X135858035Y-100513452D01*
X135905654Y-100465833D01*
X135953273Y-100370595D01*
X135953273Y-100275357D01*
X135905654Y-100180119D01*
X135858035Y-100132500D01*
X135762797Y-100084880D01*
X135524702Y-100084880D01*
X135381845Y-100132500D01*
X135048511Y-100084880D02*
X134810416Y-101084880D01*
X134619940Y-100370595D01*
X134429464Y-101084880D01*
X134191369Y-100084880D01*
X133286607Y-101084880D02*
X133858035Y-101084880D01*
X133572321Y-101084880D02*
X133572321Y-100084880D01*
X133667559Y-100227738D01*
X133762797Y-100322976D01*
X133858035Y-100370595D01*
X132953273Y-100084880D02*
X132286607Y-100084880D01*
X132715178Y-101084880D01*
%TO.C,SW16*%
X155003273Y-101037261D02*
X154860416Y-101084880D01*
X154622321Y-101084880D01*
X154527083Y-101037261D01*
X154479464Y-100989642D01*
X154431845Y-100894404D01*
X154431845Y-100799166D01*
X154479464Y-100703928D01*
X154527083Y-100656309D01*
X154622321Y-100608690D01*
X154812797Y-100561071D01*
X154908035Y-100513452D01*
X154955654Y-100465833D01*
X155003273Y-100370595D01*
X155003273Y-100275357D01*
X154955654Y-100180119D01*
X154908035Y-100132500D01*
X154812797Y-100084880D01*
X154574702Y-100084880D01*
X154431845Y-100132500D01*
X154098511Y-100084880D02*
X153860416Y-101084880D01*
X153669940Y-100370595D01*
X153479464Y-101084880D01*
X153241369Y-100084880D01*
X152336607Y-101084880D02*
X152908035Y-101084880D01*
X152622321Y-101084880D02*
X152622321Y-100084880D01*
X152717559Y-100227738D01*
X152812797Y-100322976D01*
X152908035Y-100370595D01*
X151479464Y-100084880D02*
X151669940Y-100084880D01*
X151765178Y-100132500D01*
X151812797Y-100180119D01*
X151908035Y-100322976D01*
X151955654Y-100513452D01*
X151955654Y-100894404D01*
X151908035Y-100989642D01*
X151860416Y-101037261D01*
X151765178Y-101084880D01*
X151574702Y-101084880D01*
X151479464Y-101037261D01*
X151431845Y-100989642D01*
X151384226Y-100894404D01*
X151384226Y-100656309D01*
X151431845Y-100561071D01*
X151479464Y-100513452D01*
X151574702Y-100465833D01*
X151765178Y-100465833D01*
X151860416Y-100513452D01*
X151908035Y-100561071D01*
X151955654Y-100656309D01*
%TO.C,SW15*%
X78803273Y-81987261D02*
X78660416Y-82034880D01*
X78422321Y-82034880D01*
X78327083Y-81987261D01*
X78279464Y-81939642D01*
X78231845Y-81844404D01*
X78231845Y-81749166D01*
X78279464Y-81653928D01*
X78327083Y-81606309D01*
X78422321Y-81558690D01*
X78612797Y-81511071D01*
X78708035Y-81463452D01*
X78755654Y-81415833D01*
X78803273Y-81320595D01*
X78803273Y-81225357D01*
X78755654Y-81130119D01*
X78708035Y-81082500D01*
X78612797Y-81034880D01*
X78374702Y-81034880D01*
X78231845Y-81082500D01*
X77898511Y-81034880D02*
X77660416Y-82034880D01*
X77469940Y-81320595D01*
X77279464Y-82034880D01*
X77041369Y-81034880D01*
X76136607Y-82034880D02*
X76708035Y-82034880D01*
X76422321Y-82034880D02*
X76422321Y-81034880D01*
X76517559Y-81177738D01*
X76612797Y-81272976D01*
X76708035Y-81320595D01*
X75231845Y-81034880D02*
X75708035Y-81034880D01*
X75755654Y-81511071D01*
X75708035Y-81463452D01*
X75612797Y-81415833D01*
X75374702Y-81415833D01*
X75279464Y-81463452D01*
X75231845Y-81511071D01*
X75184226Y-81606309D01*
X75184226Y-81844404D01*
X75231845Y-81939642D01*
X75279464Y-81987261D01*
X75374702Y-82034880D01*
X75612797Y-82034880D01*
X75708035Y-81987261D01*
X75755654Y-81939642D01*
%TO.C,SW14*%
X97853273Y-81987261D02*
X97710416Y-82034880D01*
X97472321Y-82034880D01*
X97377083Y-81987261D01*
X97329464Y-81939642D01*
X97281845Y-81844404D01*
X97281845Y-81749166D01*
X97329464Y-81653928D01*
X97377083Y-81606309D01*
X97472321Y-81558690D01*
X97662797Y-81511071D01*
X97758035Y-81463452D01*
X97805654Y-81415833D01*
X97853273Y-81320595D01*
X97853273Y-81225357D01*
X97805654Y-81130119D01*
X97758035Y-81082500D01*
X97662797Y-81034880D01*
X97424702Y-81034880D01*
X97281845Y-81082500D01*
X96948511Y-81034880D02*
X96710416Y-82034880D01*
X96519940Y-81320595D01*
X96329464Y-82034880D01*
X96091369Y-81034880D01*
X95186607Y-82034880D02*
X95758035Y-82034880D01*
X95472321Y-82034880D02*
X95472321Y-81034880D01*
X95567559Y-81177738D01*
X95662797Y-81272976D01*
X95758035Y-81320595D01*
X94329464Y-81368214D02*
X94329464Y-82034880D01*
X94567559Y-80987261D02*
X94805654Y-81701547D01*
X94186607Y-81701547D01*
%TO.C,SW13*%
X116903273Y-81987261D02*
X116760416Y-82034880D01*
X116522321Y-82034880D01*
X116427083Y-81987261D01*
X116379464Y-81939642D01*
X116331845Y-81844404D01*
X116331845Y-81749166D01*
X116379464Y-81653928D01*
X116427083Y-81606309D01*
X116522321Y-81558690D01*
X116712797Y-81511071D01*
X116808035Y-81463452D01*
X116855654Y-81415833D01*
X116903273Y-81320595D01*
X116903273Y-81225357D01*
X116855654Y-81130119D01*
X116808035Y-81082500D01*
X116712797Y-81034880D01*
X116474702Y-81034880D01*
X116331845Y-81082500D01*
X115998511Y-81034880D02*
X115760416Y-82034880D01*
X115569940Y-81320595D01*
X115379464Y-82034880D01*
X115141369Y-81034880D01*
X114236607Y-82034880D02*
X114808035Y-82034880D01*
X114522321Y-82034880D02*
X114522321Y-81034880D01*
X114617559Y-81177738D01*
X114712797Y-81272976D01*
X114808035Y-81320595D01*
X113903273Y-81034880D02*
X113284226Y-81034880D01*
X113617559Y-81415833D01*
X113474702Y-81415833D01*
X113379464Y-81463452D01*
X113331845Y-81511071D01*
X113284226Y-81606309D01*
X113284226Y-81844404D01*
X113331845Y-81939642D01*
X113379464Y-81987261D01*
X113474702Y-82034880D01*
X113760416Y-82034880D01*
X113855654Y-81987261D01*
X113903273Y-81939642D01*
%TO.C,SW12*%
X135953273Y-81987261D02*
X135810416Y-82034880D01*
X135572321Y-82034880D01*
X135477083Y-81987261D01*
X135429464Y-81939642D01*
X135381845Y-81844404D01*
X135381845Y-81749166D01*
X135429464Y-81653928D01*
X135477083Y-81606309D01*
X135572321Y-81558690D01*
X135762797Y-81511071D01*
X135858035Y-81463452D01*
X135905654Y-81415833D01*
X135953273Y-81320595D01*
X135953273Y-81225357D01*
X135905654Y-81130119D01*
X135858035Y-81082500D01*
X135762797Y-81034880D01*
X135524702Y-81034880D01*
X135381845Y-81082500D01*
X135048511Y-81034880D02*
X134810416Y-82034880D01*
X134619940Y-81320595D01*
X134429464Y-82034880D01*
X134191369Y-81034880D01*
X133286607Y-82034880D02*
X133858035Y-82034880D01*
X133572321Y-82034880D02*
X133572321Y-81034880D01*
X133667559Y-81177738D01*
X133762797Y-81272976D01*
X133858035Y-81320595D01*
X132905654Y-81130119D02*
X132858035Y-81082500D01*
X132762797Y-81034880D01*
X132524702Y-81034880D01*
X132429464Y-81082500D01*
X132381845Y-81130119D01*
X132334226Y-81225357D01*
X132334226Y-81320595D01*
X132381845Y-81463452D01*
X132953273Y-82034880D01*
X132334226Y-82034880D01*
%TO.C,SW11*%
X155003273Y-81987261D02*
X154860416Y-82034880D01*
X154622321Y-82034880D01*
X154527083Y-81987261D01*
X154479464Y-81939642D01*
X154431845Y-81844404D01*
X154431845Y-81749166D01*
X154479464Y-81653928D01*
X154527083Y-81606309D01*
X154622321Y-81558690D01*
X154812797Y-81511071D01*
X154908035Y-81463452D01*
X154955654Y-81415833D01*
X155003273Y-81320595D01*
X155003273Y-81225357D01*
X154955654Y-81130119D01*
X154908035Y-81082500D01*
X154812797Y-81034880D01*
X154574702Y-81034880D01*
X154431845Y-81082500D01*
X154098511Y-81034880D02*
X153860416Y-82034880D01*
X153669940Y-81320595D01*
X153479464Y-82034880D01*
X153241369Y-81034880D01*
X152336607Y-82034880D02*
X152908035Y-82034880D01*
X152622321Y-82034880D02*
X152622321Y-81034880D01*
X152717559Y-81177738D01*
X152812797Y-81272976D01*
X152908035Y-81320595D01*
X151384226Y-82034880D02*
X151955654Y-82034880D01*
X151669940Y-82034880D02*
X151669940Y-81034880D01*
X151765178Y-81177738D01*
X151860416Y-81272976D01*
X151955654Y-81320595D01*
%TO.C,SW10*%
X78803273Y-62937261D02*
X78660416Y-62984880D01*
X78422321Y-62984880D01*
X78327083Y-62937261D01*
X78279464Y-62889642D01*
X78231845Y-62794404D01*
X78231845Y-62699166D01*
X78279464Y-62603928D01*
X78327083Y-62556309D01*
X78422321Y-62508690D01*
X78612797Y-62461071D01*
X78708035Y-62413452D01*
X78755654Y-62365833D01*
X78803273Y-62270595D01*
X78803273Y-62175357D01*
X78755654Y-62080119D01*
X78708035Y-62032500D01*
X78612797Y-61984880D01*
X78374702Y-61984880D01*
X78231845Y-62032500D01*
X77898511Y-61984880D02*
X77660416Y-62984880D01*
X77469940Y-62270595D01*
X77279464Y-62984880D01*
X77041369Y-61984880D01*
X76136607Y-62984880D02*
X76708035Y-62984880D01*
X76422321Y-62984880D02*
X76422321Y-61984880D01*
X76517559Y-62127738D01*
X76612797Y-62222976D01*
X76708035Y-62270595D01*
X75517559Y-61984880D02*
X75422321Y-61984880D01*
X75327083Y-62032500D01*
X75279464Y-62080119D01*
X75231845Y-62175357D01*
X75184226Y-62365833D01*
X75184226Y-62603928D01*
X75231845Y-62794404D01*
X75279464Y-62889642D01*
X75327083Y-62937261D01*
X75422321Y-62984880D01*
X75517559Y-62984880D01*
X75612797Y-62937261D01*
X75660416Y-62889642D01*
X75708035Y-62794404D01*
X75755654Y-62603928D01*
X75755654Y-62365833D01*
X75708035Y-62175357D01*
X75660416Y-62080119D01*
X75612797Y-62032500D01*
X75517559Y-61984880D01*
%TO.C,SW9*%
X97377083Y-62937261D02*
X97234226Y-62984880D01*
X96996130Y-62984880D01*
X96900892Y-62937261D01*
X96853273Y-62889642D01*
X96805654Y-62794404D01*
X96805654Y-62699166D01*
X96853273Y-62603928D01*
X96900892Y-62556309D01*
X96996130Y-62508690D01*
X97186607Y-62461071D01*
X97281845Y-62413452D01*
X97329464Y-62365833D01*
X97377083Y-62270595D01*
X97377083Y-62175357D01*
X97329464Y-62080119D01*
X97281845Y-62032500D01*
X97186607Y-61984880D01*
X96948511Y-61984880D01*
X96805654Y-62032500D01*
X96472321Y-61984880D02*
X96234226Y-62984880D01*
X96043750Y-62270595D01*
X95853273Y-62984880D01*
X95615178Y-61984880D01*
X95186607Y-62984880D02*
X94996130Y-62984880D01*
X94900892Y-62937261D01*
X94853273Y-62889642D01*
X94758035Y-62746785D01*
X94710416Y-62556309D01*
X94710416Y-62175357D01*
X94758035Y-62080119D01*
X94805654Y-62032500D01*
X94900892Y-61984880D01*
X95091369Y-61984880D01*
X95186607Y-62032500D01*
X95234226Y-62080119D01*
X95281845Y-62175357D01*
X95281845Y-62413452D01*
X95234226Y-62508690D01*
X95186607Y-62556309D01*
X95091369Y-62603928D01*
X94900892Y-62603928D01*
X94805654Y-62556309D01*
X94758035Y-62508690D01*
X94710416Y-62413452D01*
%TO.C,SW8*%
X116427083Y-62937261D02*
X116284226Y-62984880D01*
X116046130Y-62984880D01*
X115950892Y-62937261D01*
X115903273Y-62889642D01*
X115855654Y-62794404D01*
X115855654Y-62699166D01*
X115903273Y-62603928D01*
X115950892Y-62556309D01*
X116046130Y-62508690D01*
X116236607Y-62461071D01*
X116331845Y-62413452D01*
X116379464Y-62365833D01*
X116427083Y-62270595D01*
X116427083Y-62175357D01*
X116379464Y-62080119D01*
X116331845Y-62032500D01*
X116236607Y-61984880D01*
X115998511Y-61984880D01*
X115855654Y-62032500D01*
X115522321Y-61984880D02*
X115284226Y-62984880D01*
X115093750Y-62270595D01*
X114903273Y-62984880D01*
X114665178Y-61984880D01*
X114141369Y-62413452D02*
X114236607Y-62365833D01*
X114284226Y-62318214D01*
X114331845Y-62222976D01*
X114331845Y-62175357D01*
X114284226Y-62080119D01*
X114236607Y-62032500D01*
X114141369Y-61984880D01*
X113950892Y-61984880D01*
X113855654Y-62032500D01*
X113808035Y-62080119D01*
X113760416Y-62175357D01*
X113760416Y-62222976D01*
X113808035Y-62318214D01*
X113855654Y-62365833D01*
X113950892Y-62413452D01*
X114141369Y-62413452D01*
X114236607Y-62461071D01*
X114284226Y-62508690D01*
X114331845Y-62603928D01*
X114331845Y-62794404D01*
X114284226Y-62889642D01*
X114236607Y-62937261D01*
X114141369Y-62984880D01*
X113950892Y-62984880D01*
X113855654Y-62937261D01*
X113808035Y-62889642D01*
X113760416Y-62794404D01*
X113760416Y-62603928D01*
X113808035Y-62508690D01*
X113855654Y-62461071D01*
X113950892Y-62413452D01*
%TO.C,SW7*%
X135477083Y-62937261D02*
X135334226Y-62984880D01*
X135096130Y-62984880D01*
X135000892Y-62937261D01*
X134953273Y-62889642D01*
X134905654Y-62794404D01*
X134905654Y-62699166D01*
X134953273Y-62603928D01*
X135000892Y-62556309D01*
X135096130Y-62508690D01*
X135286607Y-62461071D01*
X135381845Y-62413452D01*
X135429464Y-62365833D01*
X135477083Y-62270595D01*
X135477083Y-62175357D01*
X135429464Y-62080119D01*
X135381845Y-62032500D01*
X135286607Y-61984880D01*
X135048511Y-61984880D01*
X134905654Y-62032500D01*
X134572321Y-61984880D02*
X134334226Y-62984880D01*
X134143750Y-62270595D01*
X133953273Y-62984880D01*
X133715178Y-61984880D01*
X133429464Y-61984880D02*
X132762797Y-61984880D01*
X133191369Y-62984880D01*
%TO.C,SW6*%
X154527083Y-62937261D02*
X154384226Y-62984880D01*
X154146130Y-62984880D01*
X154050892Y-62937261D01*
X154003273Y-62889642D01*
X153955654Y-62794404D01*
X153955654Y-62699166D01*
X154003273Y-62603928D01*
X154050892Y-62556309D01*
X154146130Y-62508690D01*
X154336607Y-62461071D01*
X154431845Y-62413452D01*
X154479464Y-62365833D01*
X154527083Y-62270595D01*
X154527083Y-62175357D01*
X154479464Y-62080119D01*
X154431845Y-62032500D01*
X154336607Y-61984880D01*
X154098511Y-61984880D01*
X153955654Y-62032500D01*
X153622321Y-61984880D02*
X153384226Y-62984880D01*
X153193750Y-62270595D01*
X153003273Y-62984880D01*
X152765178Y-61984880D01*
X151955654Y-61984880D02*
X152146130Y-61984880D01*
X152241369Y-62032500D01*
X152288988Y-62080119D01*
X152384226Y-62222976D01*
X152431845Y-62413452D01*
X152431845Y-62794404D01*
X152384226Y-62889642D01*
X152336607Y-62937261D01*
X152241369Y-62984880D01*
X152050892Y-62984880D01*
X151955654Y-62937261D01*
X151908035Y-62889642D01*
X151860416Y-62794404D01*
X151860416Y-62556309D01*
X151908035Y-62461071D01*
X151955654Y-62413452D01*
X152050892Y-62365833D01*
X152241369Y-62365833D01*
X152336607Y-62413452D01*
X152384226Y-62461071D01*
X152431845Y-62556309D01*
%TO.C,SW5*%
X78327083Y-43887261D02*
X78184226Y-43934880D01*
X77946130Y-43934880D01*
X77850892Y-43887261D01*
X77803273Y-43839642D01*
X77755654Y-43744404D01*
X77755654Y-43649166D01*
X77803273Y-43553928D01*
X77850892Y-43506309D01*
X77946130Y-43458690D01*
X78136607Y-43411071D01*
X78231845Y-43363452D01*
X78279464Y-43315833D01*
X78327083Y-43220595D01*
X78327083Y-43125357D01*
X78279464Y-43030119D01*
X78231845Y-42982500D01*
X78136607Y-42934880D01*
X77898511Y-42934880D01*
X77755654Y-42982500D01*
X77422321Y-42934880D02*
X77184226Y-43934880D01*
X76993750Y-43220595D01*
X76803273Y-43934880D01*
X76565178Y-42934880D01*
X75708035Y-42934880D02*
X76184226Y-42934880D01*
X76231845Y-43411071D01*
X76184226Y-43363452D01*
X76088988Y-43315833D01*
X75850892Y-43315833D01*
X75755654Y-43363452D01*
X75708035Y-43411071D01*
X75660416Y-43506309D01*
X75660416Y-43744404D01*
X75708035Y-43839642D01*
X75755654Y-43887261D01*
X75850892Y-43934880D01*
X76088988Y-43934880D01*
X76184226Y-43887261D01*
X76231845Y-43839642D01*
%TO.C,SW4*%
X97377083Y-43887261D02*
X97234226Y-43934880D01*
X96996130Y-43934880D01*
X96900892Y-43887261D01*
X96853273Y-43839642D01*
X96805654Y-43744404D01*
X96805654Y-43649166D01*
X96853273Y-43553928D01*
X96900892Y-43506309D01*
X96996130Y-43458690D01*
X97186607Y-43411071D01*
X97281845Y-43363452D01*
X97329464Y-43315833D01*
X97377083Y-43220595D01*
X97377083Y-43125357D01*
X97329464Y-43030119D01*
X97281845Y-42982500D01*
X97186607Y-42934880D01*
X96948511Y-42934880D01*
X96805654Y-42982500D01*
X96472321Y-42934880D02*
X96234226Y-43934880D01*
X96043750Y-43220595D01*
X95853273Y-43934880D01*
X95615178Y-42934880D01*
X94805654Y-43268214D02*
X94805654Y-43934880D01*
X95043750Y-42887261D02*
X95281845Y-43601547D01*
X94662797Y-43601547D01*
%TO.C,SW3*%
X116427083Y-43887261D02*
X116284226Y-43934880D01*
X116046130Y-43934880D01*
X115950892Y-43887261D01*
X115903273Y-43839642D01*
X115855654Y-43744404D01*
X115855654Y-43649166D01*
X115903273Y-43553928D01*
X115950892Y-43506309D01*
X116046130Y-43458690D01*
X116236607Y-43411071D01*
X116331845Y-43363452D01*
X116379464Y-43315833D01*
X116427083Y-43220595D01*
X116427083Y-43125357D01*
X116379464Y-43030119D01*
X116331845Y-42982500D01*
X116236607Y-42934880D01*
X115998511Y-42934880D01*
X115855654Y-42982500D01*
X115522321Y-42934880D02*
X115284226Y-43934880D01*
X115093750Y-43220595D01*
X114903273Y-43934880D01*
X114665178Y-42934880D01*
X114379464Y-42934880D02*
X113760416Y-42934880D01*
X114093750Y-43315833D01*
X113950892Y-43315833D01*
X113855654Y-43363452D01*
X113808035Y-43411071D01*
X113760416Y-43506309D01*
X113760416Y-43744404D01*
X113808035Y-43839642D01*
X113855654Y-43887261D01*
X113950892Y-43934880D01*
X114236607Y-43934880D01*
X114331845Y-43887261D01*
X114379464Y-43839642D01*
%TO.C,SW2*%
X135477083Y-43887261D02*
X135334226Y-43934880D01*
X135096130Y-43934880D01*
X135000892Y-43887261D01*
X134953273Y-43839642D01*
X134905654Y-43744404D01*
X134905654Y-43649166D01*
X134953273Y-43553928D01*
X135000892Y-43506309D01*
X135096130Y-43458690D01*
X135286607Y-43411071D01*
X135381845Y-43363452D01*
X135429464Y-43315833D01*
X135477083Y-43220595D01*
X135477083Y-43125357D01*
X135429464Y-43030119D01*
X135381845Y-42982500D01*
X135286607Y-42934880D01*
X135048511Y-42934880D01*
X134905654Y-42982500D01*
X134572321Y-42934880D02*
X134334226Y-43934880D01*
X134143750Y-43220595D01*
X133953273Y-43934880D01*
X133715178Y-42934880D01*
X133381845Y-43030119D02*
X133334226Y-42982500D01*
X133238988Y-42934880D01*
X133000892Y-42934880D01*
X132905654Y-42982500D01*
X132858035Y-43030119D01*
X132810416Y-43125357D01*
X132810416Y-43220595D01*
X132858035Y-43363452D01*
X133429464Y-43934880D01*
X132810416Y-43934880D01*
%TO.C,SW1*%
X154527083Y-43887261D02*
X154384226Y-43934880D01*
X154146130Y-43934880D01*
X154050892Y-43887261D01*
X154003273Y-43839642D01*
X153955654Y-43744404D01*
X153955654Y-43649166D01*
X154003273Y-43553928D01*
X154050892Y-43506309D01*
X154146130Y-43458690D01*
X154336607Y-43411071D01*
X154431845Y-43363452D01*
X154479464Y-43315833D01*
X154527083Y-43220595D01*
X154527083Y-43125357D01*
X154479464Y-43030119D01*
X154431845Y-42982500D01*
X154336607Y-42934880D01*
X154098511Y-42934880D01*
X153955654Y-42982500D01*
X153622321Y-42934880D02*
X153384226Y-43934880D01*
X153193750Y-43220595D01*
X153003273Y-43934880D01*
X152765178Y-42934880D01*
X151860416Y-43934880D02*
X152431845Y-43934880D01*
X152146130Y-43934880D02*
X152146130Y-42934880D01*
X152241369Y-43077738D01*
X152336607Y-43172976D01*
X152431845Y-43220595D01*
%TO.C,D20*%
X88177380Y-111498214D02*
X87177380Y-111498214D01*
X87177380Y-111736309D01*
X87225000Y-111879166D01*
X87320238Y-111974404D01*
X87415476Y-112022023D01*
X87605952Y-112069642D01*
X87748809Y-112069642D01*
X87939285Y-112022023D01*
X88034523Y-111974404D01*
X88129761Y-111879166D01*
X88177380Y-111736309D01*
X88177380Y-111498214D01*
X87272619Y-112450595D02*
X87225000Y-112498214D01*
X87177380Y-112593452D01*
X87177380Y-112831547D01*
X87225000Y-112926785D01*
X87272619Y-112974404D01*
X87367857Y-113022023D01*
X87463095Y-113022023D01*
X87605952Y-112974404D01*
X88177380Y-112402976D01*
X88177380Y-113022023D01*
X87177380Y-113641071D02*
X87177380Y-113736309D01*
X87225000Y-113831547D01*
X87272619Y-113879166D01*
X87367857Y-113926785D01*
X87558333Y-113974404D01*
X87796428Y-113974404D01*
X87986904Y-113926785D01*
X88082142Y-113879166D01*
X88129761Y-113831547D01*
X88177380Y-113736309D01*
X88177380Y-113641071D01*
X88129761Y-113545833D01*
X88082142Y-113498214D01*
X87986904Y-113450595D01*
X87796428Y-113402976D01*
X87558333Y-113402976D01*
X87367857Y-113450595D01*
X87272619Y-113498214D01*
X87225000Y-113545833D01*
X87177380Y-113641071D01*
%TO.C,D19*%
X107227380Y-111498214D02*
X106227380Y-111498214D01*
X106227380Y-111736309D01*
X106275000Y-111879166D01*
X106370238Y-111974404D01*
X106465476Y-112022023D01*
X106655952Y-112069642D01*
X106798809Y-112069642D01*
X106989285Y-112022023D01*
X107084523Y-111974404D01*
X107179761Y-111879166D01*
X107227380Y-111736309D01*
X107227380Y-111498214D01*
X107227380Y-113022023D02*
X107227380Y-112450595D01*
X107227380Y-112736309D02*
X106227380Y-112736309D01*
X106370238Y-112641071D01*
X106465476Y-112545833D01*
X106513095Y-112450595D01*
X107227380Y-113498214D02*
X107227380Y-113688690D01*
X107179761Y-113783928D01*
X107132142Y-113831547D01*
X106989285Y-113926785D01*
X106798809Y-113974404D01*
X106417857Y-113974404D01*
X106322619Y-113926785D01*
X106275000Y-113879166D01*
X106227380Y-113783928D01*
X106227380Y-113593452D01*
X106275000Y-113498214D01*
X106322619Y-113450595D01*
X106417857Y-113402976D01*
X106655952Y-113402976D01*
X106751190Y-113450595D01*
X106798809Y-113498214D01*
X106846428Y-113593452D01*
X106846428Y-113783928D01*
X106798809Y-113879166D01*
X106751190Y-113926785D01*
X106655952Y-113974404D01*
%TO.C,D18*%
X126277380Y-111498214D02*
X125277380Y-111498214D01*
X125277380Y-111736309D01*
X125325000Y-111879166D01*
X125420238Y-111974404D01*
X125515476Y-112022023D01*
X125705952Y-112069642D01*
X125848809Y-112069642D01*
X126039285Y-112022023D01*
X126134523Y-111974404D01*
X126229761Y-111879166D01*
X126277380Y-111736309D01*
X126277380Y-111498214D01*
X126277380Y-113022023D02*
X126277380Y-112450595D01*
X126277380Y-112736309D02*
X125277380Y-112736309D01*
X125420238Y-112641071D01*
X125515476Y-112545833D01*
X125563095Y-112450595D01*
X125705952Y-113593452D02*
X125658333Y-113498214D01*
X125610714Y-113450595D01*
X125515476Y-113402976D01*
X125467857Y-113402976D01*
X125372619Y-113450595D01*
X125325000Y-113498214D01*
X125277380Y-113593452D01*
X125277380Y-113783928D01*
X125325000Y-113879166D01*
X125372619Y-113926785D01*
X125467857Y-113974404D01*
X125515476Y-113974404D01*
X125610714Y-113926785D01*
X125658333Y-113879166D01*
X125705952Y-113783928D01*
X125705952Y-113593452D01*
X125753571Y-113498214D01*
X125801190Y-113450595D01*
X125896428Y-113402976D01*
X126086904Y-113402976D01*
X126182142Y-113450595D01*
X126229761Y-113498214D01*
X126277380Y-113593452D01*
X126277380Y-113783928D01*
X126229761Y-113879166D01*
X126182142Y-113926785D01*
X126086904Y-113974404D01*
X125896428Y-113974404D01*
X125801190Y-113926785D01*
X125753571Y-113879166D01*
X125705952Y-113783928D01*
%TO.C,D17*%
X145327380Y-111498214D02*
X144327380Y-111498214D01*
X144327380Y-111736309D01*
X144375000Y-111879166D01*
X144470238Y-111974404D01*
X144565476Y-112022023D01*
X144755952Y-112069642D01*
X144898809Y-112069642D01*
X145089285Y-112022023D01*
X145184523Y-111974404D01*
X145279761Y-111879166D01*
X145327380Y-111736309D01*
X145327380Y-111498214D01*
X145327380Y-113022023D02*
X145327380Y-112450595D01*
X145327380Y-112736309D02*
X144327380Y-112736309D01*
X144470238Y-112641071D01*
X144565476Y-112545833D01*
X144613095Y-112450595D01*
X144327380Y-113355357D02*
X144327380Y-114022023D01*
X145327380Y-113593452D01*
%TO.C,D16*%
X163583630Y-111498214D02*
X162583630Y-111498214D01*
X162583630Y-111736309D01*
X162631250Y-111879166D01*
X162726488Y-111974404D01*
X162821726Y-112022023D01*
X163012202Y-112069642D01*
X163155059Y-112069642D01*
X163345535Y-112022023D01*
X163440773Y-111974404D01*
X163536011Y-111879166D01*
X163583630Y-111736309D01*
X163583630Y-111498214D01*
X163583630Y-113022023D02*
X163583630Y-112450595D01*
X163583630Y-112736309D02*
X162583630Y-112736309D01*
X162726488Y-112641071D01*
X162821726Y-112545833D01*
X162869345Y-112450595D01*
X162583630Y-113879166D02*
X162583630Y-113688690D01*
X162631250Y-113593452D01*
X162678869Y-113545833D01*
X162821726Y-113450595D01*
X163012202Y-113402976D01*
X163393154Y-113402976D01*
X163488392Y-113450595D01*
X163536011Y-113498214D01*
X163583630Y-113593452D01*
X163583630Y-113783928D01*
X163536011Y-113879166D01*
X163488392Y-113926785D01*
X163393154Y-113974404D01*
X163155059Y-113974404D01*
X163059821Y-113926785D01*
X163012202Y-113879166D01*
X162964583Y-113783928D01*
X162964583Y-113593452D01*
X163012202Y-113498214D01*
X163059821Y-113450595D01*
X163155059Y-113402976D01*
%TO.C,D15*%
X88177380Y-92448214D02*
X87177380Y-92448214D01*
X87177380Y-92686309D01*
X87225000Y-92829166D01*
X87320238Y-92924404D01*
X87415476Y-92972023D01*
X87605952Y-93019642D01*
X87748809Y-93019642D01*
X87939285Y-92972023D01*
X88034523Y-92924404D01*
X88129761Y-92829166D01*
X88177380Y-92686309D01*
X88177380Y-92448214D01*
X88177380Y-93972023D02*
X88177380Y-93400595D01*
X88177380Y-93686309D02*
X87177380Y-93686309D01*
X87320238Y-93591071D01*
X87415476Y-93495833D01*
X87463095Y-93400595D01*
X87177380Y-94876785D02*
X87177380Y-94400595D01*
X87653571Y-94352976D01*
X87605952Y-94400595D01*
X87558333Y-94495833D01*
X87558333Y-94733928D01*
X87605952Y-94829166D01*
X87653571Y-94876785D01*
X87748809Y-94924404D01*
X87986904Y-94924404D01*
X88082142Y-94876785D01*
X88129761Y-94829166D01*
X88177380Y-94733928D01*
X88177380Y-94495833D01*
X88129761Y-94400595D01*
X88082142Y-94352976D01*
%TO.C,D14*%
X107227380Y-92448214D02*
X106227380Y-92448214D01*
X106227380Y-92686309D01*
X106275000Y-92829166D01*
X106370238Y-92924404D01*
X106465476Y-92972023D01*
X106655952Y-93019642D01*
X106798809Y-93019642D01*
X106989285Y-92972023D01*
X107084523Y-92924404D01*
X107179761Y-92829166D01*
X107227380Y-92686309D01*
X107227380Y-92448214D01*
X107227380Y-93972023D02*
X107227380Y-93400595D01*
X107227380Y-93686309D02*
X106227380Y-93686309D01*
X106370238Y-93591071D01*
X106465476Y-93495833D01*
X106513095Y-93400595D01*
X106560714Y-94829166D02*
X107227380Y-94829166D01*
X106179761Y-94591071D02*
X106894047Y-94352976D01*
X106894047Y-94972023D01*
%TO.C,D13*%
X126277380Y-92448214D02*
X125277380Y-92448214D01*
X125277380Y-92686309D01*
X125325000Y-92829166D01*
X125420238Y-92924404D01*
X125515476Y-92972023D01*
X125705952Y-93019642D01*
X125848809Y-93019642D01*
X126039285Y-92972023D01*
X126134523Y-92924404D01*
X126229761Y-92829166D01*
X126277380Y-92686309D01*
X126277380Y-92448214D01*
X126277380Y-93972023D02*
X126277380Y-93400595D01*
X126277380Y-93686309D02*
X125277380Y-93686309D01*
X125420238Y-93591071D01*
X125515476Y-93495833D01*
X125563095Y-93400595D01*
X125277380Y-94305357D02*
X125277380Y-94924404D01*
X125658333Y-94591071D01*
X125658333Y-94733928D01*
X125705952Y-94829166D01*
X125753571Y-94876785D01*
X125848809Y-94924404D01*
X126086904Y-94924404D01*
X126182142Y-94876785D01*
X126229761Y-94829166D01*
X126277380Y-94733928D01*
X126277380Y-94448214D01*
X126229761Y-94352976D01*
X126182142Y-94305357D01*
%TO.C,D12*%
X145327380Y-92448214D02*
X144327380Y-92448214D01*
X144327380Y-92686309D01*
X144375000Y-92829166D01*
X144470238Y-92924404D01*
X144565476Y-92972023D01*
X144755952Y-93019642D01*
X144898809Y-93019642D01*
X145089285Y-92972023D01*
X145184523Y-92924404D01*
X145279761Y-92829166D01*
X145327380Y-92686309D01*
X145327380Y-92448214D01*
X145327380Y-93972023D02*
X145327380Y-93400595D01*
X145327380Y-93686309D02*
X144327380Y-93686309D01*
X144470238Y-93591071D01*
X144565476Y-93495833D01*
X144613095Y-93400595D01*
X144422619Y-94352976D02*
X144375000Y-94400595D01*
X144327380Y-94495833D01*
X144327380Y-94733928D01*
X144375000Y-94829166D01*
X144422619Y-94876785D01*
X144517857Y-94924404D01*
X144613095Y-94924404D01*
X144755952Y-94876785D01*
X145327380Y-94305357D01*
X145327380Y-94924404D01*
%TO.C,D11*%
X163583630Y-92448214D02*
X162583630Y-92448214D01*
X162583630Y-92686309D01*
X162631250Y-92829166D01*
X162726488Y-92924404D01*
X162821726Y-92972023D01*
X163012202Y-93019642D01*
X163155059Y-93019642D01*
X163345535Y-92972023D01*
X163440773Y-92924404D01*
X163536011Y-92829166D01*
X163583630Y-92686309D01*
X163583630Y-92448214D01*
X163583630Y-93972023D02*
X163583630Y-93400595D01*
X163583630Y-93686309D02*
X162583630Y-93686309D01*
X162726488Y-93591071D01*
X162821726Y-93495833D01*
X162869345Y-93400595D01*
X163583630Y-94924404D02*
X163583630Y-94352976D01*
X163583630Y-94638690D02*
X162583630Y-94638690D01*
X162726488Y-94543452D01*
X162821726Y-94448214D01*
X162869345Y-94352976D01*
%TO.C,D10*%
X88177380Y-73398214D02*
X87177380Y-73398214D01*
X87177380Y-73636309D01*
X87225000Y-73779166D01*
X87320238Y-73874404D01*
X87415476Y-73922023D01*
X87605952Y-73969642D01*
X87748809Y-73969642D01*
X87939285Y-73922023D01*
X88034523Y-73874404D01*
X88129761Y-73779166D01*
X88177380Y-73636309D01*
X88177380Y-73398214D01*
X88177380Y-74922023D02*
X88177380Y-74350595D01*
X88177380Y-74636309D02*
X87177380Y-74636309D01*
X87320238Y-74541071D01*
X87415476Y-74445833D01*
X87463095Y-74350595D01*
X87177380Y-75541071D02*
X87177380Y-75636309D01*
X87225000Y-75731547D01*
X87272619Y-75779166D01*
X87367857Y-75826785D01*
X87558333Y-75874404D01*
X87796428Y-75874404D01*
X87986904Y-75826785D01*
X88082142Y-75779166D01*
X88129761Y-75731547D01*
X88177380Y-75636309D01*
X88177380Y-75541071D01*
X88129761Y-75445833D01*
X88082142Y-75398214D01*
X87986904Y-75350595D01*
X87796428Y-75302976D01*
X87558333Y-75302976D01*
X87367857Y-75350595D01*
X87272619Y-75398214D01*
X87225000Y-75445833D01*
X87177380Y-75541071D01*
%TO.C,D9*%
X107227380Y-73874404D02*
X106227380Y-73874404D01*
X106227380Y-74112500D01*
X106275000Y-74255357D01*
X106370238Y-74350595D01*
X106465476Y-74398214D01*
X106655952Y-74445833D01*
X106798809Y-74445833D01*
X106989285Y-74398214D01*
X107084523Y-74350595D01*
X107179761Y-74255357D01*
X107227380Y-74112500D01*
X107227380Y-73874404D01*
X107227380Y-74922023D02*
X107227380Y-75112500D01*
X107179761Y-75207738D01*
X107132142Y-75255357D01*
X106989285Y-75350595D01*
X106798809Y-75398214D01*
X106417857Y-75398214D01*
X106322619Y-75350595D01*
X106275000Y-75302976D01*
X106227380Y-75207738D01*
X106227380Y-75017261D01*
X106275000Y-74922023D01*
X106322619Y-74874404D01*
X106417857Y-74826785D01*
X106655952Y-74826785D01*
X106751190Y-74874404D01*
X106798809Y-74922023D01*
X106846428Y-75017261D01*
X106846428Y-75207738D01*
X106798809Y-75302976D01*
X106751190Y-75350595D01*
X106655952Y-75398214D01*
%TO.C,D8*%
X126277380Y-73874404D02*
X125277380Y-73874404D01*
X125277380Y-74112500D01*
X125325000Y-74255357D01*
X125420238Y-74350595D01*
X125515476Y-74398214D01*
X125705952Y-74445833D01*
X125848809Y-74445833D01*
X126039285Y-74398214D01*
X126134523Y-74350595D01*
X126229761Y-74255357D01*
X126277380Y-74112500D01*
X126277380Y-73874404D01*
X125705952Y-75017261D02*
X125658333Y-74922023D01*
X125610714Y-74874404D01*
X125515476Y-74826785D01*
X125467857Y-74826785D01*
X125372619Y-74874404D01*
X125325000Y-74922023D01*
X125277380Y-75017261D01*
X125277380Y-75207738D01*
X125325000Y-75302976D01*
X125372619Y-75350595D01*
X125467857Y-75398214D01*
X125515476Y-75398214D01*
X125610714Y-75350595D01*
X125658333Y-75302976D01*
X125705952Y-75207738D01*
X125705952Y-75017261D01*
X125753571Y-74922023D01*
X125801190Y-74874404D01*
X125896428Y-74826785D01*
X126086904Y-74826785D01*
X126182142Y-74874404D01*
X126229761Y-74922023D01*
X126277380Y-75017261D01*
X126277380Y-75207738D01*
X126229761Y-75302976D01*
X126182142Y-75350595D01*
X126086904Y-75398214D01*
X125896428Y-75398214D01*
X125801190Y-75350595D01*
X125753571Y-75302976D01*
X125705952Y-75207738D01*
%TO.C,D7*%
X145327380Y-73874404D02*
X144327380Y-73874404D01*
X144327380Y-74112500D01*
X144375000Y-74255357D01*
X144470238Y-74350595D01*
X144565476Y-74398214D01*
X144755952Y-74445833D01*
X144898809Y-74445833D01*
X145089285Y-74398214D01*
X145184523Y-74350595D01*
X145279761Y-74255357D01*
X145327380Y-74112500D01*
X145327380Y-73874404D01*
X144327380Y-74779166D02*
X144327380Y-75445833D01*
X145327380Y-75017261D01*
%TO.C,D6*%
X163583630Y-73874404D02*
X162583630Y-73874404D01*
X162583630Y-74112500D01*
X162631250Y-74255357D01*
X162726488Y-74350595D01*
X162821726Y-74398214D01*
X163012202Y-74445833D01*
X163155059Y-74445833D01*
X163345535Y-74398214D01*
X163440773Y-74350595D01*
X163536011Y-74255357D01*
X163583630Y-74112500D01*
X163583630Y-73874404D01*
X162583630Y-75302976D02*
X162583630Y-75112500D01*
X162631250Y-75017261D01*
X162678869Y-74969642D01*
X162821726Y-74874404D01*
X163012202Y-74826785D01*
X163393154Y-74826785D01*
X163488392Y-74874404D01*
X163536011Y-74922023D01*
X163583630Y-75017261D01*
X163583630Y-75207738D01*
X163536011Y-75302976D01*
X163488392Y-75350595D01*
X163393154Y-75398214D01*
X163155059Y-75398214D01*
X163059821Y-75350595D01*
X163012202Y-75302976D01*
X162964583Y-75207738D01*
X162964583Y-75017261D01*
X163012202Y-74922023D01*
X163059821Y-74874404D01*
X163155059Y-74826785D01*
%TO.C,D5*%
X88177380Y-54824404D02*
X87177380Y-54824404D01*
X87177380Y-55062500D01*
X87225000Y-55205357D01*
X87320238Y-55300595D01*
X87415476Y-55348214D01*
X87605952Y-55395833D01*
X87748809Y-55395833D01*
X87939285Y-55348214D01*
X88034523Y-55300595D01*
X88129761Y-55205357D01*
X88177380Y-55062500D01*
X88177380Y-54824404D01*
X87177380Y-56300595D02*
X87177380Y-55824404D01*
X87653571Y-55776785D01*
X87605952Y-55824404D01*
X87558333Y-55919642D01*
X87558333Y-56157738D01*
X87605952Y-56252976D01*
X87653571Y-56300595D01*
X87748809Y-56348214D01*
X87986904Y-56348214D01*
X88082142Y-56300595D01*
X88129761Y-56252976D01*
X88177380Y-56157738D01*
X88177380Y-55919642D01*
X88129761Y-55824404D01*
X88082142Y-55776785D01*
%TO.C,D4*%
X107227380Y-54824404D02*
X106227380Y-54824404D01*
X106227380Y-55062500D01*
X106275000Y-55205357D01*
X106370238Y-55300595D01*
X106465476Y-55348214D01*
X106655952Y-55395833D01*
X106798809Y-55395833D01*
X106989285Y-55348214D01*
X107084523Y-55300595D01*
X107179761Y-55205357D01*
X107227380Y-55062500D01*
X107227380Y-54824404D01*
X106560714Y-56252976D02*
X107227380Y-56252976D01*
X106179761Y-56014880D02*
X106894047Y-55776785D01*
X106894047Y-56395833D01*
%TO.C,D3*%
X126277380Y-54824404D02*
X125277380Y-54824404D01*
X125277380Y-55062500D01*
X125325000Y-55205357D01*
X125420238Y-55300595D01*
X125515476Y-55348214D01*
X125705952Y-55395833D01*
X125848809Y-55395833D01*
X126039285Y-55348214D01*
X126134523Y-55300595D01*
X126229761Y-55205357D01*
X126277380Y-55062500D01*
X126277380Y-54824404D01*
X125277380Y-55729166D02*
X125277380Y-56348214D01*
X125658333Y-56014880D01*
X125658333Y-56157738D01*
X125705952Y-56252976D01*
X125753571Y-56300595D01*
X125848809Y-56348214D01*
X126086904Y-56348214D01*
X126182142Y-56300595D01*
X126229761Y-56252976D01*
X126277380Y-56157738D01*
X126277380Y-55872023D01*
X126229761Y-55776785D01*
X126182142Y-55729166D01*
%TO.C,D2*%
X145327380Y-54824404D02*
X144327380Y-54824404D01*
X144327380Y-55062500D01*
X144375000Y-55205357D01*
X144470238Y-55300595D01*
X144565476Y-55348214D01*
X144755952Y-55395833D01*
X144898809Y-55395833D01*
X145089285Y-55348214D01*
X145184523Y-55300595D01*
X145279761Y-55205357D01*
X145327380Y-55062500D01*
X145327380Y-54824404D01*
X144422619Y-55776785D02*
X144375000Y-55824404D01*
X144327380Y-55919642D01*
X144327380Y-56157738D01*
X144375000Y-56252976D01*
X144422619Y-56300595D01*
X144517857Y-56348214D01*
X144613095Y-56348214D01*
X144755952Y-56300595D01*
X145327380Y-55729166D01*
X145327380Y-56348214D01*
%TO.C,D1*%
X163583630Y-54824404D02*
X162583630Y-54824404D01*
X162583630Y-55062500D01*
X162631250Y-55205357D01*
X162726488Y-55300595D01*
X162821726Y-55348214D01*
X163012202Y-55395833D01*
X163155059Y-55395833D01*
X163345535Y-55348214D01*
X163440773Y-55300595D01*
X163536011Y-55205357D01*
X163583630Y-55062500D01*
X163583630Y-54824404D01*
X163583630Y-56348214D02*
X163583630Y-55776785D01*
X163583630Y-56062500D02*
X162583630Y-56062500D01*
X162726488Y-55967261D01*
X162821726Y-55872023D01*
X162869345Y-55776785D01*
%TO.C,U1*%
D16*
X125069160Y-23114000D02*
G75*
G03*
X125069160Y-23114000I-127000J0D01*
G01*
D17*
X119658960Y-26205180D02*
X119658960Y-18851880D01*
X110659740Y-26205180D02*
X119658960Y-26205180D01*
X110659740Y-18851880D02*
X110659740Y-26205180D01*
X119653880Y-18851880D02*
X110659740Y-18851880D01*
X124053160Y-20947380D02*
X124053160Y-41275000D01*
X123382600Y-20276820D02*
X124053160Y-20947380D01*
X106255380Y-20276820D02*
X123382600Y-20276820D01*
X106255380Y-41275000D02*
X106255380Y-20276820D01*
X124053160Y-41275000D02*
X106255380Y-41275000D01*
D18*
X111734160Y-22860000D02*
X111734160Y-20193000D01*
X111734160Y-20193000D02*
X109956160Y-20193000D01*
X109956160Y-22860000D02*
X109956160Y-20193000D01*
X111734160Y-22860000D02*
X109956160Y-22860000D01*
X111734160Y-26926540D02*
X111734160Y-24257000D01*
X111734160Y-24257000D02*
X109956160Y-24257000D01*
X109956160Y-26926540D02*
X109956160Y-24257000D01*
X111734160Y-26926540D02*
X109956160Y-26926540D01*
X120370160Y-26926540D02*
X120370160Y-24257000D01*
X120370160Y-24257000D02*
X118592160Y-24257000D01*
X118592160Y-26926540D02*
X118592160Y-24257000D01*
X120370160Y-26926540D02*
X118592160Y-26926540D01*
X120370160Y-22860000D02*
X120370160Y-20193000D01*
X120370160Y-20193000D02*
X118592160Y-20193000D01*
X118592160Y-22860000D02*
X118592160Y-20193000D01*
X120370160Y-22860000D02*
X118592160Y-22860000D01*
X117703160Y-40640000D02*
X117703160Y-38100000D01*
X117703160Y-38100000D02*
X111988160Y-38100000D01*
X111988160Y-40640000D02*
X111988160Y-38100000D01*
X117703160Y-40640000D02*
X111988160Y-40640000D01*
X117703160Y-23495000D02*
X117703160Y-20955000D01*
X117703160Y-20955000D02*
X112623160Y-20955000D01*
X112623160Y-23495000D02*
X112623160Y-20955000D01*
X117703160Y-23495000D02*
X112623160Y-23495000D01*
D15*
%TO.C,SW20*%
X82073750Y-101902500D02*
X82073750Y-102283500D01*
X73183750Y-101902500D02*
X82073750Y-101902500D01*
X70643750Y-104442500D02*
X70643750Y-104823500D01*
X71024750Y-108252500D02*
X70643750Y-108252500D01*
X74529588Y-108252500D02*
X72802750Y-108252500D01*
X82073750Y-106347500D02*
X76993750Y-106347500D01*
X82073750Y-105331500D02*
X82073750Y-106347500D01*
X76993750Y-106347500D02*
G75*
G03*
X74529588Y-108271460I0J-2540000D01*
G01*
X70643750Y-107871500D02*
X70643750Y-108252500D01*
X73183750Y-101902500D02*
G75*
G03*
X70643750Y-104442500I0J-2540000D01*
G01*
%TO.C,SW19*%
X101123750Y-101902500D02*
X101123750Y-102283500D01*
X92233750Y-101902500D02*
X101123750Y-101902500D01*
X89693750Y-104442500D02*
X89693750Y-104823500D01*
X90074750Y-108252500D02*
X89693750Y-108252500D01*
X93579588Y-108252500D02*
X91852750Y-108252500D01*
X101123750Y-106347500D02*
X96043750Y-106347500D01*
X101123750Y-105331500D02*
X101123750Y-106347500D01*
X96043750Y-106347500D02*
G75*
G03*
X93579588Y-108271460I0J-2540000D01*
G01*
X89693750Y-107871500D02*
X89693750Y-108252500D01*
X92233750Y-101902500D02*
G75*
G03*
X89693750Y-104442500I0J-2540000D01*
G01*
%TO.C,SW18*%
X120173750Y-101902500D02*
X120173750Y-102283500D01*
X111283750Y-101902500D02*
X120173750Y-101902500D01*
X108743750Y-104442500D02*
X108743750Y-104823500D01*
X109124750Y-108252500D02*
X108743750Y-108252500D01*
X112629588Y-108252500D02*
X110902750Y-108252500D01*
X120173750Y-106347500D02*
X115093750Y-106347500D01*
X120173750Y-105331500D02*
X120173750Y-106347500D01*
X115093750Y-106347500D02*
G75*
G03*
X112629588Y-108271460I0J-2540000D01*
G01*
X108743750Y-107871500D02*
X108743750Y-108252500D01*
X111283750Y-101902500D02*
G75*
G03*
X108743750Y-104442500I0J-2540000D01*
G01*
%TO.C,SW17*%
X139223750Y-101902500D02*
X139223750Y-102283500D01*
X130333750Y-101902500D02*
X139223750Y-101902500D01*
X127793750Y-104442500D02*
X127793750Y-104823500D01*
X128174750Y-108252500D02*
X127793750Y-108252500D01*
X131679588Y-108252500D02*
X129952750Y-108252500D01*
X139223750Y-106347500D02*
X134143750Y-106347500D01*
X139223750Y-105331500D02*
X139223750Y-106347500D01*
X134143750Y-106347500D02*
G75*
G03*
X131679588Y-108271460I0J-2540000D01*
G01*
X127793750Y-107871500D02*
X127793750Y-108252500D01*
X130333750Y-101902500D02*
G75*
G03*
X127793750Y-104442500I0J-2540000D01*
G01*
%TO.C,SW16*%
X158273750Y-101902500D02*
X158273750Y-102283500D01*
X149383750Y-101902500D02*
X158273750Y-101902500D01*
X146843750Y-104442500D02*
X146843750Y-104823500D01*
X147224750Y-108252500D02*
X146843750Y-108252500D01*
X150729588Y-108252500D02*
X149002750Y-108252500D01*
X158273750Y-106347500D02*
X153193750Y-106347500D01*
X158273750Y-105331500D02*
X158273750Y-106347500D01*
X153193750Y-106347500D02*
G75*
G03*
X150729588Y-108271460I0J-2540000D01*
G01*
X146843750Y-107871500D02*
X146843750Y-108252500D01*
X149383750Y-101902500D02*
G75*
G03*
X146843750Y-104442500I0J-2540000D01*
G01*
%TO.C,SW15*%
X82073750Y-82852500D02*
X82073750Y-83233500D01*
X73183750Y-82852500D02*
X82073750Y-82852500D01*
X70643750Y-85392500D02*
X70643750Y-85773500D01*
X71024750Y-89202500D02*
X70643750Y-89202500D01*
X74529588Y-89202500D02*
X72802750Y-89202500D01*
X82073750Y-87297500D02*
X76993750Y-87297500D01*
X82073750Y-86281500D02*
X82073750Y-87297500D01*
X76993750Y-87297500D02*
G75*
G03*
X74529588Y-89221460I0J-2540000D01*
G01*
X70643750Y-88821500D02*
X70643750Y-89202500D01*
X73183750Y-82852500D02*
G75*
G03*
X70643750Y-85392500I0J-2540000D01*
G01*
%TO.C,SW14*%
X101123750Y-82852500D02*
X101123750Y-83233500D01*
X92233750Y-82852500D02*
X101123750Y-82852500D01*
X89693750Y-85392500D02*
X89693750Y-85773500D01*
X90074750Y-89202500D02*
X89693750Y-89202500D01*
X93579588Y-89202500D02*
X91852750Y-89202500D01*
X101123750Y-87297500D02*
X96043750Y-87297500D01*
X101123750Y-86281500D02*
X101123750Y-87297500D01*
X96043750Y-87297500D02*
G75*
G03*
X93579588Y-89221460I0J-2540000D01*
G01*
X89693750Y-88821500D02*
X89693750Y-89202500D01*
X92233750Y-82852500D02*
G75*
G03*
X89693750Y-85392500I0J-2540000D01*
G01*
%TO.C,SW13*%
X120173750Y-82852500D02*
X120173750Y-83233500D01*
X111283750Y-82852500D02*
X120173750Y-82852500D01*
X108743750Y-85392500D02*
X108743750Y-85773500D01*
X109124750Y-89202500D02*
X108743750Y-89202500D01*
X112629588Y-89202500D02*
X110902750Y-89202500D01*
X120173750Y-87297500D02*
X115093750Y-87297500D01*
X120173750Y-86281500D02*
X120173750Y-87297500D01*
X115093750Y-87297500D02*
G75*
G03*
X112629588Y-89221460I0J-2540000D01*
G01*
X108743750Y-88821500D02*
X108743750Y-89202500D01*
X111283750Y-82852500D02*
G75*
G03*
X108743750Y-85392500I0J-2540000D01*
G01*
%TO.C,SW12*%
X139223750Y-82852500D02*
X139223750Y-83233500D01*
X130333750Y-82852500D02*
X139223750Y-82852500D01*
X127793750Y-85392500D02*
X127793750Y-85773500D01*
X128174750Y-89202500D02*
X127793750Y-89202500D01*
X131679588Y-89202500D02*
X129952750Y-89202500D01*
X139223750Y-87297500D02*
X134143750Y-87297500D01*
X139223750Y-86281500D02*
X139223750Y-87297500D01*
X134143750Y-87297500D02*
G75*
G03*
X131679588Y-89221460I0J-2540000D01*
G01*
X127793750Y-88821500D02*
X127793750Y-89202500D01*
X130333750Y-82852500D02*
G75*
G03*
X127793750Y-85392500I0J-2540000D01*
G01*
%TO.C,SW11*%
X158273750Y-82852500D02*
X158273750Y-83233500D01*
X149383750Y-82852500D02*
X158273750Y-82852500D01*
X146843750Y-85392500D02*
X146843750Y-85773500D01*
X147224750Y-89202500D02*
X146843750Y-89202500D01*
X150729588Y-89202500D02*
X149002750Y-89202500D01*
X158273750Y-87297500D02*
X153193750Y-87297500D01*
X158273750Y-86281500D02*
X158273750Y-87297500D01*
X153193750Y-87297500D02*
G75*
G03*
X150729588Y-89221460I0J-2540000D01*
G01*
X146843750Y-88821500D02*
X146843750Y-89202500D01*
X149383750Y-82852500D02*
G75*
G03*
X146843750Y-85392500I0J-2540000D01*
G01*
%TO.C,SW10*%
X82073750Y-63802500D02*
X82073750Y-64183500D01*
X73183750Y-63802500D02*
X82073750Y-63802500D01*
X70643750Y-66342500D02*
X70643750Y-66723500D01*
X71024750Y-70152500D02*
X70643750Y-70152500D01*
X74529588Y-70152500D02*
X72802750Y-70152500D01*
X82073750Y-68247500D02*
X76993750Y-68247500D01*
X82073750Y-67231500D02*
X82073750Y-68247500D01*
X76993750Y-68247500D02*
G75*
G03*
X74529588Y-70171460I0J-2540000D01*
G01*
X70643750Y-69771500D02*
X70643750Y-70152500D01*
X73183750Y-63802500D02*
G75*
G03*
X70643750Y-66342500I0J-2540000D01*
G01*
%TO.C,SW9*%
X101123750Y-63802500D02*
X101123750Y-64183500D01*
X92233750Y-63802500D02*
X101123750Y-63802500D01*
X89693750Y-66342500D02*
X89693750Y-66723500D01*
X90074750Y-70152500D02*
X89693750Y-70152500D01*
X93579588Y-70152500D02*
X91852750Y-70152500D01*
X101123750Y-68247500D02*
X96043750Y-68247500D01*
X101123750Y-67231500D02*
X101123750Y-68247500D01*
X96043750Y-68247500D02*
G75*
G03*
X93579588Y-70171460I0J-2540000D01*
G01*
X89693750Y-69771500D02*
X89693750Y-70152500D01*
X92233750Y-63802500D02*
G75*
G03*
X89693750Y-66342500I0J-2540000D01*
G01*
%TO.C,SW8*%
X120173750Y-63802500D02*
X120173750Y-64183500D01*
X111283750Y-63802500D02*
X120173750Y-63802500D01*
X108743750Y-66342500D02*
X108743750Y-66723500D01*
X109124750Y-70152500D02*
X108743750Y-70152500D01*
X112629588Y-70152500D02*
X110902750Y-70152500D01*
X120173750Y-68247500D02*
X115093750Y-68247500D01*
X120173750Y-67231500D02*
X120173750Y-68247500D01*
X115093750Y-68247500D02*
G75*
G03*
X112629588Y-70171460I0J-2540000D01*
G01*
X108743750Y-69771500D02*
X108743750Y-70152500D01*
X111283750Y-63802500D02*
G75*
G03*
X108743750Y-66342500I0J-2540000D01*
G01*
%TO.C,SW7*%
X139223750Y-63802500D02*
X139223750Y-64183500D01*
X130333750Y-63802500D02*
X139223750Y-63802500D01*
X127793750Y-66342500D02*
X127793750Y-66723500D01*
X128174750Y-70152500D02*
X127793750Y-70152500D01*
X131679588Y-70152500D02*
X129952750Y-70152500D01*
X139223750Y-68247500D02*
X134143750Y-68247500D01*
X139223750Y-67231500D02*
X139223750Y-68247500D01*
X134143750Y-68247500D02*
G75*
G03*
X131679588Y-70171460I0J-2540000D01*
G01*
X127793750Y-69771500D02*
X127793750Y-70152500D01*
X130333750Y-63802500D02*
G75*
G03*
X127793750Y-66342500I0J-2540000D01*
G01*
%TO.C,SW6*%
X158273750Y-63802500D02*
X158273750Y-64183500D01*
X149383750Y-63802500D02*
X158273750Y-63802500D01*
X146843750Y-66342500D02*
X146843750Y-66723500D01*
X147224750Y-70152500D02*
X146843750Y-70152500D01*
X150729588Y-70152500D02*
X149002750Y-70152500D01*
X158273750Y-68247500D02*
X153193750Y-68247500D01*
X158273750Y-67231500D02*
X158273750Y-68247500D01*
X153193750Y-68247500D02*
G75*
G03*
X150729588Y-70171460I0J-2540000D01*
G01*
X146843750Y-69771500D02*
X146843750Y-70152500D01*
X149383750Y-63802500D02*
G75*
G03*
X146843750Y-66342500I0J-2540000D01*
G01*
%TO.C,SW5*%
X82073750Y-44752500D02*
X82073750Y-45133500D01*
X73183750Y-44752500D02*
X82073750Y-44752500D01*
X70643750Y-47292500D02*
X70643750Y-47673500D01*
X71024750Y-51102500D02*
X70643750Y-51102500D01*
X74529588Y-51102500D02*
X72802750Y-51102500D01*
X82073750Y-49197500D02*
X76993750Y-49197500D01*
X82073750Y-48181500D02*
X82073750Y-49197500D01*
X76993750Y-49197500D02*
G75*
G03*
X74529588Y-51121460I0J-2540000D01*
G01*
X70643750Y-50721500D02*
X70643750Y-51102500D01*
X73183750Y-44752500D02*
G75*
G03*
X70643750Y-47292500I0J-2540000D01*
G01*
%TO.C,SW4*%
X101123750Y-44752500D02*
X101123750Y-45133500D01*
X92233750Y-44752500D02*
X101123750Y-44752500D01*
X89693750Y-47292500D02*
X89693750Y-47673500D01*
X90074750Y-51102500D02*
X89693750Y-51102500D01*
X93579588Y-51102500D02*
X91852750Y-51102500D01*
X101123750Y-49197500D02*
X96043750Y-49197500D01*
X101123750Y-48181500D02*
X101123750Y-49197500D01*
X96043750Y-49197500D02*
G75*
G03*
X93579588Y-51121460I0J-2540000D01*
G01*
X89693750Y-50721500D02*
X89693750Y-51102500D01*
X92233750Y-44752500D02*
G75*
G03*
X89693750Y-47292500I0J-2540000D01*
G01*
%TO.C,SW3*%
X120173750Y-44752500D02*
X120173750Y-45133500D01*
X111283750Y-44752500D02*
X120173750Y-44752500D01*
X108743750Y-47292500D02*
X108743750Y-47673500D01*
X109124750Y-51102500D02*
X108743750Y-51102500D01*
X112629588Y-51102500D02*
X110902750Y-51102500D01*
X120173750Y-49197500D02*
X115093750Y-49197500D01*
X120173750Y-48181500D02*
X120173750Y-49197500D01*
X115093750Y-49197500D02*
G75*
G03*
X112629588Y-51121460I0J-2540000D01*
G01*
X108743750Y-50721500D02*
X108743750Y-51102500D01*
X111283750Y-44752500D02*
G75*
G03*
X108743750Y-47292500I0J-2540000D01*
G01*
%TO.C,SW2*%
X139223750Y-44752500D02*
X139223750Y-45133500D01*
X130333750Y-44752500D02*
X139223750Y-44752500D01*
X127793750Y-47292500D02*
X127793750Y-47673500D01*
X128174750Y-51102500D02*
X127793750Y-51102500D01*
X131679588Y-51102500D02*
X129952750Y-51102500D01*
X139223750Y-49197500D02*
X134143750Y-49197500D01*
X139223750Y-48181500D02*
X139223750Y-49197500D01*
X134143750Y-49197500D02*
G75*
G03*
X131679588Y-51121460I0J-2540000D01*
G01*
X127793750Y-50721500D02*
X127793750Y-51102500D01*
X130333750Y-44752500D02*
G75*
G03*
X127793750Y-47292500I0J-2540000D01*
G01*
%TO.C,SW1*%
X158273750Y-44752500D02*
X158273750Y-45133500D01*
X149383750Y-44752500D02*
X158273750Y-44752500D01*
X146843750Y-47292500D02*
X146843750Y-47673500D01*
X147224750Y-51102500D02*
X146843750Y-51102500D01*
X150729588Y-51102500D02*
X149002750Y-51102500D01*
X158273750Y-49197500D02*
X153193750Y-49197500D01*
X158273750Y-48181500D02*
X158273750Y-49197500D01*
X153193750Y-49197500D02*
G75*
G03*
X150729588Y-51121460I0J-2540000D01*
G01*
X146843750Y-50721500D02*
X146843750Y-51102500D01*
X149383750Y-44752500D02*
G75*
G03*
X146843750Y-47292500I0J-2540000D01*
G01*
D19*
%TO.C,D20*%
X86725000Y-110962500D02*
X86725000Y-115262500D01*
X84725000Y-115262500D02*
X84725000Y-110962500D01*
X86725000Y-115262500D02*
X84725000Y-115262500D01*
%TO.C,D19*%
X105775000Y-110962500D02*
X105775000Y-115262500D01*
X103775000Y-115262500D02*
X103775000Y-110962500D01*
X105775000Y-115262500D02*
X103775000Y-115262500D01*
%TO.C,D18*%
X124825000Y-110962500D02*
X124825000Y-115262500D01*
X122825000Y-115262500D02*
X122825000Y-110962500D01*
X124825000Y-115262500D02*
X122825000Y-115262500D01*
%TO.C,D17*%
X143875000Y-110962500D02*
X143875000Y-115262500D01*
X141875000Y-115262500D02*
X141875000Y-110962500D01*
X143875000Y-115262500D02*
X141875000Y-115262500D01*
%TO.C,D16*%
X162131250Y-110962500D02*
X162131250Y-115262500D01*
X160131250Y-115262500D02*
X160131250Y-110962500D01*
X162131250Y-115262500D02*
X160131250Y-115262500D01*
%TO.C,D15*%
X86725000Y-91912500D02*
X86725000Y-96212500D01*
X84725000Y-96212500D02*
X84725000Y-91912500D01*
X86725000Y-96212500D02*
X84725000Y-96212500D01*
%TO.C,D14*%
X105775000Y-91912500D02*
X105775000Y-96212500D01*
X103775000Y-96212500D02*
X103775000Y-91912500D01*
X105775000Y-96212500D02*
X103775000Y-96212500D01*
%TO.C,D13*%
X124825000Y-91912500D02*
X124825000Y-96212500D01*
X122825000Y-96212500D02*
X122825000Y-91912500D01*
X124825000Y-96212500D02*
X122825000Y-96212500D01*
%TO.C,D12*%
X143875000Y-91912500D02*
X143875000Y-96212500D01*
X141875000Y-96212500D02*
X141875000Y-91912500D01*
X143875000Y-96212500D02*
X141875000Y-96212500D01*
%TO.C,D11*%
X162131250Y-91912500D02*
X162131250Y-96212500D01*
X160131250Y-96212500D02*
X160131250Y-91912500D01*
X162131250Y-96212500D02*
X160131250Y-96212500D01*
%TO.C,D10*%
X86725000Y-72862500D02*
X86725000Y-77162500D01*
X84725000Y-77162500D02*
X84725000Y-72862500D01*
X86725000Y-77162500D02*
X84725000Y-77162500D01*
%TO.C,D9*%
X105775000Y-72862500D02*
X105775000Y-77162500D01*
X103775000Y-77162500D02*
X103775000Y-72862500D01*
X105775000Y-77162500D02*
X103775000Y-77162500D01*
%TO.C,D8*%
X124825000Y-72862500D02*
X124825000Y-77162500D01*
X122825000Y-77162500D02*
X122825000Y-72862500D01*
X124825000Y-77162500D02*
X122825000Y-77162500D01*
%TO.C,D7*%
X143875000Y-72862500D02*
X143875000Y-77162500D01*
X141875000Y-77162500D02*
X141875000Y-72862500D01*
X143875000Y-77162500D02*
X141875000Y-77162500D01*
%TO.C,D6*%
X162131250Y-72862500D02*
X162131250Y-77162500D01*
X160131250Y-77162500D02*
X160131250Y-72862500D01*
X162131250Y-77162500D02*
X160131250Y-77162500D01*
%TO.C,D5*%
X86725000Y-53812500D02*
X86725000Y-58112500D01*
X84725000Y-58112500D02*
X84725000Y-53812500D01*
X86725000Y-58112500D02*
X84725000Y-58112500D01*
%TO.C,D4*%
X105775000Y-53812500D02*
X105775000Y-58112500D01*
X103775000Y-58112500D02*
X103775000Y-53812500D01*
X105775000Y-58112500D02*
X103775000Y-58112500D01*
%TO.C,D3*%
X124825000Y-53812500D02*
X124825000Y-58112500D01*
X122825000Y-58112500D02*
X122825000Y-53812500D01*
X124825000Y-58112500D02*
X122825000Y-58112500D01*
%TO.C,D2*%
X143875000Y-58112500D02*
X141875000Y-58112500D01*
X141875000Y-58112500D02*
X141875000Y-53812500D01*
X143875000Y-53812500D02*
X143875000Y-58112500D01*
%TO.C,D1*%
X162131250Y-58112500D02*
X160131250Y-58112500D01*
X160131250Y-58112500D02*
X160131250Y-53812500D01*
X162131250Y-53812500D02*
X162131250Y-58112500D01*
%TD*%
M02*
