%TF.GenerationSoftware,KiCad,Pcbnew,(6.0.4-0)*%
%TF.CreationDate,2022-07-24T18:31:06-05:00*%
%TF.ProjectId,beyblock20,62657962-6c6f-4636-9b32-302e6b696361,rev?*%
%TF.SameCoordinates,Original*%
%TF.FileFunction,Soldermask,Bot*%
%TF.FilePolarity,Negative*%
%FSLAX46Y46*%
G04 Gerber Fmt 4.6, Leading zero omitted, Abs format (unit mm)*
G04 Created by KiCad (PCBNEW (6.0.4-0)) date 2022-07-24 18:31:06*
%MOMM*%
%LPD*%
G01*
G04 APERTURE LIST*
%ADD10C,2.200000*%
%ADD11C,1.397000*%
%ADD12O,2.748280X1.998980*%
%ADD13O,1.016000X2.032000*%
%ADD14C,1.143000*%
%ADD15R,2.550000X2.500000*%
%ADD16C,1.701800*%
%ADD17C,3.987800*%
%ADD18C,3.000000*%
%ADD19O,1.700000X1.700000*%
%ADD20R,1.700000X1.700000*%
%ADD21R,1.700000X1.300000*%
G04 APERTURE END LIST*
D10*
%TO.C,H8*%
X156368750Y-37306250D03*
%TD*%
%TO.C,H7*%
X73818750Y-37306250D03*
%TD*%
%TO.C,H6*%
X156368750Y-23018750D03*
%TD*%
%TO.C,H5*%
X73818750Y-23018750D03*
%TD*%
%TO.C,H4*%
X143668750Y-99218750D03*
%TD*%
%TO.C,H3*%
X86518750Y-99218750D03*
%TD*%
%TO.C,H2*%
X143668750Y-61118750D03*
%TD*%
%TO.C,H1*%
X86518750Y-61118750D03*
%TD*%
D11*
%TO.C,OL2*%
X77787500Y-33972500D03*
X77787500Y-31432500D03*
X77787500Y-28892500D03*
X77787500Y-26352500D03*
%TD*%
D12*
%TO.C,U1*%
X107055480Y-23157180D03*
X107055480Y-25697180D03*
X107055480Y-28237180D03*
X107055480Y-30777180D03*
X107055480Y-33317180D03*
X107055480Y-35857180D03*
X107055480Y-38397180D03*
X123220040Y-38397180D03*
X123220040Y-35857180D03*
X123220040Y-33317180D03*
X123220040Y-30777180D03*
X123220040Y-28237180D03*
X123220040Y-25697180D03*
X123220040Y-23157180D03*
D13*
X116353160Y-39475000D03*
X113803160Y-39475000D03*
D14*
X116354357Y-22470813D03*
X113814357Y-22470813D03*
X116354357Y-25010813D03*
X113814357Y-25010813D03*
%TD*%
D15*
%TO.C,SW20*%
X69433750Y-106347500D03*
D16*
X71913750Y-108887500D03*
X82073750Y-108887500D03*
D17*
X76993750Y-108887500D03*
D18*
X73183750Y-106347500D03*
X79533750Y-103807500D03*
D15*
X83283750Y-103807500D03*
%TD*%
%TO.C,SW19*%
X88483750Y-106347500D03*
D16*
X90963750Y-108887500D03*
X101123750Y-108887500D03*
D17*
X96043750Y-108887500D03*
D18*
X92233750Y-106347500D03*
X98583750Y-103807500D03*
D15*
X102333750Y-103807500D03*
%TD*%
%TO.C,SW18*%
X107533750Y-106347500D03*
D16*
X110013750Y-108887500D03*
X120173750Y-108887500D03*
D17*
X115093750Y-108887500D03*
D18*
X111283750Y-106347500D03*
X117633750Y-103807500D03*
D15*
X121383750Y-103807500D03*
%TD*%
%TO.C,SW17*%
X126583750Y-106347500D03*
D16*
X129063750Y-108887500D03*
X139223750Y-108887500D03*
D17*
X134143750Y-108887500D03*
D18*
X130333750Y-106347500D03*
X136683750Y-103807500D03*
D15*
X140433750Y-103807500D03*
%TD*%
%TO.C,SW16*%
X145633750Y-106347500D03*
D16*
X148113750Y-108887500D03*
X158273750Y-108887500D03*
D17*
X153193750Y-108887500D03*
D18*
X149383750Y-106347500D03*
X155733750Y-103807500D03*
D15*
X159483750Y-103807500D03*
%TD*%
%TO.C,SW15*%
X69433750Y-87297500D03*
D16*
X71913750Y-89837500D03*
X82073750Y-89837500D03*
D17*
X76993750Y-89837500D03*
D18*
X73183750Y-87297500D03*
X79533750Y-84757500D03*
D15*
X83283750Y-84757500D03*
%TD*%
%TO.C,SW14*%
X88483750Y-87297500D03*
D16*
X90963750Y-89837500D03*
X101123750Y-89837500D03*
D17*
X96043750Y-89837500D03*
D18*
X92233750Y-87297500D03*
X98583750Y-84757500D03*
D15*
X102333750Y-84757500D03*
%TD*%
%TO.C,SW13*%
X107533750Y-87297500D03*
D16*
X110013750Y-89837500D03*
X120173750Y-89837500D03*
D17*
X115093750Y-89837500D03*
D18*
X111283750Y-87297500D03*
X117633750Y-84757500D03*
D15*
X121383750Y-84757500D03*
%TD*%
%TO.C,SW12*%
X126583750Y-87297500D03*
D16*
X129063750Y-89837500D03*
X139223750Y-89837500D03*
D17*
X134143750Y-89837500D03*
D18*
X130333750Y-87297500D03*
X136683750Y-84757500D03*
D15*
X140433750Y-84757500D03*
%TD*%
%TO.C,SW11*%
X145633750Y-87297500D03*
D16*
X148113750Y-89837500D03*
X158273750Y-89837500D03*
D17*
X153193750Y-89837500D03*
D18*
X149383750Y-87297500D03*
X155733750Y-84757500D03*
D15*
X159483750Y-84757500D03*
%TD*%
%TO.C,SW10*%
X69433750Y-68247500D03*
D16*
X71913750Y-70787500D03*
X82073750Y-70787500D03*
D17*
X76993750Y-70787500D03*
D18*
X73183750Y-68247500D03*
X79533750Y-65707500D03*
D15*
X83283750Y-65707500D03*
%TD*%
%TO.C,SW9*%
X88483750Y-68247500D03*
D16*
X90963750Y-70787500D03*
X101123750Y-70787500D03*
D17*
X96043750Y-70787500D03*
D18*
X92233750Y-68247500D03*
X98583750Y-65707500D03*
D15*
X102333750Y-65707500D03*
%TD*%
%TO.C,SW8*%
X107533750Y-68247500D03*
D16*
X110013750Y-70787500D03*
X120173750Y-70787500D03*
D17*
X115093750Y-70787500D03*
D18*
X111283750Y-68247500D03*
X117633750Y-65707500D03*
D15*
X121383750Y-65707500D03*
%TD*%
%TO.C,SW7*%
X126583750Y-68247500D03*
D16*
X129063750Y-70787500D03*
X139223750Y-70787500D03*
D17*
X134143750Y-70787500D03*
D18*
X130333750Y-68247500D03*
X136683750Y-65707500D03*
D15*
X140433750Y-65707500D03*
%TD*%
%TO.C,SW6*%
X145633750Y-68247500D03*
D16*
X148113750Y-70787500D03*
X158273750Y-70787500D03*
D17*
X153193750Y-70787500D03*
D18*
X149383750Y-68247500D03*
X155733750Y-65707500D03*
D15*
X159483750Y-65707500D03*
%TD*%
%TO.C,SW5*%
X69433750Y-49197500D03*
D16*
X71913750Y-51737500D03*
X82073750Y-51737500D03*
D17*
X76993750Y-51737500D03*
D18*
X73183750Y-49197500D03*
X79533750Y-46657500D03*
D15*
X83283750Y-46657500D03*
%TD*%
%TO.C,SW4*%
X88483750Y-49197500D03*
D16*
X90963750Y-51737500D03*
X101123750Y-51737500D03*
D17*
X96043750Y-51737500D03*
D18*
X92233750Y-49197500D03*
X98583750Y-46657500D03*
D15*
X102333750Y-46657500D03*
%TD*%
%TO.C,SW3*%
X107533750Y-49197500D03*
D16*
X110013750Y-51737500D03*
X120173750Y-51737500D03*
D17*
X115093750Y-51737500D03*
D18*
X111283750Y-49197500D03*
X117633750Y-46657500D03*
D15*
X121383750Y-46657500D03*
%TD*%
%TO.C,SW2*%
X126583750Y-49197500D03*
D16*
X129063750Y-51737500D03*
X139223750Y-51737500D03*
D17*
X134143750Y-51737500D03*
D18*
X130333750Y-49197500D03*
X136683750Y-46657500D03*
D15*
X140433750Y-46657500D03*
%TD*%
%TO.C,SW1*%
X145633750Y-49197500D03*
D16*
X148113750Y-51737500D03*
X158273750Y-51737500D03*
D17*
X153193750Y-51737500D03*
D18*
X149383750Y-49197500D03*
X155733750Y-46657500D03*
D15*
X159483750Y-46657500D03*
%TD*%
D11*
%TO.C,OL1*%
X152400000Y-26352500D03*
X152400000Y-28892500D03*
X152400000Y-31432500D03*
X152400000Y-33972500D03*
%TD*%
D19*
%TO.C,J2*%
X161131250Y-33982500D03*
X161131250Y-31442500D03*
X161131250Y-28902500D03*
D20*
X161131250Y-26362500D03*
%TD*%
D19*
%TO.C,J1*%
X69056250Y-33982500D03*
X69056250Y-31442500D03*
X69056250Y-28902500D03*
D20*
X69056250Y-26362500D03*
%TD*%
D21*
%TO.C,D20*%
X85725000Y-114462500D03*
X85725000Y-110962500D03*
%TD*%
%TO.C,D19*%
X104775000Y-114462500D03*
X104775000Y-110962500D03*
%TD*%
%TO.C,D18*%
X123825000Y-114462500D03*
X123825000Y-110962500D03*
%TD*%
%TO.C,D17*%
X142875000Y-114462500D03*
X142875000Y-110962500D03*
%TD*%
%TO.C,D16*%
X161131250Y-114462500D03*
X161131250Y-110962500D03*
%TD*%
%TO.C,D15*%
X85725000Y-95412500D03*
X85725000Y-91912500D03*
%TD*%
%TO.C,D14*%
X104775000Y-95412500D03*
X104775000Y-91912500D03*
%TD*%
%TO.C,D13*%
X123825000Y-95412500D03*
X123825000Y-91912500D03*
%TD*%
%TO.C,D12*%
X142875000Y-95412500D03*
X142875000Y-91912500D03*
%TD*%
%TO.C,D11*%
X161131250Y-95412500D03*
X161131250Y-91912500D03*
%TD*%
%TO.C,D10*%
X85725000Y-76362500D03*
X85725000Y-72862500D03*
%TD*%
%TO.C,D9*%
X104775000Y-76362500D03*
X104775000Y-72862500D03*
%TD*%
%TO.C,D8*%
X123825000Y-76362500D03*
X123825000Y-72862500D03*
%TD*%
%TO.C,D7*%
X142875000Y-76362500D03*
X142875000Y-72862500D03*
%TD*%
%TO.C,D6*%
X161131250Y-76362500D03*
X161131250Y-72862500D03*
%TD*%
%TO.C,D5*%
X85725000Y-57312500D03*
X85725000Y-53812500D03*
%TD*%
%TO.C,D4*%
X104775000Y-57312500D03*
X104775000Y-53812500D03*
%TD*%
%TO.C,D3*%
X123825000Y-57312500D03*
X123825000Y-53812500D03*
%TD*%
%TO.C,D2*%
X142875000Y-53812500D03*
X142875000Y-57312500D03*
%TD*%
%TO.C,D1*%
X161131250Y-53812500D03*
X161131250Y-57312500D03*
%TD*%
M02*
