M48
METRIC,TZ
T1C0.400
T2C0.813
T3C0.900
T4C1.000
%
G90
G05
T1
X69056Y-51594
X69056Y-65881
X69056Y-70644
X69056Y-84931
X69056Y-89694
X69056Y-103981
X88106Y-51594
X88106Y-65881
X88106Y-70644
X88106Y-84931
X88106Y-89694
X88106Y-103981
X100012Y-57150
X100806Y-36512
X101600Y-37306
X101671Y-34996
X102394Y-76200
X103025Y-95413
X103025Y-114463
X103188Y-32544
X103188Y-37306
X103981Y-38100
X107156Y-51594
X107156Y-65881
X107156Y-70644
X107156Y-84931
X107156Y-89694
X107156Y-103981
X109538Y-28575
X118357Y-27869
X119786Y-25329
X126206Y-50800
X126206Y-65881
X126206Y-70644
X126206Y-84931
X126206Y-89694
X126206Y-103981
X136431Y-35814
X145256Y-51594
X145256Y-65881
X145256Y-70644
X145256Y-84931
X145256Y-89694
X145256Y-103981
X146050Y-26194
X146050Y-34925
X146844Y-34131
X146914Y-25329
X147638Y-27781
X147638Y-31731
X147638Y-35720
X148431Y-28594
X148519Y-32456
T2
X77788Y-26353
X77788Y-28892
X77788Y-31433
X77788Y-33972
X152400Y-26353
X152400Y-28892
X152400Y-31433
X152400Y-33972
T4
X69056Y-26363
X69056Y-28903
X69056Y-31443
X69056Y-33983
X161131Y-26363
X161131Y-28903
X161131Y-31443
X161131Y-33983
T3
X89775Y-31738G85X89775Y-32137
G05
X94375Y-23638G85X94375Y-24037
G05
X94375Y-26638G85X94375Y-27038
G05
X94375Y-30638G85X94375Y-31038
G05
X135813Y-31738G85X135813Y-32137
G05
X140413Y-23638G85X140413Y-24037
G05
X140413Y-26638G85X140413Y-27038
G05
X140413Y-30638G85X140413Y-31038
G05
T0
M30
