%TF.GenerationSoftware,KiCad,Pcbnew,(6.0.4-0)*%
%TF.CreationDate,2022-07-24T18:31:06-05:00*%
%TF.ProjectId,beyblock20,62657962-6c6f-4636-9b32-302e6b696361,rev?*%
%TF.SameCoordinates,Original*%
%TF.FileFunction,Soldermask,Top*%
%TF.FilePolarity,Negative*%
%FSLAX46Y46*%
G04 Gerber Fmt 4.6, Leading zero omitted, Abs format (unit mm)*
G04 Created by KiCad (PCBNEW (6.0.4-0)) date 2022-07-24 18:31:06*
%MOMM*%
%LPD*%
G01*
G04 APERTURE LIST*
%ADD10C,2.200000*%
%ADD11C,1.701800*%
%ADD12C,3.987800*%
%ADD13C,3.000000*%
%ADD14O,1.700000X1.700000*%
%ADD15R,1.700000X1.700000*%
G04 APERTURE END LIST*
D10*
%TO.C,H8*%
X156368750Y-37306250D03*
%TD*%
%TO.C,H7*%
X73818750Y-37306250D03*
%TD*%
%TO.C,H6*%
X156368750Y-23018750D03*
%TD*%
%TO.C,H5*%
X73818750Y-23018750D03*
%TD*%
%TO.C,H4*%
X143668750Y-99218750D03*
%TD*%
%TO.C,H3*%
X86518750Y-99218750D03*
%TD*%
%TO.C,H2*%
X143668750Y-61118750D03*
%TD*%
%TO.C,H1*%
X86518750Y-61118750D03*
%TD*%
D11*
%TO.C,SW20*%
X71913750Y-108887500D03*
X82073750Y-108887500D03*
D12*
X76993750Y-108887500D03*
D13*
X73183750Y-106347500D03*
X79533750Y-103807500D03*
%TD*%
D11*
%TO.C,SW19*%
X90963750Y-108887500D03*
X101123750Y-108887500D03*
D12*
X96043750Y-108887500D03*
D13*
X92233750Y-106347500D03*
X98583750Y-103807500D03*
%TD*%
D11*
%TO.C,SW18*%
X110013750Y-108887500D03*
X120173750Y-108887500D03*
D12*
X115093750Y-108887500D03*
D13*
X111283750Y-106347500D03*
X117633750Y-103807500D03*
%TD*%
D11*
%TO.C,SW17*%
X129063750Y-108887500D03*
X139223750Y-108887500D03*
D12*
X134143750Y-108887500D03*
D13*
X130333750Y-106347500D03*
X136683750Y-103807500D03*
%TD*%
D11*
%TO.C,SW16*%
X148113750Y-108887500D03*
X158273750Y-108887500D03*
D12*
X153193750Y-108887500D03*
D13*
X149383750Y-106347500D03*
X155733750Y-103807500D03*
%TD*%
D11*
%TO.C,SW15*%
X71913750Y-89837500D03*
X82073750Y-89837500D03*
D12*
X76993750Y-89837500D03*
D13*
X73183750Y-87297500D03*
X79533750Y-84757500D03*
%TD*%
D11*
%TO.C,SW14*%
X90963750Y-89837500D03*
X101123750Y-89837500D03*
D12*
X96043750Y-89837500D03*
D13*
X92233750Y-87297500D03*
X98583750Y-84757500D03*
%TD*%
D11*
%TO.C,SW13*%
X110013750Y-89837500D03*
X120173750Y-89837500D03*
D12*
X115093750Y-89837500D03*
D13*
X111283750Y-87297500D03*
X117633750Y-84757500D03*
%TD*%
D11*
%TO.C,SW12*%
X129063750Y-89837500D03*
X139223750Y-89837500D03*
D12*
X134143750Y-89837500D03*
D13*
X130333750Y-87297500D03*
X136683750Y-84757500D03*
%TD*%
D11*
%TO.C,SW11*%
X148113750Y-89837500D03*
X158273750Y-89837500D03*
D12*
X153193750Y-89837500D03*
D13*
X149383750Y-87297500D03*
X155733750Y-84757500D03*
%TD*%
D11*
%TO.C,SW10*%
X71913750Y-70787500D03*
X82073750Y-70787500D03*
D12*
X76993750Y-70787500D03*
D13*
X73183750Y-68247500D03*
X79533750Y-65707500D03*
%TD*%
D11*
%TO.C,SW9*%
X90963750Y-70787500D03*
X101123750Y-70787500D03*
D12*
X96043750Y-70787500D03*
D13*
X92233750Y-68247500D03*
X98583750Y-65707500D03*
%TD*%
D11*
%TO.C,SW8*%
X110013750Y-70787500D03*
X120173750Y-70787500D03*
D12*
X115093750Y-70787500D03*
D13*
X111283750Y-68247500D03*
X117633750Y-65707500D03*
%TD*%
D11*
%TO.C,SW7*%
X129063750Y-70787500D03*
X139223750Y-70787500D03*
D12*
X134143750Y-70787500D03*
D13*
X130333750Y-68247500D03*
X136683750Y-65707500D03*
%TD*%
D11*
%TO.C,SW6*%
X148113750Y-70787500D03*
X158273750Y-70787500D03*
D12*
X153193750Y-70787500D03*
D13*
X149383750Y-68247500D03*
X155733750Y-65707500D03*
%TD*%
D11*
%TO.C,SW5*%
X71913750Y-51737500D03*
X82073750Y-51737500D03*
D12*
X76993750Y-51737500D03*
D13*
X73183750Y-49197500D03*
X79533750Y-46657500D03*
%TD*%
D11*
%TO.C,SW4*%
X90963750Y-51737500D03*
X101123750Y-51737500D03*
D12*
X96043750Y-51737500D03*
D13*
X92233750Y-49197500D03*
X98583750Y-46657500D03*
%TD*%
D11*
%TO.C,SW3*%
X110013750Y-51737500D03*
X120173750Y-51737500D03*
D12*
X115093750Y-51737500D03*
D13*
X111283750Y-49197500D03*
X117633750Y-46657500D03*
%TD*%
D11*
%TO.C,SW2*%
X129063750Y-51737500D03*
X139223750Y-51737500D03*
D12*
X134143750Y-51737500D03*
D13*
X130333750Y-49197500D03*
X136683750Y-46657500D03*
%TD*%
D11*
%TO.C,SW1*%
X148113750Y-51737500D03*
X158273750Y-51737500D03*
D12*
X153193750Y-51737500D03*
D13*
X149383750Y-49197500D03*
X155733750Y-46657500D03*
%TD*%
D14*
%TO.C,J2*%
X161131250Y-33982500D03*
X161131250Y-31442500D03*
X161131250Y-28902500D03*
D15*
X161131250Y-26362500D03*
%TD*%
D14*
%TO.C,J1*%
X69056250Y-33982500D03*
X69056250Y-31442500D03*
X69056250Y-28902500D03*
D15*
X69056250Y-26362500D03*
%TD*%
M02*
