M48
METRIC,TZ
T1C0.800
T2C1.702
T3C2.200
T4C3.000
T5C3.988
%
G90
G05
T1
X92075Y-22238
X92075Y-29238
X138112Y-22238
X138112Y-29238
T2
X71914Y-51738
X71914Y-70788
X71914Y-89837
X71914Y-108888
X82074Y-51738
X82074Y-70788
X82074Y-89837
X82074Y-108888
X90964Y-51738
X90964Y-70788
X90964Y-89837
X90964Y-108888
X101124Y-51738
X101124Y-70788
X101124Y-89837
X101124Y-108888
X110014Y-51738
X110014Y-70788
X110014Y-89837
X110014Y-108888
X120174Y-51738
X120174Y-70788
X120174Y-89837
X120174Y-108888
X129064Y-51738
X129064Y-70788
X129064Y-89837
X129064Y-108888
X139224Y-51738
X139224Y-70788
X139224Y-89837
X139224Y-108888
X148114Y-51738
X148114Y-70788
X148114Y-89837
X148114Y-108888
X158274Y-51738
X158274Y-70788
X158274Y-89837
X158274Y-108888
T3
X73819Y-23019
X73819Y-37306
X86519Y-61119
X86519Y-99219
X143669Y-61119
X143669Y-99219
X156369Y-23019
X156369Y-37306
T4
X73184Y-49198
X73184Y-68248
X73184Y-87298
X73184Y-106348
X79534Y-46658
X79534Y-65707
X79534Y-84758
X79534Y-103807
X92234Y-49198
X92234Y-68248
X92234Y-87298
X92234Y-106348
X98584Y-46658
X98584Y-65707
X98584Y-84758
X98584Y-103807
X111284Y-49198
X111284Y-68248
X111284Y-87298
X111284Y-106348
X117634Y-46658
X117634Y-65707
X117634Y-84758
X117634Y-103807
X130334Y-49198
X130334Y-68248
X130334Y-87298
X130334Y-106348
X136684Y-46658
X136684Y-65707
X136684Y-84758
X136684Y-103807
X149384Y-49198
X149384Y-68248
X149384Y-87298
X149384Y-106348
X155734Y-46658
X155734Y-65707
X155734Y-84758
X155734Y-103807
T5
X76994Y-51738
X76994Y-70788
X76994Y-89837
X76994Y-108888
X96044Y-51738
X96044Y-70788
X96044Y-89837
X96044Y-108888
X115094Y-51738
X115094Y-70788
X115094Y-89837
X115094Y-108888
X134144Y-51738
X134144Y-70788
X134144Y-89837
X134144Y-108888
X153194Y-51738
X153194Y-70788
X153194Y-89837
X153194Y-108888
T0
M30
