%TF.GenerationSoftware,KiCad,Pcbnew,(6.0.4-0)*%
%TF.CreationDate,2022-07-25T20:49:22-05:00*%
%TF.ProjectId,beyblock20,62657962-6c6f-4636-9b32-302e6b696361,rev?*%
%TF.SameCoordinates,Original*%
%TF.FileFunction,Copper,L2,Bot*%
%TF.FilePolarity,Positive*%
%FSLAX46Y46*%
G04 Gerber Fmt 4.6, Leading zero omitted, Abs format (unit mm)*
G04 Created by KiCad (PCBNEW (6.0.4-0)) date 2022-07-25 20:49:22*
%MOMM*%
%LPD*%
G01*
G04 APERTURE LIST*
%TA.AperFunction,ComponentPad*%
%ADD10O,1.600000X2.000000*%
%TD*%
%TA.AperFunction,ComponentPad*%
%ADD11R,1.700000X1.700000*%
%TD*%
%TA.AperFunction,ComponentPad*%
%ADD12O,1.700000X1.700000*%
%TD*%
%TA.AperFunction,SMDPad,CuDef*%
%ADD13R,2.550000X2.500000*%
%TD*%
%TA.AperFunction,ComponentPad*%
%ADD14C,1.397000*%
%TD*%
%TA.AperFunction,SMDPad,CuDef*%
%ADD15R,1.700000X1.300000*%
%TD*%
%TA.AperFunction,SMDPad,CuDef*%
%ADD16O,2.748280X1.998980*%
%TD*%
%TA.AperFunction,SMDPad,CuDef*%
%ADD17O,1.016000X2.032000*%
%TD*%
%TA.AperFunction,SMDPad,CuDef*%
%ADD18C,1.143000*%
%TD*%
%TA.AperFunction,ViaPad*%
%ADD19C,0.800000*%
%TD*%
%TA.AperFunction,Conductor*%
%ADD20C,0.250000*%
%TD*%
G04 APERTURE END LIST*
D10*
%TO.P,U3,3,RING1*%
%TO.N,scl*%
X140412500Y-26837500D03*
%TO.P,U3,4,RING2*%
%TO.N,sda*%
X140412500Y-23837500D03*
%TO.P,U3,2,TIP*%
%TO.N,3v3*%
X140412500Y-30837500D03*
%TO.P,U3,1,SLEEVE*%
%TO.N,gnd*%
X135812500Y-31937500D03*
%TD*%
%TO.P,U2,3,RING1*%
%TO.N,scl*%
X94375000Y-26837500D03*
%TO.P,U2,4,RING2*%
%TO.N,sda*%
X94375000Y-23837500D03*
%TO.P,U2,2,TIP*%
%TO.N,3v3*%
X94375000Y-30837500D03*
%TO.P,U2,1,SLEEVE*%
%TO.N,gnd*%
X89775000Y-31937500D03*
%TD*%
D11*
%TO.P,J1,1,Pin_1*%
%TO.N,sda*%
X69056250Y-26362500D03*
D12*
%TO.P,J1,2,Pin_2*%
%TO.N,scl*%
X69056250Y-28902500D03*
%TO.P,J1,3,Pin_3*%
%TO.N,3v3*%
X69056250Y-31442500D03*
%TO.P,J1,4,Pin_4*%
%TO.N,gnd*%
X69056250Y-33982500D03*
%TD*%
D13*
%TO.P,SW19,1,A*%
%TO.N,Net-(D19-Pad2)*%
X102333750Y-103807500D03*
%TO.P,SW19,2,B*%
%TO.N,col4*%
X88483750Y-106347500D03*
%TD*%
%TO.P,SW12,1,A*%
%TO.N,Net-(D12-Pad2)*%
X140433750Y-84757500D03*
%TO.P,SW12,2,B*%
%TO.N,col2*%
X126583750Y-87297500D03*
%TD*%
%TO.P,SW11,1,A*%
%TO.N,Net-(D11-Pad2)*%
X159483750Y-84757500D03*
%TO.P,SW11,2,B*%
%TO.N,col1*%
X145633750Y-87297500D03*
%TD*%
%TO.P,SW4,1,A*%
%TO.N,Net-(D4-Pad2)*%
X102333750Y-46657500D03*
%TO.P,SW4,2,B*%
%TO.N,col4*%
X88483750Y-49197500D03*
%TD*%
%TO.P,SW5,1,A*%
%TO.N,Net-(D5-Pad2)*%
X83283750Y-46657500D03*
%TO.P,SW5,2,B*%
%TO.N,col5*%
X69433750Y-49197500D03*
%TD*%
D14*
%TO.P,OL1,1,SDA*%
%TO.N,sda*%
X152400000Y-33972500D03*
%TO.P,OL1,2,SCL*%
%TO.N,scl*%
X152400000Y-31432500D03*
%TO.P,OL1,3,VCC*%
%TO.N,3v3*%
X152400000Y-28892500D03*
%TO.P,OL1,4,GND*%
%TO.N,gnd*%
X152400000Y-26352500D03*
%TD*%
D13*
%TO.P,SW7,1,A*%
%TO.N,Net-(D7-Pad2)*%
X140433750Y-65707500D03*
%TO.P,SW7,2,B*%
%TO.N,col2*%
X126583750Y-68247500D03*
%TD*%
%TO.P,SW14,1,A*%
%TO.N,Net-(D14-Pad2)*%
X102333750Y-84757500D03*
%TO.P,SW14,2,B*%
%TO.N,col4*%
X88483750Y-87297500D03*
%TD*%
%TO.P,SW9,1,A*%
%TO.N,Net-(D9-Pad2)*%
X102333750Y-65707500D03*
%TO.P,SW9,2,B*%
%TO.N,col4*%
X88483750Y-68247500D03*
%TD*%
D11*
%TO.P,J2,1,Pin_1*%
%TO.N,sda*%
X161131250Y-26362500D03*
D12*
%TO.P,J2,2,Pin_2*%
%TO.N,scl*%
X161131250Y-28902500D03*
%TO.P,J2,3,Pin_3*%
%TO.N,3v3*%
X161131250Y-31442500D03*
%TO.P,J2,4,Pin_4*%
%TO.N,gnd*%
X161131250Y-33982500D03*
%TD*%
D13*
%TO.P,SW17,1,A*%
%TO.N,Net-(D17-Pad2)*%
X140433750Y-103807500D03*
%TO.P,SW17,2,B*%
%TO.N,col2*%
X126583750Y-106347500D03*
%TD*%
%TO.P,SW2,1,A*%
%TO.N,Net-(D2-Pad2)*%
X140433750Y-46657500D03*
%TO.P,SW2,2,B*%
%TO.N,col2*%
X126583750Y-49197500D03*
%TD*%
%TO.P,SW6,1,A*%
%TO.N,Net-(D6-Pad2)*%
X159483750Y-65707500D03*
%TO.P,SW6,2,B*%
%TO.N,col1*%
X145633750Y-68247500D03*
%TD*%
%TO.P,SW16,1,A*%
%TO.N,Net-(D16-Pad2)*%
X159483750Y-103807500D03*
%TO.P,SW16,2,B*%
%TO.N,col1*%
X145633750Y-106347500D03*
%TD*%
%TO.P,SW13,1,A*%
%TO.N,Net-(D13-Pad2)*%
X121383750Y-84757500D03*
%TO.P,SW13,2,B*%
%TO.N,col3*%
X107533750Y-87297500D03*
%TD*%
%TO.P,SW3,1,A*%
%TO.N,Net-(D3-Pad2)*%
X121383750Y-46657500D03*
%TO.P,SW3,2,B*%
%TO.N,col3*%
X107533750Y-49197500D03*
%TD*%
%TO.P,SW10,1,A*%
%TO.N,Net-(D10-Pad2)*%
X83283750Y-65707500D03*
%TO.P,SW10,2,B*%
%TO.N,col5*%
X69433750Y-68247500D03*
%TD*%
%TO.P,SW1,1,A*%
%TO.N,Net-(D1-Pad2)*%
X159483750Y-46657500D03*
%TO.P,SW1,2,B*%
%TO.N,col1*%
X145633750Y-49197500D03*
%TD*%
%TO.P,SW18,1,A*%
%TO.N,Net-(D18-Pad2)*%
X121383750Y-103807500D03*
%TO.P,SW18,2,B*%
%TO.N,col3*%
X107533750Y-106347500D03*
%TD*%
D14*
%TO.P,OL2,1,SDA*%
%TO.N,sda*%
X77787500Y-26352500D03*
%TO.P,OL2,2,SCL*%
%TO.N,scl*%
X77787500Y-28892500D03*
%TO.P,OL2,3,VCC*%
%TO.N,3v3*%
X77787500Y-31432500D03*
%TO.P,OL2,4,GND*%
%TO.N,gnd*%
X77787500Y-33972500D03*
%TD*%
D13*
%TO.P,SW15,1,A*%
%TO.N,Net-(D15-Pad2)*%
X83283750Y-84757500D03*
%TO.P,SW15,2,B*%
%TO.N,col5*%
X69433750Y-87297500D03*
%TD*%
%TO.P,SW8,1,A*%
%TO.N,Net-(D8-Pad2)*%
X121383750Y-65707500D03*
%TO.P,SW8,2,B*%
%TO.N,col3*%
X107533750Y-68247500D03*
%TD*%
%TO.P,SW20,1,A*%
%TO.N,Net-(D20-Pad2)*%
X83283750Y-103807500D03*
%TO.P,SW20,2,B*%
%TO.N,col5*%
X69433750Y-106347500D03*
%TD*%
D15*
%TO.P,D11,1,K*%
%TO.N,row3*%
X161131250Y-95412500D03*
%TO.P,D11,2,A*%
%TO.N,Net-(D11-Pad2)*%
X161131250Y-91912500D03*
%TD*%
%TO.P,D20,1,K*%
%TO.N,row4*%
X85725000Y-114462500D03*
%TO.P,D20,2,A*%
%TO.N,Net-(D20-Pad2)*%
X85725000Y-110962500D03*
%TD*%
%TO.P,D4,1,K*%
%TO.N,row1*%
X104775000Y-57312500D03*
%TO.P,D4,2,A*%
%TO.N,Net-(D4-Pad2)*%
X104775000Y-53812500D03*
%TD*%
%TO.P,D14,1,K*%
%TO.N,row3*%
X104775000Y-95412500D03*
%TO.P,D14,2,A*%
%TO.N,Net-(D14-Pad2)*%
X104775000Y-91912500D03*
%TD*%
%TO.P,D10,1,K*%
%TO.N,row2*%
X85725000Y-76362500D03*
%TO.P,D10,2,A*%
%TO.N,Net-(D10-Pad2)*%
X85725000Y-72862500D03*
%TD*%
%TO.P,D3,1,K*%
%TO.N,row1*%
X123825000Y-57312500D03*
%TO.P,D3,2,A*%
%TO.N,Net-(D3-Pad2)*%
X123825000Y-53812500D03*
%TD*%
%TO.P,D13,1,K*%
%TO.N,row3*%
X123825000Y-95412500D03*
%TO.P,D13,2,A*%
%TO.N,Net-(D13-Pad2)*%
X123825000Y-91912500D03*
%TD*%
%TO.P,D16,1,K*%
%TO.N,row4*%
X161131250Y-114462500D03*
%TO.P,D16,2,A*%
%TO.N,Net-(D16-Pad2)*%
X161131250Y-110962500D03*
%TD*%
%TO.P,D18,1,K*%
%TO.N,row4*%
X123825000Y-114462500D03*
%TO.P,D18,2,A*%
%TO.N,Net-(D18-Pad2)*%
X123825000Y-110962500D03*
%TD*%
%TO.P,D5,1,K*%
%TO.N,row1*%
X85725000Y-57312500D03*
%TO.P,D5,2,A*%
%TO.N,Net-(D5-Pad2)*%
X85725000Y-53812500D03*
%TD*%
D16*
%TO.P,U1,1,PA02_A0_D0*%
%TO.N,col1*%
X123220040Y-23157180D03*
%TO.P,U1,2,PA4_A1_D1*%
%TO.N,col2*%
X123220040Y-25697180D03*
%TO.P,U1,3,PA10_A2_D2*%
%TO.N,col3*%
X123220040Y-28237180D03*
%TO.P,U1,4,PA11_A3_D3*%
%TO.N,col4*%
X123220040Y-30777180D03*
%TO.P,U1,5,PA8_A4_D4_SDA*%
%TO.N,sda*%
X123220040Y-33317180D03*
%TO.P,U1,6,PA9_A5_D5_SCL*%
%TO.N,scl*%
X123220040Y-35857180D03*
%TO.P,U1,7,PB08_A6_D6_TX*%
%TO.N,col5*%
X123220040Y-38397180D03*
%TO.P,U1,8,PB09_A7_D7_RX*%
%TO.N,row4*%
X107055480Y-38397180D03*
%TO.P,U1,9,PA7_A8_D8_SCK*%
%TO.N,row3*%
X107055480Y-35857180D03*
%TO.P,U1,10,PA5_A9_D9_MISO*%
%TO.N,row2*%
X107055480Y-33317180D03*
%TO.P,U1,11,PA6_A10_D10_MOSI*%
%TO.N,row1*%
X107055480Y-30777180D03*
%TO.P,U1,12,3V3*%
%TO.N,3v3*%
X107055480Y-28237180D03*
%TO.P,U1,13,GND*%
%TO.N,gnd*%
X107055480Y-25697180D03*
%TO.P,U1,14,5V*%
%TO.N,unconnected-(U1-Pad14)*%
X107055480Y-23157180D03*
D17*
%TO.P,U1,15,5V*%
%TO.N,unconnected-(U1-Pad15)*%
X116353160Y-39475000D03*
%TO.P,U1,16,GND*%
%TO.N,unconnected-(U1-Pad16)*%
X113803160Y-39475000D03*
D18*
%TO.P,U1,17,PA31_SWDIO*%
%TO.N,unconnected-(U1-Pad17)*%
X116354357Y-22470813D03*
%TO.P,U1,18,PA30_SWCLK*%
%TO.N,unconnected-(U1-Pad18)*%
X113814357Y-22470813D03*
%TO.P,U1,19,RESET*%
%TO.N,unconnected-(U1-Pad19)*%
X116354357Y-25010813D03*
%TO.P,U1,20,GND*%
%TO.N,unconnected-(U1-Pad20)*%
X113814357Y-25010813D03*
%TD*%
D15*
%TO.P,D7,1,K*%
%TO.N,row2*%
X142875000Y-76362500D03*
%TO.P,D7,2,A*%
%TO.N,Net-(D7-Pad2)*%
X142875000Y-72862500D03*
%TD*%
%TO.P,D2,1,K*%
%TO.N,row1*%
X142875000Y-57312500D03*
%TO.P,D2,2,A*%
%TO.N,Net-(D2-Pad2)*%
X142875000Y-53812500D03*
%TD*%
%TO.P,D6,1,K*%
%TO.N,row2*%
X161131250Y-76362500D03*
%TO.P,D6,2,A*%
%TO.N,Net-(D6-Pad2)*%
X161131250Y-72862500D03*
%TD*%
%TO.P,D15,1,K*%
%TO.N,row3*%
X85725000Y-95412500D03*
%TO.P,D15,2,A*%
%TO.N,Net-(D15-Pad2)*%
X85725000Y-91912500D03*
%TD*%
%TO.P,D9,1,K*%
%TO.N,row2*%
X104775000Y-76362500D03*
%TO.P,D9,2,A*%
%TO.N,Net-(D9-Pad2)*%
X104775000Y-72862500D03*
%TD*%
%TO.P,D8,1,K*%
%TO.N,row2*%
X123825000Y-76362500D03*
%TO.P,D8,2,A*%
%TO.N,Net-(D8-Pad2)*%
X123825000Y-72862500D03*
%TD*%
%TO.P,D12,1,K*%
%TO.N,row3*%
X142875000Y-95412500D03*
%TO.P,D12,2,A*%
%TO.N,Net-(D12-Pad2)*%
X142875000Y-91912500D03*
%TD*%
%TO.P,D17,1,K*%
%TO.N,row4*%
X142875000Y-114462500D03*
%TO.P,D17,2,A*%
%TO.N,Net-(D17-Pad2)*%
X142875000Y-110962500D03*
%TD*%
%TO.P,D19,1,K*%
%TO.N,row4*%
X104775000Y-114462500D03*
%TO.P,D19,2,A*%
%TO.N,Net-(D19-Pad2)*%
X104775000Y-110962500D03*
%TD*%
%TO.P,D1,1,K*%
%TO.N,row1*%
X161131250Y-57312500D03*
%TO.P,D1,2,A*%
%TO.N,Net-(D1-Pad2)*%
X161131250Y-53812500D03*
%TD*%
D19*
%TO.N,3v3*%
X109537500Y-28575000D03*
%TO.N,scl*%
X147637500Y-35720011D03*
X136430885Y-35814125D03*
%TO.N,row1*%
X100012500Y-57150000D03*
X100806250Y-36512500D03*
%TO.N,row2*%
X101600000Y-37306250D03*
X102393750Y-76200000D03*
%TO.N,row3*%
X103025000Y-95412500D03*
X103187500Y-37306250D03*
%TO.N,row4*%
X103981250Y-38100000D03*
X103025000Y-114462500D03*
%TO.N,scl*%
X147637500Y-31731011D03*
X147637500Y-27781250D03*
X118356989Y-27869489D03*
%TO.N,sda*%
X146843750Y-34131250D03*
X146914261Y-25329489D03*
X119785739Y-25329489D03*
%TO.N,gnd*%
X101670511Y-34995511D03*
X146050000Y-34925000D03*
X146050000Y-26193750D03*
%TO.N,3v3*%
X148431250Y-28593989D03*
X103187500Y-32543750D03*
X148519489Y-32455511D03*
%TO.N,col1*%
X145256250Y-51593750D03*
X145256250Y-70643750D03*
X145256250Y-84931250D03*
X145256250Y-103981250D03*
X145256250Y-65881250D03*
X145256250Y-89693750D03*
%TO.N,col2*%
X126206250Y-65881250D03*
X126206250Y-70643750D03*
X126206250Y-89693750D03*
X126206250Y-103981250D03*
X126206250Y-50800000D03*
X126206250Y-84931250D03*
%TO.N,col3*%
X107156250Y-84931250D03*
X107156250Y-70643750D03*
X107156250Y-65881250D03*
X107156250Y-103981250D03*
X107156250Y-51593750D03*
X107156250Y-89693750D03*
%TO.N,col4*%
X88106250Y-84931250D03*
X88106250Y-89693750D03*
X88106250Y-65881250D03*
X88106250Y-70643750D03*
X88106250Y-51593750D03*
X88106250Y-103981250D03*
%TO.N,col5*%
X69056250Y-51593750D03*
X69056250Y-89693750D03*
X69056250Y-70643750D03*
X69056250Y-65881250D03*
X69056250Y-84931250D03*
X69056250Y-103981250D03*
%TD*%
D20*
%TO.N,col1*%
X123220040Y-23157180D02*
X139302509Y-23157180D01*
X140234689Y-22225000D02*
X144185640Y-22225000D01*
X144185640Y-22225000D02*
X145117820Y-23157180D01*
X139302509Y-23157180D02*
X140234689Y-22225000D01*
%TO.N,col2*%
X143371570Y-25697180D02*
X143187370Y-25512980D01*
X143187370Y-25512980D02*
X123404240Y-25512980D01*
X123404240Y-25512980D02*
X123220040Y-25697180D01*
%TO.N,3v3*%
X109199680Y-28237180D02*
X109537500Y-28575000D01*
X107055480Y-28237180D02*
X109199680Y-28237180D01*
%TO.N,scl*%
X147637500Y-35720011D02*
X147637500Y-31731011D01*
X136387830Y-35857180D02*
X136430885Y-35814125D01*
X123220040Y-35857180D02*
X136387830Y-35857180D01*
%TO.N,col4*%
X140493750Y-38852392D02*
X140493750Y-42068750D01*
X123220040Y-30777180D02*
X132418538Y-30777180D01*
X132418538Y-30777180D02*
X140493750Y-38852392D01*
%TO.N,row1*%
X85725000Y-57312500D02*
X104775000Y-57312500D01*
X107055480Y-30777180D02*
X101320160Y-36512500D01*
X142875000Y-57312500D02*
X161131250Y-57312500D01*
X123825000Y-57312500D02*
X142875000Y-57312500D01*
X101320160Y-36512500D02*
X100806250Y-36512500D01*
X104775000Y-57312500D02*
X123825000Y-57312500D01*
%TO.N,Net-(D1-Pad2)*%
X159483750Y-46657500D02*
X161131250Y-48305000D01*
X161131250Y-48305000D02*
X161131250Y-53812500D01*
%TO.N,Net-(D2-Pad2)*%
X140433750Y-51371250D02*
X142875000Y-53812500D01*
X140433750Y-46657500D02*
X140433750Y-51371250D01*
%TO.N,Net-(D3-Pad2)*%
X121383750Y-46657500D02*
X121383750Y-51371250D01*
X121383750Y-51371250D02*
X123825000Y-53812500D01*
%TO.N,Net-(D4-Pad2)*%
X102333750Y-51371250D02*
X104775000Y-53812500D01*
X102333750Y-46657500D02*
X102333750Y-51371250D01*
%TO.N,Net-(D5-Pad2)*%
X83283750Y-51371250D02*
X85725000Y-53812500D01*
X83283750Y-46657500D02*
X83283750Y-51371250D01*
%TO.N,row2*%
X142875000Y-76362500D02*
X123825000Y-76362500D01*
X161131250Y-76362500D02*
X142875000Y-76362500D01*
X105589070Y-33317180D02*
X101600000Y-37306250D01*
X104775000Y-76362500D02*
X85725000Y-76362500D01*
X107055480Y-33317180D02*
X105589070Y-33317180D01*
X123825000Y-76362500D02*
X104775000Y-76362500D01*
%TO.N,Net-(D6-Pad2)*%
X159483750Y-65707500D02*
X161131250Y-67355000D01*
X161131250Y-67355000D02*
X161131250Y-72862500D01*
%TO.N,Net-(D7-Pad2)*%
X140433750Y-65707500D02*
X140433750Y-70421250D01*
X140433750Y-70421250D02*
X142875000Y-72862500D01*
%TO.N,Net-(D8-Pad2)*%
X121383750Y-70421250D02*
X123825000Y-72862500D01*
X121383750Y-65707500D02*
X121383750Y-70421250D01*
%TO.N,Net-(D9-Pad2)*%
X102333750Y-65707500D02*
X102333750Y-70421250D01*
X102333750Y-70421250D02*
X104775000Y-72862500D01*
%TO.N,Net-(D10-Pad2)*%
X83283750Y-65707500D02*
X83283750Y-70421250D01*
X83283750Y-70421250D02*
X85725000Y-72862500D01*
%TO.N,row3*%
X103025000Y-95412500D02*
X104775000Y-95412500D01*
X107055480Y-35857180D02*
X104636570Y-35857180D01*
X104636570Y-35857180D02*
X103187500Y-37306250D01*
X142875000Y-95412500D02*
X161131250Y-95412500D01*
X123825000Y-95412500D02*
X142875000Y-95412500D01*
X85725000Y-95412500D02*
X103025000Y-95412500D01*
X104775000Y-95412500D02*
X123825000Y-95412500D01*
%TO.N,Net-(D11-Pad2)*%
X161131250Y-86405000D02*
X161131250Y-91912500D01*
X159483750Y-84757500D02*
X161131250Y-86405000D01*
%TO.N,Net-(D12-Pad2)*%
X140433750Y-89471250D02*
X142875000Y-91912500D01*
X140433750Y-84757500D02*
X140433750Y-89471250D01*
%TO.N,Net-(D13-Pad2)*%
X121383750Y-84757500D02*
X121383750Y-89471250D01*
X121383750Y-89471250D02*
X123825000Y-91912500D01*
%TO.N,Net-(D14-Pad2)*%
X102333750Y-84757500D02*
X102333750Y-89471250D01*
X102333750Y-89471250D02*
X104775000Y-91912500D01*
%TO.N,Net-(D15-Pad2)*%
X83283750Y-84757500D02*
X83283750Y-89471250D01*
X83283750Y-89471250D02*
X85725000Y-91912500D01*
%TO.N,row4*%
X103025000Y-114462500D02*
X85725000Y-114462500D01*
X104278430Y-38397180D02*
X103981250Y-38100000D01*
X161131250Y-114462500D02*
X142875000Y-114462500D01*
X123825000Y-114462500D02*
X104775000Y-114462500D01*
X107055480Y-38397180D02*
X104278430Y-38397180D01*
X104775000Y-114462500D02*
X103025000Y-114462500D01*
X142875000Y-114462500D02*
X123825000Y-114462500D01*
%TO.N,Net-(D16-Pad2)*%
X159483750Y-103807500D02*
X161131250Y-105455000D01*
X161131250Y-105455000D02*
X161131250Y-110962500D01*
%TO.N,Net-(D17-Pad2)*%
X140433750Y-108521250D02*
X142875000Y-110962500D01*
X140433750Y-103807500D02*
X140433750Y-108521250D01*
%TO.N,Net-(D18-Pad2)*%
X121383750Y-103807500D02*
X121383750Y-108521250D01*
X121383750Y-108521250D02*
X123825000Y-110962500D01*
%TO.N,Net-(D19-Pad2)*%
X102333750Y-103807500D02*
X102333750Y-108521250D01*
X102333750Y-108521250D02*
X104775000Y-110962500D01*
%TO.N,Net-(D20-Pad2)*%
X83283750Y-108521250D02*
X85725000Y-110962500D01*
X83283750Y-103807500D02*
X83283750Y-108521250D01*
%TO.N,scl*%
X147637500Y-27781250D02*
X147637500Y-31731011D01*
X69056250Y-28902500D02*
X77777500Y-28902500D01*
X118356989Y-27869489D02*
X118356989Y-30994129D01*
X77777500Y-28902500D02*
X77787500Y-28892500D01*
X118356989Y-30994129D02*
X123220040Y-35857180D01*
%TO.N,sda*%
X119785739Y-29882879D02*
X123220040Y-33317180D01*
X119785739Y-25329489D02*
X119785739Y-29882879D01*
X69056250Y-26362500D02*
X77777500Y-26362500D01*
X77777500Y-26362500D02*
X77787500Y-26352500D01*
X146914261Y-25329489D02*
X146843750Y-25400000D01*
X146843750Y-25400000D02*
X146843750Y-34131250D01*
%TO.N,gnd*%
X101670511Y-34995511D02*
X101670511Y-31082149D01*
X77777500Y-33982500D02*
X77787500Y-33972500D01*
X69056250Y-33982500D02*
X77777500Y-33982500D01*
X146050000Y-34925000D02*
X146050000Y-26193750D01*
X101670511Y-31082149D02*
X107055480Y-25697180D01*
%TO.N,3v3*%
X69056250Y-31442500D02*
X77777500Y-31442500D01*
X103187500Y-32105160D02*
X107055480Y-28237180D01*
X148519489Y-28682228D02*
X148431250Y-28593989D01*
X77777500Y-31442500D02*
X77787500Y-31432500D01*
X103187500Y-32543750D02*
X103187500Y-32105160D01*
X148519489Y-32455511D02*
X148519489Y-28682228D01*
%TO.N,col1*%
X145256250Y-51593750D02*
X145633750Y-51216250D01*
X145633750Y-104358750D02*
X145256250Y-103981250D01*
X145633750Y-68247500D02*
X145633750Y-66258750D01*
X145633750Y-87297500D02*
X145633750Y-85308750D01*
X145256250Y-70643750D02*
X145633750Y-70266250D01*
X145633750Y-85308750D02*
X145256250Y-84931250D01*
X145633750Y-106347500D02*
X145633750Y-104358750D01*
X145633750Y-51216250D02*
X145633750Y-49197500D01*
X145256250Y-89693750D02*
X145633750Y-89316250D01*
X145117820Y-23157180D02*
X145117820Y-48681570D01*
X145633750Y-70266250D02*
X145633750Y-68247500D01*
X145633750Y-89316250D02*
X145633750Y-87297500D01*
X145633750Y-66258750D02*
X145256250Y-65881250D01*
X145117820Y-48681570D02*
X145633750Y-49197500D01*
%TO.N,col2*%
X143371570Y-43953430D02*
X131827820Y-43953430D01*
X126206250Y-103981250D02*
X126583750Y-104358750D01*
X126583750Y-85308750D02*
X126583750Y-87297500D01*
X126583750Y-104358750D02*
X126583750Y-106347500D01*
X126583750Y-50422500D02*
X126206250Y-50800000D01*
X143371570Y-25697180D02*
X143371570Y-43953430D01*
X126583750Y-70266250D02*
X126206250Y-70643750D01*
X126583750Y-87297500D02*
X126583750Y-89316250D01*
X126206250Y-65881250D02*
X126583750Y-66258750D01*
X126583750Y-68247500D02*
X126583750Y-70266250D01*
X131827820Y-43953430D02*
X126583750Y-49197500D01*
X126583750Y-49197500D02*
X126583750Y-50422500D01*
X126583750Y-66258750D02*
X126583750Y-68247500D01*
X126583750Y-89316250D02*
X126206250Y-89693750D01*
X126206250Y-84931250D02*
X126583750Y-85308750D01*
%TO.N,col3*%
X141743430Y-28237180D02*
X142081250Y-28575000D01*
X107533750Y-89316250D02*
X107533750Y-87297500D01*
X107533750Y-66258750D02*
X107156250Y-65881250D01*
X107533750Y-51216250D02*
X107533750Y-49197500D01*
X142081250Y-42862500D02*
X113868750Y-42862500D01*
X107156250Y-89693750D02*
X107533750Y-89316250D01*
X107533750Y-106347500D02*
X107533750Y-104358750D01*
X107533750Y-87297500D02*
X107533750Y-85308750D01*
X123220040Y-28237180D02*
X141743430Y-28237180D01*
X107156250Y-51593750D02*
X107533750Y-51216250D01*
X107533750Y-104358750D02*
X107156250Y-103981250D01*
X113868750Y-42862500D02*
X107533750Y-49197500D01*
X142081250Y-28575000D02*
X142081250Y-42862500D01*
X107533750Y-85308750D02*
X107156250Y-84931250D01*
X107533750Y-70266250D02*
X107533750Y-68247500D01*
X107156250Y-70643750D02*
X107533750Y-70266250D01*
X107533750Y-68247500D02*
X107533750Y-66258750D01*
%TO.N,col4*%
X88483750Y-87297500D02*
X88483750Y-85308750D01*
X140493750Y-42068750D02*
X95612500Y-42068750D01*
X88106250Y-70643750D02*
X88483750Y-70266250D01*
X88106250Y-89693750D02*
X88483750Y-89316250D01*
X88483750Y-51216250D02*
X88483750Y-49197500D01*
X95612500Y-42068750D02*
X88483750Y-49197500D01*
X88483750Y-66258750D02*
X88106250Y-65881250D01*
X88483750Y-104358750D02*
X88106250Y-103981250D01*
X88483750Y-68247500D02*
X88483750Y-66258750D01*
X88483750Y-85308750D02*
X88106250Y-84931250D01*
X88483750Y-89316250D02*
X88483750Y-87297500D01*
X88106250Y-51593750D02*
X88483750Y-51216250D01*
X88483750Y-70266250D02*
X88483750Y-68247500D01*
X88483750Y-106347500D02*
X88483750Y-104358750D01*
%TO.N,col5*%
X123220040Y-38397180D02*
X139402820Y-38397180D01*
X69056250Y-89693750D02*
X69433750Y-89316250D01*
X139402820Y-38397180D02*
X139700000Y-38694360D01*
X69433750Y-85308750D02*
X69056250Y-84931250D01*
X69433750Y-89316250D02*
X69433750Y-87297500D01*
X69056250Y-70643750D02*
X69433750Y-70266250D01*
X69433750Y-87297500D02*
X69433750Y-85308750D01*
X69433750Y-104358750D02*
X69056250Y-103981250D01*
X139700000Y-38694360D02*
X139700000Y-41275000D01*
X69433750Y-66258750D02*
X69056250Y-65881250D01*
X69433750Y-106347500D02*
X69433750Y-104358750D01*
X69433750Y-70266250D02*
X69433750Y-68247500D01*
X69433750Y-68247500D02*
X69433750Y-66258750D01*
X69056250Y-51593750D02*
X69433750Y-51216250D01*
X139700000Y-41275000D02*
X77356250Y-41275000D01*
X77356250Y-41275000D02*
X69433750Y-49197500D01*
X69433750Y-51216250D02*
X69433750Y-49197500D01*
%TD*%
M02*
