%TF.GenerationSoftware,KiCad,Pcbnew,(6.0.4-0)*%
%TF.CreationDate,2022-07-25T20:49:22-05:00*%
%TF.ProjectId,beyblock20,62657962-6c6f-4636-9b32-302e6b696361,rev?*%
%TF.SameCoordinates,Original*%
%TF.FileFunction,Copper,L1,Top*%
%TF.FilePolarity,Positive*%
%FSLAX46Y46*%
G04 Gerber Fmt 4.6, Leading zero omitted, Abs format (unit mm)*
G04 Created by KiCad (PCBNEW (6.0.4-0)) date 2022-07-25 20:49:22*
%MOMM*%
%LPD*%
G01*
G04 APERTURE LIST*
%TA.AperFunction,ComponentPad*%
%ADD10O,1.600000X2.000000*%
%TD*%
%TA.AperFunction,ComponentPad*%
%ADD11R,1.700000X1.700000*%
%TD*%
%TA.AperFunction,ComponentPad*%
%ADD12O,1.700000X1.700000*%
%TD*%
%TA.AperFunction,ComponentPad*%
%ADD13C,1.397000*%
%TD*%
%TA.AperFunction,ViaPad*%
%ADD14C,0.800000*%
%TD*%
%TA.AperFunction,Conductor*%
%ADD15C,0.250000*%
%TD*%
G04 APERTURE END LIST*
D10*
%TO.P,U3,3,RING1*%
%TO.N,scl*%
X140412500Y-26837500D03*
%TO.P,U3,4,RING2*%
%TO.N,sda*%
X140412500Y-23837500D03*
%TO.P,U3,2,TIP*%
%TO.N,3v3*%
X140412500Y-30837500D03*
%TO.P,U3,1,SLEEVE*%
%TO.N,gnd*%
X135812500Y-31937500D03*
%TD*%
%TO.P,U2,3,RING1*%
%TO.N,scl*%
X94375000Y-26837500D03*
%TO.P,U2,4,RING2*%
%TO.N,sda*%
X94375000Y-23837500D03*
%TO.P,U2,2,TIP*%
%TO.N,3v3*%
X94375000Y-30837500D03*
%TO.P,U2,1,SLEEVE*%
%TO.N,gnd*%
X89775000Y-31937500D03*
%TD*%
D11*
%TO.P,J1,1,Pin_1*%
%TO.N,sda*%
X69056250Y-26362500D03*
D12*
%TO.P,J1,2,Pin_2*%
%TO.N,scl*%
X69056250Y-28902500D03*
%TO.P,J1,3,Pin_3*%
%TO.N,3v3*%
X69056250Y-31442500D03*
%TO.P,J1,4,Pin_4*%
%TO.N,gnd*%
X69056250Y-33982500D03*
%TD*%
D13*
%TO.P,OL1,1,SDA*%
%TO.N,sda*%
X152400000Y-33972500D03*
%TO.P,OL1,2,SCL*%
%TO.N,scl*%
X152400000Y-31432500D03*
%TO.P,OL1,3,VCC*%
%TO.N,3v3*%
X152400000Y-28892500D03*
%TO.P,OL1,4,GND*%
%TO.N,gnd*%
X152400000Y-26352500D03*
%TD*%
D11*
%TO.P,J2,1,Pin_1*%
%TO.N,sda*%
X161131250Y-26362500D03*
D12*
%TO.P,J2,2,Pin_2*%
%TO.N,scl*%
X161131250Y-28902500D03*
%TO.P,J2,3,Pin_3*%
%TO.N,3v3*%
X161131250Y-31442500D03*
%TO.P,J2,4,Pin_4*%
%TO.N,gnd*%
X161131250Y-33982500D03*
%TD*%
D13*
%TO.P,OL2,1,SDA*%
%TO.N,sda*%
X77787500Y-26352500D03*
%TO.P,OL2,2,SCL*%
%TO.N,scl*%
X77787500Y-28892500D03*
%TO.P,OL2,3,VCC*%
%TO.N,3v3*%
X77787500Y-31432500D03*
%TO.P,OL2,4,GND*%
%TO.N,gnd*%
X77787500Y-33972500D03*
%TD*%
D14*
%TO.N,3v3*%
X109537500Y-28575000D03*
%TO.N,scl*%
X147637500Y-35720011D03*
X136430885Y-35814125D03*
%TO.N,row1*%
X100012500Y-57150000D03*
X100806250Y-36512500D03*
%TO.N,row2*%
X101600000Y-37306250D03*
X102393750Y-76200000D03*
%TO.N,row3*%
X103025000Y-95412500D03*
X103187500Y-37306250D03*
%TO.N,row4*%
X103981250Y-38100000D03*
X103025000Y-114462500D03*
%TO.N,scl*%
X147637500Y-31731011D03*
X147637500Y-27781250D03*
X118356989Y-27869489D03*
%TO.N,sda*%
X146843750Y-34131250D03*
X146914261Y-25329489D03*
X119785739Y-25329489D03*
%TO.N,gnd*%
X101670511Y-34995511D03*
X146050000Y-34925000D03*
X146050000Y-26193750D03*
%TO.N,3v3*%
X148431250Y-28593989D03*
X103187500Y-32543750D03*
X148519489Y-32455511D03*
%TO.N,col1*%
X145256250Y-51593750D03*
X145256250Y-70643750D03*
X145256250Y-84931250D03*
X145256250Y-103981250D03*
X145256250Y-65881250D03*
X145256250Y-89693750D03*
%TO.N,col2*%
X126206250Y-65881250D03*
X126206250Y-70643750D03*
X126206250Y-89693750D03*
X126206250Y-103981250D03*
X126206250Y-50800000D03*
X126206250Y-84931250D03*
%TO.N,col3*%
X107156250Y-84931250D03*
X107156250Y-70643750D03*
X107156250Y-65881250D03*
X107156250Y-103981250D03*
X107156250Y-51593750D03*
X107156250Y-89693750D03*
%TO.N,col4*%
X88106250Y-84931250D03*
X88106250Y-89693750D03*
X88106250Y-65881250D03*
X88106250Y-70643750D03*
X88106250Y-51593750D03*
X88106250Y-103981250D03*
%TO.N,col5*%
X69056250Y-51593750D03*
X69056250Y-89693750D03*
X69056250Y-70643750D03*
X69056250Y-65881250D03*
X69056250Y-84931250D03*
X69056250Y-103981250D03*
%TD*%
D15*
%TO.N,gnd*%
X89775000Y-31937500D02*
X89999520Y-32162020D01*
X89999520Y-32162020D02*
X98837020Y-32162020D01*
X98837020Y-32162020D02*
X101670511Y-34995511D01*
X78810511Y-34995511D02*
X81868522Y-31937500D01*
X81868522Y-31937500D02*
X89775000Y-31937500D01*
%TO.N,3v3*%
X78810511Y-32455511D02*
X82803043Y-28462979D01*
X92756729Y-28462979D02*
X94375000Y-30081250D01*
X94375000Y-30081250D02*
X94375000Y-30837500D01*
X82803043Y-28462979D02*
X92756729Y-28462979D01*
%TO.N,scl*%
X77787500Y-28892500D02*
X79842500Y-26837500D01*
X79842500Y-26837500D02*
X94375000Y-26837500D01*
%TO.N,sda*%
X77787500Y-26352500D02*
X80302500Y-23837500D01*
X80302500Y-23837500D02*
X94375000Y-23837500D01*
X94375000Y-23837500D02*
X118293750Y-23837500D01*
X118293750Y-23837500D02*
X119785739Y-25329489D01*
%TO.N,scl*%
X94375000Y-26837500D02*
X117325000Y-26837500D01*
X117325000Y-26837500D02*
X118356989Y-27869489D01*
%TO.N,3v3*%
X94375000Y-30837500D02*
X101481250Y-30837500D01*
X101481250Y-30837500D02*
X103187500Y-32543750D01*
X109537500Y-28575000D02*
X110974521Y-30012021D01*
X110974521Y-30012021D02*
X139587021Y-30012021D01*
X139587021Y-30012021D02*
X140412500Y-30837500D01*
%TO.N,scl*%
X147543386Y-35814125D02*
X147637500Y-35720011D01*
X136430885Y-35814125D02*
X147543386Y-35814125D01*
%TO.N,3v3*%
X152400000Y-28892500D02*
X158581250Y-28892500D01*
X158581250Y-28892500D02*
X161131250Y-31442500D01*
%TO.N,gnd*%
X146050000Y-34925000D02*
X138800000Y-34925000D01*
X138800000Y-34925000D02*
X135812500Y-31937500D01*
%TO.N,3v3*%
X148519489Y-32455511D02*
X142030511Y-32455511D01*
X142030511Y-32455511D02*
X140412500Y-30837500D01*
%TO.N,scl*%
X147637500Y-27781250D02*
X141356250Y-27781250D01*
X141356250Y-27781250D02*
X140412500Y-26837500D01*
%TO.N,sda*%
X146914261Y-25329489D02*
X145422272Y-23837500D01*
X145422272Y-23837500D02*
X140412500Y-23837500D01*
%TO.N,row1*%
X100806250Y-36512500D02*
X100806250Y-50321992D01*
X99898329Y-51229913D02*
X99898329Y-57035829D01*
X100806250Y-50321992D02*
X99898329Y-51229913D01*
X99898329Y-57035829D02*
X100012500Y-57150000D01*
%TO.N,row2*%
X102349171Y-38055421D02*
X102349171Y-76155421D01*
X102349171Y-76155421D02*
X102393750Y-76200000D01*
X101600000Y-37306250D02*
X102349171Y-38055421D01*
%TO.N,row3*%
X103187500Y-95250000D02*
X103025000Y-95412500D01*
X103187500Y-37306250D02*
X103187500Y-95250000D01*
%TO.N,row4*%
X103981250Y-38100000D02*
X103981250Y-113506250D01*
X103981250Y-113506250D02*
X103025000Y-114462500D01*
%TO.N,scl*%
X160098239Y-27869489D02*
X161131250Y-28902500D01*
X147637500Y-31731011D02*
X147936011Y-31432500D01*
X147936011Y-31432500D02*
X152400000Y-31432500D01*
X147725739Y-27869489D02*
X160098239Y-27869489D01*
X147725739Y-27869489D02*
X147637500Y-27781250D01*
%TO.N,sda*%
X161131250Y-26362500D02*
X160098239Y-25329489D01*
X160098239Y-25329489D02*
X119785739Y-25329489D01*
X147002500Y-33972500D02*
X152400000Y-33972500D01*
X146843750Y-34131250D02*
X147002500Y-33972500D01*
%TO.N,gnd*%
X101670511Y-34995511D02*
X145979489Y-34995511D01*
X146208750Y-26352500D02*
X152400000Y-26352500D01*
X77787500Y-33972500D02*
X78810511Y-34995511D01*
X160118239Y-34995511D02*
X161131250Y-33982500D01*
X145979489Y-34995511D02*
X160118239Y-34995511D01*
X146050000Y-26193750D02*
X146208750Y-26352500D01*
X145979489Y-34995511D02*
X146050000Y-34925000D01*
%TO.N,3v3*%
X77787500Y-31432500D02*
X78810511Y-32455511D01*
X148729761Y-28892500D02*
X152400000Y-28892500D01*
X148431250Y-28593989D02*
X148729761Y-28892500D01*
%TO.N,col1*%
X145256250Y-84931250D02*
X145256250Y-70643750D01*
X145256250Y-65881250D02*
X145256250Y-51593750D01*
X145256250Y-103981250D02*
X145256250Y-89693750D01*
%TO.N,col2*%
X126206250Y-50800000D02*
X126206250Y-65881250D01*
X126206250Y-89693750D02*
X126206250Y-103981250D01*
X126206250Y-70643750D02*
X126206250Y-84931250D01*
%TO.N,col3*%
X107156250Y-65881250D02*
X107156250Y-51593750D01*
X107156250Y-103981250D02*
X107156250Y-89693750D01*
X107156250Y-84931250D02*
X107156250Y-70643750D01*
%TO.N,col4*%
X88106250Y-65881250D02*
X88106250Y-51593750D01*
X88106250Y-84931250D02*
X88106250Y-70643750D01*
X88106250Y-103981250D02*
X88106250Y-89693750D01*
%TO.N,col5*%
X69056250Y-65881250D02*
X69056250Y-51593750D01*
X69056250Y-103981250D02*
X69056250Y-89693750D01*
X69056250Y-84931250D02*
X69056250Y-70643750D01*
%TD*%
M02*
