<?xml version="1.0" encoding="UTF-8" standalone="no"?>
<!-- Generator: Fusion 360, Shaper Origin Export Add-In, Version 1.6.3  -->

<svg
   shaper:fusionaddin="version:1.6.3"
   width="8.875cm"
   height="2.3287cm"
   version="1.1"
   x="0cm"
   y="0cm"
   viewBox="0 0 8.875 2.3287"
   enable-background="new 0 0 8.875 2.3287"
   xml:space="preserve"
   id="svg882"
   sodipodi:docname="mask.svg"
   inkscape:version="1.1.1 (c3084ef, 2021-09-22)"
   xmlns:inkscape="http://www.inkscape.org/namespaces/inkscape"
   xmlns:sodipodi="http://sodipodi.sourceforge.net/DTD/sodipodi-0.dtd"
   xmlns="http://www.w3.org/2000/svg"
   xmlns:svg="http://www.w3.org/2000/svg"
   xmlns:shaper="http://www.shapertools.com/namespaces/shaper"><defs
     id="defs886" /><sodipodi:namedview
     id="namedview884"
     pagecolor="#505050"
     bordercolor="#eeeeee"
     borderopacity="1"
     inkscape:pageshadow="0"
     inkscape:pageopacity="0"
     inkscape:pagecheckerboard="0"
     inkscape:document-units="cm"
     showgrid="false"
     inkscape:zoom="2.2329343"
     inkscape:cx="169.95574"
     inkscape:cy="6.269777"
     inkscape:window-width="1312"
     inkscape:window-height="872"
     inkscape:window-x="1857"
     inkscape:window-y="586"
     inkscape:window-maximized="0"
     inkscape:current-layer="svg882" /><path
     d="M-0.2,2.1287 L-0.2,0.2 A0.2,0.2 180 0,1 -0,-0 L8.475,0 A0.2,0.2 270 0,1 8.675,0.2 L8.675,2.1287 A0.2,0.2 0 0,1 8.475,2.3287 L0,2.3287 A0.2,0.2 90 0,1 -0.2,2.1287z"
     transform="matrix(1,0,0,-1,0.2,2.3287)"
     fill="rgb(0,0,0)"
     shaper:cutDepth="0.002"
     stroke-linecap="round"
     stroke-linejoin="round"
     id="path872"
     style="fill:none;stroke:#ff0000;stroke-opacity:1;stroke-width:0.02;stroke-miterlimit:4;stroke-dasharray:none" /><path
     d="M-0,1.8787 a0.11,0.11 0 1,1 0.22,0 a0.11,0.11 0 1,1 -0.22,0z"
     transform="matrix(1,0,0,-1,0.2,2.3287)"
     fill="rgb(255,255,255)"
     stroke="rgb(0,0,0)"
     stroke-width="0.0010cm"
     stroke-linecap="round"
     stroke-linejoin="round"
     shaper:cutDepth="0.002"
     id="path874"
     style="fill:none;stroke:#ff0000;stroke-opacity:1;stroke-width:0.0178;stroke-miterlimit:4;stroke-dasharray:none" /><path
     d="M-0,0.45 a0.11,0.11 0 1,1 0.22,0 a0.11,0.11 0 1,1 -0.22,0z"
     transform="matrix(1,0,0,-1,0.2,2.3287)"
     fill="rgb(255,255,255)"
     stroke="rgb(0,0,0)"
     stroke-width="0.0010cm"
     stroke-linecap="round"
     stroke-linejoin="round"
     shaper:cutDepth="0.002"
     id="path876"
     style="fill:none;stroke:#ff0000;stroke-opacity:1;stroke-width:0.0178;stroke-miterlimit:4;stroke-dasharray:none" /><path
     d="M8.255,0.45 a0.11,0.11 0 1,1 0.22,0 a0.11,0.11 0 1,1 -0.22,0z"
     transform="matrix(1,0,0,-1,0.2,2.3287)"
     fill="rgb(255,255,255)"
     stroke="rgb(0,0,0)"
     stroke-width="0.0010cm"
     stroke-linecap="round"
     stroke-linejoin="round"
     shaper:cutDepth="0.002"
     id="path878"
     style="fill:none;stroke:#ff0000;stroke-opacity:1;stroke-width:0.0178;stroke-miterlimit:4;stroke-dasharray:none" /><path
     d="M8.255,1.8787 a0.11,0.11 0 1,1 0.22,0 a0.11,0.11 0 1,1 -0.22,0z"
     transform="matrix(1,0,0,-1,0.2,2.3287)"
     fill="rgb(255,255,255)"
     stroke="rgb(0,0,0)"
     stroke-width="0.0010cm"
     stroke-linecap="round"
     stroke-linejoin="round"
     shaper:cutDepth="0.002"
     id="path880"
     style="fill:none;stroke:#ff0000;stroke-opacity:1;stroke-width:0.0178;stroke-miterlimit:4;stroke-dasharray:none" /><text
     xml:space="preserve"
     style="font-style:normal;font-variant:normal;font-weight:normal;font-stretch:normal;font-size:0.846667px;line-height:1.25;font-family:Comfortaa;-inkscape-font-specification:Comfortaa;fill:#0000ff;stroke-width:0.0264583"
     x="0.82943904"
     y="1.3981975"
     id="text3172"><tspan
       sodipodi:role="line"
       id="tspan3170"
       style="font-style:normal;font-variant:normal;font-weight:normal;font-stretch:normal;font-size:0.846667px;font-family:Comfortaa;-inkscape-font-specification:Comfortaa;fill:#0000ff;stroke-width:0.0264583"
       x="0.82943904"
       y="1.3981975">beyblock20</tspan></text><g
     transform="matrix(0.00745962,0,0,0.00745962,7.0540144,1.0783034)"
     id="Lxuw2tV06n7lBmYZBtvw1"
     style="fill:#0000ff;stroke:none;stroke-width:1.00541;stroke-miterlimit:4;stroke-dasharray:none">
<path
   style="opacity:1;fill:#0000ff;fill-rule:nonzero;stroke:none;stroke-width:1.00541;stroke-linecap:butt;stroke-linejoin:miter;stroke-miterlimit:4;stroke-dasharray:none;stroke-dashoffset:0"
   vector-effect="non-scaling-stroke"
   transform="translate(-102.08,-117.88)"
   d="m 33.97811,118.33565 c 0,-16.73953 13.5857,-30.32523 30.32523,-30.32523 15.03076,0 27.51872,10.95362 29.91163,25.30861 2.58143,-0.29945 5.20703,-0.45338 7.86836,-0.45338 h 1e-5 c 2.48143,0 4.93179,0.13383 7.34426,0.39465 2.22504,-14.55164 14.80524,-25.70989 29.97575,-25.70989 16.73953,0 30.32523,13.5857 30.32523,30.32523 0,9.85911 -4.71271,18.62419 -12.00683,24.16395 6.00361,8.66216 10.0371,18.79175 11.4505,29.7388 11.18363,-14.38405 17.84568,-32.45513 17.84568,-52.07275 0,-46.88389 -38.05069,-84.93458 -84.93458,-84.93458 -46.88389,0 -84.93458,38.05069 -84.93458,84.93458 0,19.61762 6.66205,37.68868 17.84566,52.07273 1.38458,-10.72375 5.28344,-20.66304 11.08558,-29.20688 -7.34821,-5.53564 -12.10189,-14.33398 -12.10189,-24.23585 z m 58.78208,27.03002 c -0.0013,0 -0.0026,0 -0.004,0 -5.4e-4,0 -4.629,0 -10.02289,0 0,-3.4e-4 0,-10.02259 0,-10.02291 0,-3.4e-4 0,-0.1333 0,-0.13363 h -0.0027 c -0.07013,-1.70451 -1.47563,-3.06638 -3.19726,-3.06638 -1.72165,0 -3.12713,1.36187 -3.19726,3.06638 h -0.0027 c 0,0.002 0,0.13179 0,0.13363 0,0.002 0,10.02106 0,10.0229 -5.45083,0 -10.15596,0 -10.15651,0 v 0.003 c -1.70452,0.0701 -3.06638,1.47562 -3.06638,3.19725 0,1.72164 1.36187,3.12713 3.06638,3.19725 v 0.003 h 10.15651 c 0,9.6e-4 0,10.02194 0,10.0229 0,9.6e-4 0,0.13265 0,0.13361 h 0.0027 c 0.07012,1.70452 1.47562,3.06638 3.19725,3.06638 1.72164,0 3.12713,-1.36187 3.19725,-3.06638 h 0.0027 c 0,-0.002 0,-0.13202 0,-0.13361 0,-0.002 0,-10.0213 0,-10.0229 0.0013,0 10.02157,0 10.02289,0 0.0013,0 0.13231,0 0.13363,0 v -0.003 c 1.70451,-0.0701 3.06638,-1.47563 3.06638,-3.19726 0,-1.72165 -1.36187,-3.12713 -3.06638,-3.19726 v -0.003 z m 38.96322,-8.41554 c -9.3e-4,9.3e-4 -0.002,0.002 -0.003,0.003 -3.8e-4,3.8e-4 -3.2732,3.2732 -7.08725,7.08725 -2.4e-4,-2.4e-4 -7.08704,-7.08704 -7.08727,-7.08727 -2.4e-4,-2.4e-4 -0.0943,-0.0943 -0.0945,-0.0945 l -0.002,0.002 c -1.25486,-1.15568 -3.21168,-1.12483 -4.42906,0.0926 -1.21739,1.21739 -1.24823,3.1742 -0.0926,4.42906 l -0.002,0.002 c 0.001,0.001 0.0932,0.0932 0.0945,0.0945 0.001,0.001 7.08596,7.08596 7.08726,7.08726 -3.85432,3.85432 -7.18135,7.18135 -7.18174,7.18174 l 0.002,0.002 c -1.15569,1.25486 -1.12484,3.21168 0.0925,4.42906 1.21738,1.21738 3.1742,1.24823 4.42906,0.0925 l 0.002,0.002 7.18174,-7.18174 c 6.8e-4,6.8e-4 7.08658,7.08658 7.08726,7.08726 6.8e-4,6.8e-4 0.0938,0.0938 0.0945,0.0945 l 0.002,-0.002 c 1.25486,1.15569 3.21168,1.12484 4.42906,-0.0925 1.21738,-1.21738 1.24823,-3.1742 0.0925,-4.42906 l 0.002,-0.002 c -0.001,-0.001 -0.0934,-0.0933 -0.0945,-0.0945 -0.001,-0.001 -7.08613,-7.08613 -7.08726,-7.08726 9.3e-4,-9.3e-4 7.08632,-7.08632 7.08725,-7.08725 9.3e-4,-9.3e-4 0.0936,-0.0936 0.0945,-0.0945 l -0.002,-0.002 c 1.15568,-1.25486 1.12483,-3.21168 -0.0925,-4.42906 -1.21739,-1.21739 -3.1742,-1.24823 -4.42906,-0.0926 l -0.002,-0.002 z m 72.44321,-78.01235 5e-5,117.87572 L 102.08328,235.75132 5e-5,176.81354 0,58.93782 102.08339,0 Z"
   stroke-linecap="round"
   id="path10914" />
</g></svg>
