<svg width="228.6mm" height="100.013mm" viewBox="0 0 228.6 100.013" xmlns="http://www.w3.org/2000/svg"><g id="svgGroup" stroke-linecap="round" fill-rule="evenodd" font-size="9pt" stroke="#000" stroke-width="0.25mm" fill="none" style="stroke:#000;stroke-width:0.25mm;fill:none"><path d="M 0 100.013 L 228.6 100.013 L 228.6 0 L 0 0 L 0 100.013 Z M 22.075 2.525 L 35.075 2.525 A 0.5 0.5 0 0 1 35.575 3.025 L 35.575 16.025 A 0.5 0.5 0 0 1 35.075 16.525 L 22.075 16.525 A 0.5 0.5 0 0 1 21.575 16.025 L 21.575 3.025 A 0.5 0.5 0 0 1 22.075 2.525 Z M 22.075 7.288 L 35.075 7.288 A 0.5 0.5 0 0 1 35.575 7.788 L 35.575 20.788 A 0.5 0.5 0 0 1 35.075 21.288 L 22.075 21.288 A 0.5 0.5 0 0 1 21.575 20.788 L 21.575 7.788 A 0.5 0.5 0 0 1 22.075 7.288 Z M 41.125 7.288 L 54.125 7.288 A 0.5 0.5 0 0 1 54.625 7.788 L 54.625 20.788 A 0.5 0.5 0 0 1 54.125 21.288 L 41.125 21.288 A 0.5 0.5 0 0 1 40.625 20.788 L 40.625 7.788 A 0.5 0.5 0 0 1 41.125 7.288 Z M 60.175 7.288 L 73.175 7.288 A 0.5 0.5 0 0 1 73.675 7.788 L 73.675 20.788 A 0.5 0.5 0 0 1 73.175 21.288 L 60.175 21.288 A 0.5 0.5 0 0 1 59.675 20.788 L 59.675 7.788 A 0.5 0.5 0 0 1 60.175 7.288 Z M 79.225 7.288 L 92.225 7.288 A 0.5 0.5 0 0 1 92.725 7.788 L 92.725 20.788 A 0.5 0.5 0 0 1 92.225 21.288 L 79.225 21.288 A 0.5 0.5 0 0 1 78.725 20.788 L 78.725 7.788 A 0.5 0.5 0 0 1 79.225 7.288 Z M 98.275 7.288 L 111.275 7.288 A 0.5 0.5 0 0 1 111.775 7.788 L 111.775 20.788 A 0.5 0.5 0 0 1 111.275 21.288 L 98.275 21.288 A 0.5 0.5 0 0 1 97.775 20.788 L 97.775 7.788 A 0.5 0.5 0 0 1 98.275 7.288 Z M 136.375 7.288 L 149.375 7.288 A 0.5 0.5 0 0 1 149.875 7.788 L 149.875 20.788 A 0.5 0.5 0 0 1 149.375 21.288 L 136.375 21.288 A 0.5 0.5 0 0 1 135.875 20.788 L 135.875 7.788 A 0.5 0.5 0 0 1 136.375 7.288 Z M 155.425 7.288 L 168.425 7.288 A 0.5 0.5 0 0 1 168.925 7.788 L 168.925 20.788 A 0.5 0.5 0 0 1 168.425 21.288 L 155.425 21.288 A 0.5 0.5 0 0 1 154.925 20.788 L 154.925 7.788 A 0.5 0.5 0 0 1 155.425 7.288 Z M 174.475 7.288 L 187.475 7.288 A 0.5 0.5 0 0 1 187.975 7.788 L 187.975 20.788 A 0.5 0.5 0 0 1 187.475 21.288 L 174.475 21.288 A 0.5 0.5 0 0 1 173.975 20.788 L 173.975 7.788 A 0.5 0.5 0 0 1 174.475 7.288 Z M 193.525 7.288 L 206.525 7.288 A 0.5 0.5 0 0 1 207.025 7.788 L 207.025 20.788 A 0.5 0.5 0 0 1 206.525 21.288 L 193.525 21.288 A 0.5 0.5 0 0 1 193.025 20.788 L 193.025 7.788 A 0.5 0.5 0 0 1 193.525 7.288 Z M 212.575 7.288 L 225.575 7.288 A 0.5 0.5 0 0 1 226.075 7.788 L 226.075 20.788 A 0.5 0.5 0 0 1 225.575 21.288 L 212.575 21.288 A 0.5 0.5 0 0 1 212.075 20.788 L 212.075 7.788 A 0.5 0.5 0 0 1 212.575 7.288 Z M 22.075 26.338 L 35.075 26.338 A 0.5 0.5 0 0 1 35.575 26.838 L 35.575 39.838 A 0.5 0.5 0 0 1 35.075 40.338 L 22.075 40.338 A 0.5 0.5 0 0 1 21.575 39.838 L 21.575 26.838 A 0.5 0.5 0 0 1 22.075 26.338 Z M 22.075 45.388 L 35.075 45.388 A 0.5 0.5 0 0 1 35.575 45.888 L 35.575 58.888 A 0.5 0.5 0 0 1 35.075 59.388 L 22.075 59.388 A 0.5 0.5 0 0 1 21.575 58.888 L 21.575 45.888 A 0.5 0.5 0 0 1 22.075 45.388 Z M 22.075 64.438 L 35.075 64.438 A 0.5 0.5 0 0 1 35.575 64.938 L 35.575 77.938 A 0.5 0.5 0 0 1 35.075 78.438 L 22.075 78.438 A 0.5 0.5 0 0 1 21.575 77.938 L 21.575 64.938 A 0.5 0.5 0 0 1 22.075 64.438 Z M 22.075 83.488 L 35.075 83.488 A 0.5 0.5 0 0 1 35.575 83.988 L 35.575 96.988 A 0.5 0.5 0 0 1 35.075 97.488 L 22.075 97.488 A 0.5 0.5 0 0 1 21.575 96.988 L 21.575 83.988 A 0.5 0.5 0 0 1 22.075 83.488 Z M 41.125 26.338 L 54.125 26.338 A 0.5 0.5 0 0 1 54.625 26.838 L 54.625 39.838 A 0.5 0.5 0 0 1 54.125 40.338 L 41.125 40.338 A 0.5 0.5 0 0 1 40.625 39.838 L 40.625 26.838 A 0.5 0.5 0 0 1 41.125 26.338 Z M 60.175 26.338 L 73.175 26.338 A 0.5 0.5 0 0 1 73.675 26.838 L 73.675 39.838 A 0.5 0.5 0 0 1 73.175 40.338 L 60.175 40.338 A 0.5 0.5 0 0 1 59.675 39.838 L 59.675 26.838 A 0.5 0.5 0 0 1 60.175 26.338 Z M 79.225 26.338 L 92.225 26.338 A 0.5 0.5 0 0 1 92.725 26.838 L 92.725 39.838 A 0.5 0.5 0 0 1 92.225 40.338 L 79.225 40.338 A 0.5 0.5 0 0 1 78.725 39.838 L 78.725 26.838 A 0.5 0.5 0 0 1 79.225 26.338 Z M 98.275 26.338 L 111.275 26.338 A 0.5 0.5 0 0 1 111.775 26.838 L 111.775 39.838 A 0.5 0.5 0 0 1 111.275 40.338 L 98.275 40.338 A 0.5 0.5 0 0 1 97.775 39.838 L 97.775 26.838 A 0.5 0.5 0 0 1 98.275 26.338 Z M 136.375 26.338 L 149.375 26.338 A 0.5 0.5 0 0 1 149.875 26.838 L 149.875 39.838 A 0.5 0.5 0 0 1 149.375 40.338 L 136.375 40.338 A 0.5 0.5 0 0 1 135.875 39.838 L 135.875 26.838 A 0.5 0.5 0 0 1 136.375 26.338 Z M 155.425 26.338 L 168.425 26.338 A 0.5 0.5 0 0 1 168.925 26.838 L 168.925 39.838 A 0.5 0.5 0 0 1 168.425 40.338 L 155.425 40.338 A 0.5 0.5 0 0 1 154.925 39.838 L 154.925 26.838 A 0.5 0.5 0 0 1 155.425 26.338 Z M 174.475 26.338 L 187.475 26.338 A 0.5 0.5 0 0 1 187.975 26.838 L 187.975 39.838 A 0.5 0.5 0 0 1 187.475 40.338 L 174.475 40.338 A 0.5 0.5 0 0 1 173.975 39.838 L 173.975 26.838 A 0.5 0.5 0 0 1 174.475 26.338 Z M 193.525 26.338 L 206.525 26.338 A 0.5 0.5 0 0 1 207.025 26.838 L 207.025 39.838 A 0.5 0.5 0 0 1 206.525 40.338 L 193.525 40.338 A 0.5 0.5 0 0 1 193.025 39.838 L 193.025 26.838 A 0.5 0.5 0 0 1 193.525 26.338 Z M 212.575 26.338 L 225.575 26.338 A 0.5 0.5 0 0 1 226.075 26.838 L 226.075 39.838 A 0.5 0.5 0 0 1 225.575 40.338 L 212.575 40.338 A 0.5 0.5 0 0 1 212.075 39.838 L 212.075 26.838 A 0.5 0.5 0 0 1 212.575 26.338 Z M 41.125 45.388 L 54.125 45.388 A 0.5 0.5 0 0 1 54.625 45.888 L 54.625 58.888 A 0.5 0.5 0 0 1 54.125 59.388 L 41.125 59.388 A 0.5 0.5 0 0 1 40.625 58.888 L 40.625 45.888 A 0.5 0.5 0 0 1 41.125 45.388 Z M 60.175 45.388 L 73.175 45.388 A 0.5 0.5 0 0 1 73.675 45.888 L 73.675 58.888 A 0.5 0.5 0 0 1 73.175 59.388 L 60.175 59.388 A 0.5 0.5 0 0 1 59.675 58.888 L 59.675 45.888 A 0.5 0.5 0 0 1 60.175 45.388 Z M 79.225 45.388 L 92.225 45.388 A 0.5 0.5 0 0 1 92.725 45.888 L 92.725 58.888 A 0.5 0.5 0 0 1 92.225 59.388 L 79.225 59.388 A 0.5 0.5 0 0 1 78.725 58.888 L 78.725 45.888 A 0.5 0.5 0 0 1 79.225 45.388 Z M 98.275 45.388 L 111.275 45.388 A 0.5 0.5 0 0 1 111.775 45.888 L 111.775 58.888 A 0.5 0.5 0 0 1 111.275 59.388 L 98.275 59.388 A 0.5 0.5 0 0 1 97.775 58.888 L 97.775 45.888 A 0.5 0.5 0 0 1 98.275 45.388 Z M 136.375 45.388 L 149.375 45.388 A 0.5 0.5 0 0 1 149.875 45.888 L 149.875 58.888 A 0.5 0.5 0 0 1 149.375 59.388 L 136.375 59.388 A 0.5 0.5 0 0 1 135.875 58.888 L 135.875 45.888 A 0.5 0.5 0 0 1 136.375 45.388 Z M 155.425 45.388 L 168.425 45.388 A 0.5 0.5 0 0 1 168.925 45.888 L 168.925 58.888 A 0.5 0.5 0 0 1 168.425 59.388 L 155.425 59.388 A 0.5 0.5 0 0 1 154.925 58.888 L 154.925 45.888 A 0.5 0.5 0 0 1 155.425 45.388 Z M 174.475 45.388 L 187.475 45.388 A 0.5 0.5 0 0 1 187.975 45.888 L 187.975 58.888 A 0.5 0.5 0 0 1 187.475 59.388 L 174.475 59.388 A 0.5 0.5 0 0 1 173.975 58.888 L 173.975 45.888 A 0.5 0.5 0 0 1 174.475 45.388 Z M 193.525 45.388 L 206.525 45.388 A 0.5 0.5 0 0 1 207.025 45.888 L 207.025 58.888 A 0.5 0.5 0 0 1 206.525 59.388 L 193.525 59.388 A 0.5 0.5 0 0 1 193.025 58.888 L 193.025 45.888 A 0.5 0.5 0 0 1 193.525 45.388 Z M 212.575 45.388 L 225.575 45.388 A 0.5 0.5 0 0 1 226.075 45.888 L 226.075 58.888 A 0.5 0.5 0 0 1 225.575 59.388 L 212.575 59.388 A 0.5 0.5 0 0 1 212.075 58.888 L 212.075 45.888 A 0.5 0.5 0 0 1 212.575 45.388 Z M 41.125 64.438 L 54.125 64.438 A 0.5 0.5 0 0 1 54.625 64.938 L 54.625 77.938 A 0.5 0.5 0 0 1 54.125 78.438 L 41.125 78.438 A 0.5 0.5 0 0 1 40.625 77.938 L 40.625 64.938 A 0.5 0.5 0 0 1 41.125 64.438 Z M 60.175 64.438 L 73.175 64.438 A 0.5 0.5 0 0 1 73.675 64.938 L 73.675 77.938 A 0.5 0.5 0 0 1 73.175 78.438 L 60.175 78.438 A 0.5 0.5 0 0 1 59.675 77.938 L 59.675 64.938 A 0.5 0.5 0 0 1 60.175 64.438 Z M 79.225 64.438 L 92.225 64.438 A 0.5 0.5 0 0 1 92.725 64.938 L 92.725 77.938 A 0.5 0.5 0 0 1 92.225 78.438 L 79.225 78.438 A 0.5 0.5 0 0 1 78.725 77.938 L 78.725 64.938 A 0.5 0.5 0 0 1 79.225 64.438 Z M 98.275 64.438 L 111.275 64.438 A 0.5 0.5 0 0 1 111.775 64.938 L 111.775 77.938 A 0.5 0.5 0 0 1 111.275 78.438 L 98.275 78.438 A 0.5 0.5 0 0 1 97.775 77.938 L 97.775 64.938 A 0.5 0.5 0 0 1 98.275 64.438 Z M 136.375 64.438 L 149.375 64.438 A 0.5 0.5 0 0 1 149.875 64.938 L 149.875 77.938 A 0.5 0.5 0 0 1 149.375 78.438 L 136.375 78.438 A 0.5 0.5 0 0 1 135.875 77.938 L 135.875 64.938 A 0.5 0.5 0 0 1 136.375 64.438 Z M 155.425 64.438 L 168.425 64.438 A 0.5 0.5 0 0 1 168.925 64.938 L 168.925 77.938 A 0.5 0.5 0 0 1 168.425 78.438 L 155.425 78.438 A 0.5 0.5 0 0 1 154.925 77.938 L 154.925 64.938 A 0.5 0.5 0 0 1 155.425 64.438 Z M 174.475 64.438 L 187.475 64.438 A 0.5 0.5 0 0 1 187.975 64.938 L 187.975 77.938 A 0.5 0.5 0 0 1 187.475 78.438 L 174.475 78.438 A 0.5 0.5 0 0 1 173.975 77.938 L 173.975 64.938 A 0.5 0.5 0 0 1 174.475 64.438 Z M 193.525 64.438 L 206.525 64.438 A 0.5 0.5 0 0 1 207.025 64.938 L 207.025 77.938 A 0.5 0.5 0 0 1 206.525 78.438 L 193.525 78.438 A 0.5 0.5 0 0 1 193.025 77.938 L 193.025 64.938 A 0.5 0.5 0 0 1 193.525 64.438 Z M 212.575 64.438 L 225.575 64.438 A 0.5 0.5 0 0 1 226.075 64.938 L 226.075 77.938 A 0.5 0.5 0 0 1 225.575 78.438 L 212.575 78.438 A 0.5 0.5 0 0 1 212.075 77.938 L 212.075 64.938 A 0.5 0.5 0 0 1 212.575 64.438 Z M 41.125 83.488 L 54.125 83.488 A 0.5 0.5 0 0 1 54.625 83.988 L 54.625 96.988 A 0.5 0.5 0 0 1 54.125 97.488 L 41.125 97.488 A 0.5 0.5 0 0 1 40.625 96.988 L 40.625 83.988 A 0.5 0.5 0 0 1 41.125 83.488 Z M 60.175 83.488 L 73.175 83.488 A 0.5 0.5 0 0 1 73.675 83.988 L 73.675 96.988 A 0.5 0.5 0 0 1 73.175 97.488 L 60.175 97.488 A 0.5 0.5 0 0 1 59.675 96.988 L 59.675 83.988 A 0.5 0.5 0 0 1 60.175 83.488 Z M 79.225 83.488 L 92.225 83.488 A 0.5 0.5 0 0 1 92.725 83.988 L 92.725 96.988 A 0.5 0.5 0 0 1 92.225 97.488 L 79.225 97.488 A 0.5 0.5 0 0 1 78.725 96.988 L 78.725 83.988 A 0.5 0.5 0 0 1 79.225 83.488 Z M 98.275 83.488 L 111.275 83.488 A 0.5 0.5 0 0 1 111.775 83.988 L 111.775 96.988 A 0.5 0.5 0 0 1 111.275 97.488 L 98.275 97.488 A 0.5 0.5 0 0 1 97.775 96.988 L 97.775 83.988 A 0.5 0.5 0 0 1 98.275 83.488 Z M 136.375 83.488 L 149.375 83.488 A 0.5 0.5 0 0 1 149.875 83.988 L 149.875 96.988 A 0.5 0.5 0 0 1 149.375 97.488 L 136.375 97.488 A 0.5 0.5 0 0 1 135.875 96.988 L 135.875 83.988 A 0.5 0.5 0 0 1 136.375 83.488 Z M 155.425 83.488 L 168.425 83.488 A 0.5 0.5 0 0 1 168.925 83.988 L 168.925 96.988 A 0.5 0.5 0 0 1 168.425 97.488 L 155.425 97.488 A 0.5 0.5 0 0 1 154.925 96.988 L 154.925 83.988 A 0.5 0.5 0 0 1 155.425 83.488 Z M 174.475 83.488 L 187.475 83.488 A 0.5 0.5 0 0 1 187.975 83.988 L 187.975 96.988 A 0.5 0.5 0 0 1 187.475 97.488 L 174.475 97.488 A 0.5 0.5 0 0 1 173.975 96.988 L 173.975 83.988 A 0.5 0.5 0 0 1 174.475 83.488 Z M 193.525 83.488 L 206.525 83.488 A 0.5 0.5 0 0 1 207.025 83.988 L 207.025 96.988 A 0.5 0.5 0 0 1 206.525 97.488 L 193.525 97.488 A 0.5 0.5 0 0 1 193.025 96.988 L 193.025 83.988 A 0.5 0.5 0 0 1 193.525 83.488 Z M 212.575 83.488 L 225.575 83.488 A 0.5 0.5 0 0 1 226.075 83.988 L 226.075 96.988 A 0.5 0.5 0 0 1 225.575 97.488 L 212.575 97.488 A 0.5 0.5 0 0 1 212.075 96.988 L 212.075 83.988 A 0.5 0.5 0 0 1 212.575 83.488 Z M 3.025 2.525 L 16.025 2.525 A 0.5 0.5 0 0 1 16.525 3.025 L 16.525 16.025 A 0.5 0.5 0 0 1 16.025 16.525 L 3.025 16.525 A 0.5 0.5 0 0 1 2.525 16.025 L 2.525 3.025 A 0.5 0.5 0 0 1 3.025 2.525 Z M 41.125 2.525 L 54.125 2.525 A 0.5 0.5 0 0 1 54.625 3.025 L 54.625 16.025 A 0.5 0.5 0 0 1 54.125 16.525 L 41.125 16.525 A 0.5 0.5 0 0 1 40.625 16.025 L 40.625 3.025 A 0.5 0.5 0 0 1 41.125 2.525 Z M 60.175 2.525 L 73.175 2.525 A 0.5 0.5 0 0 1 73.675 3.025 L 73.675 16.025 A 0.5 0.5 0 0 1 73.175 16.525 L 60.175 16.525 A 0.5 0.5 0 0 1 59.675 16.025 L 59.675 3.025 A 0.5 0.5 0 0 1 60.175 2.525 Z M 79.225 2.525 L 92.225 2.525 A 0.5 0.5 0 0 1 92.725 3.025 L 92.725 16.025 A 0.5 0.5 0 0 1 92.225 16.525 L 79.225 16.525 A 0.5 0.5 0 0 1 78.725 16.025 L 78.725 3.025 A 0.5 0.5 0 0 1 79.225 2.525 Z M 98.275 2.525 L 111.275 2.525 A 0.5 0.5 0 0 1 111.775 3.025 L 111.775 16.025 A 0.5 0.5 0 0 1 111.275 16.525 L 98.275 16.525 A 0.5 0.5 0 0 1 97.775 16.025 L 97.775 3.025 A 0.5 0.5 0 0 1 98.275 2.525 Z M 136.375 2.525 L 149.375 2.525 A 0.5 0.5 0 0 1 149.875 3.025 L 149.875 16.025 A 0.5 0.5 0 0 1 149.375 16.525 L 136.375 16.525 A 0.5 0.5 0 0 1 135.875 16.025 L 135.875 3.025 A 0.5 0.5 0 0 1 136.375 2.525 Z M 155.425 2.525 L 168.425 2.525 A 0.5 0.5 0 0 1 168.925 3.025 L 168.925 16.025 A 0.5 0.5 0 0 1 168.425 16.525 L 155.425 16.525 A 0.5 0.5 0 0 1 154.925 16.025 L 154.925 3.025 A 0.5 0.5 0 0 1 155.425 2.525 Z M 174.475 2.525 L 187.475 2.525 A 0.5 0.5 0 0 1 187.975 3.025 L 187.975 16.025 A 0.5 0.5 0 0 1 187.475 16.525 L 174.475 16.525 A 0.5 0.5 0 0 1 173.975 16.025 L 173.975 3.025 A 0.5 0.5 0 0 1 174.475 2.525 Z M 193.525 2.525 L 206.525 2.525 A 0.5 0.5 0 0 1 207.025 3.025 L 207.025 16.025 A 0.5 0.5 0 0 1 206.525 16.525 L 193.525 16.525 A 0.5 0.5 0 0 1 193.025 16.025 L 193.025 3.025 A 0.5 0.5 0 0 1 193.525 2.525 Z M 212.575 2.525 L 225.575 2.525 A 0.5 0.5 0 0 1 226.075 3.025 L 226.075 16.025 A 0.5 0.5 0 0 1 225.575 16.525 L 212.575 16.525 A 0.5 0.5 0 0 1 212.075 16.025 L 212.075 3.025 A 0.5 0.5 0 0 1 212.575 2.525 Z M 3.025 7.288 L 16.025 7.288 A 0.5 0.5 0 0 1 16.525 7.788 L 16.525 20.788 A 0.5 0.5 0 0 1 16.025 21.288 L 3.025 21.288 A 0.5 0.5 0 0 1 2.525 20.788 L 2.525 7.788 A 0.5 0.5 0 0 1 3.025 7.288 Z M 3.025 26.338 L 16.025 26.338 A 0.5 0.5 0 0 1 16.525 26.838 L 16.525 39.838 A 0.5 0.5 0 0 1 16.025 40.338 L 3.025 40.338 A 0.5 0.5 0 0 1 2.525 39.838 L 2.525 26.838 A 0.5 0.5 0 0 1 3.025 26.338 Z M 3.025 45.388 L 16.025 45.388 A 0.5 0.5 0 0 1 16.525 45.888 L 16.525 58.888 A 0.5 0.5 0 0 1 16.025 59.388 L 3.025 59.388 A 0.5 0.5 0 0 1 2.525 58.888 L 2.525 45.888 A 0.5 0.5 0 0 1 3.025 45.388 Z M 3.025 64.438 L 16.025 64.438 A 0.5 0.5 0 0 1 16.525 64.938 L 16.525 77.938 A 0.5 0.5 0 0 1 16.025 78.438 L 3.025 78.438 A 0.5 0.5 0 0 1 2.525 77.938 L 2.525 64.938 A 0.5 0.5 0 0 1 3.025 64.438 Z M 3.025 83.488 L 16.025 83.488 A 0.5 0.5 0 0 1 16.525 83.988 L 16.525 96.988 A 0.5 0.5 0 0 1 16.025 97.488 L 3.025 97.488 A 0.5 0.5 0 0 1 2.525 96.988 L 2.525 83.988 A 0.5 0.5 0 0 1 3.025 83.488 Z M 117.325 7.288 L 130.325 7.288 A 0.5 0.5 0 0 1 130.825 7.788 L 130.825 20.788 A 0.5 0.5 0 0 1 130.325 21.288 L 117.325 21.288 A 0.5 0.5 0 0 1 116.825 20.788 L 116.825 7.788 A 0.5 0.5 0 0 1 117.325 7.288 Z M 117.325 26.338 L 130.325 26.338 A 0.5 0.5 0 0 1 130.825 26.838 L 130.825 39.838 A 0.5 0.5 0 0 1 130.325 40.338 L 117.325 40.338 A 0.5 0.5 0 0 1 116.825 39.838 L 116.825 26.838 A 0.5 0.5 0 0 1 117.325 26.338 Z M 117.325 45.388 L 130.325 45.388 A 0.5 0.5 0 0 1 130.825 45.888 L 130.825 58.888 A 0.5 0.5 0 0 1 130.325 59.388 L 117.325 59.388 A 0.5 0.5 0 0 1 116.825 58.888 L 116.825 45.888 A 0.5 0.5 0 0 1 117.325 45.388 Z M 117.325 64.438 L 130.325 64.438 A 0.5 0.5 0 0 1 130.825 64.938 L 130.825 77.938 A 0.5 0.5 0 0 1 130.325 78.438 L 117.325 78.438 A 0.5 0.5 0 0 1 116.825 77.938 L 116.825 64.938 A 0.5 0.5 0 0 1 117.325 64.438 Z M 117.325 83.488 L 130.325 83.488 A 0.5 0.5 0 0 1 130.825 83.988 L 130.825 96.988 A 0.5 0.5 0 0 1 130.325 97.488 L 117.325 97.488 A 0.5 0.5 0 0 1 116.825 96.988 L 116.825 83.988 A 0.5 0.5 0 0 1 117.325 83.488 Z M 117.325 2.525 L 130.325 2.525 A 0.5 0.5 0 0 1 130.825 3.025 L 130.825 16.025 A 0.5 0.5 0 0 1 130.325 16.525 L 117.325 16.525 A 0.5 0.5 0 0 1 116.825 16.025 L 116.825 3.025 A 0.5 0.5 0 0 1 117.325 2.525 Z" vector-effect="non-scaling-stroke"/></g></svg>