M48
METRIC,TZ
T1C0.800
T2C1.702
T3C2.200
T4C3.000
T5C3.988
%
G90
G05
T1
X89694Y-44463
X89694Y-51463
X205581Y-44463
X205581Y-51463
T2
X37783Y-73819
X37783Y-92869
X37783Y-111919
X37783Y-130969
X47943Y-73819
X47943Y-92869
X47943Y-111919
X47943Y-130969
X56832Y-73819
X56832Y-92869
X56832Y-111919
X56832Y-130969
X66993Y-73819
X66993Y-92869
X66993Y-111919
X66993Y-130969
X75882Y-73819
X75882Y-92869
X75882Y-111919
X75882Y-130969
X86043Y-73819
X86043Y-92869
X86043Y-111919
X86043Y-130969
X94933Y-73819
X94933Y-92869
X94933Y-111919
X94933Y-130969
X105093Y-73819
X105093Y-92869
X105093Y-111919
X105093Y-130969
X113983Y-73819
X113983Y-92869
X113983Y-111919
X113983Y-130969
X123507Y-130969
X124143Y-73819
X124143Y-92869
X124143Y-111919
X124143Y-130969
X133033Y-73819
X133033Y-92869
X133033Y-111919
X133033Y-130969
X133668Y-130969
X142558Y-130969
X143193Y-73819
X143193Y-92869
X143193Y-111919
X143193Y-130969
X152082Y-73819
X152082Y-92869
X152082Y-111919
X152082Y-130969
X152718Y-130969
X161607Y-130969
X162243Y-73819
X162243Y-92869
X162243Y-111919
X162243Y-130969
X171133Y-73819
X171133Y-92869
X171133Y-111919
X171133Y-130969
X171767Y-130969
X181293Y-73819
X181293Y-92869
X181293Y-111919
X181293Y-130969
X190183Y-73819
X190183Y-92869
X190183Y-111919
X190183Y-130969
X200343Y-73819
X200343Y-92869
X200343Y-111919
X200343Y-130969
X209233Y-73819
X209233Y-92869
X209233Y-111919
X209233Y-130969
X219392Y-73819
X219392Y-92869
X219392Y-111919
X219392Y-130969
X228283Y-73819
X228283Y-92869
X228283Y-111919
X228283Y-130969
X238443Y-73819
X238443Y-92869
X238443Y-111919
X238443Y-130969
X247333Y-73819
X247333Y-92869
X247333Y-111919
X247333Y-130969
X257493Y-73819
X257493Y-92869
X257493Y-111919
X257493Y-130969
T3
X39688Y-45244
X39688Y-59531
X52388Y-83344
X52388Y-121444
X90488Y-102394
X204788Y-102394
X230188Y-45244
X230188Y-59531
X242888Y-83344
X242888Y-121444
X255588Y-45244
X255588Y-59531
T4
X39053Y-71279
X39053Y-90329
X39053Y-109379
X39053Y-128429
X45403Y-68739
X45403Y-87789
X45403Y-106839
X45403Y-125889
X58103Y-71279
X58103Y-90329
X58103Y-109379
X58103Y-128429
X64453Y-68739
X64453Y-87789
X64453Y-106839
X64453Y-125889
X77153Y-71279
X77153Y-90329
X77153Y-109379
X77153Y-128429
X83503Y-68739
X83503Y-87789
X83503Y-106839
X83503Y-125889
X96203Y-71279
X96203Y-90329
X96203Y-109379
X96203Y-128429
X102552Y-68739
X102552Y-87789
X102552Y-106839
X102552Y-125889
X115253Y-71279
X115253Y-90329
X115253Y-109379
X115253Y-128429
X121602Y-68739
X121602Y-87789
X121602Y-106839
X121602Y-125889
X126048Y-136049
X132398Y-133509
X134302Y-71279
X134302Y-90329
X134302Y-109379
X134302Y-128429
X140653Y-68739
X140653Y-87789
X140653Y-106839
X140653Y-125889
X145098Y-136049
X151448Y-133509
X153352Y-71279
X153352Y-90329
X153352Y-109379
X153352Y-128429
X159702Y-68739
X159702Y-87789
X159702Y-106839
X159702Y-125889
X164148Y-136049
X170498Y-133509
X172403Y-71279
X172403Y-90329
X172403Y-109379
X172403Y-128429
X178753Y-68739
X178753Y-87789
X178753Y-106839
X178753Y-125889
X191453Y-71279
X191453Y-90329
X191453Y-109379
X191453Y-128429
X197803Y-68739
X197803Y-87789
X197803Y-106839
X197803Y-125889
X210503Y-71279
X210503Y-90329
X210503Y-109379
X210503Y-128429
X216853Y-68739
X216853Y-87789
X216853Y-106839
X216853Y-125889
X229552Y-71279
X229552Y-90329
X229552Y-109379
X229552Y-128429
X235903Y-68739
X235903Y-87789
X235903Y-106839
X235903Y-125889
X248603Y-71279
X248603Y-90329
X248603Y-109379
X248603Y-128429
X254952Y-68739
X254952Y-87789
X254952Y-106839
X254952Y-125889
T5
X42863Y-73819
X42863Y-92869
X42863Y-111919
X42863Y-130969
X61913Y-73819
X61913Y-92869
X61913Y-111919
X61913Y-130969
X80962Y-73819
X80962Y-92869
X80962Y-111919
X80962Y-130969
X100012Y-73819
X100012Y-92869
X100012Y-111919
X100012Y-130969
X119063Y-73819
X119063Y-92869
X119063Y-111919
X119063Y-130969
X128588Y-130969
X138112Y-73819
X138112Y-92869
X138112Y-111919
X138112Y-130969
X147638Y-130969
X157163Y-73819
X157163Y-92869
X157163Y-111919
X157163Y-130969
X166688Y-130969
X176213Y-73819
X176213Y-92869
X176213Y-111919
X176213Y-130969
X195263Y-73819
X195263Y-92869
X195263Y-111919
X195263Y-130969
X214313Y-73819
X214313Y-92869
X214313Y-111919
X214313Y-130969
X233363Y-73819
X233363Y-92869
X233363Y-111919
X233363Y-130969
X252413Y-73819
X252413Y-92869
X252413Y-111919
X252413Y-130969
T0
M30
