%TF.GenerationSoftware,KiCad,Pcbnew,(6.0.4-0)*%
%TF.CreationDate,2022-09-28T21:01:25-05:00*%
%TF.ProjectId,mongus48,6d6f6e67-7573-4343-982e-6b696361645f,rev?*%
%TF.SameCoordinates,Original*%
%TF.FileFunction,Legend,Top*%
%TF.FilePolarity,Positive*%
%FSLAX46Y46*%
G04 Gerber Fmt 4.6, Leading zero omitted, Abs format (unit mm)*
G04 Created by KiCad (PCBNEW (6.0.4-0)) date 2022-09-28 21:01:25*
%MOMM*%
%LPD*%
G01*
G04 APERTURE LIST*
%ADD10C,0.150000*%
%ADD11C,0.120000*%
%ADD12C,1.397000*%
G04 APERTURE END LIST*
D10*
%TO.C,H6*%
X242125595Y-80896130D02*
X242125595Y-79896130D01*
X242125595Y-80372321D02*
X242697023Y-80372321D01*
X242697023Y-80896130D02*
X242697023Y-79896130D01*
X243601785Y-79896130D02*
X243411309Y-79896130D01*
X243316071Y-79943750D01*
X243268452Y-79991369D01*
X243173214Y-80134226D01*
X243125595Y-80324702D01*
X243125595Y-80705654D01*
X243173214Y-80800892D01*
X243220833Y-80848511D01*
X243316071Y-80896130D01*
X243506547Y-80896130D01*
X243601785Y-80848511D01*
X243649404Y-80800892D01*
X243697023Y-80705654D01*
X243697023Y-80467559D01*
X243649404Y-80372321D01*
X243601785Y-80324702D01*
X243506547Y-80277083D01*
X243316071Y-80277083D01*
X243220833Y-80324702D01*
X243173214Y-80372321D01*
X243125595Y-80467559D01*
%TO.C,H4*%
X254825595Y-57083630D02*
X254825595Y-56083630D01*
X254825595Y-56559821D02*
X255397023Y-56559821D01*
X255397023Y-57083630D02*
X255397023Y-56083630D01*
X256301785Y-56416964D02*
X256301785Y-57083630D01*
X256063690Y-56036011D02*
X255825595Y-56750297D01*
X256444642Y-56750297D01*
%TO.C,H1*%
X38925595Y-42796130D02*
X38925595Y-41796130D01*
X38925595Y-42272321D02*
X39497023Y-42272321D01*
X39497023Y-42796130D02*
X39497023Y-41796130D01*
X40497023Y-42796130D02*
X39925595Y-42796130D01*
X40211309Y-42796130D02*
X40211309Y-41796130D01*
X40116071Y-41938988D01*
X40020833Y-42034226D01*
X39925595Y-42081845D01*
%TO.C,H11*%
X228949404Y-42796130D02*
X228949404Y-41796130D01*
X228949404Y-42272321D02*
X229520833Y-42272321D01*
X229520833Y-42796130D02*
X229520833Y-41796130D01*
X230520833Y-42796130D02*
X229949404Y-42796130D01*
X230235119Y-42796130D02*
X230235119Y-41796130D01*
X230139880Y-41938988D01*
X230044642Y-42034226D01*
X229949404Y-42081845D01*
X231473214Y-42796130D02*
X230901785Y-42796130D01*
X231187500Y-42796130D02*
X231187500Y-41796130D01*
X231092261Y-41938988D01*
X230997023Y-42034226D01*
X230901785Y-42081845D01*
%TO.C,OL1*%
X45452380Y-53839880D02*
X45452380Y-53649404D01*
X45500000Y-53554166D01*
X45595238Y-53458928D01*
X45785714Y-53411309D01*
X46119047Y-53411309D01*
X46309523Y-53458928D01*
X46404761Y-53554166D01*
X46452380Y-53649404D01*
X46452380Y-53839880D01*
X46404761Y-53935119D01*
X46309523Y-54030357D01*
X46119047Y-54077976D01*
X45785714Y-54077976D01*
X45595238Y-54030357D01*
X45500000Y-53935119D01*
X45452380Y-53839880D01*
X46452380Y-52506547D02*
X46452380Y-52982738D01*
X45452380Y-52982738D01*
X45928571Y-52173214D02*
X45928571Y-51839880D01*
X46452380Y-51697023D02*
X46452380Y-52173214D01*
X45452380Y-52173214D01*
X45452380Y-51697023D01*
X46452380Y-51268452D02*
X45452380Y-51268452D01*
X45452380Y-51030357D01*
X45500000Y-50887500D01*
X45595238Y-50792261D01*
X45690476Y-50744642D01*
X45880952Y-50697023D01*
X46023809Y-50697023D01*
X46214285Y-50744642D01*
X46309523Y-50792261D01*
X46404761Y-50887500D01*
X46452380Y-51030357D01*
X46452380Y-51268452D01*
%TO.C,H7*%
X89725595Y-99946130D02*
X89725595Y-98946130D01*
X89725595Y-99422321D02*
X90297023Y-99422321D01*
X90297023Y-99946130D02*
X90297023Y-98946130D01*
X90677976Y-98946130D02*
X91344642Y-98946130D01*
X90916071Y-99946130D01*
%TO.C,H10*%
X241649404Y-118996130D02*
X241649404Y-117996130D01*
X241649404Y-118472321D02*
X242220833Y-118472321D01*
X242220833Y-118996130D02*
X242220833Y-117996130D01*
X243220833Y-118996130D02*
X242649404Y-118996130D01*
X242935119Y-118996130D02*
X242935119Y-117996130D01*
X242839880Y-118138988D01*
X242744642Y-118234226D01*
X242649404Y-118281845D01*
X243839880Y-117996130D02*
X243935119Y-117996130D01*
X244030357Y-118043750D01*
X244077976Y-118091369D01*
X244125595Y-118186607D01*
X244173214Y-118377083D01*
X244173214Y-118615178D01*
X244125595Y-118805654D01*
X244077976Y-118900892D01*
X244030357Y-118948511D01*
X243935119Y-118996130D01*
X243839880Y-118996130D01*
X243744642Y-118948511D01*
X243697023Y-118900892D01*
X243649404Y-118805654D01*
X243601785Y-118615178D01*
X243601785Y-118377083D01*
X243649404Y-118186607D01*
X243697023Y-118091369D01*
X243744642Y-118043750D01*
X243839880Y-117996130D01*
%TO.C,J2*%
X34591666Y-45709880D02*
X34591666Y-46424166D01*
X34544047Y-46567023D01*
X34448809Y-46662261D01*
X34305952Y-46709880D01*
X34210714Y-46709880D01*
X35020238Y-45805119D02*
X35067857Y-45757500D01*
X35163095Y-45709880D01*
X35401190Y-45709880D01*
X35496428Y-45757500D01*
X35544047Y-45805119D01*
X35591666Y-45900357D01*
X35591666Y-45995595D01*
X35544047Y-46138452D01*
X34972619Y-46709880D01*
X35591666Y-46709880D01*
%TO.C,C1*%
X180919642Y-55729166D02*
X180967261Y-55776785D01*
X181014880Y-55919642D01*
X181014880Y-56014880D01*
X180967261Y-56157738D01*
X180872023Y-56252976D01*
X180776785Y-56300595D01*
X180586309Y-56348214D01*
X180443452Y-56348214D01*
X180252976Y-56300595D01*
X180157738Y-56252976D01*
X180062500Y-56157738D01*
X180014880Y-56014880D01*
X180014880Y-55919642D01*
X180062500Y-55776785D01*
X180110119Y-55729166D01*
X181014880Y-54776785D02*
X181014880Y-55348214D01*
X181014880Y-55062500D02*
X180014880Y-55062500D01*
X180157738Y-55157738D01*
X180252976Y-55252976D01*
X180300595Y-55348214D01*
%TO.C,RSW1*%
X236258630Y-58051785D02*
X235782440Y-58385119D01*
X236258630Y-58623214D02*
X235258630Y-58623214D01*
X235258630Y-58242261D01*
X235306250Y-58147023D01*
X235353869Y-58099404D01*
X235449107Y-58051785D01*
X235591964Y-58051785D01*
X235687202Y-58099404D01*
X235734821Y-58147023D01*
X235782440Y-58242261D01*
X235782440Y-58623214D01*
X236211011Y-57670833D02*
X236258630Y-57527976D01*
X236258630Y-57289880D01*
X236211011Y-57194642D01*
X236163392Y-57147023D01*
X236068154Y-57099404D01*
X235972916Y-57099404D01*
X235877678Y-57147023D01*
X235830059Y-57194642D01*
X235782440Y-57289880D01*
X235734821Y-57480357D01*
X235687202Y-57575595D01*
X235639583Y-57623214D01*
X235544345Y-57670833D01*
X235449107Y-57670833D01*
X235353869Y-57623214D01*
X235306250Y-57575595D01*
X235258630Y-57480357D01*
X235258630Y-57242261D01*
X235306250Y-57099404D01*
X235258630Y-56766071D02*
X236258630Y-56527976D01*
X235544345Y-56337500D01*
X236258630Y-56147023D01*
X235258630Y-55908928D01*
X236258630Y-55004166D02*
X236258630Y-55575595D01*
X236258630Y-55289880D02*
X235258630Y-55289880D01*
X235401488Y-55385119D01*
X235496726Y-55480357D01*
X235544345Y-55575595D01*
%TO.C,H12*%
X228949404Y-57083630D02*
X228949404Y-56083630D01*
X228949404Y-56559821D02*
X229520833Y-56559821D01*
X229520833Y-57083630D02*
X229520833Y-56083630D01*
X230520833Y-57083630D02*
X229949404Y-57083630D01*
X230235119Y-57083630D02*
X230235119Y-56083630D01*
X230139880Y-56226488D01*
X230044642Y-56321726D01*
X229949404Y-56369345D01*
X230901785Y-56178869D02*
X230949404Y-56131250D01*
X231044642Y-56083630D01*
X231282738Y-56083630D01*
X231377976Y-56131250D01*
X231425595Y-56178869D01*
X231473214Y-56274107D01*
X231473214Y-56369345D01*
X231425595Y-56512202D01*
X230854166Y-57083630D01*
X231473214Y-57083630D01*
%TO.C,J1*%
X260016666Y-45709880D02*
X260016666Y-46424166D01*
X259969047Y-46567023D01*
X259873809Y-46662261D01*
X259730952Y-46709880D01*
X259635714Y-46709880D01*
X261016666Y-46709880D02*
X260445238Y-46709880D01*
X260730952Y-46709880D02*
X260730952Y-45709880D01*
X260635714Y-45852738D01*
X260540476Y-45947976D01*
X260445238Y-45995595D01*
%TO.C,H5*%
X51625595Y-80896130D02*
X51625595Y-79896130D01*
X51625595Y-80372321D02*
X52197023Y-80372321D01*
X52197023Y-80896130D02*
X52197023Y-79896130D01*
X53149404Y-79896130D02*
X52673214Y-79896130D01*
X52625595Y-80372321D01*
X52673214Y-80324702D01*
X52768452Y-80277083D01*
X53006547Y-80277083D01*
X53101785Y-80324702D01*
X53149404Y-80372321D01*
X53197023Y-80467559D01*
X53197023Y-80705654D01*
X53149404Y-80800892D01*
X53101785Y-80848511D01*
X53006547Y-80896130D01*
X52768452Y-80896130D01*
X52673214Y-80848511D01*
X52625595Y-80800892D01*
%TO.C,H3*%
X38925595Y-57083630D02*
X38925595Y-56083630D01*
X38925595Y-56559821D02*
X39497023Y-56559821D01*
X39497023Y-57083630D02*
X39497023Y-56083630D01*
X39877976Y-56083630D02*
X40497023Y-56083630D01*
X40163690Y-56464583D01*
X40306547Y-56464583D01*
X40401785Y-56512202D01*
X40449404Y-56559821D01*
X40497023Y-56655059D01*
X40497023Y-56893154D01*
X40449404Y-56988392D01*
X40401785Y-57036011D01*
X40306547Y-57083630D01*
X40020833Y-57083630D01*
X39925595Y-57036011D01*
X39877976Y-56988392D01*
%TO.C,H8*%
X204025595Y-99946130D02*
X204025595Y-98946130D01*
X204025595Y-99422321D02*
X204597023Y-99422321D01*
X204597023Y-99946130D02*
X204597023Y-98946130D01*
X205216071Y-99374702D02*
X205120833Y-99327083D01*
X205073214Y-99279464D01*
X205025595Y-99184226D01*
X205025595Y-99136607D01*
X205073214Y-99041369D01*
X205120833Y-98993750D01*
X205216071Y-98946130D01*
X205406547Y-98946130D01*
X205501785Y-98993750D01*
X205549404Y-99041369D01*
X205597023Y-99136607D01*
X205597023Y-99184226D01*
X205549404Y-99279464D01*
X205501785Y-99327083D01*
X205406547Y-99374702D01*
X205216071Y-99374702D01*
X205120833Y-99422321D01*
X205073214Y-99469940D01*
X205025595Y-99565178D01*
X205025595Y-99755654D01*
X205073214Y-99850892D01*
X205120833Y-99898511D01*
X205216071Y-99946130D01*
X205406547Y-99946130D01*
X205501785Y-99898511D01*
X205549404Y-99850892D01*
X205597023Y-99755654D01*
X205597023Y-99565178D01*
X205549404Y-99469940D01*
X205501785Y-99422321D01*
X205406547Y-99374702D01*
%TO.C,H2*%
X254825595Y-42796130D02*
X254825595Y-41796130D01*
X254825595Y-42272321D02*
X255397023Y-42272321D01*
X255397023Y-42796130D02*
X255397023Y-41796130D01*
X255825595Y-41891369D02*
X255873214Y-41843750D01*
X255968452Y-41796130D01*
X256206547Y-41796130D01*
X256301785Y-41843750D01*
X256349404Y-41891369D01*
X256397023Y-41986607D01*
X256397023Y-42081845D01*
X256349404Y-42224702D01*
X255777976Y-42796130D01*
X256397023Y-42796130D01*
%TO.C,H9*%
X51625595Y-118996130D02*
X51625595Y-117996130D01*
X51625595Y-118472321D02*
X52197023Y-118472321D01*
X52197023Y-118996130D02*
X52197023Y-117996130D01*
X52720833Y-118996130D02*
X52911309Y-118996130D01*
X53006547Y-118948511D01*
X53054166Y-118900892D01*
X53149404Y-118758035D01*
X53197023Y-118567559D01*
X53197023Y-118186607D01*
X53149404Y-118091369D01*
X53101785Y-118043750D01*
X53006547Y-117996130D01*
X52816071Y-117996130D01*
X52720833Y-118043750D01*
X52673214Y-118091369D01*
X52625595Y-118186607D01*
X52625595Y-118424702D01*
X52673214Y-118519940D01*
X52720833Y-118567559D01*
X52816071Y-118615178D01*
X53006547Y-118615178D01*
X53101785Y-118567559D01*
X53149404Y-118519940D01*
X53197023Y-118424702D01*
%TO.C,SW28*%
X93012500Y-105918750D02*
X93012500Y-104918750D01*
X107012500Y-104918750D02*
X106012500Y-104918750D01*
X107012500Y-117918750D02*
X107012500Y-118918750D01*
X93012500Y-118918750D02*
X94012500Y-118918750D01*
X94012500Y-104918750D02*
X93012500Y-104918750D01*
X106012500Y-118918750D02*
X107012500Y-118918750D01*
X93012500Y-118918750D02*
X93012500Y-117918750D01*
X107012500Y-104918750D02*
X107012500Y-105918750D01*
%TO.C,SW38*%
X68912500Y-123968750D02*
X67912500Y-123968750D01*
X68912500Y-136968750D02*
X68912500Y-137968750D01*
X54912500Y-137968750D02*
X55912500Y-137968750D01*
X67912500Y-137968750D02*
X68912500Y-137968750D01*
X54912500Y-137968750D02*
X54912500Y-136968750D01*
X54912500Y-124968750D02*
X54912500Y-123968750D01*
X68912500Y-123968750D02*
X68912500Y-124968750D01*
X55912500Y-123968750D02*
X54912500Y-123968750D01*
%TO.C,SW39*%
X73962500Y-137968750D02*
X74962500Y-137968750D01*
X87962500Y-136968750D02*
X87962500Y-137968750D01*
X73962500Y-124968750D02*
X73962500Y-123968750D01*
X74962500Y-123968750D02*
X73962500Y-123968750D01*
X87962500Y-123968750D02*
X86962500Y-123968750D01*
X86962500Y-137968750D02*
X87962500Y-137968750D01*
X87962500Y-123968750D02*
X87962500Y-124968750D01*
X73962500Y-137968750D02*
X73962500Y-136968750D01*
%TO.C,SW50*%
X173687500Y-123968750D02*
X173687500Y-124968750D01*
X172687500Y-137968750D02*
X173687500Y-137968750D01*
X173687500Y-136968750D02*
X173687500Y-137968750D01*
X159687500Y-137968750D02*
X159687500Y-136968750D01*
X159687500Y-137968750D02*
X160687500Y-137968750D01*
X160687500Y-123968750D02*
X159687500Y-123968750D01*
X159687500Y-124968750D02*
X159687500Y-123968750D01*
X173687500Y-123968750D02*
X172687500Y-123968750D01*
%TO.C,SW11*%
X239362500Y-80818750D02*
X240362500Y-80818750D01*
X226362500Y-67818750D02*
X226362500Y-66818750D01*
X226362500Y-80818750D02*
X226362500Y-79818750D01*
X240362500Y-66818750D02*
X239362500Y-66818750D01*
X226362500Y-80818750D02*
X227362500Y-80818750D01*
X240362500Y-79818750D02*
X240362500Y-80818750D01*
X240362500Y-66818750D02*
X240362500Y-67818750D01*
X227362500Y-66818750D02*
X226362500Y-66818750D01*
%TO.C,SW27*%
X73962500Y-118918750D02*
X73962500Y-117918750D01*
X73962500Y-105918750D02*
X73962500Y-104918750D01*
X73962500Y-118918750D02*
X74962500Y-118918750D01*
X74962500Y-104918750D02*
X73962500Y-104918750D01*
X87962500Y-104918750D02*
X86962500Y-104918750D01*
X87962500Y-117918750D02*
X87962500Y-118918750D01*
X87962500Y-104918750D02*
X87962500Y-105918750D01*
X86962500Y-118918750D02*
X87962500Y-118918750D01*
%TO.C,SW32*%
X169212500Y-118918750D02*
X170212500Y-118918750D01*
X169212500Y-105918750D02*
X169212500Y-104918750D01*
X182212500Y-118918750D02*
X183212500Y-118918750D01*
X170212500Y-104918750D02*
X169212500Y-104918750D01*
X183212500Y-117918750D02*
X183212500Y-118918750D01*
X183212500Y-104918750D02*
X182212500Y-104918750D01*
X169212500Y-118918750D02*
X169212500Y-117918750D01*
X183212500Y-104918750D02*
X183212500Y-105918750D01*
%TO.C,SW26*%
X68912500Y-104918750D02*
X67912500Y-104918750D01*
X54912500Y-118918750D02*
X54912500Y-117918750D01*
X54912500Y-118918750D02*
X55912500Y-118918750D01*
X68912500Y-117918750D02*
X68912500Y-118918750D01*
X67912500Y-118918750D02*
X68912500Y-118918750D01*
X54912500Y-105918750D02*
X54912500Y-104918750D01*
X68912500Y-104918750D02*
X68912500Y-105918750D01*
X55912500Y-104918750D02*
X54912500Y-104918750D01*
%TO.C,SW8*%
X169212500Y-80818750D02*
X169212500Y-79818750D01*
X182212500Y-80818750D02*
X183212500Y-80818750D01*
X183212500Y-66818750D02*
X183212500Y-67818750D01*
X183212500Y-79818750D02*
X183212500Y-80818750D01*
X183212500Y-66818750D02*
X182212500Y-66818750D01*
X169212500Y-67818750D02*
X169212500Y-66818750D01*
X169212500Y-80818750D02*
X170212500Y-80818750D01*
X170212500Y-66818750D02*
X169212500Y-66818750D01*
%TO.C,SW33*%
X188262500Y-105918750D02*
X188262500Y-104918750D01*
X202262500Y-104918750D02*
X202262500Y-105918750D01*
X188262500Y-118918750D02*
X188262500Y-117918750D01*
X189262500Y-104918750D02*
X188262500Y-104918750D01*
X201262500Y-118918750D02*
X202262500Y-118918750D01*
X202262500Y-104918750D02*
X201262500Y-104918750D01*
X188262500Y-118918750D02*
X189262500Y-118918750D01*
X202262500Y-117918750D02*
X202262500Y-118918750D01*
%TO.C,SW35*%
X227362500Y-104918750D02*
X226362500Y-104918750D01*
X240362500Y-104918750D02*
X239362500Y-104918750D01*
X226362500Y-118918750D02*
X226362500Y-117918750D01*
X226362500Y-118918750D02*
X227362500Y-118918750D01*
X240362500Y-117918750D02*
X240362500Y-118918750D01*
X239362500Y-118918750D02*
X240362500Y-118918750D01*
X240362500Y-104918750D02*
X240362500Y-105918750D01*
X226362500Y-105918750D02*
X226362500Y-104918750D01*
%TO.C,SW19*%
X151162500Y-85868750D02*
X150162500Y-85868750D01*
X163162500Y-99868750D02*
X164162500Y-99868750D01*
X150162500Y-86868750D02*
X150162500Y-85868750D01*
X150162500Y-99868750D02*
X151162500Y-99868750D01*
X164162500Y-98868750D02*
X164162500Y-99868750D01*
X150162500Y-99868750D02*
X150162500Y-98868750D01*
X164162500Y-85868750D02*
X163162500Y-85868750D01*
X164162500Y-85868750D02*
X164162500Y-86868750D01*
%TO.C,SW12*%
X245412500Y-80818750D02*
X246412500Y-80818750D01*
X259412500Y-66818750D02*
X258412500Y-66818750D01*
X259412500Y-66818750D02*
X259412500Y-67818750D01*
X245412500Y-80818750D02*
X245412500Y-79818750D01*
X258412500Y-80818750D02*
X259412500Y-80818750D01*
X245412500Y-67818750D02*
X245412500Y-66818750D01*
X246412500Y-66818750D02*
X245412500Y-66818750D01*
X259412500Y-79818750D02*
X259412500Y-80818750D01*
%TO.C,SW44*%
X170212500Y-123968750D02*
X169212500Y-123968750D01*
X169212500Y-137968750D02*
X169212500Y-136968750D01*
X183212500Y-123968750D02*
X182212500Y-123968750D01*
X169212500Y-137968750D02*
X170212500Y-137968750D01*
X169212500Y-124968750D02*
X169212500Y-123968750D01*
X183212500Y-123968750D02*
X183212500Y-124968750D01*
X183212500Y-136968750D02*
X183212500Y-137968750D01*
X182212500Y-137968750D02*
X183212500Y-137968750D01*
%TO.C,SW22*%
X221312500Y-85868750D02*
X220312500Y-85868750D01*
X221312500Y-98868750D02*
X221312500Y-99868750D01*
X207312500Y-99868750D02*
X208312500Y-99868750D01*
X221312500Y-85868750D02*
X221312500Y-86868750D01*
X207312500Y-86868750D02*
X207312500Y-85868750D01*
X220312500Y-99868750D02*
X221312500Y-99868750D01*
X208312500Y-85868750D02*
X207312500Y-85868750D01*
X207312500Y-99868750D02*
X207312500Y-98868750D01*
%TO.C,SW49*%
X140637500Y-137968750D02*
X141637500Y-137968750D01*
X153637500Y-137968750D02*
X154637500Y-137968750D01*
X154637500Y-136968750D02*
X154637500Y-137968750D01*
X141637500Y-123968750D02*
X140637500Y-123968750D01*
X140637500Y-137968750D02*
X140637500Y-136968750D01*
X154637500Y-123968750D02*
X154637500Y-124968750D01*
X154637500Y-123968750D02*
X153637500Y-123968750D01*
X140637500Y-124968750D02*
X140637500Y-123968750D01*
%TO.C,SW6*%
X131112500Y-80818750D02*
X131112500Y-79818750D01*
X132112500Y-66818750D02*
X131112500Y-66818750D01*
X145112500Y-66818750D02*
X144112500Y-66818750D01*
X144112500Y-80818750D02*
X145112500Y-80818750D01*
X131112500Y-67818750D02*
X131112500Y-66818750D01*
X131112500Y-80818750D02*
X132112500Y-80818750D01*
X145112500Y-79818750D02*
X145112500Y-80818750D01*
X145112500Y-66818750D02*
X145112500Y-67818750D01*
%TO.C,SW17*%
X112062500Y-86868750D02*
X112062500Y-85868750D01*
X125062500Y-99868750D02*
X126062500Y-99868750D01*
X112062500Y-99868750D02*
X112062500Y-98868750D01*
X126062500Y-85868750D02*
X126062500Y-86868750D01*
X112062500Y-99868750D02*
X113062500Y-99868750D01*
X113062500Y-85868750D02*
X112062500Y-85868750D01*
X126062500Y-85868750D02*
X125062500Y-85868750D01*
X126062500Y-98868750D02*
X126062500Y-99868750D01*
%TO.C,SW42*%
X131112500Y-137968750D02*
X131112500Y-136968750D01*
X144112500Y-137968750D02*
X145112500Y-137968750D01*
X145112500Y-136968750D02*
X145112500Y-137968750D01*
X131112500Y-124968750D02*
X131112500Y-123968750D01*
X132112500Y-123968750D02*
X131112500Y-123968750D01*
X145112500Y-123968750D02*
X144112500Y-123968750D01*
X145112500Y-123968750D02*
X145112500Y-124968750D01*
X131112500Y-137968750D02*
X132112500Y-137968750D01*
%TO.C,SW7*%
X164162500Y-66818750D02*
X163162500Y-66818750D01*
X151162500Y-66818750D02*
X150162500Y-66818750D01*
X164162500Y-66818750D02*
X164162500Y-67818750D01*
X163162500Y-80818750D02*
X164162500Y-80818750D01*
X150162500Y-80818750D02*
X151162500Y-80818750D01*
X150162500Y-80818750D02*
X150162500Y-79818750D01*
X164162500Y-79818750D02*
X164162500Y-80818750D01*
X150162500Y-67818750D02*
X150162500Y-66818750D01*
%TO.C,SW45*%
X188262500Y-124968750D02*
X188262500Y-123968750D01*
X202262500Y-136968750D02*
X202262500Y-137968750D01*
X202262500Y-123968750D02*
X201262500Y-123968750D01*
X189262500Y-123968750D02*
X188262500Y-123968750D01*
X188262500Y-137968750D02*
X188262500Y-136968750D01*
X188262500Y-137968750D02*
X189262500Y-137968750D01*
X201262500Y-137968750D02*
X202262500Y-137968750D01*
X202262500Y-123968750D02*
X202262500Y-124968750D01*
%TO.C,SW15*%
X73962500Y-86868750D02*
X73962500Y-85868750D01*
X86962500Y-99868750D02*
X87962500Y-99868750D01*
X73962500Y-99868750D02*
X73962500Y-98868750D01*
X87962500Y-98868750D02*
X87962500Y-99868750D01*
X74962500Y-85868750D02*
X73962500Y-85868750D01*
X87962500Y-85868750D02*
X87962500Y-86868750D01*
X87962500Y-85868750D02*
X86962500Y-85868750D01*
X73962500Y-99868750D02*
X74962500Y-99868750D01*
%TO.C,SW47*%
X226362500Y-124968750D02*
X226362500Y-123968750D01*
X226362500Y-137968750D02*
X226362500Y-136968750D01*
X226362500Y-137968750D02*
X227362500Y-137968750D01*
X239362500Y-137968750D02*
X240362500Y-137968750D01*
X240362500Y-123968750D02*
X240362500Y-124968750D01*
X227362500Y-123968750D02*
X226362500Y-123968750D01*
X240362500Y-136968750D02*
X240362500Y-137968750D01*
X240362500Y-123968750D02*
X239362500Y-123968750D01*
%TO.C,SW4*%
X93012500Y-80818750D02*
X93012500Y-79818750D01*
X107012500Y-66818750D02*
X107012500Y-67818750D01*
X107012500Y-66818750D02*
X106012500Y-66818750D01*
X93012500Y-67818750D02*
X93012500Y-66818750D01*
X107012500Y-79818750D02*
X107012500Y-80818750D01*
X94012500Y-66818750D02*
X93012500Y-66818750D01*
X93012500Y-80818750D02*
X94012500Y-80818750D01*
X106012500Y-80818750D02*
X107012500Y-80818750D01*
%TO.C,SW37*%
X35862500Y-124968750D02*
X35862500Y-123968750D01*
X48862500Y-137968750D02*
X49862500Y-137968750D01*
X49862500Y-123968750D02*
X48862500Y-123968750D01*
X49862500Y-123968750D02*
X49862500Y-124968750D01*
X35862500Y-137968750D02*
X36862500Y-137968750D01*
X49862500Y-136968750D02*
X49862500Y-137968750D01*
X35862500Y-137968750D02*
X35862500Y-136968750D01*
X36862500Y-123968750D02*
X35862500Y-123968750D01*
%TO.C,SW29*%
X112062500Y-118918750D02*
X112062500Y-117918750D01*
X112062500Y-105918750D02*
X112062500Y-104918750D01*
X113062500Y-104918750D02*
X112062500Y-104918750D01*
X126062500Y-104918750D02*
X126062500Y-105918750D01*
X112062500Y-118918750D02*
X113062500Y-118918750D01*
X126062500Y-104918750D02*
X125062500Y-104918750D01*
X126062500Y-117918750D02*
X126062500Y-118918750D01*
X125062500Y-118918750D02*
X126062500Y-118918750D01*
%TO.C,SW23*%
X240362500Y-85868750D02*
X240362500Y-86868750D01*
X226362500Y-99868750D02*
X227362500Y-99868750D01*
X240362500Y-85868750D02*
X239362500Y-85868750D01*
X226362500Y-99868750D02*
X226362500Y-98868750D01*
X239362500Y-99868750D02*
X240362500Y-99868750D01*
X226362500Y-86868750D02*
X226362500Y-85868750D01*
X240362500Y-98868750D02*
X240362500Y-99868750D01*
X227362500Y-85868750D02*
X226362500Y-85868750D01*
%TO.C,SW1*%
X35862500Y-80818750D02*
X35862500Y-79818750D01*
X48862500Y-80818750D02*
X49862500Y-80818750D01*
X49862500Y-66818750D02*
X49862500Y-67818750D01*
X49862500Y-66818750D02*
X48862500Y-66818750D01*
X49862500Y-79818750D02*
X49862500Y-80818750D01*
X36862500Y-66818750D02*
X35862500Y-66818750D01*
X35862500Y-80818750D02*
X36862500Y-80818750D01*
X35862500Y-67818750D02*
X35862500Y-66818750D01*
%TO.C,SW51*%
X121587500Y-137968750D02*
X122587500Y-137968750D01*
X121587500Y-124968750D02*
X121587500Y-123968750D01*
X134587500Y-137968750D02*
X135587500Y-137968750D01*
X121587500Y-137968750D02*
X121587500Y-136968750D01*
X135587500Y-123968750D02*
X135587500Y-124968750D01*
X135587500Y-136968750D02*
X135587500Y-137968750D01*
X122587500Y-123968750D02*
X121587500Y-123968750D01*
X135587500Y-123968750D02*
X134587500Y-123968750D01*
%TO.C,SW20*%
X170212500Y-85868750D02*
X169212500Y-85868750D01*
X183212500Y-85868750D02*
X183212500Y-86868750D01*
X169212500Y-99868750D02*
X169212500Y-98868750D01*
X169212500Y-86868750D02*
X169212500Y-85868750D01*
X183212500Y-98868750D02*
X183212500Y-99868750D01*
X169212500Y-99868750D02*
X170212500Y-99868750D01*
X182212500Y-99868750D02*
X183212500Y-99868750D01*
X183212500Y-85868750D02*
X182212500Y-85868750D01*
%TO.C,SW25*%
X35862500Y-118918750D02*
X35862500Y-117918750D01*
X49862500Y-104918750D02*
X48862500Y-104918750D01*
X49862500Y-117918750D02*
X49862500Y-118918750D01*
X48862500Y-118918750D02*
X49862500Y-118918750D01*
X36862500Y-104918750D02*
X35862500Y-104918750D01*
X49862500Y-104918750D02*
X49862500Y-105918750D01*
X35862500Y-105918750D02*
X35862500Y-104918750D01*
X35862500Y-118918750D02*
X36862500Y-118918750D01*
%TO.C,U5*%
X202531250Y-42862500D02*
X202531250Y-54962500D01*
X202781250Y-42862500D02*
X202781250Y-40862500D01*
X208631250Y-42862500D02*
X202531250Y-42862500D01*
X208381250Y-40862500D02*
X202781250Y-40862500D01*
X208631250Y-54962500D02*
X202531250Y-54962500D01*
X208381250Y-42862500D02*
X208381250Y-40862500D01*
X208631250Y-42862500D02*
X208631250Y-54962500D01*
D11*
%TO.C,J2*%
X36255000Y-49857500D02*
X36255000Y-57537500D01*
X33595000Y-49857500D02*
X36255000Y-49857500D01*
X33595000Y-57537500D02*
X36255000Y-57537500D01*
X33595000Y-48587500D02*
X33595000Y-47257500D01*
X33595000Y-47257500D02*
X34925000Y-47257500D01*
X33595000Y-49857500D02*
X33595000Y-57537500D01*
%TO.C,C1*%
X178453750Y-51518750D02*
X177666250Y-51518750D01*
X178558063Y-52152500D02*
X179622500Y-53216937D01*
X178558063Y-52152500D02*
X177272500Y-52152500D01*
X172802500Y-58972500D02*
X175152500Y-58972500D01*
X179622500Y-58972500D02*
X177272500Y-58972500D01*
X173866937Y-52152500D02*
X172802500Y-53216937D01*
X172802500Y-53216937D02*
X172802500Y-58972500D01*
X179622500Y-53216937D02*
X179622500Y-58972500D01*
X178060000Y-51125000D02*
X178060000Y-51912500D01*
X173866937Y-52152500D02*
X175152500Y-52152500D01*
%TO.C,RSW1*%
X239206250Y-59637500D02*
X238906250Y-59937500D01*
X241706250Y-46037500D02*
X244306250Y-46037500D01*
X237106250Y-58237500D02*
X248906250Y-58237500D01*
X246506250Y-46037500D02*
X248906250Y-46037500D01*
X243006250Y-52637500D02*
X243006250Y-51637500D01*
X238906250Y-59337500D02*
X239206250Y-59637500D01*
X248906250Y-54137500D02*
X248906250Y-58237500D01*
X237106250Y-50137500D02*
X237106250Y-46037500D01*
X248906250Y-46037500D02*
X248906250Y-50137500D01*
X237106250Y-46037500D02*
X239506250Y-46037500D01*
X242506250Y-52137500D02*
X243506250Y-52137500D01*
X238906250Y-59937500D02*
X238906250Y-59337500D01*
X237106250Y-54137500D02*
X237106250Y-58237500D01*
X246006250Y-52137500D02*
G75*
G03*
X246006250Y-52137500I-3000000J0D01*
G01*
D10*
%TO.C,SW9*%
X201262500Y-80818750D02*
X202262500Y-80818750D01*
X188262500Y-67818750D02*
X188262500Y-66818750D01*
X202262500Y-66818750D02*
X201262500Y-66818750D01*
X188262500Y-80818750D02*
X188262500Y-79818750D01*
X188262500Y-80818750D02*
X189262500Y-80818750D01*
X202262500Y-79818750D02*
X202262500Y-80818750D01*
X189262500Y-66818750D02*
X188262500Y-66818750D01*
X202262500Y-66818750D02*
X202262500Y-67818750D01*
%TO.C,SW34*%
X207312500Y-105918750D02*
X207312500Y-104918750D01*
X221312500Y-104918750D02*
X221312500Y-105918750D01*
X207312500Y-118918750D02*
X207312500Y-117918750D01*
X221312500Y-104918750D02*
X220312500Y-104918750D01*
X207312500Y-118918750D02*
X208312500Y-118918750D01*
X221312500Y-117918750D02*
X221312500Y-118918750D01*
X220312500Y-118918750D02*
X221312500Y-118918750D01*
X208312500Y-104918750D02*
X207312500Y-104918750D01*
%TO.C,SW46*%
X207312500Y-124968750D02*
X207312500Y-123968750D01*
X208312500Y-123968750D02*
X207312500Y-123968750D01*
X221312500Y-123968750D02*
X221312500Y-124968750D01*
X221312500Y-123968750D02*
X220312500Y-123968750D01*
X220312500Y-137968750D02*
X221312500Y-137968750D01*
X207312500Y-137968750D02*
X208312500Y-137968750D01*
X221312500Y-136968750D02*
X221312500Y-137968750D01*
X207312500Y-137968750D02*
X207312500Y-136968750D01*
%TO.C,SW40*%
X106012500Y-137968750D02*
X107012500Y-137968750D01*
X93012500Y-124968750D02*
X93012500Y-123968750D01*
X93012500Y-137968750D02*
X93012500Y-136968750D01*
X107012500Y-123968750D02*
X107012500Y-124968750D01*
X94012500Y-123968750D02*
X93012500Y-123968750D01*
X107012500Y-136968750D02*
X107012500Y-137968750D01*
X107012500Y-123968750D02*
X106012500Y-123968750D01*
X93012500Y-137968750D02*
X94012500Y-137968750D01*
%TO.C,SW14*%
X67912500Y-99868750D02*
X68912500Y-99868750D01*
X54912500Y-86868750D02*
X54912500Y-85868750D01*
X68912500Y-85868750D02*
X68912500Y-86868750D01*
X68912500Y-98868750D02*
X68912500Y-99868750D01*
X68912500Y-85868750D02*
X67912500Y-85868750D01*
X54912500Y-99868750D02*
X55912500Y-99868750D01*
X54912500Y-99868750D02*
X54912500Y-98868750D01*
X55912500Y-85868750D02*
X54912500Y-85868750D01*
D11*
%TO.C,J1*%
X259020000Y-49857500D02*
X261680000Y-49857500D01*
X261680000Y-49857500D02*
X261680000Y-57537500D01*
X259020000Y-48587500D02*
X259020000Y-47257500D01*
X259020000Y-49857500D02*
X259020000Y-57537500D01*
X259020000Y-57537500D02*
X261680000Y-57537500D01*
X259020000Y-47257500D02*
X260350000Y-47257500D01*
D10*
%TO.C,SW36*%
X246412500Y-104918750D02*
X245412500Y-104918750D01*
X245412500Y-118918750D02*
X246412500Y-118918750D01*
X258412500Y-118918750D02*
X259412500Y-118918750D01*
X245412500Y-118918750D02*
X245412500Y-117918750D01*
X259412500Y-104918750D02*
X259412500Y-105918750D01*
X245412500Y-105918750D02*
X245412500Y-104918750D01*
X259412500Y-104918750D02*
X258412500Y-104918750D01*
X259412500Y-117918750D02*
X259412500Y-118918750D01*
%TO.C,SW3*%
X87962500Y-66818750D02*
X86962500Y-66818750D01*
X73962500Y-80818750D02*
X74962500Y-80818750D01*
X86962500Y-80818750D02*
X87962500Y-80818750D01*
X87962500Y-79818750D02*
X87962500Y-80818750D01*
X73962500Y-67818750D02*
X73962500Y-66818750D01*
X74962500Y-66818750D02*
X73962500Y-66818750D01*
X87962500Y-66818750D02*
X87962500Y-67818750D01*
X73962500Y-80818750D02*
X73962500Y-79818750D01*
%TO.C,SW43*%
X150162500Y-124968750D02*
X150162500Y-123968750D01*
X151162500Y-123968750D02*
X150162500Y-123968750D01*
X164162500Y-123968750D02*
X164162500Y-124968750D01*
X163162500Y-137968750D02*
X164162500Y-137968750D01*
X164162500Y-136968750D02*
X164162500Y-137968750D01*
X150162500Y-137968750D02*
X151162500Y-137968750D01*
X150162500Y-137968750D02*
X150162500Y-136968750D01*
X164162500Y-123968750D02*
X163162500Y-123968750D01*
%TO.C,SW30*%
X131112500Y-118918750D02*
X131112500Y-117918750D01*
X145112500Y-104918750D02*
X145112500Y-105918750D01*
X131112500Y-105918750D02*
X131112500Y-104918750D01*
X132112500Y-104918750D02*
X131112500Y-104918750D01*
X145112500Y-117918750D02*
X145112500Y-118918750D01*
X144112500Y-118918750D02*
X145112500Y-118918750D01*
X131112500Y-118918750D02*
X132112500Y-118918750D01*
X145112500Y-104918750D02*
X144112500Y-104918750D01*
%TO.C,SW10*%
X220312500Y-80818750D02*
X221312500Y-80818750D01*
X207312500Y-80818750D02*
X207312500Y-79818750D01*
X221312500Y-66818750D02*
X221312500Y-67818750D01*
X221312500Y-79818750D02*
X221312500Y-80818750D01*
X207312500Y-80818750D02*
X208312500Y-80818750D01*
X221312500Y-66818750D02*
X220312500Y-66818750D01*
X207312500Y-67818750D02*
X207312500Y-66818750D01*
X208312500Y-66818750D02*
X207312500Y-66818750D01*
%TO.C,SW21*%
X189262500Y-85868750D02*
X188262500Y-85868750D01*
X201262500Y-99868750D02*
X202262500Y-99868750D01*
X188262500Y-99868750D02*
X188262500Y-98868750D01*
X188262500Y-86868750D02*
X188262500Y-85868750D01*
X202262500Y-85868750D02*
X201262500Y-85868750D01*
X188262500Y-99868750D02*
X189262500Y-99868750D01*
X202262500Y-85868750D02*
X202262500Y-86868750D01*
X202262500Y-98868750D02*
X202262500Y-99868750D01*
%TO.C,SW2*%
X54912500Y-80818750D02*
X55912500Y-80818750D01*
X55912500Y-66818750D02*
X54912500Y-66818750D01*
X68912500Y-66818750D02*
X68912500Y-67818750D01*
X67912500Y-80818750D02*
X68912500Y-80818750D01*
X68912500Y-66818750D02*
X67912500Y-66818750D01*
X68912500Y-79818750D02*
X68912500Y-80818750D01*
X54912500Y-80818750D02*
X54912500Y-79818750D01*
X54912500Y-67818750D02*
X54912500Y-66818750D01*
%TO.C,SW48*%
X259412500Y-136968750D02*
X259412500Y-137968750D01*
X245412500Y-137968750D02*
X245412500Y-136968750D01*
X245412500Y-137968750D02*
X246412500Y-137968750D01*
X258412500Y-137968750D02*
X259412500Y-137968750D01*
X259412500Y-123968750D02*
X258412500Y-123968750D01*
X245412500Y-124968750D02*
X245412500Y-123968750D01*
X246412500Y-123968750D02*
X245412500Y-123968750D01*
X259412500Y-123968750D02*
X259412500Y-124968750D01*
%TO.C,SW24*%
X245412500Y-86868750D02*
X245412500Y-85868750D01*
X259412500Y-85868750D02*
X259412500Y-86868750D01*
X258412500Y-99868750D02*
X259412500Y-99868750D01*
X259412500Y-98868750D02*
X259412500Y-99868750D01*
X245412500Y-99868750D02*
X245412500Y-98868750D01*
X246412500Y-85868750D02*
X245412500Y-85868750D01*
X245412500Y-99868750D02*
X246412500Y-99868750D01*
X259412500Y-85868750D02*
X258412500Y-85868750D01*
%TO.C,U4*%
X86643750Y-42862500D02*
X86643750Y-54962500D01*
X86893750Y-42862500D02*
X86893750Y-40862500D01*
X92743750Y-42862500D02*
X92743750Y-54962500D01*
X92743750Y-54962500D02*
X86643750Y-54962500D01*
X92493750Y-40862500D02*
X86893750Y-40862500D01*
X92493750Y-42862500D02*
X92493750Y-40862500D01*
X92743750Y-42862500D02*
X86643750Y-42862500D01*
%TO.C,SW41*%
X113062500Y-123968750D02*
X112062500Y-123968750D01*
X125062500Y-137968750D02*
X126062500Y-137968750D01*
X126062500Y-123968750D02*
X125062500Y-123968750D01*
X126062500Y-136968750D02*
X126062500Y-137968750D01*
X112062500Y-137968750D02*
X113062500Y-137968750D01*
X112062500Y-137968750D02*
X112062500Y-136968750D01*
X126062500Y-123968750D02*
X126062500Y-124968750D01*
X112062500Y-124968750D02*
X112062500Y-123968750D01*
%TO.C,SW31*%
X150162500Y-105918750D02*
X150162500Y-104918750D01*
X151162500Y-104918750D02*
X150162500Y-104918750D01*
X164162500Y-104918750D02*
X163162500Y-104918750D01*
X163162500Y-118918750D02*
X164162500Y-118918750D01*
X150162500Y-118918750D02*
X151162500Y-118918750D01*
X150162500Y-118918750D02*
X150162500Y-117918750D01*
X164162500Y-104918750D02*
X164162500Y-105918750D01*
X164162500Y-117918750D02*
X164162500Y-118918750D01*
%TO.C,SW18*%
X131112500Y-99868750D02*
X131112500Y-98868750D01*
X144112500Y-99868750D02*
X145112500Y-99868750D01*
X131112500Y-99868750D02*
X132112500Y-99868750D01*
X132112500Y-85868750D02*
X131112500Y-85868750D01*
X131112500Y-86868750D02*
X131112500Y-85868750D01*
X145112500Y-85868750D02*
X144112500Y-85868750D01*
X145112500Y-98868750D02*
X145112500Y-99868750D01*
X145112500Y-85868750D02*
X145112500Y-86868750D01*
%TO.C,SW16*%
X107012500Y-85868750D02*
X107012500Y-86868750D01*
X107012500Y-98868750D02*
X107012500Y-99868750D01*
X106012500Y-99868750D02*
X107012500Y-99868750D01*
X93012500Y-99868750D02*
X93012500Y-98868750D01*
X93012500Y-86868750D02*
X93012500Y-85868750D01*
X107012500Y-85868750D02*
X106012500Y-85868750D01*
X94012500Y-85868750D02*
X93012500Y-85868750D01*
X93012500Y-99868750D02*
X94012500Y-99868750D01*
%TO.C,SW13*%
X48862500Y-99868750D02*
X49862500Y-99868750D01*
X49862500Y-85868750D02*
X48862500Y-85868750D01*
X35862500Y-99868750D02*
X35862500Y-98868750D01*
X35862500Y-86868750D02*
X35862500Y-85868750D01*
X49862500Y-85868750D02*
X49862500Y-86868750D01*
X49862500Y-98868750D02*
X49862500Y-99868750D01*
X35862500Y-99868750D02*
X36862500Y-99868750D01*
X36862500Y-85868750D02*
X35862500Y-85868750D01*
%TO.C,SW5*%
X112062500Y-67818750D02*
X112062500Y-66818750D01*
X112062500Y-80818750D02*
X113062500Y-80818750D01*
X112062500Y-80818750D02*
X112062500Y-79818750D01*
X126062500Y-66818750D02*
X125062500Y-66818750D01*
X113062500Y-66818750D02*
X112062500Y-66818750D01*
X126062500Y-79818750D02*
X126062500Y-80818750D01*
X126062500Y-66818750D02*
X126062500Y-67818750D01*
X125062500Y-80818750D02*
X126062500Y-80818750D01*
%TD*%
D12*
%TO.C,OL1*%
X44450000Y-48577500D03*
X44450000Y-51117500D03*
X44450000Y-53657500D03*
X44450000Y-56197500D03*
%TD*%
M02*
