%TF.GenerationSoftware,KiCad,Pcbnew,(6.0.4-0)*%
%TF.CreationDate,2022-09-28T21:01:25-05:00*%
%TF.ProjectId,mongus48,6d6f6e67-7573-4343-982e-6b696361645f,rev?*%
%TF.SameCoordinates,Original*%
%TF.FileFunction,Copper,L1,Top*%
%TF.FilePolarity,Positive*%
%FSLAX46Y46*%
G04 Gerber Fmt 4.6, Leading zero omitted, Abs format (unit mm)*
G04 Created by KiCad (PCBNEW (6.0.4-0)) date 2022-09-28 21:01:25*
%MOMM*%
%LPD*%
G01*
G04 APERTURE LIST*
G04 Aperture macros list*
%AMRoundRect*
0 Rectangle with rounded corners*
0 $1 Rounding radius*
0 $2 $3 $4 $5 $6 $7 $8 $9 X,Y pos of 4 corners*
0 Add a 4 corners polygon primitive as box body*
4,1,4,$2,$3,$4,$5,$6,$7,$8,$9,$2,$3,0*
0 Add four circle primitives for the rounded corners*
1,1,$1+$1,$2,$3*
1,1,$1+$1,$4,$5*
1,1,$1+$1,$6,$7*
1,1,$1+$1,$8,$9*
0 Add four rect primitives between the rounded corners*
20,1,$1+$1,$2,$3,$4,$5,0*
20,1,$1+$1,$4,$5,$6,$7,0*
20,1,$1+$1,$6,$7,$8,$9,0*
20,1,$1+$1,$8,$9,$2,$3,0*%
G04 Aperture macros list end*
%TA.AperFunction,ComponentPad*%
%ADD10C,1.397000*%
%TD*%
%TA.AperFunction,ComponentPad*%
%ADD11O,1.600000X2.000000*%
%TD*%
%TA.AperFunction,ComponentPad*%
%ADD12R,1.700000X1.700000*%
%TD*%
%TA.AperFunction,ComponentPad*%
%ADD13O,1.700000X1.700000*%
%TD*%
%TA.AperFunction,SMDPad,CuDef*%
%ADD14RoundRect,0.250000X-0.550000X1.500000X-0.550000X-1.500000X0.550000X-1.500000X0.550000X1.500000X0*%
%TD*%
%TA.AperFunction,ComponentPad*%
%ADD15R,2.000000X2.000000*%
%TD*%
%TA.AperFunction,ComponentPad*%
%ADD16C,2.000000*%
%TD*%
%TA.AperFunction,ComponentPad*%
%ADD17R,2.000000X3.200000*%
%TD*%
%TA.AperFunction,ViaPad*%
%ADD18C,0.800000*%
%TD*%
%TA.AperFunction,Conductor*%
%ADD19C,0.250000*%
%TD*%
G04 APERTURE END LIST*
D10*
%TO.P,OL1,1,SDA*%
%TO.N,sda*%
X44450000Y-48577500D03*
%TO.P,OL1,2,SCL*%
%TO.N,scl*%
X44450000Y-51117500D03*
%TO.P,OL1,3,VCC*%
%TO.N,3v3*%
X44450000Y-53657500D03*
%TO.P,OL1,4,GND*%
%TO.N,gnd*%
X44450000Y-56197500D03*
%TD*%
D11*
%TO.P,U5,1,SLEEVE*%
%TO.N,gnd*%
X203281250Y-54162500D03*
%TO.P,U5,2,TIP*%
%TO.N,3v3*%
X207881250Y-53062500D03*
%TO.P,U5,3,RING1*%
%TO.N,scl*%
X207881250Y-49062500D03*
%TO.P,U5,4,RING2*%
%TO.N,sda*%
X207881250Y-46062500D03*
%TD*%
D12*
%TO.P,J2,1,Pin_1*%
%TO.N,sda*%
X34925000Y-48587500D03*
D13*
%TO.P,J2,2,Pin_2*%
%TO.N,scl*%
X34925000Y-51127500D03*
%TO.P,J2,3,Pin_3*%
%TO.N,3v3*%
X34925000Y-53667500D03*
%TO.P,J2,4,Pin_4*%
%TO.N,gnd*%
X34925000Y-56207500D03*
%TD*%
D14*
%TO.P,C1,1*%
%TO.N,3v3*%
X176212500Y-52862500D03*
%TO.P,C1,2*%
%TO.N,gnd*%
X176212500Y-58262500D03*
%TD*%
D15*
%TO.P,RSW1,A,A*%
%TO.N,pad_a*%
X240506250Y-59637500D03*
D16*
%TO.P,RSW1,B,B*%
%TO.N,pad_b*%
X245506250Y-59637500D03*
%TO.P,RSW1,C,C*%
%TO.N,gnd*%
X243006250Y-59637500D03*
D17*
%TO.P,RSW1,MP*%
%TO.N,N/C*%
X248606250Y-52137500D03*
X237406250Y-52137500D03*
D16*
%TO.P,RSW1,S1,S1*%
%TO.N,col0*%
X245506250Y-45137500D03*
%TO.P,RSW1,S2,S2*%
%TO.N,Net-(RD1-Pad2)*%
X240506250Y-45137500D03*
%TD*%
D12*
%TO.P,J1,1,Pin_1*%
%TO.N,sda*%
X260350000Y-48587500D03*
D13*
%TO.P,J1,2,Pin_2*%
%TO.N,scl*%
X260350000Y-51127500D03*
%TO.P,J1,3,Pin_3*%
%TO.N,3v3*%
X260350000Y-53667500D03*
%TO.P,J1,4,Pin_4*%
%TO.N,gnd*%
X260350000Y-56207500D03*
%TD*%
D11*
%TO.P,U4,1,SLEEVE*%
%TO.N,gnd*%
X87393750Y-54162500D03*
%TO.P,U4,2,TIP*%
%TO.N,3v3*%
X91993750Y-53062500D03*
%TO.P,U4,3,RING1*%
%TO.N,scl*%
X91993750Y-49062500D03*
%TO.P,U4,4,RING2*%
%TO.N,sda*%
X91993750Y-46062500D03*
%TD*%
D18*
%TO.N,col2*%
X133350000Y-66399997D03*
X225425000Y-66675000D03*
%TO.N,row1*%
X123825000Y-98425000D03*
X200025000Y-98425000D03*
X66675000Y-98425000D03*
X196850000Y-98425000D03*
X161925000Y-98425000D03*
X215900000Y-98425000D03*
X180975000Y-98425000D03*
X142875000Y-98425000D03*
X165893750Y-98425000D03*
X219075000Y-98425000D03*
X47625000Y-98425000D03*
X104775000Y-98425000D03*
X139700000Y-98425000D03*
X234950000Y-98425000D03*
X63500000Y-98425000D03*
X85725000Y-98425000D03*
X254000000Y-98425000D03*
X101600000Y-98425000D03*
X177800000Y-98425000D03*
X238125000Y-98425000D03*
X165893750Y-47625000D03*
X158750000Y-98425000D03*
X82550000Y-98425000D03*
X157956250Y-47625000D03*
X120650000Y-98425000D03*
%TO.N,row2*%
X161925000Y-117475000D03*
X123825000Y-117475000D03*
X200025000Y-117475000D03*
X238125000Y-117475000D03*
X234950000Y-117475000D03*
X219075000Y-117475000D03*
X254000000Y-117475000D03*
X177800000Y-117475000D03*
X139700000Y-117475000D03*
X165100000Y-117475000D03*
X85725000Y-117475000D03*
X165100000Y-50800000D03*
X82550000Y-117475000D03*
X215900000Y-117475000D03*
X47625000Y-117475000D03*
X196850000Y-117475000D03*
X120650000Y-117475000D03*
X104775000Y-117475000D03*
X101600000Y-117475000D03*
X157956250Y-50800000D03*
X158750000Y-117475000D03*
X63500000Y-117475000D03*
X66675000Y-117475000D03*
X142875000Y-117475000D03*
X180975000Y-117475000D03*
%TO.N,row3*%
X101600000Y-136525000D03*
X238125000Y-136525000D03*
X183356250Y-136525000D03*
X85725000Y-136525000D03*
X82550000Y-136525000D03*
X176212500Y-125412500D03*
X47625000Y-136525000D03*
X158445329Y-120345329D03*
X215900000Y-136525000D03*
X254000000Y-136525000D03*
X115093750Y-134143750D03*
X129381250Y-120650000D03*
X163512500Y-120650000D03*
X166687500Y-127000000D03*
X196850000Y-136525000D03*
X234950000Y-136525000D03*
X200025000Y-136525000D03*
X63500000Y-136525000D03*
X104775000Y-136525000D03*
X66675000Y-136525000D03*
X219075000Y-136525000D03*
X124618750Y-134143750D03*
X111918750Y-136525000D03*
%TO.N,Net-(D41-Pad2)*%
X113506250Y-126206250D03*
X125412500Y-127793750D03*
%TO.N,Net-(D42-Pad2)*%
X138906250Y-135731250D03*
X123031250Y-138112500D03*
X127000000Y-122237500D03*
X119856250Y-122237500D03*
%TO.N,Net-(D43-Pad2)*%
X162718750Y-122237500D03*
X165100000Y-122237500D03*
%TO.N,sda*%
X254756250Y-50837500D03*
X195262500Y-55562500D03*
X153193750Y-46037500D03*
X195262500Y-46037500D03*
X157956250Y-55562500D03*
%TO.N,scl*%
X164306250Y-57943750D03*
X157956250Y-57943750D03*
X152400000Y-47625000D03*
X40947500Y-51127500D03*
X164306250Y-52387500D03*
%TO.N,3v3*%
X142081250Y-50006250D03*
X169068750Y-53181250D03*
X169068750Y-50006250D03*
X137318750Y-50006250D03*
X122237500Y-50006250D03*
X127000000Y-50006250D03*
X40788750Y-53667500D03*
X114300000Y-50006250D03*
X254706739Y-54062011D03*
X134937500Y-50006250D03*
%TO.N,gnd*%
X112712500Y-57943750D03*
X130175000Y-57943750D03*
X167481250Y-48418750D03*
X137318750Y-48418750D03*
X142081250Y-48418750D03*
X117475000Y-57943750D03*
X118268750Y-48418750D03*
X125412500Y-57943750D03*
X167481250Y-59531250D03*
X130968750Y-48418750D03*
%TO.N,pad_a*%
X142081250Y-62706250D03*
X240506250Y-62706250D03*
%TO.N,pad_b*%
X157956250Y-61118750D03*
%TO.N,col0*%
X133350000Y-46831250D03*
%TO.N,col12*%
X35302500Y-62290000D03*
X117475000Y-61912500D03*
%TO.N,col11*%
X54768750Y-62706250D03*
X119062500Y-62706250D03*
%TO.N,col10*%
X73818750Y-63500000D03*
X120650000Y-63500000D03*
%TO.N,col9*%
X92868750Y-65087500D03*
X122237500Y-65087500D03*
%TO.N,col8*%
X111918750Y-64293750D03*
X121443750Y-64293750D03*
%TO.N,col7*%
X130552500Y-126622500D03*
X130175000Y-66675000D03*
X127000000Y-66675000D03*
X153193750Y-134937500D03*
X136525000Y-126206250D03*
X138112500Y-134143750D03*
%TO.N,col6*%
X149602500Y-67052500D03*
X128587500Y-67468750D03*
X173831250Y-135731250D03*
X151606250Y-127000000D03*
%TO.N,col5*%
X130175000Y-65675497D03*
X168275000Y-65881250D03*
%TO.N,col4*%
X130968750Y-64950997D03*
X187325000Y-65087500D03*
%TO.N,col3*%
X206375000Y-64293750D03*
X132556250Y-64226497D03*
%TO.N,col1*%
X244475000Y-63500000D03*
X134937500Y-63500000D03*
%TO.N,mosi*%
X131762500Y-52387500D03*
X137318750Y-52387500D03*
%TO.N,sck*%
X115887500Y-57150000D03*
X128587500Y-57150000D03*
X136525000Y-57150000D03*
%TO.N,io_cs*%
X116681250Y-53181250D03*
X135731250Y-53181250D03*
X129381250Y-53181250D03*
%TO.N,Net-(U2-Pad14)*%
X125412500Y-52387500D03*
X119856250Y-52387500D03*
%TO.N,row0*%
X101600000Y-79375000D03*
X161925000Y-79375000D03*
X196850000Y-79375000D03*
X238125000Y-79375000D03*
X219075000Y-79375000D03*
X215900000Y-79375000D03*
X82550000Y-79375000D03*
X66675000Y-79375000D03*
X200025000Y-79375000D03*
X142875000Y-79375000D03*
X177800000Y-79375000D03*
X166687500Y-45243750D03*
X158750000Y-79375000D03*
X234950000Y-79375000D03*
X157956250Y-45243750D03*
X85725000Y-79375000D03*
X63500000Y-79375000D03*
X254000000Y-79375000D03*
X120650000Y-79375000D03*
X139700000Y-79375000D03*
X180975000Y-79375000D03*
X104775000Y-79375000D03*
X166687500Y-79375000D03*
X47625000Y-79375000D03*
X123825000Y-79375000D03*
%TO.N,Net-(RD1-Pad2)*%
X243681250Y-45243750D03*
%TD*%
D19*
%TO.N,col2*%
X133524517Y-66225480D02*
X167031730Y-66225480D01*
X133350000Y-66399997D02*
X133524517Y-66225480D01*
X167031730Y-66225480D02*
X167481250Y-66675000D01*
X167481250Y-66675000D02*
X225425000Y-66675000D01*
%TO.N,row1*%
X120650000Y-98425000D02*
X104775000Y-98425000D01*
X158750000Y-98425000D02*
X142875000Y-98425000D01*
X63500000Y-98425000D02*
X47625000Y-98425000D01*
X157956250Y-47625000D02*
X165893750Y-47625000D01*
X200025000Y-98425000D02*
X215900000Y-98425000D01*
X165893750Y-98425000D02*
X177800000Y-98425000D01*
X219075000Y-98425000D02*
X234950000Y-98425000D01*
X180975000Y-98425000D02*
X196850000Y-98425000D01*
X101600000Y-98425000D02*
X85725000Y-98425000D01*
X82550000Y-98425000D02*
X66675000Y-98425000D01*
X139700000Y-98425000D02*
X123825000Y-98425000D01*
X165824500Y-98425000D02*
X161925000Y-98425000D01*
X238125000Y-98425000D02*
X254000000Y-98425000D01*
%TO.N,row2*%
X165100000Y-117475000D02*
X177800000Y-117475000D01*
X238125000Y-117475000D02*
X254000000Y-117475000D01*
X123825000Y-117475000D02*
X139700000Y-117475000D01*
X219075000Y-117475000D02*
X234950000Y-117475000D01*
X85725000Y-117475000D02*
X101600000Y-117475000D01*
X47625000Y-117475000D02*
X63500000Y-117475000D01*
X161925000Y-117475000D02*
X165100000Y-117475000D01*
X66675000Y-117475000D02*
X82550000Y-117475000D01*
X157956250Y-50800000D02*
X165100000Y-50800000D01*
X142875000Y-117475000D02*
X158750000Y-117475000D01*
X200025000Y-117475000D02*
X215900000Y-117475000D01*
X180975000Y-117475000D02*
X196850000Y-117475000D01*
X104775000Y-117475000D02*
X120650000Y-117475000D01*
%TO.N,row3*%
X82550000Y-136525000D02*
X66675000Y-136525000D01*
X163512500Y-120650000D02*
X163207829Y-120345329D01*
X163207829Y-120345329D02*
X158445329Y-120345329D01*
X219075000Y-136525000D02*
X234950000Y-136525000D01*
X183356250Y-136525000D02*
X196850000Y-136525000D01*
X168275000Y-125412500D02*
X166687500Y-127000000D01*
X200025000Y-136525000D02*
X215900000Y-136525000D01*
X124618750Y-134143750D02*
X115093750Y-134143750D01*
X101600000Y-136525000D02*
X85725000Y-136525000D01*
X129685921Y-120345329D02*
X129381250Y-120650000D01*
X238125000Y-136525000D02*
X254000000Y-136525000D01*
X63500000Y-136525000D02*
X47625000Y-136525000D01*
X158445329Y-120345329D02*
X129685921Y-120345329D01*
X176212500Y-125412500D02*
X168275000Y-125412500D01*
X111918750Y-136525000D02*
X104775000Y-136525000D01*
%TO.N,Net-(D41-Pad2)*%
X113506250Y-126206250D02*
X119269026Y-126206250D01*
X119269026Y-126206250D02*
X120856526Y-127793750D01*
X120856526Y-127793750D02*
X125412500Y-127793750D01*
%TO.N,Net-(D42-Pad2)*%
X129015974Y-135731250D02*
X126634724Y-138112500D01*
X138906250Y-135731250D02*
X129015974Y-135731250D01*
X127000000Y-122237500D02*
X119856250Y-122237500D01*
X126634724Y-138112500D02*
X123031250Y-138112500D01*
%TO.N,Net-(D43-Pad2)*%
X162718750Y-122237500D02*
X165100000Y-122237500D01*
%TO.N,sda*%
X207881250Y-46062500D02*
X210406250Y-48587500D01*
X210406250Y-48587500D02*
X252243750Y-48587500D01*
X44440000Y-48587500D02*
X44450000Y-48577500D01*
X157956250Y-55562500D02*
X195262500Y-55562500D01*
X260350000Y-48587500D02*
X257837500Y-48587500D01*
X44450000Y-48577500D02*
X89478750Y-48577500D01*
X254493750Y-50837500D02*
X252243750Y-48587500D01*
X254756250Y-50837500D02*
X254493750Y-50837500D01*
X195287500Y-46062500D02*
X207881250Y-46062500D01*
X34925000Y-48587500D02*
X44440000Y-48587500D01*
X257837500Y-48587500D02*
X255587500Y-50837500D01*
X91993750Y-46062500D02*
X153168750Y-46062500D01*
X153168750Y-46062500D02*
X153193750Y-46037500D01*
X255587500Y-50837500D02*
X254756250Y-50837500D01*
X89478750Y-48577500D02*
X91993750Y-46062500D01*
%TO.N,scl*%
X251695272Y-51977500D02*
X248780272Y-49062500D01*
X164306250Y-57943750D02*
X157956250Y-57943750D01*
X167712114Y-52387500D02*
X164306250Y-52387500D01*
X260350000Y-51127500D02*
X259500000Y-51977500D01*
X248780272Y-49062500D02*
X207881250Y-49062500D01*
X91993750Y-48862500D02*
X93231250Y-47625000D01*
X40947500Y-51127500D02*
X44440000Y-51127500D01*
X44450000Y-51117500D02*
X46505000Y-49062500D01*
X34925000Y-51127500D02*
X40947500Y-51127500D01*
X259500000Y-51977500D02*
X251695272Y-51977500D01*
X46505000Y-49062500D02*
X91993750Y-49062500D01*
X44440000Y-51127500D02*
X44450000Y-51117500D01*
X93231250Y-47625000D02*
X152400000Y-47625000D01*
X171037114Y-49062500D02*
X167712114Y-52387500D01*
X207881250Y-49062500D02*
X171037114Y-49062500D01*
X91993750Y-49062500D02*
X91993750Y-48862500D01*
%TO.N,3v3*%
X260350000Y-53667500D02*
X255857500Y-53667500D01*
X254706739Y-54062011D02*
X208880761Y-54062011D01*
X45269520Y-52837980D02*
X91769230Y-52837980D01*
X91993750Y-53062500D02*
X111243750Y-53062500D01*
X169068750Y-53181250D02*
X175893750Y-53181250D01*
X176212500Y-52862500D02*
X176237020Y-52837980D01*
X176237020Y-52837980D02*
X207656730Y-52837980D01*
X255462989Y-54062011D02*
X254706739Y-54062011D01*
X207656730Y-52837980D02*
X207881250Y-53062500D01*
X255857500Y-53667500D02*
X255587500Y-53937500D01*
X111243750Y-53062500D02*
X114300000Y-50006250D01*
X34925000Y-53667500D02*
X40788750Y-53667500D01*
X142081250Y-50006250D02*
X169068750Y-50006250D01*
X44450000Y-53657500D02*
X45269520Y-52837980D01*
X91769230Y-52837980D02*
X91993750Y-53062500D01*
X40788750Y-53667500D02*
X44440000Y-53667500D01*
X44440000Y-53667500D02*
X44450000Y-53657500D01*
X137318750Y-50006250D02*
X114300000Y-50006250D01*
X255587500Y-53937500D02*
X255462989Y-54062011D01*
X208880761Y-54062011D02*
X207881250Y-53062500D01*
X175893750Y-53181250D02*
X176212500Y-52862500D01*
%TO.N,gnd*%
X176212500Y-58262500D02*
X199181250Y-58262500D01*
X125412500Y-57943750D02*
X130175000Y-57943750D01*
X117475000Y-57943750D02*
X112712500Y-57943750D01*
X44450000Y-56197500D02*
X85358750Y-56197500D01*
X87393750Y-54162500D02*
X91175000Y-57943750D01*
X142081250Y-48418750D02*
X167481250Y-48418750D01*
X246436250Y-56207500D02*
X243006250Y-59637500D01*
X85358750Y-56197500D02*
X87393750Y-54162500D01*
X117475000Y-57943750D02*
X125412500Y-57943750D01*
X44440000Y-56207500D02*
X44450000Y-56197500D01*
X237880281Y-54511531D02*
X243006250Y-59637500D01*
X199181250Y-58262500D02*
X203281250Y-54162500D01*
X130968750Y-48418750D02*
X118268750Y-48418750D01*
X203630281Y-54511531D02*
X237880281Y-54511531D01*
X34925000Y-56207500D02*
X44440000Y-56207500D01*
X167481250Y-59531250D02*
X174943750Y-59531250D01*
X130968750Y-48418750D02*
X137318750Y-48418750D01*
X203281250Y-54162500D02*
X203630281Y-54511531D01*
X174943750Y-59531250D02*
X176212500Y-58262500D01*
X260350000Y-56207500D02*
X246436250Y-56207500D01*
X91175000Y-57943750D02*
X112712500Y-57943750D01*
%TO.N,pad_a*%
X142081250Y-62706250D02*
X240506250Y-62706250D01*
%TO.N,pad_b*%
X157956250Y-61118750D02*
X244025000Y-61118750D01*
X244025000Y-61118750D02*
X245506250Y-59637500D01*
%TO.N,col0*%
X156567885Y-43687979D02*
X153424614Y-46831250D01*
X153424614Y-46831250D02*
X133350000Y-46831250D01*
X245506250Y-45137500D02*
X244056729Y-43687979D01*
X244056729Y-43687979D02*
X156567885Y-43687979D01*
%TO.N,col12*%
X117475000Y-61912500D02*
X35680000Y-61912500D01*
X35680000Y-61912500D02*
X35302500Y-62290000D01*
%TO.N,col11*%
X119062500Y-62706250D02*
X54768750Y-62706250D01*
%TO.N,col10*%
X120650000Y-63500000D02*
X73818750Y-63500000D01*
%TO.N,col9*%
X122237500Y-65087500D02*
X92868750Y-65087500D01*
%TO.N,col8*%
X121443750Y-64293750D02*
X111918750Y-64293750D01*
%TO.N,col7*%
X138112500Y-134143750D02*
X149431526Y-134143750D01*
X149431526Y-134143750D02*
X150671047Y-135383271D01*
X136525000Y-126206250D02*
X130968750Y-126206250D01*
X130968750Y-126206250D02*
X130552500Y-126622500D01*
X152747979Y-135383271D02*
X153193750Y-134937500D01*
X127000000Y-66675000D02*
X130175000Y-66675000D01*
X150671047Y-135383271D02*
X152747979Y-135383271D01*
%TO.N,col6*%
X151606250Y-127000000D02*
X152052021Y-126554229D01*
X149225000Y-66675000D02*
X149602500Y-67052500D01*
X164306250Y-130968750D02*
X164306250Y-131936954D01*
X164306250Y-131936954D02*
X168100546Y-135731250D01*
X163080829Y-129743329D02*
X164306250Y-130968750D01*
X128587500Y-67468750D02*
X139271526Y-67468750D01*
X152052021Y-126554229D02*
X156716729Y-126554229D01*
X156716729Y-126554229D02*
X159905829Y-129743329D01*
X139271526Y-67468750D02*
X140065276Y-66675000D01*
X159905829Y-129743329D02*
X163080829Y-129743329D01*
X140065276Y-66675000D02*
X149225000Y-66675000D01*
X168100546Y-135731250D02*
X173831250Y-135731250D01*
%TO.N,col5*%
X130175000Y-65675497D02*
X168069247Y-65675497D01*
X168069247Y-65675497D02*
X168275000Y-65881250D01*
%TO.N,col4*%
X187188497Y-64950997D02*
X187325000Y-65087500D01*
X130968750Y-64950997D02*
X187188497Y-64950997D01*
%TO.N,col3*%
X132556250Y-64226497D02*
X206307747Y-64226497D01*
X206307747Y-64226497D02*
X206375000Y-64293750D01*
%TO.N,col1*%
X134937500Y-63500000D02*
X244475000Y-63500000D01*
%TO.N,mosi*%
X137318750Y-52387500D02*
X131762500Y-52387500D01*
%TO.N,sck*%
X136525000Y-57150000D02*
X115887500Y-57150000D01*
%TO.N,io_cs*%
X135731250Y-53181250D02*
X116681250Y-53181250D01*
%TO.N,Net-(U2-Pad14)*%
X125412500Y-52387500D02*
X119856250Y-52387500D01*
%TO.N,row0*%
X177800000Y-79375000D02*
X166687500Y-79375000D01*
X234950000Y-79375000D02*
X219075000Y-79375000D01*
X101600000Y-79375000D02*
X85725000Y-79375000D01*
X166687500Y-79375000D02*
X161925000Y-79375000D01*
X82550000Y-79375000D02*
X66675000Y-79375000D01*
X63500000Y-79375000D02*
X47625000Y-79375000D01*
X139700000Y-79375000D02*
X123825000Y-79375000D01*
X254000000Y-79375000D02*
X238125000Y-79375000D01*
X157956250Y-45243750D02*
X166687500Y-45243750D01*
X158750000Y-79375000D02*
X142875000Y-79375000D01*
X215900000Y-79375000D02*
X200025000Y-79375000D01*
X196850000Y-79375000D02*
X180975000Y-79375000D01*
X120650000Y-79375000D02*
X104775000Y-79375000D01*
%TO.N,Net-(RD1-Pad2)*%
X240506250Y-45137500D02*
X243575000Y-45137500D01*
X243575000Y-45137500D02*
X243681250Y-45243750D01*
%TD*%
M02*
