M48
METRIC,TZ
T1C0.400
T2C0.813
T3C0.900
T4C1.000
T5C1.500
%
G90
G05
T1
X35303Y-62290
X40789Y-53668
X40947Y-51128
X47625Y-79375
X47625Y-98425
X47625Y-117475
X47625Y-136525
X54769Y-62706
X63500Y-79375
X63500Y-98425
X63500Y-117475
X63500Y-136525
X66675Y-79375
X66675Y-98425
X66675Y-117475
X66675Y-136525
X73819Y-63500
X82550Y-79375
X82550Y-98425
X82550Y-117475
X82550Y-136525
X85725Y-79375
X85725Y-98425
X85725Y-117475
X85725Y-136525
X92869Y-65087
X101600Y-79375
X101600Y-98425
X101600Y-117475
X101600Y-136525
X104775Y-79375
X104775Y-98425
X104775Y-117475
X104775Y-136525
X111919Y-64294
X111919Y-136525
X112713Y-57944
X113506Y-126206
X114300Y-50006
X115094Y-134144
X115888Y-57150
X116681Y-53181
X117475Y-57944
X117475Y-61913
X118269Y-48419
X119063Y-62706
X119856Y-52388
X119856Y-122238
X120650Y-63500
X120650Y-79375
X120650Y-98425
X120650Y-117475
X121444Y-64294
X122238Y-50006
X122238Y-65087
X123031Y-138112
X123825Y-79375
X123825Y-98425
X123825Y-117475
X124619Y-134144
X125413Y-52388
X125413Y-57944
X125413Y-127794
X127000Y-50006
X127000Y-66675
X127000Y-122238
X128588Y-57150
X128588Y-67469
X129381Y-53181
X129381Y-120650
X130175Y-57944
X130175Y-65675
X130175Y-66675
X130552Y-126623
X130969Y-48419
X130969Y-64951
X131763Y-52388
X132556Y-64226
X133350Y-46831
X133350Y-66400
X134938Y-50006
X134938Y-63500
X135731Y-53181
X136525Y-57150
X136525Y-126206
X137319Y-48419
X137319Y-50006
X137319Y-52388
X138112Y-134144
X138906Y-135731
X139700Y-79375
X139700Y-98425
X139700Y-117475
X142081Y-48419
X142081Y-50006
X142081Y-62706
X142875Y-79375
X142875Y-98425
X142875Y-117475
X149602Y-67053
X151606Y-127000
X152400Y-47625
X153194Y-46038
X153194Y-134938
X157956Y-45244
X157956Y-47625
X157956Y-50800
X157956Y-55563
X157956Y-57944
X157956Y-61119
X158445Y-120345
X158750Y-79375
X158750Y-98425
X158750Y-117475
X161925Y-79375
X161925Y-98425
X161925Y-117475
X162719Y-122238
X163513Y-120650
X164306Y-52388
X164306Y-57944
X165100Y-50800
X165100Y-117475
X165100Y-122238
X165894Y-47625
X165894Y-98425
X166688Y-45244
X166688Y-79375
X166688Y-127000
X167481Y-48419
X167481Y-59531
X168275Y-65881
X169069Y-50006
X169069Y-53181
X173831Y-135731
X176213Y-125413
X177800Y-79375
X177800Y-98425
X177800Y-117475
X180975Y-79375
X180975Y-98425
X180975Y-117475
X183356Y-136525
X187325Y-65087
X195263Y-46038
X195263Y-55563
X196850Y-79375
X196850Y-98425
X196850Y-117475
X196850Y-136525
X200025Y-79375
X200025Y-98425
X200025Y-117475
X200025Y-136525
X206375Y-64294
X215900Y-79375
X215900Y-98425
X215900Y-117475
X215900Y-136525
X219075Y-79375
X219075Y-98425
X219075Y-117475
X219075Y-136525
X225425Y-66675
X234950Y-79375
X234950Y-98425
X234950Y-117475
X234950Y-136525
X238125Y-79375
X238125Y-98425
X238125Y-117475
X238125Y-136525
X240506Y-62706
X243681Y-45244
X244475Y-63500
X254000Y-79375
X254000Y-98425
X254000Y-117475
X254000Y-136525
X254707Y-54062
X254756Y-50838
T2
X44450Y-48578
X44450Y-51118
X44450Y-53658
X44450Y-56198
T4
X34925Y-48588
X34925Y-51128
X34925Y-53668
X34925Y-56207
X240506Y-45137
X240506Y-59638
X243006Y-59638
X245506Y-45137
X245506Y-59638
X260350Y-48588
X260350Y-51128
X260350Y-53668
X260350Y-56207
T3
X87394Y-53963G85X87394Y-54363
G05
X91994Y-45863G85X91994Y-46262
G05
X91994Y-48863G85X91994Y-49262
G05
X91994Y-52863G85X91994Y-53263
G05
X203281Y-53963G85X203281Y-54363
G05
X207881Y-45863G85X207881Y-46262
G05
X207881Y-48863G85X207881Y-49262
G05
X207881Y-52863G85X207881Y-53263
G05
T5
X237406Y-52788G85X237406Y-51488
G05
X248606Y-52788G85X248606Y-51488
G05
T0
M30
