%TF.GenerationSoftware,KiCad,Pcbnew,(6.0.4-0)*%
%TF.CreationDate,2022-09-28T21:01:25-05:00*%
%TF.ProjectId,mongus48,6d6f6e67-7573-4343-982e-6b696361645f,rev?*%
%TF.SameCoordinates,Original*%
%TF.FileFunction,Copper,L2,Bot*%
%TF.FilePolarity,Positive*%
%FSLAX46Y46*%
G04 Gerber Fmt 4.6, Leading zero omitted, Abs format (unit mm)*
G04 Created by KiCad (PCBNEW (6.0.4-0)) date 2022-09-28 21:01:25*
%MOMM*%
%LPD*%
G01*
G04 APERTURE LIST*
G04 Aperture macros list*
%AMRoundRect*
0 Rectangle with rounded corners*
0 $1 Rounding radius*
0 $2 $3 $4 $5 $6 $7 $8 $9 X,Y pos of 4 corners*
0 Add a 4 corners polygon primitive as box body*
4,1,4,$2,$3,$4,$5,$6,$7,$8,$9,$2,$3,0*
0 Add four circle primitives for the rounded corners*
1,1,$1+$1,$2,$3*
1,1,$1+$1,$4,$5*
1,1,$1+$1,$6,$7*
1,1,$1+$1,$8,$9*
0 Add four rect primitives between the rounded corners*
20,1,$1+$1,$2,$3,$4,$5,0*
20,1,$1+$1,$4,$5,$6,$7,0*
20,1,$1+$1,$6,$7,$8,$9,0*
20,1,$1+$1,$8,$9,$2,$3,0*%
G04 Aperture macros list end*
%TA.AperFunction,SMDPad,CuDef*%
%ADD10R,2.550000X2.500000*%
%TD*%
%TA.AperFunction,ComponentPad*%
%ADD11C,1.397000*%
%TD*%
%TA.AperFunction,ComponentPad*%
%ADD12O,1.600000X2.000000*%
%TD*%
%TA.AperFunction,ComponentPad*%
%ADD13R,1.700000X1.700000*%
%TD*%
%TA.AperFunction,ComponentPad*%
%ADD14O,1.700000X1.700000*%
%TD*%
%TA.AperFunction,ComponentPad*%
%ADD15R,2.000000X2.000000*%
%TD*%
%TA.AperFunction,ComponentPad*%
%ADD16C,2.000000*%
%TD*%
%TA.AperFunction,ComponentPad*%
%ADD17R,2.000000X3.200000*%
%TD*%
%TA.AperFunction,SMDPad,CuDef*%
%ADD18R,1.700000X1.300000*%
%TD*%
%TA.AperFunction,SMDPad,CuDef*%
%ADD19RoundRect,0.150000X0.150000X-0.850000X0.150000X0.850000X-0.150000X0.850000X-0.150000X-0.850000X0*%
%TD*%
%TA.AperFunction,SMDPad,CuDef*%
%ADD20R,1.300000X1.700000*%
%TD*%
%TA.AperFunction,SMDPad,CuDef*%
%ADD21O,2.748280X1.998980*%
%TD*%
%TA.AperFunction,SMDPad,CuDef*%
%ADD22O,1.016000X2.032000*%
%TD*%
%TA.AperFunction,SMDPad,CuDef*%
%ADD23C,1.143000*%
%TD*%
%TA.AperFunction,SMDPad,CuDef*%
%ADD24RoundRect,0.250000X0.625000X-0.400000X0.625000X0.400000X-0.625000X0.400000X-0.625000X-0.400000X0*%
%TD*%
%TA.AperFunction,ViaPad*%
%ADD25C,0.800000*%
%TD*%
%TA.AperFunction,Conductor*%
%ADD26C,0.250000*%
%TD*%
G04 APERTURE END LIST*
D10*
%TO.P,SW28,1,A*%
%TO.N,Net-(D28-Pad2)*%
X106302500Y-106838750D03*
%TO.P,SW28,2,B*%
%TO.N,col9*%
X92452500Y-109378750D03*
%TD*%
%TO.P,SW38,1,A*%
%TO.N,Net-(D38-Pad2)*%
X68202500Y-125888750D03*
%TO.P,SW38,2,B*%
%TO.N,col11*%
X54352500Y-128428750D03*
%TD*%
%TO.P,SW39,1,A*%
%TO.N,Net-(D39-Pad2)*%
X87252500Y-125888750D03*
%TO.P,SW39,2,B*%
%TO.N,col10*%
X73402500Y-128428750D03*
%TD*%
%TO.P,SW50,1,A*%
%TO.N,Net-(D43-Pad2)*%
X160397500Y-136048750D03*
%TO.P,SW50,2,B*%
%TO.N,col6*%
X174247500Y-133508750D03*
%TD*%
%TO.P,SW11,1,A*%
%TO.N,Net-(D11-Pad2)*%
X239652500Y-68738750D03*
%TO.P,SW11,2,B*%
%TO.N,col2*%
X225802500Y-71278750D03*
%TD*%
%TO.P,SW27,1,A*%
%TO.N,Net-(D27-Pad2)*%
X87252500Y-106838750D03*
%TO.P,SW27,2,B*%
%TO.N,col10*%
X73402500Y-109378750D03*
%TD*%
%TO.P,SW32,1,A*%
%TO.N,Net-(D32-Pad2)*%
X182502500Y-106838750D03*
%TO.P,SW32,2,B*%
%TO.N,col5*%
X168652500Y-109378750D03*
%TD*%
%TO.P,SW26,1,A*%
%TO.N,Net-(D26-Pad2)*%
X68202500Y-106838750D03*
%TO.P,SW26,2,B*%
%TO.N,col11*%
X54352500Y-109378750D03*
%TD*%
%TO.P,SW8,1,A*%
%TO.N,Net-(D8-Pad2)*%
X182502500Y-68738750D03*
%TO.P,SW8,2,B*%
%TO.N,col5*%
X168652500Y-71278750D03*
%TD*%
%TO.P,SW33,1,A*%
%TO.N,Net-(D33-Pad2)*%
X201552500Y-106838750D03*
%TO.P,SW33,2,B*%
%TO.N,col4*%
X187702500Y-109378750D03*
%TD*%
%TO.P,SW35,1,A*%
%TO.N,Net-(D35-Pad2)*%
X239652500Y-106838750D03*
%TO.P,SW35,2,B*%
%TO.N,col2*%
X225802500Y-109378750D03*
%TD*%
%TO.P,SW19,1,A*%
%TO.N,Net-(D19-Pad2)*%
X163452500Y-87788750D03*
%TO.P,SW19,2,B*%
%TO.N,col6*%
X149602500Y-90328750D03*
%TD*%
%TO.P,SW12,1,A*%
%TO.N,Net-(D12-Pad2)*%
X258702500Y-68738750D03*
%TO.P,SW12,2,B*%
%TO.N,col1*%
X244852500Y-71278750D03*
%TD*%
%TO.P,SW44,1,A*%
%TO.N,Net-(D44-Pad2)*%
X182502500Y-125888750D03*
%TO.P,SW44,2,B*%
%TO.N,col5*%
X168652500Y-128428750D03*
%TD*%
%TO.P,SW22,1,A*%
%TO.N,Net-(D22-Pad2)*%
X220602500Y-87788750D03*
%TO.P,SW22,2,B*%
%TO.N,col3*%
X206752500Y-90328750D03*
%TD*%
%TO.P,SW49,1,A*%
%TO.N,Net-(D42-Pad2)*%
X141347500Y-136048750D03*
%TO.P,SW49,2,B*%
%TO.N,col7*%
X155197500Y-133508750D03*
%TD*%
%TO.P,SW6,1,A*%
%TO.N,Net-(D6-Pad2)*%
X144402500Y-68738750D03*
%TO.P,SW6,2,B*%
%TO.N,col7*%
X130552500Y-71278750D03*
%TD*%
%TO.P,SW17,1,A*%
%TO.N,Net-(D17-Pad2)*%
X125352500Y-87788750D03*
%TO.P,SW17,2,B*%
%TO.N,col8*%
X111502500Y-90328750D03*
%TD*%
%TO.P,SW42,1,A*%
%TO.N,Net-(D42-Pad2)*%
X144402500Y-125888750D03*
%TO.P,SW42,2,B*%
%TO.N,col7*%
X130552500Y-128428750D03*
%TD*%
%TO.P,SW7,1,A*%
%TO.N,Net-(D7-Pad2)*%
X163452500Y-68738750D03*
%TO.P,SW7,2,B*%
%TO.N,col6*%
X149602500Y-71278750D03*
%TD*%
D11*
%TO.P,OL1,1,SDA*%
%TO.N,sda*%
X44450000Y-48577500D03*
%TO.P,OL1,2,SCL*%
%TO.N,scl*%
X44450000Y-51117500D03*
%TO.P,OL1,3,VCC*%
%TO.N,3v3*%
X44450000Y-53657500D03*
%TO.P,OL1,4,GND*%
%TO.N,gnd*%
X44450000Y-56197500D03*
%TD*%
D10*
%TO.P,SW45,1,A*%
%TO.N,Net-(D45-Pad2)*%
X201552500Y-125888750D03*
%TO.P,SW45,2,B*%
%TO.N,col4*%
X187702500Y-128428750D03*
%TD*%
%TO.P,SW15,1,A*%
%TO.N,Net-(D15-Pad2)*%
X87252500Y-87788750D03*
%TO.P,SW15,2,B*%
%TO.N,col10*%
X73402500Y-90328750D03*
%TD*%
%TO.P,SW47,1,A*%
%TO.N,Net-(D47-Pad2)*%
X239652500Y-125888750D03*
%TO.P,SW47,2,B*%
%TO.N,col2*%
X225802500Y-128428750D03*
%TD*%
%TO.P,SW4,1,A*%
%TO.N,Net-(D4-Pad2)*%
X106302500Y-68738750D03*
%TO.P,SW4,2,B*%
%TO.N,col9*%
X92452500Y-71278750D03*
%TD*%
%TO.P,SW37,1,A*%
%TO.N,Net-(D37-Pad2)*%
X49152500Y-125888750D03*
%TO.P,SW37,2,B*%
%TO.N,col12*%
X35302500Y-128428750D03*
%TD*%
%TO.P,SW29,1,A*%
%TO.N,Net-(D29-Pad2)*%
X125352500Y-106838750D03*
%TO.P,SW29,2,B*%
%TO.N,col8*%
X111502500Y-109378750D03*
%TD*%
%TO.P,SW23,1,A*%
%TO.N,Net-(D23-Pad2)*%
X239652500Y-87788750D03*
%TO.P,SW23,2,B*%
%TO.N,col2*%
X225802500Y-90328750D03*
%TD*%
%TO.P,SW1,1,A*%
%TO.N,Net-(D1-Pad2)*%
X49152500Y-68738750D03*
%TO.P,SW1,2,B*%
%TO.N,col12*%
X35302500Y-71278750D03*
%TD*%
%TO.P,SW51,1,A*%
%TO.N,Net-(D42-Pad2)*%
X122297500Y-136048750D03*
%TO.P,SW51,2,B*%
%TO.N,col7*%
X136147500Y-133508750D03*
%TD*%
%TO.P,SW20,1,A*%
%TO.N,Net-(D20-Pad2)*%
X182502500Y-87788750D03*
%TO.P,SW20,2,B*%
%TO.N,col5*%
X168652500Y-90328750D03*
%TD*%
%TO.P,SW25,1,A*%
%TO.N,Net-(D25-Pad2)*%
X49152500Y-106838750D03*
%TO.P,SW25,2,B*%
%TO.N,col12*%
X35302500Y-109378750D03*
%TD*%
D12*
%TO.P,U5,1,SLEEVE*%
%TO.N,gnd*%
X203281250Y-54162500D03*
%TO.P,U5,2,TIP*%
%TO.N,3v3*%
X207881250Y-53062500D03*
%TO.P,U5,3,RING1*%
%TO.N,scl*%
X207881250Y-49062500D03*
%TO.P,U5,4,RING2*%
%TO.N,sda*%
X207881250Y-46062500D03*
%TD*%
D13*
%TO.P,J2,1,Pin_1*%
%TO.N,sda*%
X34925000Y-48587500D03*
D14*
%TO.P,J2,2,Pin_2*%
%TO.N,scl*%
X34925000Y-51127500D03*
%TO.P,J2,3,Pin_3*%
%TO.N,3v3*%
X34925000Y-53667500D03*
%TO.P,J2,4,Pin_4*%
%TO.N,gnd*%
X34925000Y-56207500D03*
%TD*%
D15*
%TO.P,RSW1,A,A*%
%TO.N,pad_a*%
X240506250Y-59637500D03*
D16*
%TO.P,RSW1,B,B*%
%TO.N,pad_b*%
X245506250Y-59637500D03*
%TO.P,RSW1,C,C*%
%TO.N,gnd*%
X243006250Y-59637500D03*
D17*
%TO.P,RSW1,MP*%
%TO.N,N/C*%
X248606250Y-52137500D03*
X237406250Y-52137500D03*
D16*
%TO.P,RSW1,S1,S1*%
%TO.N,col0*%
X245506250Y-45137500D03*
%TO.P,RSW1,S2,S2*%
%TO.N,Net-(RD1-Pad2)*%
X240506250Y-45137500D03*
%TD*%
D10*
%TO.P,SW9,1,A*%
%TO.N,Net-(D9-Pad2)*%
X201552500Y-68738750D03*
%TO.P,SW9,2,B*%
%TO.N,col4*%
X187702500Y-71278750D03*
%TD*%
%TO.P,SW34,1,A*%
%TO.N,Net-(D34-Pad2)*%
X220602500Y-106838750D03*
%TO.P,SW34,2,B*%
%TO.N,col3*%
X206752500Y-109378750D03*
%TD*%
%TO.P,SW46,1,A*%
%TO.N,Net-(D46-Pad2)*%
X220602500Y-125888750D03*
%TO.P,SW46,2,B*%
%TO.N,col3*%
X206752500Y-128428750D03*
%TD*%
%TO.P,SW40,1,A*%
%TO.N,Net-(D40-Pad2)*%
X106302500Y-125888750D03*
%TO.P,SW40,2,B*%
%TO.N,col9*%
X92452500Y-128428750D03*
%TD*%
%TO.P,SW14,1,A*%
%TO.N,Net-(D14-Pad2)*%
X68202500Y-87788750D03*
%TO.P,SW14,2,B*%
%TO.N,col11*%
X54352500Y-90328750D03*
%TD*%
D13*
%TO.P,J1,1,Pin_1*%
%TO.N,sda*%
X260350000Y-48587500D03*
D14*
%TO.P,J1,2,Pin_2*%
%TO.N,scl*%
X260350000Y-51127500D03*
%TO.P,J1,3,Pin_3*%
%TO.N,3v3*%
X260350000Y-53667500D03*
%TO.P,J1,4,Pin_4*%
%TO.N,gnd*%
X260350000Y-56207500D03*
%TD*%
D10*
%TO.P,SW36,1,A*%
%TO.N,Net-(D36-Pad2)*%
X258702500Y-106838750D03*
%TO.P,SW36,2,B*%
%TO.N,col1*%
X244852500Y-109378750D03*
%TD*%
%TO.P,SW3,1,A*%
%TO.N,Net-(D3-Pad2)*%
X87252500Y-68738750D03*
%TO.P,SW3,2,B*%
%TO.N,col10*%
X73402500Y-71278750D03*
%TD*%
%TO.P,SW43,1,A*%
%TO.N,Net-(D43-Pad2)*%
X163452500Y-125888750D03*
%TO.P,SW43,2,B*%
%TO.N,col6*%
X149602500Y-128428750D03*
%TD*%
%TO.P,SW30,1,A*%
%TO.N,Net-(D30-Pad2)*%
X144402500Y-106838750D03*
%TO.P,SW30,2,B*%
%TO.N,col7*%
X130552500Y-109378750D03*
%TD*%
%TO.P,SW10,1,A*%
%TO.N,Net-(D10-Pad2)*%
X220602500Y-68738750D03*
%TO.P,SW10,2,B*%
%TO.N,col3*%
X206752500Y-71278750D03*
%TD*%
%TO.P,SW21,1,A*%
%TO.N,Net-(D21-Pad2)*%
X201552500Y-87788750D03*
%TO.P,SW21,2,B*%
%TO.N,col4*%
X187702500Y-90328750D03*
%TD*%
%TO.P,SW2,1,A*%
%TO.N,Net-(D2-Pad2)*%
X68202500Y-68738750D03*
%TO.P,SW2,2,B*%
%TO.N,col11*%
X54352500Y-71278750D03*
%TD*%
%TO.P,SW48,1,A*%
%TO.N,Net-(D48-Pad2)*%
X258702500Y-125888750D03*
%TO.P,SW48,2,B*%
%TO.N,col1*%
X244852500Y-128428750D03*
%TD*%
%TO.P,SW24,1,A*%
%TO.N,Net-(D24-Pad2)*%
X258702500Y-87788750D03*
%TO.P,SW24,2,B*%
%TO.N,col1*%
X244852500Y-90328750D03*
%TD*%
D12*
%TO.P,U4,1,SLEEVE*%
%TO.N,gnd*%
X87393750Y-54162500D03*
%TO.P,U4,2,TIP*%
%TO.N,3v3*%
X91993750Y-53062500D03*
%TO.P,U4,3,RING1*%
%TO.N,scl*%
X91993750Y-49062500D03*
%TO.P,U4,4,RING2*%
%TO.N,sda*%
X91993750Y-46062500D03*
%TD*%
D10*
%TO.P,SW41,1,A*%
%TO.N,Net-(D41-Pad2)*%
X125352500Y-125888750D03*
%TO.P,SW41,2,B*%
%TO.N,col8*%
X111502500Y-128428750D03*
%TD*%
%TO.P,SW31,1,A*%
%TO.N,Net-(D31-Pad2)*%
X163452500Y-106838750D03*
%TO.P,SW31,2,B*%
%TO.N,col6*%
X149602500Y-109378750D03*
%TD*%
%TO.P,SW18,1,A*%
%TO.N,Net-(D18-Pad2)*%
X144402500Y-87788750D03*
%TO.P,SW18,2,B*%
%TO.N,col7*%
X130552500Y-90328750D03*
%TD*%
%TO.P,SW16,1,A*%
%TO.N,Net-(D16-Pad2)*%
X106302500Y-87788750D03*
%TO.P,SW16,2,B*%
%TO.N,col9*%
X92452500Y-90328750D03*
%TD*%
%TO.P,SW13,1,A*%
%TO.N,Net-(D13-Pad2)*%
X49152500Y-87788750D03*
%TO.P,SW13,2,B*%
%TO.N,col12*%
X35302500Y-90328750D03*
%TD*%
%TO.P,SW5,1,A*%
%TO.N,Net-(D5-Pad2)*%
X125352500Y-68738750D03*
%TO.P,SW5,2,B*%
%TO.N,col8*%
X111502500Y-71278750D03*
%TD*%
D18*
%TO.P,D24,1,K*%
%TO.N,row1*%
X255587500Y-98587500D03*
%TO.P,D24,2,A*%
%TO.N,Net-(D24-Pad2)*%
X255587500Y-95087500D03*
%TD*%
%TO.P,D17,1,K*%
%TO.N,row1*%
X122237500Y-98587500D03*
%TO.P,D17,2,A*%
%TO.N,Net-(D17-Pad2)*%
X122237500Y-95087500D03*
%TD*%
%TO.P,D4,1,K*%
%TO.N,row0*%
X103187500Y-79537500D03*
%TO.P,D4,2,A*%
%TO.N,Net-(D4-Pad2)*%
X103187500Y-76037500D03*
%TD*%
%TO.P,D47,1,K*%
%TO.N,row3*%
X236537500Y-136687500D03*
%TO.P,D47,2,A*%
%TO.N,Net-(D47-Pad2)*%
X236537500Y-133187500D03*
%TD*%
%TO.P,D21,1,K*%
%TO.N,row1*%
X198437500Y-98587500D03*
%TO.P,D21,2,A*%
%TO.N,Net-(D21-Pad2)*%
X198437500Y-95087500D03*
%TD*%
%TO.P,D13,1,K*%
%TO.N,row1*%
X46037500Y-98587500D03*
%TO.P,D13,2,A*%
%TO.N,Net-(D13-Pad2)*%
X46037500Y-95087500D03*
%TD*%
%TO.P,D32,1,K*%
%TO.N,row2*%
X179387500Y-117637500D03*
%TO.P,D32,2,A*%
%TO.N,Net-(D32-Pad2)*%
X179387500Y-114137500D03*
%TD*%
%TO.P,D23,1,K*%
%TO.N,row1*%
X236537500Y-98587500D03*
%TO.P,D23,2,A*%
%TO.N,Net-(D23-Pad2)*%
X236537500Y-95087500D03*
%TD*%
D19*
%TO.P,U2,1,QB*%
%TO.N,col9*%
X121920000Y-60443750D03*
%TO.P,U2,2,QC*%
%TO.N,col10*%
X120650000Y-60443750D03*
%TO.P,U2,3,QD*%
%TO.N,col11*%
X119380000Y-60443750D03*
%TO.P,U2,4,QE*%
%TO.N,col12*%
X118110000Y-60443750D03*
%TO.P,U2,5,QF*%
%TO.N,unconnected-(U2-Pad5)*%
X116840000Y-60443750D03*
%TO.P,U2,6,QG*%
%TO.N,unconnected-(U2-Pad6)*%
X115570000Y-60443750D03*
%TO.P,U2,7,QH*%
%TO.N,unconnected-(U2-Pad7)*%
X114300000Y-60443750D03*
%TO.P,U2,8,GND*%
%TO.N,gnd*%
X113030000Y-60443750D03*
%TO.P,U2,9,QH'*%
%TO.N,unconnected-(U2-Pad9)*%
X113030000Y-55443750D03*
%TO.P,U2,10,~{SRCLR}*%
%TO.N,3v3*%
X114300000Y-55443750D03*
%TO.P,U2,11,SRCLK*%
%TO.N,sck*%
X115570000Y-55443750D03*
%TO.P,U2,12,RCLK*%
%TO.N,io_cs*%
X116840000Y-55443750D03*
%TO.P,U2,13,~{OE}*%
%TO.N,gnd*%
X118110000Y-55443750D03*
%TO.P,U2,14,SER*%
%TO.N,Net-(U2-Pad14)*%
X119380000Y-55443750D03*
%TO.P,U2,15,QA*%
%TO.N,col8*%
X120650000Y-55443750D03*
%TO.P,U2,16,VCC*%
%TO.N,3v3*%
X121920000Y-55443750D03*
%TD*%
D18*
%TO.P,D14,1,K*%
%TO.N,row1*%
X65087500Y-98587500D03*
%TO.P,D14,2,A*%
%TO.N,Net-(D14-Pad2)*%
X65087500Y-95087500D03*
%TD*%
%TO.P,D35,1,K*%
%TO.N,row2*%
X236537500Y-117637500D03*
%TO.P,D35,2,A*%
%TO.N,Net-(D35-Pad2)*%
X236537500Y-114137500D03*
%TD*%
%TO.P,D25,1,K*%
%TO.N,row2*%
X46037500Y-117637500D03*
%TO.P,D25,2,A*%
%TO.N,Net-(D25-Pad2)*%
X46037500Y-114137500D03*
%TD*%
%TO.P,D33,1,K*%
%TO.N,row2*%
X198437500Y-117637500D03*
%TO.P,D33,2,A*%
%TO.N,Net-(D33-Pad2)*%
X198437500Y-114137500D03*
%TD*%
%TO.P,D30,1,K*%
%TO.N,row2*%
X141287500Y-117637500D03*
%TO.P,D30,2,A*%
%TO.N,Net-(D30-Pad2)*%
X141287500Y-114137500D03*
%TD*%
%TO.P,D16,1,K*%
%TO.N,row1*%
X103187500Y-98587500D03*
%TO.P,D16,2,A*%
%TO.N,Net-(D16-Pad2)*%
X103187500Y-95087500D03*
%TD*%
%TO.P,D42,1,K*%
%TO.N,row3*%
X128587500Y-125737500D03*
%TO.P,D42,2,A*%
%TO.N,Net-(D42-Pad2)*%
X128587500Y-122237500D03*
%TD*%
%TO.P,D26,1,K*%
%TO.N,row2*%
X65087500Y-117637500D03*
%TO.P,D26,2,A*%
%TO.N,Net-(D26-Pad2)*%
X65087500Y-114137500D03*
%TD*%
%TO.P,D41,1,K*%
%TO.N,row3*%
X113506250Y-136687500D03*
%TO.P,D41,2,A*%
%TO.N,Net-(D41-Pad2)*%
X113506250Y-133187500D03*
%TD*%
%TO.P,D22,1,K*%
%TO.N,row1*%
X217487500Y-98587500D03*
%TO.P,D22,2,A*%
%TO.N,Net-(D22-Pad2)*%
X217487500Y-95087500D03*
%TD*%
D20*
%TO.P,RD1,1,K*%
%TO.N,row0*%
X241137500Y-42862500D03*
%TO.P,RD1,2,A*%
%TO.N,Net-(RD1-Pad2)*%
X244637500Y-42862500D03*
%TD*%
D18*
%TO.P,D46,1,K*%
%TO.N,row3*%
X217487500Y-136687500D03*
%TO.P,D46,2,A*%
%TO.N,Net-(D46-Pad2)*%
X217487500Y-133187500D03*
%TD*%
%TO.P,D37,1,K*%
%TO.N,row3*%
X46037500Y-136687500D03*
%TO.P,D37,2,A*%
%TO.N,Net-(D37-Pad2)*%
X46037500Y-133187500D03*
%TD*%
%TO.P,D19,1,K*%
%TO.N,row1*%
X160337500Y-98587500D03*
%TO.P,D19,2,A*%
%TO.N,Net-(D19-Pad2)*%
X160337500Y-95087500D03*
%TD*%
D21*
%TO.P,U1,1,PA02_A0_D0*%
%TO.N,row0*%
X155704290Y-45387990D03*
%TO.P,U1,2,PA4_A1_D1*%
%TO.N,row1*%
X155704290Y-47927990D03*
%TO.P,U1,3,PA10_A2_D2*%
%TO.N,row2*%
X155704290Y-50467990D03*
%TO.P,U1,4,PA11_A3_D3*%
%TO.N,row3*%
X155704290Y-53007990D03*
%TO.P,U1,5,PA8_A4_D4_SDA*%
%TO.N,sda*%
X155704290Y-55547990D03*
%TO.P,U1,6,PA9_A5_D5_SCL*%
%TO.N,scl*%
X155704290Y-58087990D03*
%TO.P,U1,7,PB08_A6_D6_TX*%
%TO.N,pad_b*%
X155704290Y-60627990D03*
%TO.P,U1,8,PB09_A7_D7_RX*%
%TO.N,io_cs*%
X139539730Y-60627990D03*
%TO.P,U1,9,PA7_A8_D8_SCK*%
%TO.N,sck*%
X139539730Y-58087990D03*
%TO.P,U1,10,PA5_A9_D9_MISO*%
%TO.N,pad_a*%
X139539730Y-55547990D03*
%TO.P,U1,11,PA6_A10_D10_MOSI*%
%TO.N,mosi*%
X139539730Y-53007990D03*
%TO.P,U1,12,3V3*%
%TO.N,3v3*%
X139539730Y-50467990D03*
%TO.P,U1,13,GND*%
%TO.N,gnd*%
X139539730Y-47927990D03*
%TO.P,U1,14,5V*%
%TO.N,unconnected-(U1-Pad14)*%
X139539730Y-45387990D03*
D22*
%TO.P,U1,15,5V*%
%TO.N,unconnected-(U1-Pad15)*%
X148837410Y-61705810D03*
%TO.P,U1,16,GND*%
%TO.N,unconnected-(U1-Pad16)*%
X146287410Y-61705810D03*
D23*
%TO.P,U1,17,PA31_SWDIO*%
%TO.N,unconnected-(U1-Pad17)*%
X148838607Y-44701623D03*
%TO.P,U1,18,PA30_SWCLK*%
%TO.N,unconnected-(U1-Pad18)*%
X146298607Y-44701623D03*
%TO.P,U1,19,RESET*%
%TO.N,unconnected-(U1-Pad19)*%
X148838607Y-47241623D03*
%TO.P,U1,20,GND*%
%TO.N,unconnected-(U1-Pad20)*%
X146298607Y-47241623D03*
%TD*%
D18*
%TO.P,D2,1,K*%
%TO.N,row0*%
X65087500Y-79537500D03*
%TO.P,D2,2,A*%
%TO.N,Net-(D2-Pad2)*%
X65087500Y-76037500D03*
%TD*%
%TO.P,D39,1,K*%
%TO.N,row3*%
X84137500Y-136687500D03*
%TO.P,D39,2,A*%
%TO.N,Net-(D39-Pad2)*%
X84137500Y-133187500D03*
%TD*%
%TO.P,D27,1,K*%
%TO.N,row2*%
X84137500Y-117637500D03*
%TO.P,D27,2,A*%
%TO.N,Net-(D27-Pad2)*%
X84137500Y-114137500D03*
%TD*%
%TO.P,D18,1,K*%
%TO.N,row1*%
X141287500Y-98587500D03*
%TO.P,D18,2,A*%
%TO.N,Net-(D18-Pad2)*%
X141287500Y-95087500D03*
%TD*%
%TO.P,D29,1,K*%
%TO.N,row2*%
X122237500Y-117637500D03*
%TO.P,D29,2,A*%
%TO.N,Net-(D29-Pad2)*%
X122237500Y-114137500D03*
%TD*%
%TO.P,D12,1,K*%
%TO.N,row0*%
X255587500Y-79537500D03*
%TO.P,D12,2,A*%
%TO.N,Net-(D12-Pad2)*%
X255587500Y-76037500D03*
%TD*%
D24*
%TO.P,R2,1*%
%TO.N,3v3*%
X255587500Y-53937500D03*
%TO.P,R2,2*%
%TO.N,sda*%
X255587500Y-50837500D03*
%TD*%
D18*
%TO.P,D9,1,K*%
%TO.N,row0*%
X198437500Y-79537500D03*
%TO.P,D9,2,A*%
%TO.N,Net-(D9-Pad2)*%
X198437500Y-76037500D03*
%TD*%
D19*
%TO.P,U3,1,QB*%
%TO.N,col1*%
X134620000Y-60443750D03*
%TO.P,U3,2,QC*%
%TO.N,col2*%
X133350000Y-60443750D03*
%TO.P,U3,3,QD*%
%TO.N,col3*%
X132080000Y-60443750D03*
%TO.P,U3,4,QE*%
%TO.N,col4*%
X130810000Y-60443750D03*
%TO.P,U3,5,QF*%
%TO.N,col5*%
X129540000Y-60443750D03*
%TO.P,U3,6,QG*%
%TO.N,col6*%
X128270000Y-60443750D03*
%TO.P,U3,7,QH*%
%TO.N,col7*%
X127000000Y-60443750D03*
%TO.P,U3,8,GND*%
%TO.N,gnd*%
X125730000Y-60443750D03*
%TO.P,U3,9,QH'*%
%TO.N,Net-(U2-Pad14)*%
X125730000Y-55443750D03*
%TO.P,U3,10,~{SRCLR}*%
%TO.N,3v3*%
X127000000Y-55443750D03*
%TO.P,U3,11,SRCLK*%
%TO.N,sck*%
X128270000Y-55443750D03*
%TO.P,U3,12,RCLK*%
%TO.N,io_cs*%
X129540000Y-55443750D03*
%TO.P,U3,13,~{OE}*%
%TO.N,gnd*%
X130810000Y-55443750D03*
%TO.P,U3,14,SER*%
%TO.N,mosi*%
X132080000Y-55443750D03*
%TO.P,U3,15,QA*%
%TO.N,col0*%
X133350000Y-55443750D03*
%TO.P,U3,16,VCC*%
%TO.N,3v3*%
X134620000Y-55443750D03*
%TD*%
D18*
%TO.P,D43,1,K*%
%TO.N,row3*%
X166687500Y-125575000D03*
%TO.P,D43,2,A*%
%TO.N,Net-(D43-Pad2)*%
X166687500Y-122075000D03*
%TD*%
%TO.P,D7,1,K*%
%TO.N,row0*%
X160337500Y-79537500D03*
%TO.P,D7,2,A*%
%TO.N,Net-(D7-Pad2)*%
X160337500Y-76037500D03*
%TD*%
%TO.P,D40,1,K*%
%TO.N,row3*%
X103187500Y-136687500D03*
%TO.P,D40,2,A*%
%TO.N,Net-(D40-Pad2)*%
X103187500Y-133187500D03*
%TD*%
%TO.P,D1,1,K*%
%TO.N,row0*%
X46037500Y-79537500D03*
%TO.P,D1,2,A*%
%TO.N,Net-(D1-Pad2)*%
X46037500Y-76037500D03*
%TD*%
%TO.P,D38,1,K*%
%TO.N,row3*%
X65087500Y-136687500D03*
%TO.P,D38,2,A*%
%TO.N,Net-(D38-Pad2)*%
X65087500Y-133187500D03*
%TD*%
%TO.P,D11,1,K*%
%TO.N,row0*%
X236537500Y-79537500D03*
%TO.P,D11,2,A*%
%TO.N,Net-(D11-Pad2)*%
X236537500Y-76037500D03*
%TD*%
%TO.P,D3,1,K*%
%TO.N,row0*%
X84137500Y-79537500D03*
%TO.P,D3,2,A*%
%TO.N,Net-(D3-Pad2)*%
X84137500Y-76037500D03*
%TD*%
%TO.P,D5,1,K*%
%TO.N,row0*%
X122237500Y-79537500D03*
%TO.P,D5,2,A*%
%TO.N,Net-(D5-Pad2)*%
X122237500Y-76037500D03*
%TD*%
%TO.P,D45,1,K*%
%TO.N,row3*%
X198437500Y-136687500D03*
%TO.P,D45,2,A*%
%TO.N,Net-(D45-Pad2)*%
X198437500Y-133187500D03*
%TD*%
%TO.P,D28,1,K*%
%TO.N,row2*%
X103187500Y-117637500D03*
%TO.P,D28,2,A*%
%TO.N,Net-(D28-Pad2)*%
X103187500Y-114137500D03*
%TD*%
%TO.P,D6,1,K*%
%TO.N,row0*%
X141287500Y-79537500D03*
%TO.P,D6,2,A*%
%TO.N,Net-(D6-Pad2)*%
X141287500Y-76037500D03*
%TD*%
%TO.P,D34,1,K*%
%TO.N,row2*%
X217487500Y-117637500D03*
%TO.P,D34,2,A*%
%TO.N,Net-(D34-Pad2)*%
X217487500Y-114137500D03*
%TD*%
%TO.P,D44,1,K*%
%TO.N,row3*%
X181768750Y-136687500D03*
%TO.P,D44,2,A*%
%TO.N,Net-(D44-Pad2)*%
X181768750Y-133187500D03*
%TD*%
%TO.P,D10,1,K*%
%TO.N,row0*%
X217487500Y-79537500D03*
%TO.P,D10,2,A*%
%TO.N,Net-(D10-Pad2)*%
X217487500Y-76037500D03*
%TD*%
%TO.P,D31,1,K*%
%TO.N,row2*%
X160337500Y-117637500D03*
%TO.P,D31,2,A*%
%TO.N,Net-(D31-Pad2)*%
X160337500Y-114137500D03*
%TD*%
%TO.P,D15,1,K*%
%TO.N,row1*%
X84137500Y-98587500D03*
%TO.P,D15,2,A*%
%TO.N,Net-(D15-Pad2)*%
X84137500Y-95087500D03*
%TD*%
%TO.P,D36,1,K*%
%TO.N,row2*%
X255587500Y-117637500D03*
%TO.P,D36,2,A*%
%TO.N,Net-(D36-Pad2)*%
X255587500Y-114137500D03*
%TD*%
D24*
%TO.P,R1,1*%
%TO.N,3v3*%
X39687500Y-53937500D03*
%TO.P,R1,2*%
%TO.N,scl*%
X39687500Y-50837500D03*
%TD*%
D18*
%TO.P,D8,1,K*%
%TO.N,row0*%
X179387500Y-79537500D03*
%TO.P,D8,2,A*%
%TO.N,Net-(D8-Pad2)*%
X179387500Y-76037500D03*
%TD*%
%TO.P,D48,1,K*%
%TO.N,row3*%
X255587500Y-136687500D03*
%TO.P,D48,2,A*%
%TO.N,Net-(D48-Pad2)*%
X255587500Y-133187500D03*
%TD*%
%TO.P,D20,1,K*%
%TO.N,row1*%
X179387500Y-98587500D03*
%TO.P,D20,2,A*%
%TO.N,Net-(D20-Pad2)*%
X179387500Y-95087500D03*
%TD*%
D25*
%TO.N,col2*%
X133350000Y-66399997D03*
X225425000Y-66675000D03*
%TO.N,row1*%
X123825000Y-98425000D03*
X200025000Y-98425000D03*
X66675000Y-98425000D03*
X196850000Y-98425000D03*
X161925000Y-98425000D03*
X215900000Y-98425000D03*
X180975000Y-98425000D03*
X142875000Y-98425000D03*
X165893750Y-98425000D03*
X219075000Y-98425000D03*
X47625000Y-98425000D03*
X104775000Y-98425000D03*
X139700000Y-98425000D03*
X234950000Y-98425000D03*
X63500000Y-98425000D03*
X85725000Y-98425000D03*
X254000000Y-98425000D03*
X101600000Y-98425000D03*
X177800000Y-98425000D03*
X238125000Y-98425000D03*
X165893750Y-47625000D03*
X158750000Y-98425000D03*
X82550000Y-98425000D03*
X157956250Y-47625000D03*
X120650000Y-98425000D03*
%TO.N,row2*%
X161925000Y-117475000D03*
X123825000Y-117475000D03*
X200025000Y-117475000D03*
X238125000Y-117475000D03*
X234950000Y-117475000D03*
X219075000Y-117475000D03*
X254000000Y-117475000D03*
X177800000Y-117475000D03*
X139700000Y-117475000D03*
X165100000Y-117475000D03*
X85725000Y-117475000D03*
X165100000Y-50800000D03*
X82550000Y-117475000D03*
X215900000Y-117475000D03*
X47625000Y-117475000D03*
X196850000Y-117475000D03*
X120650000Y-117475000D03*
X104775000Y-117475000D03*
X101600000Y-117475000D03*
X157956250Y-50800000D03*
X158750000Y-117475000D03*
X63500000Y-117475000D03*
X66675000Y-117475000D03*
X142875000Y-117475000D03*
X180975000Y-117475000D03*
%TO.N,row3*%
X101600000Y-136525000D03*
X238125000Y-136525000D03*
X183356250Y-136525000D03*
X85725000Y-136525000D03*
X82550000Y-136525000D03*
X176212500Y-125412500D03*
X47625000Y-136525000D03*
X158445329Y-120345329D03*
X215900000Y-136525000D03*
X254000000Y-136525000D03*
X115093750Y-134143750D03*
X129381250Y-120650000D03*
X163512500Y-120650000D03*
X166687500Y-127000000D03*
X196850000Y-136525000D03*
X234950000Y-136525000D03*
X200025000Y-136525000D03*
X63500000Y-136525000D03*
X104775000Y-136525000D03*
X66675000Y-136525000D03*
X219075000Y-136525000D03*
X124618750Y-134143750D03*
X111918750Y-136525000D03*
%TO.N,Net-(D41-Pad2)*%
X113506250Y-126206250D03*
X125412500Y-127793750D03*
%TO.N,Net-(D42-Pad2)*%
X138906250Y-135731250D03*
X123031250Y-138112500D03*
X127000000Y-122237500D03*
X119856250Y-122237500D03*
%TO.N,Net-(D43-Pad2)*%
X162718750Y-122237500D03*
X165100000Y-122237500D03*
%TO.N,sda*%
X254756250Y-50837500D03*
X195262500Y-55562500D03*
X153193750Y-46037500D03*
X195262500Y-46037500D03*
X157956250Y-55562500D03*
%TO.N,scl*%
X164306250Y-57943750D03*
X157956250Y-57943750D03*
X152400000Y-47625000D03*
X40947500Y-51127500D03*
X164306250Y-52387500D03*
%TO.N,3v3*%
X142081250Y-50006250D03*
X169068750Y-53181250D03*
X169068750Y-50006250D03*
X137318750Y-50006250D03*
X122237500Y-50006250D03*
X127000000Y-50006250D03*
X40788750Y-53667500D03*
X114300000Y-50006250D03*
X254706739Y-54062011D03*
X134937500Y-50006250D03*
%TO.N,gnd*%
X112712500Y-57943750D03*
X130175000Y-57943750D03*
X167481250Y-48418750D03*
X137318750Y-48418750D03*
X142081250Y-48418750D03*
X117475000Y-57943750D03*
X118268750Y-48418750D03*
X125412500Y-57943750D03*
X167481250Y-59531250D03*
X130968750Y-48418750D03*
%TO.N,pad_a*%
X142081250Y-62706250D03*
X240506250Y-62706250D03*
%TO.N,pad_b*%
X157956250Y-61118750D03*
%TO.N,col0*%
X133350000Y-46831250D03*
%TO.N,col12*%
X35302500Y-62290000D03*
X117475000Y-61912500D03*
%TO.N,col11*%
X54768750Y-62706250D03*
X119062500Y-62706250D03*
%TO.N,col10*%
X73818750Y-63500000D03*
X120650000Y-63500000D03*
%TO.N,col9*%
X92868750Y-65087500D03*
X122237500Y-65087500D03*
%TO.N,col8*%
X111918750Y-64293750D03*
X121443750Y-64293750D03*
%TO.N,col7*%
X130552500Y-126622500D03*
X130175000Y-66675000D03*
X127000000Y-66675000D03*
X153193750Y-134937500D03*
X136525000Y-126206250D03*
X138112500Y-134143750D03*
%TO.N,col6*%
X149602500Y-67052500D03*
X128587500Y-67468750D03*
X173831250Y-135731250D03*
X151606250Y-127000000D03*
%TO.N,col5*%
X130175000Y-65675497D03*
X168275000Y-65881250D03*
%TO.N,col4*%
X130968750Y-64950997D03*
X187325000Y-65087500D03*
%TO.N,col3*%
X206375000Y-64293750D03*
X132556250Y-64226497D03*
%TO.N,col1*%
X244475000Y-63500000D03*
X134937500Y-63500000D03*
%TO.N,mosi*%
X131762500Y-52387500D03*
X137318750Y-52387500D03*
%TO.N,sck*%
X115887500Y-57150000D03*
X128587500Y-57150000D03*
X136525000Y-57150000D03*
%TO.N,io_cs*%
X116681250Y-53181250D03*
X135731250Y-53181250D03*
X129381250Y-53181250D03*
%TO.N,Net-(U2-Pad14)*%
X125412500Y-52387500D03*
X119856250Y-52387500D03*
%TO.N,row0*%
X101600000Y-79375000D03*
X161925000Y-79375000D03*
X196850000Y-79375000D03*
X238125000Y-79375000D03*
X219075000Y-79375000D03*
X215900000Y-79375000D03*
X82550000Y-79375000D03*
X66675000Y-79375000D03*
X200025000Y-79375000D03*
X142875000Y-79375000D03*
X177800000Y-79375000D03*
X166687500Y-45243750D03*
X158750000Y-79375000D03*
X234950000Y-79375000D03*
X157956250Y-45243750D03*
X85725000Y-79375000D03*
X63500000Y-79375000D03*
X254000000Y-79375000D03*
X120650000Y-79375000D03*
X139700000Y-79375000D03*
X180975000Y-79375000D03*
X104775000Y-79375000D03*
X166687500Y-79375000D03*
X47625000Y-79375000D03*
X123825000Y-79375000D03*
%TO.N,Net-(RD1-Pad2)*%
X243681250Y-45243750D03*
%TD*%
D26*
%TO.N,col2*%
X225425000Y-66675000D02*
X225802500Y-67052500D01*
X225802500Y-71278750D02*
X225802500Y-128428750D01*
X133350000Y-60443750D02*
X133350000Y-66399997D01*
X225802500Y-67052500D02*
X225802500Y-71278750D01*
%TO.N,Net-(D1-Pad2)*%
X49152500Y-68738750D02*
X49167921Y-68754171D01*
X47456758Y-76037500D02*
X46037500Y-76037500D01*
X49167921Y-68754171D02*
X49167921Y-74326337D01*
X49167921Y-74326337D02*
X47456758Y-76037500D01*
%TO.N,Net-(D2-Pad2)*%
X68217921Y-68754171D02*
X68217921Y-74657079D01*
X66837500Y-76037500D02*
X65087500Y-76037500D01*
X68217921Y-74657079D02*
X66837500Y-76037500D01*
X68202500Y-68738750D02*
X68217921Y-68754171D01*
%TO.N,Net-(D3-Pad2)*%
X87267921Y-74326337D02*
X85556758Y-76037500D01*
X87267921Y-68754171D02*
X87267921Y-74326337D01*
X85556758Y-76037500D02*
X84137500Y-76037500D01*
X87252500Y-68738750D02*
X87267921Y-68754171D01*
%TO.N,Net-(D4-Pad2)*%
X104937500Y-76037500D02*
X103187500Y-76037500D01*
X106317921Y-74657079D02*
X104937500Y-76037500D01*
X106317921Y-68754171D02*
X106317921Y-74657079D01*
X106302500Y-68738750D02*
X106317921Y-68754171D01*
%TO.N,Net-(D5-Pad2)*%
X123987500Y-76037500D02*
X122237500Y-76037500D01*
X125367921Y-74657079D02*
X123987500Y-76037500D01*
X125367921Y-68754171D02*
X125367921Y-74657079D01*
X125352500Y-68738750D02*
X125367921Y-68754171D01*
%TO.N,Net-(D6-Pad2)*%
X143037500Y-76037500D02*
X141287500Y-76037500D01*
X144417921Y-74657079D02*
X143037500Y-76037500D01*
X144417921Y-68754171D02*
X144417921Y-74657079D01*
X144402500Y-68738750D02*
X144417921Y-68754171D01*
%TO.N,Net-(D7-Pad2)*%
X163467921Y-74657079D02*
X162087500Y-76037500D01*
X163452500Y-68738750D02*
X163467921Y-68754171D01*
X162087500Y-76037500D02*
X160337500Y-76037500D01*
X163467921Y-68754171D02*
X163467921Y-74657079D01*
%TO.N,Net-(D8-Pad2)*%
X182517921Y-68754171D02*
X182517921Y-74657079D01*
X182517921Y-74657079D02*
X181137500Y-76037500D01*
X182502500Y-68738750D02*
X182517921Y-68754171D01*
X181137500Y-76037500D02*
X179387500Y-76037500D01*
%TO.N,Net-(D9-Pad2)*%
X201552500Y-68738750D02*
X201567921Y-68754171D01*
X201567921Y-68754171D02*
X201567921Y-74326337D01*
X201567921Y-74326337D02*
X199856758Y-76037500D01*
X199856758Y-76037500D02*
X198437500Y-76037500D01*
%TO.N,Net-(D10-Pad2)*%
X220602500Y-68738750D02*
X220617921Y-68754171D01*
X218906758Y-76037500D02*
X217487500Y-76037500D01*
X220617921Y-74326337D02*
X218906758Y-76037500D01*
X220617921Y-68754171D02*
X220617921Y-74326337D01*
%TO.N,Net-(D11-Pad2)*%
X239652500Y-68738750D02*
X239667921Y-68754171D01*
X239667921Y-74326337D02*
X237956758Y-76037500D01*
X239667921Y-68754171D02*
X239667921Y-74326337D01*
X237956758Y-76037500D02*
X236537500Y-76037500D01*
%TO.N,Net-(D12-Pad2)*%
X257006758Y-76037500D02*
X255587500Y-76037500D01*
X258717921Y-74326337D02*
X257006758Y-76037500D01*
X258717921Y-68754171D02*
X258717921Y-74326337D01*
X258702500Y-68738750D02*
X258717921Y-68754171D01*
%TO.N,Net-(D13-Pad2)*%
X49167921Y-87804171D02*
X49167921Y-93376337D01*
X49167921Y-93376337D02*
X47456758Y-95087500D01*
X49152500Y-87788750D02*
X49167921Y-87804171D01*
X47456758Y-95087500D02*
X46037500Y-95087500D01*
%TO.N,row1*%
X237962500Y-98587500D02*
X238125000Y-98425000D01*
X120812500Y-98587500D02*
X120650000Y-98425000D01*
X255425000Y-98425000D02*
X255587500Y-98587500D01*
X196850000Y-98425000D02*
X198275000Y-98425000D01*
X82712500Y-98587500D02*
X82550000Y-98425000D01*
X139862500Y-98587500D02*
X139700000Y-98425000D01*
X85725000Y-98425000D02*
X84300000Y-98425000D01*
X101762500Y-98587500D02*
X101600000Y-98425000D01*
X103187500Y-98587500D02*
X101762500Y-98587500D01*
X155704290Y-47927990D02*
X157653260Y-47927990D01*
X180812500Y-98587500D02*
X180975000Y-98425000D01*
X63662500Y-98587500D02*
X63500000Y-98425000D01*
X122237500Y-98587500D02*
X120812500Y-98587500D01*
X160337500Y-98587500D02*
X158912500Y-98587500D01*
X84137500Y-98587500D02*
X82712500Y-98587500D01*
X236537500Y-98587500D02*
X237962500Y-98587500D01*
X179225000Y-98425000D02*
X179387500Y-98587500D01*
X160500000Y-98425000D02*
X160337500Y-98587500D01*
X234950000Y-98425000D02*
X236375000Y-98425000D01*
X198275000Y-98425000D02*
X198437500Y-98587500D01*
X198437500Y-98587500D02*
X199862500Y-98587500D01*
X104775000Y-98425000D02*
X103350000Y-98425000D01*
X123825000Y-98425000D02*
X122400000Y-98425000D01*
X179387500Y-98587500D02*
X180812500Y-98587500D01*
X84300000Y-98425000D02*
X84137500Y-98587500D01*
X254000000Y-98425000D02*
X255425000Y-98425000D01*
X47625000Y-98425000D02*
X46200000Y-98425000D01*
X142875000Y-98425000D02*
X141450000Y-98425000D01*
X122400000Y-98425000D02*
X122237500Y-98587500D01*
X141287500Y-98587500D02*
X139862500Y-98587500D01*
X65250000Y-98425000D02*
X65087500Y-98587500D01*
X215900000Y-98425000D02*
X217325000Y-98425000D01*
X236375000Y-98425000D02*
X236537500Y-98587500D01*
X217325000Y-98425000D02*
X217487500Y-98587500D01*
X157653260Y-47927990D02*
X157956250Y-47625000D01*
X141450000Y-98425000D02*
X141287500Y-98587500D01*
X218912500Y-98587500D02*
X219075000Y-98425000D01*
X103350000Y-98425000D02*
X103187500Y-98587500D01*
X66675000Y-98425000D02*
X65250000Y-98425000D01*
X177800000Y-98425000D02*
X179225000Y-98425000D01*
X46200000Y-98425000D02*
X46037500Y-98587500D01*
X165893750Y-47625000D02*
X165893750Y-98425000D01*
X158912500Y-98587500D02*
X158750000Y-98425000D01*
X161925000Y-98425000D02*
X160500000Y-98425000D01*
X65087500Y-98587500D02*
X63662500Y-98587500D01*
X199862500Y-98587500D02*
X200025000Y-98425000D01*
X217487500Y-98587500D02*
X218912500Y-98587500D01*
%TO.N,Net-(D14-Pad2)*%
X67631250Y-95087500D02*
X65087500Y-95087500D01*
X68217921Y-94500829D02*
X67631250Y-95087500D01*
X68217921Y-87804171D02*
X68217921Y-94500829D01*
X68202500Y-87788750D02*
X68217921Y-87804171D01*
%TO.N,Net-(D15-Pad2)*%
X87267921Y-93707079D02*
X85887500Y-95087500D01*
X85887500Y-95087500D02*
X84137500Y-95087500D01*
X87252500Y-87788750D02*
X87267921Y-87804171D01*
X87267921Y-87804171D02*
X87267921Y-93707079D01*
%TO.N,Net-(D16-Pad2)*%
X106302500Y-87788750D02*
X106317921Y-87804171D01*
X106317921Y-93707079D02*
X104937500Y-95087500D01*
X104937500Y-95087500D02*
X103187500Y-95087500D01*
X106317921Y-87804171D02*
X106317921Y-93707079D01*
%TO.N,Net-(D17-Pad2)*%
X125367921Y-93376337D02*
X123656758Y-95087500D01*
X125367921Y-87804171D02*
X125367921Y-93376337D01*
X123656758Y-95087500D02*
X122237500Y-95087500D01*
X125352500Y-87788750D02*
X125367921Y-87804171D01*
%TO.N,Net-(D18-Pad2)*%
X144417921Y-87804171D02*
X144417921Y-93376337D01*
X144402500Y-87788750D02*
X144417921Y-87804171D01*
X144417921Y-93376337D02*
X142706758Y-95087500D01*
X142706758Y-95087500D02*
X141287500Y-95087500D01*
%TO.N,Net-(D19-Pad2)*%
X163467921Y-87804171D02*
X163467921Y-93707079D01*
X163467921Y-93707079D02*
X162087500Y-95087500D01*
X162087500Y-95087500D02*
X160337500Y-95087500D01*
X163452500Y-87788750D02*
X163467921Y-87804171D01*
%TO.N,Net-(D20-Pad2)*%
X182502500Y-87788750D02*
X182517921Y-87804171D01*
X181137500Y-95087500D02*
X179387500Y-95087500D01*
X182517921Y-93707079D02*
X181137500Y-95087500D01*
X182517921Y-87804171D02*
X182517921Y-93707079D01*
%TO.N,Net-(D21-Pad2)*%
X201567921Y-93707079D02*
X200187500Y-95087500D01*
X200187500Y-95087500D02*
X198437500Y-95087500D01*
X201552500Y-87788750D02*
X201567921Y-87804171D01*
X201567921Y-87804171D02*
X201567921Y-93707079D01*
%TO.N,Net-(D22-Pad2)*%
X219237500Y-95087500D02*
X217487500Y-95087500D01*
X220617921Y-93707079D02*
X219237500Y-95087500D01*
X220617921Y-87804171D02*
X220617921Y-93707079D01*
X220602500Y-87788750D02*
X220617921Y-87804171D01*
%TO.N,Net-(D23-Pad2)*%
X237956758Y-95087500D02*
X236537500Y-95087500D01*
X239652500Y-87788750D02*
X239667921Y-87804171D01*
X239667921Y-87804171D02*
X239667921Y-93376337D01*
X239667921Y-93376337D02*
X237956758Y-95087500D01*
%TO.N,Net-(D24-Pad2)*%
X258702500Y-87788750D02*
X258717921Y-87804171D01*
X257337500Y-95087500D02*
X255587500Y-95087500D01*
X258717921Y-93707079D02*
X257337500Y-95087500D01*
X258717921Y-87804171D02*
X258717921Y-93707079D01*
%TO.N,Net-(D25-Pad2)*%
X49152500Y-106838750D02*
X49167921Y-106854171D01*
X49167921Y-106854171D02*
X49167921Y-112757079D01*
X47787500Y-114137500D02*
X46037500Y-114137500D01*
X49167921Y-112757079D02*
X47787500Y-114137500D01*
%TO.N,row2*%
X142712500Y-117637500D02*
X142875000Y-117475000D01*
X217487500Y-117637500D02*
X218912500Y-117637500D01*
X179387500Y-117637500D02*
X180812500Y-117637500D01*
X179225000Y-117475000D02*
X179387500Y-117637500D01*
X236375000Y-117475000D02*
X236537500Y-117637500D01*
X218912500Y-117637500D02*
X219075000Y-117475000D01*
X157624240Y-50467990D02*
X157956250Y-50800000D01*
X196850000Y-117475000D02*
X198275000Y-117475000D01*
X141125000Y-117475000D02*
X141287500Y-117637500D01*
X158750000Y-117475000D02*
X160175000Y-117475000D01*
X120650000Y-117475000D02*
X122075000Y-117475000D01*
X122237500Y-117637500D02*
X123662500Y-117637500D01*
X64925000Y-117475000D02*
X65087500Y-117637500D01*
X198275000Y-117475000D02*
X198437500Y-117637500D01*
X103187500Y-117637500D02*
X104612500Y-117637500D01*
X82550000Y-117475000D02*
X83975000Y-117475000D01*
X254000000Y-117475000D02*
X255425000Y-117475000D01*
X180812500Y-117637500D02*
X180975000Y-117475000D01*
X65087500Y-117637500D02*
X66512500Y-117637500D01*
X161762500Y-117637500D02*
X161925000Y-117475000D01*
X160175000Y-117475000D02*
X160337500Y-117637500D01*
X198437500Y-117637500D02*
X199862500Y-117637500D01*
X177800000Y-117475000D02*
X179225000Y-117475000D01*
X139700000Y-117475000D02*
X141125000Y-117475000D01*
X160337500Y-117637500D02*
X161762500Y-117637500D01*
X234950000Y-117475000D02*
X236375000Y-117475000D01*
X237962500Y-117637500D02*
X238125000Y-117475000D01*
X63500000Y-117475000D02*
X64925000Y-117475000D01*
X103025000Y-117475000D02*
X103187500Y-117637500D01*
X199862500Y-117637500D02*
X200025000Y-117475000D01*
X101600000Y-117475000D02*
X103025000Y-117475000D01*
X84137500Y-117637500D02*
X85562500Y-117637500D01*
X217325000Y-117475000D02*
X217487500Y-117637500D01*
X215900000Y-117475000D02*
X217325000Y-117475000D01*
X122075000Y-117475000D02*
X122237500Y-117637500D01*
X104612500Y-117637500D02*
X104775000Y-117475000D01*
X46037500Y-117637500D02*
X47462500Y-117637500D01*
X165100000Y-50800000D02*
X165100000Y-117475000D01*
X123662500Y-117637500D02*
X123825000Y-117475000D01*
X47462500Y-117637500D02*
X47625000Y-117475000D01*
X83975000Y-117475000D02*
X84137500Y-117637500D01*
X141287500Y-117637500D02*
X142712500Y-117637500D01*
X236537500Y-117637500D02*
X237962500Y-117637500D01*
X155704290Y-50467990D02*
X157624240Y-50467990D01*
X66512500Y-117637500D02*
X66675000Y-117475000D01*
X85562500Y-117637500D02*
X85725000Y-117475000D01*
X255425000Y-117475000D02*
X255587500Y-117637500D01*
%TO.N,Net-(D26-Pad2)*%
X68217921Y-106854171D02*
X68217921Y-112757079D01*
X66837500Y-114137500D02*
X65087500Y-114137500D01*
X68217921Y-112757079D02*
X66837500Y-114137500D01*
X68202500Y-106838750D02*
X68217921Y-106854171D01*
%TO.N,Net-(D27-Pad2)*%
X87267921Y-106854171D02*
X87267921Y-112757079D01*
X87267921Y-112757079D02*
X85887500Y-114137500D01*
X87252500Y-106838750D02*
X87267921Y-106854171D01*
X85887500Y-114137500D02*
X84137500Y-114137500D01*
%TO.N,Net-(D28-Pad2)*%
X106317921Y-106854171D02*
X106317921Y-112757079D01*
X106317921Y-112757079D02*
X104937500Y-114137500D01*
X106302500Y-106838750D02*
X106317921Y-106854171D01*
X104937500Y-114137500D02*
X103187500Y-114137500D01*
%TO.N,Net-(D29-Pad2)*%
X123987500Y-114137500D02*
X122237500Y-114137500D01*
X125352500Y-106838750D02*
X125367921Y-106854171D01*
X125367921Y-112757079D02*
X123987500Y-114137500D01*
X125367921Y-106854171D02*
X125367921Y-112757079D01*
%TO.N,Net-(D30-Pad2)*%
X144417921Y-112757079D02*
X143037500Y-114137500D01*
X144402500Y-106838750D02*
X144417921Y-106854171D01*
X144417921Y-106854171D02*
X144417921Y-112757079D01*
X143037500Y-114137500D02*
X141287500Y-114137500D01*
%TO.N,Net-(D31-Pad2)*%
X163467921Y-112757079D02*
X162087500Y-114137500D01*
X163467921Y-106854171D02*
X163467921Y-112757079D01*
X162087500Y-114137500D02*
X160337500Y-114137500D01*
X163452500Y-106838750D02*
X163467921Y-106854171D01*
%TO.N,Net-(D32-Pad2)*%
X180806758Y-114137500D02*
X179387500Y-114137500D01*
X182517921Y-106854171D02*
X182517921Y-112426337D01*
X182502500Y-106838750D02*
X182517921Y-106854171D01*
X182517921Y-112426337D02*
X180806758Y-114137500D01*
%TO.N,Net-(D33-Pad2)*%
X201552500Y-106838750D02*
X201567921Y-106854171D01*
X200187500Y-114137500D02*
X198437500Y-114137500D01*
X201567921Y-112757079D02*
X200187500Y-114137500D01*
X201567921Y-106854171D02*
X201567921Y-112757079D01*
%TO.N,Net-(D34-Pad2)*%
X220602500Y-106838750D02*
X220617921Y-106854171D01*
X220617921Y-112757079D02*
X219237500Y-114137500D01*
X220617921Y-106854171D02*
X220617921Y-112757079D01*
X219237500Y-114137500D02*
X217487500Y-114137500D01*
%TO.N,Net-(D35-Pad2)*%
X239667921Y-106854171D02*
X239667921Y-112757079D01*
X238287500Y-114137500D02*
X236537500Y-114137500D01*
X239667921Y-112757079D02*
X238287500Y-114137500D01*
X239652500Y-106838750D02*
X239667921Y-106854171D01*
%TO.N,Net-(D36-Pad2)*%
X258717921Y-112757079D02*
X257337500Y-114137500D01*
X258702500Y-106838750D02*
X258717921Y-106854171D01*
X257337500Y-114137500D02*
X255587500Y-114137500D01*
X258717921Y-106854171D02*
X258717921Y-112757079D01*
%TO.N,Net-(D37-Pad2)*%
X47787500Y-133187500D02*
X46037500Y-133187500D01*
X49152500Y-125888750D02*
X49167921Y-125904171D01*
X49167921Y-131807079D02*
X47787500Y-133187500D01*
X49167921Y-125904171D02*
X49167921Y-131807079D01*
%TO.N,row3*%
X159530921Y-74799783D02*
X157827979Y-76502725D01*
X85725000Y-136525000D02*
X84300000Y-136525000D01*
X157827979Y-95552725D02*
X157827979Y-109234775D01*
X236375000Y-136525000D02*
X236537500Y-136687500D01*
X47625000Y-136525000D02*
X46200000Y-136525000D01*
X128587500Y-125737500D02*
X126219079Y-128105921D01*
X199862500Y-136687500D02*
X200025000Y-136525000D01*
X166687500Y-127000000D02*
X166687500Y-125575000D01*
X159530921Y-110937717D02*
X159530921Y-112899783D01*
X157827979Y-109234775D02*
X159530921Y-110937717D01*
X217487500Y-136687500D02*
X218912500Y-136687500D01*
X178580921Y-133499671D02*
X178580921Y-128574671D01*
X159530921Y-112899783D02*
X158025489Y-114405215D01*
X104775000Y-136525000D02*
X103350000Y-136525000D01*
X181768750Y-136687500D02*
X183193750Y-136687500D01*
X157827979Y-90184775D02*
X159530921Y-91887717D01*
X129762011Y-124562989D02*
X128587500Y-125737500D01*
X217325000Y-136525000D02*
X217487500Y-136687500D01*
X159530921Y-93849783D02*
X157827979Y-95552725D01*
X163512500Y-122400000D02*
X163512500Y-120650000D01*
X198275000Y-136525000D02*
X198437500Y-136687500D01*
X176212500Y-126206250D02*
X176212500Y-125412500D01*
X126219079Y-128105921D02*
X126219079Y-132543421D01*
X161852989Y-72303261D02*
X161852989Y-53109239D01*
X255425000Y-136525000D02*
X255587500Y-136687500D01*
X198437500Y-136687500D02*
X199862500Y-136687500D01*
X65087500Y-136687500D02*
X63662500Y-136687500D01*
X159530921Y-74625329D02*
X161852989Y-72303261D01*
X46200000Y-136525000D02*
X46037500Y-136687500D01*
X101762500Y-136687500D02*
X101600000Y-136525000D01*
X218912500Y-136687500D02*
X219075000Y-136525000D01*
X157827979Y-76502725D02*
X157827979Y-90184775D01*
X129762011Y-121030761D02*
X129762011Y-124562989D01*
X65250000Y-136525000D02*
X65087500Y-136687500D01*
X113506250Y-136687500D02*
X112081250Y-136687500D01*
X66675000Y-136525000D02*
X65250000Y-136525000D01*
X237962500Y-136687500D02*
X238125000Y-136525000D01*
X126219079Y-132543421D02*
X124618750Y-134143750D01*
X112081250Y-136687500D02*
X111918750Y-136525000D01*
X178580921Y-128574671D02*
X176212500Y-126206250D01*
X183193750Y-136687500D02*
X183356250Y-136525000D01*
X196850000Y-136525000D02*
X198275000Y-136525000D01*
X166687500Y-125575000D02*
X163512500Y-122400000D01*
X181768750Y-136687500D02*
X178580921Y-133499671D01*
X158025489Y-114405215D02*
X158025489Y-119925489D01*
X115093750Y-134143750D02*
X113506250Y-135731250D01*
X161751740Y-53007990D02*
X155704290Y-53007990D01*
X234950000Y-136525000D02*
X236375000Y-136525000D01*
X103187500Y-136687500D02*
X101762500Y-136687500D01*
X161852989Y-53109239D02*
X161751740Y-53007990D01*
X158025489Y-119925489D02*
X158445329Y-120345329D01*
X254000000Y-136525000D02*
X255425000Y-136525000D01*
X113506250Y-135731250D02*
X113506250Y-136687500D01*
X63662500Y-136687500D02*
X63500000Y-136525000D01*
X215900000Y-136525000D02*
X217325000Y-136525000D01*
X84300000Y-136525000D02*
X84137500Y-136687500D01*
X236537500Y-136687500D02*
X237962500Y-136687500D01*
X82712500Y-136687500D02*
X82550000Y-136525000D01*
X159530921Y-74799783D02*
X159530921Y-74625329D01*
X129381250Y-120650000D02*
X129762011Y-121030761D01*
X159530921Y-91887717D02*
X159530921Y-93849783D01*
X103350000Y-136525000D02*
X103187500Y-136687500D01*
X84137500Y-136687500D02*
X82712500Y-136687500D01*
%TO.N,Net-(D38-Pad2)*%
X68217921Y-125904171D02*
X68217921Y-131807079D01*
X68217921Y-131807079D02*
X66837500Y-133187500D01*
X68202500Y-125888750D02*
X68217921Y-125904171D01*
X66837500Y-133187500D02*
X65087500Y-133187500D01*
%TO.N,Net-(D39-Pad2)*%
X87252500Y-125888750D02*
X87267921Y-125904171D01*
X87267921Y-131807079D02*
X85887500Y-133187500D01*
X85887500Y-133187500D02*
X84137500Y-133187500D01*
X87267921Y-125904171D02*
X87267921Y-131807079D01*
%TO.N,Net-(D40-Pad2)*%
X106317921Y-131807079D02*
X104937500Y-133187500D01*
X104937500Y-133187500D02*
X103187500Y-133187500D01*
X106302500Y-125888750D02*
X106317921Y-125904171D01*
X106317921Y-125904171D02*
X106317921Y-131807079D01*
%TO.N,Net-(D41-Pad2)*%
X113506250Y-133187500D02*
X112712500Y-132393750D01*
X112712500Y-130392772D02*
X113377979Y-129727293D01*
X113377979Y-126334521D02*
X113506250Y-126206250D01*
X113377979Y-129727293D02*
X113377979Y-126334521D01*
X125412500Y-125948750D02*
X125352500Y-125888750D01*
X112712500Y-132393750D02*
X112712500Y-130392772D01*
X125412500Y-127793750D02*
X125412500Y-125948750D01*
%TO.N,Net-(D42-Pad2)*%
X119727979Y-128284775D02*
X121443750Y-130000546D01*
X123031250Y-136782500D02*
X122297500Y-136048750D01*
X123031250Y-138112500D02*
X123031250Y-136782500D01*
X119856250Y-122237500D02*
X119727979Y-122365771D01*
X141307457Y-128983793D02*
X141307457Y-136008707D01*
X141307457Y-136008707D02*
X141347500Y-136048750D01*
X121443750Y-135195000D02*
X122297500Y-136048750D01*
X139223750Y-136048750D02*
X138906250Y-135731250D01*
X121443750Y-130000546D02*
X121443750Y-135195000D01*
X128587500Y-122237500D02*
X127000000Y-122237500D01*
X144402500Y-125888750D02*
X141307457Y-128983793D01*
X141347500Y-136048750D02*
X139223750Y-136048750D01*
X119727979Y-122365771D02*
X119727979Y-128284775D01*
%TO.N,Net-(D43-Pad2)*%
X163452500Y-125888750D02*
X162718750Y-125155000D01*
X166525000Y-122237500D02*
X166687500Y-122075000D01*
X162718750Y-125155000D02*
X162718750Y-122237500D01*
X160382079Y-136033329D02*
X160397500Y-136048750D01*
X163452500Y-125888750D02*
X160382079Y-128959171D01*
X160382079Y-128959171D02*
X160382079Y-136033329D01*
X165100000Y-122237500D02*
X166525000Y-122237500D01*
%TO.N,Net-(D44-Pad2)*%
X181768750Y-133187500D02*
X182517921Y-132438329D01*
X182517921Y-125904171D02*
X182502500Y-125888750D01*
X182517921Y-132438329D02*
X182517921Y-125904171D01*
%TO.N,Net-(D45-Pad2)*%
X201612500Y-125948750D02*
X201552500Y-125888750D01*
X201612500Y-131431758D02*
X201612500Y-125948750D01*
X199856758Y-133187500D02*
X201612500Y-131431758D01*
X198437500Y-133187500D02*
X199856758Y-133187500D01*
%TO.N,Net-(D46-Pad2)*%
X220662500Y-131431758D02*
X220662500Y-125948750D01*
X220662500Y-125948750D02*
X220602500Y-125888750D01*
X217487500Y-133187500D02*
X218906758Y-133187500D01*
X218906758Y-133187500D02*
X220662500Y-131431758D01*
%TO.N,Net-(D47-Pad2)*%
X237956758Y-133187500D02*
X239667921Y-131476337D01*
X236537500Y-133187500D02*
X237956758Y-133187500D01*
X239667921Y-125904171D02*
X239652500Y-125888750D01*
X239667921Y-131476337D02*
X239667921Y-125904171D01*
%TO.N,Net-(D48-Pad2)*%
X257006758Y-133187500D02*
X258762500Y-131431758D01*
X255587500Y-133187500D02*
X257006758Y-133187500D01*
X258762500Y-131431758D02*
X258762500Y-125948750D01*
X258762500Y-125948750D02*
X258702500Y-125888750D01*
%TO.N,sda*%
X157941740Y-55547990D02*
X157956250Y-55562500D01*
X155704290Y-55547990D02*
X157941740Y-55547990D01*
X195262500Y-55562500D02*
X195262500Y-46037500D01*
X254756250Y-50837500D02*
X255587500Y-50837500D01*
X153193750Y-53037450D02*
X155704290Y-55547990D01*
X153193750Y-46037500D02*
X153193750Y-53037450D01*
%TO.N,scl*%
X157956250Y-57943750D02*
X155848530Y-57943750D01*
X152400000Y-54783700D02*
X155704290Y-58087990D01*
X152400000Y-47625000D02*
X152400000Y-54783700D01*
X164306250Y-52387500D02*
X164306250Y-57943750D01*
X155848530Y-57943750D02*
X155704290Y-58087990D01*
X39977500Y-51127500D02*
X39687500Y-50837500D01*
X40947500Y-51127500D02*
X39977500Y-51127500D01*
%TO.N,3v3*%
X122237500Y-55126250D02*
X121920000Y-55443750D01*
X122237500Y-50006250D02*
X122237500Y-55126250D01*
X169068750Y-50006250D02*
X169068750Y-53181250D01*
X40788750Y-53667500D02*
X39957500Y-53667500D01*
X254706739Y-54062011D02*
X255462989Y-54062011D01*
X137780490Y-50467990D02*
X137318750Y-50006250D01*
X255462989Y-54062011D02*
X255587500Y-53937500D01*
X39957500Y-53667500D02*
X39687500Y-53937500D01*
X134937500Y-50006250D02*
X134937500Y-55126250D01*
X139539730Y-50467990D02*
X137780490Y-50467990D01*
X114300000Y-50006250D02*
X114300000Y-55443750D01*
X139539730Y-50467990D02*
X141619510Y-50467990D01*
X134937500Y-55126250D02*
X134620000Y-55443750D01*
X127000000Y-50006250D02*
X127000000Y-55443750D01*
X141619510Y-50467990D02*
X142081250Y-50006250D01*
%TO.N,gnd*%
X118110000Y-55443750D02*
X118110000Y-57308750D01*
X130810000Y-48577500D02*
X130968750Y-48418750D01*
X112712500Y-60126250D02*
X113030000Y-60443750D01*
X125412500Y-57943750D02*
X125412500Y-60126250D01*
X130810000Y-55443750D02*
X130810000Y-48577500D01*
X112712500Y-57943750D02*
X112712500Y-60126250D01*
X118110000Y-57308750D02*
X117475000Y-57943750D01*
X125412500Y-60126250D02*
X125730000Y-60443750D01*
X118268750Y-48418750D02*
X118268750Y-55285000D01*
X167481250Y-48418750D02*
X167481250Y-59531250D01*
X137318750Y-48418750D02*
X139048970Y-48418750D01*
X139539730Y-47927990D02*
X141590490Y-47927990D01*
X130810000Y-57308750D02*
X130810000Y-55443750D01*
X139048970Y-48418750D02*
X139539730Y-47927990D01*
X141590490Y-47927990D02*
X142081250Y-48418750D01*
X130175000Y-57943750D02*
X130810000Y-57308750D01*
X118268750Y-55285000D02*
X118110000Y-55443750D01*
%TO.N,pad_a*%
X142081250Y-58089510D02*
X142081250Y-62706250D01*
X139539730Y-55547990D02*
X142081250Y-58089510D01*
X240506250Y-62706250D02*
X240506250Y-59637500D01*
%TO.N,pad_b*%
X155704290Y-60627990D02*
X157465490Y-60627990D01*
X157465490Y-60627990D02*
X157956250Y-61118750D01*
%TO.N,col0*%
X133350000Y-55443750D02*
X133350000Y-46831250D01*
%TO.N,col12*%
X118110000Y-61277500D02*
X117475000Y-61912500D01*
X118110000Y-60443750D02*
X118110000Y-61277500D01*
X35302500Y-62290000D02*
X35302500Y-71278750D01*
X35302500Y-71278750D02*
X35302500Y-128428750D01*
%TO.N,col11*%
X54768750Y-62706250D02*
X54352500Y-63122500D01*
X54352500Y-63122500D02*
X54352500Y-71278750D01*
X54352500Y-71278750D02*
X54352500Y-128428750D01*
X119380000Y-62388750D02*
X119062500Y-62706250D01*
X119380000Y-60443750D02*
X119380000Y-62388750D01*
%TO.N,col10*%
X73818750Y-63500000D02*
X73402500Y-63916250D01*
X73402500Y-63916250D02*
X73402500Y-71278750D01*
X73402500Y-71278750D02*
X73402500Y-128428750D01*
X120650000Y-60443750D02*
X120650000Y-63500000D01*
%TO.N,col9*%
X92868750Y-65087500D02*
X92452500Y-65503750D01*
X92452500Y-65503750D02*
X92452500Y-71278750D01*
X92452500Y-90328750D02*
X92452500Y-128428750D01*
X92452500Y-71278750D02*
X92452500Y-90328750D01*
X121920000Y-60443750D02*
X122237500Y-60761250D01*
X122237500Y-60761250D02*
X122237500Y-65087500D01*
%TO.N,col8*%
X111502500Y-64710000D02*
X111502500Y-71278750D01*
X120650000Y-55443750D02*
X121295480Y-56089230D01*
X111918750Y-64293750D02*
X111502500Y-64710000D01*
X121443750Y-63269136D02*
X121443750Y-64293750D01*
X121295480Y-63120866D02*
X121443750Y-63269136D01*
X111502500Y-71278750D02*
X111502500Y-128428750D01*
X121295480Y-56089230D02*
X121295480Y-63120866D01*
%TO.N,col7*%
X130552500Y-71278750D02*
X130552500Y-126622500D01*
X153193750Y-134937500D02*
X153768750Y-134937500D01*
X130552500Y-126622500D02*
X130552500Y-128428750D01*
X135744079Y-133105329D02*
X135744079Y-129987717D01*
X130552500Y-67052500D02*
X130552500Y-71278750D01*
X136147500Y-133508750D02*
X135744079Y-133105329D01*
X136525000Y-129206796D02*
X136525000Y-126206250D01*
X127000000Y-60443750D02*
X127000000Y-66675000D01*
X136147500Y-133508750D02*
X137477500Y-133508750D01*
X135744079Y-129987717D02*
X136525000Y-129206796D01*
X130175000Y-66675000D02*
X130552500Y-67052500D01*
X153768750Y-134937500D02*
X155197500Y-133508750D01*
X137477500Y-133508750D02*
X138112500Y-134143750D01*
%TO.N,col6*%
X149602500Y-128428750D02*
X151031250Y-127000000D01*
X128270000Y-67151250D02*
X128587500Y-67468750D01*
X173831250Y-133925000D02*
X174247500Y-133508750D01*
X149602500Y-67052500D02*
X149602500Y-128428750D01*
X128270000Y-60443750D02*
X128270000Y-67151250D01*
X173831250Y-135731250D02*
X173831250Y-133925000D01*
X151031250Y-127000000D02*
X151606250Y-127000000D01*
%TO.N,col5*%
X168275000Y-65881250D02*
X168652500Y-66258750D01*
X168652500Y-71278750D02*
X168652500Y-128428750D01*
X168652500Y-66258750D02*
X168652500Y-71278750D01*
X129540000Y-65040497D02*
X130175000Y-65675497D01*
X129540000Y-60443750D02*
X129540000Y-65040497D01*
%TO.N,col4*%
X187702500Y-71278750D02*
X187702500Y-128428750D01*
X130899511Y-64881758D02*
X130968750Y-64950997D01*
X187325000Y-65087500D02*
X187702500Y-65465000D01*
X130899511Y-60533261D02*
X130899511Y-64881758D01*
X187702500Y-65465000D02*
X187702500Y-71278750D01*
X130810000Y-60443750D02*
X130899511Y-60533261D01*
%TO.N,col3*%
X206752500Y-64671250D02*
X206752500Y-71278750D01*
X132080000Y-63750247D02*
X132556250Y-64226497D01*
X132080000Y-60443750D02*
X132080000Y-63750247D01*
X206752500Y-71278750D02*
X206752500Y-128428750D01*
X206375000Y-64293750D02*
X206752500Y-64671250D01*
%TO.N,col1*%
X244475000Y-63500000D02*
X244852500Y-63877500D01*
X134620000Y-60443750D02*
X134620000Y-63182500D01*
X134620000Y-63182500D02*
X134937500Y-63500000D01*
X244852500Y-71278750D02*
X244852500Y-128428750D01*
X244852500Y-63877500D02*
X244852500Y-71278750D01*
%TO.N,mosi*%
X137939240Y-53007990D02*
X137318750Y-52387500D01*
X131762500Y-55126250D02*
X132080000Y-55443750D01*
X139539730Y-53007990D02*
X137939240Y-53007990D01*
X131762500Y-52387500D02*
X131762500Y-55126250D01*
%TO.N,sck*%
X137462990Y-58087990D02*
X136525000Y-57150000D01*
X115887500Y-57150000D02*
X115887500Y-55761250D01*
X139539730Y-58087990D02*
X137462990Y-58087990D01*
X115887500Y-55761250D02*
X115570000Y-55443750D01*
X128587500Y-55761250D02*
X128270000Y-55443750D01*
X128587500Y-57150000D02*
X128587500Y-55761250D01*
%TO.N,io_cs*%
X139539730Y-60627990D02*
X136034240Y-60627990D01*
X116681250Y-53181250D02*
X116681250Y-55285000D01*
X136034240Y-60627990D02*
X135731250Y-60325000D01*
X129381250Y-53181250D02*
X129381250Y-55285000D01*
X116681250Y-55285000D02*
X116840000Y-55443750D01*
X129381250Y-55285000D02*
X129540000Y-55443750D01*
X135731250Y-60325000D02*
X135731250Y-53181250D01*
%TO.N,Net-(U2-Pad14)*%
X119856250Y-52387500D02*
X119380000Y-52863750D01*
X125412500Y-55126250D02*
X125412500Y-52387500D01*
X125730000Y-55443750D02*
X125412500Y-55126250D01*
X119380000Y-52863750D02*
X119380000Y-55443750D01*
%TO.N,row0*%
X160337500Y-79537500D02*
X158912500Y-79537500D01*
X103187500Y-79537500D02*
X101762500Y-79537500D01*
X139862500Y-79537500D02*
X139700000Y-79375000D01*
X66675000Y-79375000D02*
X65250000Y-79375000D01*
X200025000Y-79375000D02*
X198600000Y-79375000D01*
X234950000Y-75580704D02*
X234950000Y-79375000D01*
X179550000Y-79375000D02*
X179387500Y-79537500D01*
X82712500Y-79537500D02*
X82550000Y-79375000D01*
X235730921Y-74799783D02*
X234950000Y-75580704D01*
X179387500Y-79537500D02*
X177962500Y-79537500D01*
X84300000Y-79375000D02*
X84137500Y-79537500D01*
X123825000Y-79375000D02*
X122400000Y-79375000D01*
X46200000Y-79375000D02*
X46037500Y-79537500D01*
X141287500Y-79537500D02*
X139862500Y-79537500D01*
X177962500Y-79537500D02*
X177800000Y-79375000D01*
X241137500Y-42862500D02*
X240237500Y-42862500D01*
X47625000Y-79375000D02*
X46200000Y-79375000D01*
X160500000Y-79375000D02*
X160337500Y-79537500D01*
X216062500Y-79537500D02*
X215900000Y-79375000D01*
X157812010Y-45387990D02*
X157956250Y-45243750D01*
X158912500Y-79537500D02*
X158750000Y-79375000D01*
X198437500Y-79537500D02*
X197012500Y-79537500D01*
X235112500Y-79537500D02*
X234950000Y-79375000D01*
X166687500Y-45243750D02*
X166687500Y-79375000D01*
X101762500Y-79537500D02*
X101600000Y-79375000D01*
X161925000Y-79375000D02*
X160500000Y-79375000D01*
X236537500Y-79537500D02*
X235112500Y-79537500D01*
X103350000Y-79375000D02*
X103187500Y-79537500D01*
X238918750Y-66298478D02*
X238052989Y-67164239D01*
X254162500Y-79537500D02*
X254000000Y-79375000D01*
X122237500Y-79537500D02*
X120812500Y-79537500D01*
X217650000Y-79375000D02*
X217487500Y-79537500D01*
X238918750Y-44181250D02*
X238918750Y-66298478D01*
X122400000Y-79375000D02*
X122237500Y-79537500D01*
X198600000Y-79375000D02*
X198437500Y-79537500D01*
X104775000Y-79375000D02*
X103350000Y-79375000D01*
X85725000Y-79375000D02*
X84300000Y-79375000D01*
X219075000Y-79375000D02*
X217650000Y-79375000D01*
X238052989Y-67164239D02*
X238052989Y-72303261D01*
X235730921Y-74625329D02*
X235730921Y-74799783D01*
X238125000Y-79375000D02*
X236700000Y-79375000D01*
X120812500Y-79537500D02*
X120650000Y-79375000D01*
X197012500Y-79537500D02*
X196850000Y-79375000D01*
X217487500Y-79537500D02*
X216062500Y-79537500D01*
X238052989Y-72303261D02*
X235730921Y-74625329D01*
X180975000Y-79375000D02*
X179550000Y-79375000D01*
X155704290Y-45387990D02*
X157812010Y-45387990D01*
X255587500Y-79537500D02*
X254162500Y-79537500D01*
X236700000Y-79375000D02*
X236537500Y-79537500D01*
X65250000Y-79375000D02*
X65087500Y-79537500D01*
X63662500Y-79537500D02*
X63500000Y-79375000D01*
X84137500Y-79537500D02*
X82712500Y-79537500D01*
X142875000Y-79375000D02*
X141450000Y-79375000D01*
X240237500Y-42862500D02*
X238918750Y-44181250D01*
X65087500Y-79537500D02*
X63662500Y-79537500D01*
X141450000Y-79375000D02*
X141287500Y-79537500D01*
%TO.N,Net-(RD1-Pad2)*%
X243681250Y-45243750D02*
X243681250Y-43818750D01*
X243681250Y-43818750D02*
X244637500Y-42862500D01*
%TD*%
M02*
