%TF.GenerationSoftware,KiCad,Pcbnew,(6.0.4-0)*%
%TF.CreationDate,2022-09-28T21:01:25-05:00*%
%TF.ProjectId,mongus48,6d6f6e67-7573-4343-982e-6b696361645f,rev?*%
%TF.SameCoordinates,Original*%
%TF.FileFunction,Soldermask,Top*%
%TF.FilePolarity,Negative*%
%FSLAX46Y46*%
G04 Gerber Fmt 4.6, Leading zero omitted, Abs format (unit mm)*
G04 Created by KiCad (PCBNEW (6.0.4-0)) date 2022-09-28 21:01:25*
%MOMM*%
%LPD*%
G01*
G04 APERTURE LIST*
G04 Aperture macros list*
%AMRoundRect*
0 Rectangle with rounded corners*
0 $1 Rounding radius*
0 $2 $3 $4 $5 $6 $7 $8 $9 X,Y pos of 4 corners*
0 Add a 4 corners polygon primitive as box body*
4,1,4,$2,$3,$4,$5,$6,$7,$8,$9,$2,$3,0*
0 Add four circle primitives for the rounded corners*
1,1,$1+$1,$2,$3*
1,1,$1+$1,$4,$5*
1,1,$1+$1,$6,$7*
1,1,$1+$1,$8,$9*
0 Add four rect primitives between the rounded corners*
20,1,$1+$1,$2,$3,$4,$5,0*
20,1,$1+$1,$4,$5,$6,$7,0*
20,1,$1+$1,$6,$7,$8,$9,0*
20,1,$1+$1,$8,$9,$2,$3,0*%
G04 Aperture macros list end*
%ADD10C,1.701800*%
%ADD11C,3.000000*%
%ADD12C,3.987800*%
%ADD13C,2.200000*%
%ADD14C,0.800000*%
%ADD15O,1.600000X2.000000*%
%ADD16R,1.700000X1.700000*%
%ADD17O,1.700000X1.700000*%
%ADD18RoundRect,0.250000X-0.550000X1.500000X-0.550000X-1.500000X0.550000X-1.500000X0.550000X1.500000X0*%
%ADD19R,2.000000X2.000000*%
%ADD20C,2.000000*%
%ADD21R,2.000000X3.200000*%
G04 APERTURE END LIST*
D10*
%TO.C,SW28*%
X94932500Y-111918750D03*
X105092500Y-111918750D03*
D11*
X102552500Y-106838750D03*
D12*
X100012500Y-111918750D03*
D11*
X96202500Y-109378750D03*
%TD*%
%TO.C,SW38*%
X58102500Y-128428750D03*
X64452500Y-125888750D03*
D12*
X61912500Y-130968750D03*
D10*
X56832500Y-130968750D03*
X66992500Y-130968750D03*
%TD*%
%TO.C,SW39*%
X75882500Y-130968750D03*
D11*
X77152500Y-128428750D03*
D10*
X86042500Y-130968750D03*
D11*
X83502500Y-125888750D03*
D12*
X80962500Y-130968750D03*
%TD*%
D13*
%TO.C,H6*%
X242887500Y-83343750D03*
%TD*%
D10*
%TO.C,SW50*%
X171767500Y-130968750D03*
D11*
X164147500Y-136048750D03*
X170497500Y-133508750D03*
D10*
X161607500Y-130968750D03*
D12*
X166687500Y-130968750D03*
%TD*%
D11*
%TO.C,SW11*%
X235902500Y-68738750D03*
X229552500Y-71278750D03*
D10*
X238442500Y-73818750D03*
X228282500Y-73818750D03*
D12*
X233362500Y-73818750D03*
%TD*%
D13*
%TO.C,H4*%
X255587500Y-59531250D03*
%TD*%
D12*
%TO.C,SW27*%
X80962500Y-111918750D03*
D11*
X77152500Y-109378750D03*
D10*
X75882500Y-111918750D03*
X86042500Y-111918750D03*
D11*
X83502500Y-106838750D03*
%TD*%
D12*
%TO.C,SW32*%
X176212500Y-111918750D03*
D11*
X172402500Y-109378750D03*
X178752500Y-106838750D03*
D10*
X181292500Y-111918750D03*
X171132500Y-111918750D03*
%TD*%
D11*
%TO.C,SW26*%
X58102500Y-109378750D03*
D10*
X66992500Y-111918750D03*
X56832500Y-111918750D03*
D11*
X64452500Y-106838750D03*
D12*
X61912500Y-111918750D03*
%TD*%
D10*
%TO.C,SW8*%
X171132500Y-73818750D03*
D11*
X172402500Y-71278750D03*
D10*
X181292500Y-73818750D03*
D11*
X178752500Y-68738750D03*
D12*
X176212500Y-73818750D03*
%TD*%
D10*
%TO.C,SW33*%
X190182500Y-111918750D03*
D12*
X195262500Y-111918750D03*
D11*
X191452500Y-109378750D03*
X197802500Y-106838750D03*
D10*
X200342500Y-111918750D03*
%TD*%
%TO.C,SW35*%
X238442500Y-111918750D03*
D11*
X229552500Y-109378750D03*
D12*
X233362500Y-111918750D03*
D10*
X228282500Y-111918750D03*
D11*
X235902500Y-106838750D03*
%TD*%
D13*
%TO.C,H1*%
X39687500Y-45243750D03*
%TD*%
D12*
%TO.C,SW19*%
X157162500Y-92868750D03*
D10*
X152082500Y-92868750D03*
D11*
X153352500Y-90328750D03*
D10*
X162242500Y-92868750D03*
D11*
X159702500Y-87788750D03*
%TD*%
%TO.C,SW12*%
X254952500Y-68738750D03*
D10*
X247332500Y-73818750D03*
X257492500Y-73818750D03*
D11*
X248602500Y-71278750D03*
D12*
X252412500Y-73818750D03*
%TD*%
D13*
%TO.C,H11*%
X230187500Y-45243750D03*
%TD*%
D10*
%TO.C,SW44*%
X181292500Y-130968750D03*
D12*
X176212500Y-130968750D03*
D11*
X172402500Y-128428750D03*
X178752500Y-125888750D03*
D10*
X171132500Y-130968750D03*
%TD*%
D12*
%TO.C,SW22*%
X214312500Y-92868750D03*
D11*
X210502500Y-90328750D03*
X216852500Y-87788750D03*
D10*
X219392500Y-92868750D03*
X209232500Y-92868750D03*
%TD*%
D12*
%TO.C,SW49*%
X147637500Y-130968750D03*
D11*
X145097500Y-136048750D03*
D10*
X152717500Y-130968750D03*
D11*
X151447500Y-133508750D03*
D10*
X142557500Y-130968750D03*
%TD*%
D11*
%TO.C,SW6*%
X134302500Y-71278750D03*
D10*
X133032500Y-73818750D03*
D11*
X140652500Y-68738750D03*
D10*
X143192500Y-73818750D03*
D12*
X138112500Y-73818750D03*
%TD*%
D10*
%TO.C,SW17*%
X124142500Y-92868750D03*
D11*
X115252500Y-90328750D03*
X121602500Y-87788750D03*
D10*
X113982500Y-92868750D03*
D12*
X119062500Y-92868750D03*
%TD*%
D11*
%TO.C,SW42*%
X134302500Y-128428750D03*
D10*
X133032500Y-130968750D03*
X143192500Y-130968750D03*
D12*
X138112500Y-130968750D03*
D11*
X140652500Y-125888750D03*
%TD*%
D10*
%TO.C,SW7*%
X152082500Y-73818750D03*
D11*
X153352500Y-71278750D03*
X159702500Y-68738750D03*
D10*
X162242500Y-73818750D03*
D12*
X157162500Y-73818750D03*
%TD*%
%TO.C,SW45*%
X195262500Y-130968750D03*
D10*
X190182500Y-130968750D03*
D11*
X197802500Y-125888750D03*
X191452500Y-128428750D03*
D10*
X200342500Y-130968750D03*
%TD*%
%TO.C,SW15*%
X75882500Y-92868750D03*
X86042500Y-92868750D03*
D11*
X83502500Y-87788750D03*
X77152500Y-90328750D03*
D12*
X80962500Y-92868750D03*
%TD*%
%TO.C,SW47*%
X233362500Y-130968750D03*
D11*
X229552500Y-128428750D03*
D10*
X238442500Y-130968750D03*
X228282500Y-130968750D03*
D11*
X235902500Y-125888750D03*
%TD*%
D10*
%TO.C,SW4*%
X105092500Y-73818750D03*
X94932500Y-73818750D03*
D11*
X102552500Y-68738750D03*
X96202500Y-71278750D03*
D12*
X100012500Y-73818750D03*
%TD*%
%TO.C,SW37*%
X42862500Y-130968750D03*
D10*
X47942500Y-130968750D03*
D11*
X45402500Y-125888750D03*
D10*
X37782500Y-130968750D03*
D11*
X39052500Y-128428750D03*
%TD*%
%TO.C,SW29*%
X115252500Y-109378750D03*
D12*
X119062500Y-111918750D03*
D11*
X121602500Y-106838750D03*
D10*
X113982500Y-111918750D03*
X124142500Y-111918750D03*
%TD*%
D12*
%TO.C,SW23*%
X233362500Y-92868750D03*
D11*
X235902500Y-87788750D03*
X229552500Y-90328750D03*
D10*
X228282500Y-92868750D03*
X238442500Y-92868750D03*
%TD*%
D13*
%TO.C,H7*%
X90487500Y-102393750D03*
%TD*%
D11*
%TO.C,SW1*%
X39052500Y-71278750D03*
X45402500Y-68738750D03*
D10*
X47942500Y-73818750D03*
X37782500Y-73818750D03*
D12*
X42862500Y-73818750D03*
%TD*%
D10*
%TO.C,SW51*%
X123507500Y-130968750D03*
D11*
X126047500Y-136048750D03*
D10*
X133667500Y-130968750D03*
D11*
X132397500Y-133508750D03*
D12*
X128587500Y-130968750D03*
%TD*%
D13*
%TO.C,H10*%
X242887500Y-121443750D03*
%TD*%
D11*
%TO.C,SW20*%
X172402500Y-90328750D03*
D10*
X171132500Y-92868750D03*
D11*
X178752500Y-87788750D03*
D12*
X176212500Y-92868750D03*
D10*
X181292500Y-92868750D03*
%TD*%
D12*
%TO.C,SW25*%
X42862500Y-111918750D03*
D10*
X37782500Y-111918750D03*
D11*
X39052500Y-109378750D03*
D10*
X47942500Y-111918750D03*
D11*
X45402500Y-106838750D03*
%TD*%
D14*
%TO.C,U5*%
X205581250Y-51462500D03*
X205581250Y-44462500D03*
D15*
X203281250Y-54162500D03*
X207881250Y-53062500D03*
X207881250Y-49062500D03*
X207881250Y-46062500D03*
%TD*%
D16*
%TO.C,J2*%
X34925000Y-48587500D03*
D17*
X34925000Y-51127500D03*
X34925000Y-53667500D03*
X34925000Y-56207500D03*
%TD*%
D18*
%TO.C,C1*%
X176212500Y-52862500D03*
X176212500Y-58262500D03*
%TD*%
D19*
%TO.C,RSW1*%
X240506250Y-59637500D03*
D20*
X245506250Y-59637500D03*
X243006250Y-59637500D03*
D21*
X248606250Y-52137500D03*
X237406250Y-52137500D03*
D20*
X245506250Y-45137500D03*
X240506250Y-45137500D03*
%TD*%
D11*
%TO.C,SW9*%
X197802500Y-68738750D03*
D12*
X195262500Y-73818750D03*
D11*
X191452500Y-71278750D03*
D10*
X200342500Y-73818750D03*
X190182500Y-73818750D03*
%TD*%
%TO.C,SW34*%
X219392500Y-111918750D03*
D11*
X210502500Y-109378750D03*
D10*
X209232500Y-111918750D03*
D12*
X214312500Y-111918750D03*
D11*
X216852500Y-106838750D03*
%TD*%
D10*
%TO.C,SW46*%
X219392500Y-130968750D03*
D11*
X210502500Y-128428750D03*
D12*
X214312500Y-130968750D03*
D10*
X209232500Y-130968750D03*
D11*
X216852500Y-125888750D03*
%TD*%
D10*
%TO.C,SW40*%
X94932500Y-130968750D03*
D11*
X102552500Y-125888750D03*
X96202500Y-128428750D03*
D10*
X105092500Y-130968750D03*
D12*
X100012500Y-130968750D03*
%TD*%
D10*
%TO.C,SW14*%
X56832500Y-92868750D03*
D11*
X58102500Y-90328750D03*
D10*
X66992500Y-92868750D03*
D12*
X61912500Y-92868750D03*
D11*
X64452500Y-87788750D03*
%TD*%
D13*
%TO.C,H12*%
X230187500Y-59531250D03*
%TD*%
D16*
%TO.C,J1*%
X260350000Y-48587500D03*
D17*
X260350000Y-51127500D03*
X260350000Y-53667500D03*
X260350000Y-56207500D03*
%TD*%
D13*
%TO.C,H5*%
X52387500Y-83343750D03*
%TD*%
D11*
%TO.C,SW36*%
X248602500Y-109378750D03*
D10*
X257492500Y-111918750D03*
D11*
X254952500Y-106838750D03*
D12*
X252412500Y-111918750D03*
D10*
X247332500Y-111918750D03*
%TD*%
%TO.C,SW3*%
X86042500Y-73818750D03*
D12*
X80962500Y-73818750D03*
D11*
X77152500Y-71278750D03*
X83502500Y-68738750D03*
D10*
X75882500Y-73818750D03*
%TD*%
D11*
%TO.C,SW43*%
X153352500Y-128428750D03*
X159702500Y-125888750D03*
D10*
X152082500Y-130968750D03*
D12*
X157162500Y-130968750D03*
D10*
X162242500Y-130968750D03*
%TD*%
%TO.C,SW30*%
X133032500Y-111918750D03*
D11*
X134302500Y-109378750D03*
D12*
X138112500Y-111918750D03*
D11*
X140652500Y-106838750D03*
D10*
X143192500Y-111918750D03*
%TD*%
D12*
%TO.C,SW10*%
X214312500Y-73818750D03*
D10*
X209232500Y-73818750D03*
D11*
X216852500Y-68738750D03*
X210502500Y-71278750D03*
D10*
X219392500Y-73818750D03*
%TD*%
%TO.C,SW21*%
X190182500Y-92868750D03*
D11*
X197802500Y-87788750D03*
D12*
X195262500Y-92868750D03*
D10*
X200342500Y-92868750D03*
D11*
X191452500Y-90328750D03*
%TD*%
D12*
%TO.C,SW2*%
X61912500Y-73818750D03*
D11*
X64452500Y-68738750D03*
D10*
X66992500Y-73818750D03*
X56832500Y-73818750D03*
D11*
X58102500Y-71278750D03*
%TD*%
%TO.C,SW48*%
X254952500Y-125888750D03*
X248602500Y-128428750D03*
D10*
X257492500Y-130968750D03*
D12*
X252412500Y-130968750D03*
D10*
X247332500Y-130968750D03*
%TD*%
D13*
%TO.C,H3*%
X39687500Y-59531250D03*
%TD*%
D10*
%TO.C,SW24*%
X257492500Y-92868750D03*
D11*
X248602500Y-90328750D03*
D12*
X252412500Y-92868750D03*
D10*
X247332500Y-92868750D03*
D11*
X254952500Y-87788750D03*
%TD*%
D14*
%TO.C,U4*%
X89693750Y-51462500D03*
X89693750Y-44462500D03*
D15*
X87393750Y-54162500D03*
X91993750Y-53062500D03*
X91993750Y-49062500D03*
X91993750Y-46062500D03*
%TD*%
D13*
%TO.C,H8*%
X204787500Y-102393750D03*
%TD*%
D11*
%TO.C,SW41*%
X121602500Y-125888750D03*
D10*
X113982500Y-130968750D03*
D11*
X115252500Y-128428750D03*
D12*
X119062500Y-130968750D03*
D10*
X124142500Y-130968750D03*
%TD*%
D11*
%TO.C,SW31*%
X153352500Y-109378750D03*
X159702500Y-106838750D03*
D10*
X152082500Y-111918750D03*
D12*
X157162500Y-111918750D03*
D10*
X162242500Y-111918750D03*
%TD*%
D13*
%TO.C,H2*%
X255587500Y-45243750D03*
%TD*%
D12*
%TO.C,SW18*%
X138112500Y-92868750D03*
D10*
X133032500Y-92868750D03*
D11*
X140652500Y-87788750D03*
D10*
X143192500Y-92868750D03*
D11*
X134302500Y-90328750D03*
%TD*%
D12*
%TO.C,SW16*%
X100012500Y-92868750D03*
D11*
X96202500Y-90328750D03*
D10*
X94932500Y-92868750D03*
D11*
X102552500Y-87788750D03*
D10*
X105092500Y-92868750D03*
%TD*%
D12*
%TO.C,SW13*%
X42862500Y-92868750D03*
D10*
X37782500Y-92868750D03*
X47942500Y-92868750D03*
D11*
X45402500Y-87788750D03*
X39052500Y-90328750D03*
%TD*%
D13*
%TO.C,H9*%
X52387500Y-121443750D03*
%TD*%
D11*
%TO.C,SW5*%
X115252500Y-71278750D03*
X121602500Y-68738750D03*
D10*
X124142500Y-73818750D03*
D12*
X119062500Y-73818750D03*
D10*
X113982500Y-73818750D03*
%TD*%
M02*
