<svg width="133.35mm" height="95.25mm" viewBox="0 0 133.35 95.25" xmlns="http://www.w3.org/2000/svg"><g id="svgGroup" stroke-linecap="round" fill-rule="evenodd" font-size="9pt" stroke="#000" stroke-width="0.25mm" fill="none" style="stroke:#000;stroke-width:0.25mm;fill:none"><path d="M 0 95.25 L 133.35 95.25 L 133.35 0 L 0 0 L 0 95.25 Z M 22.075 2.525 L 35.075 2.525 A 0.5 0.5 0 0 1 35.575 3.025 L 35.575 16.025 A 0.5 0.5 0 0 1 35.075 16.525 L 22.075 16.525 A 0.5 0.5 0 0 1 21.575 16.025 L 21.575 3.025 A 0.5 0.5 0 0 1 22.075 2.525 Z M 41.125 2.525 L 54.125 2.525 A 0.5 0.5 0 0 1 54.625 3.025 L 54.625 16.025 A 0.5 0.5 0 0 1 54.125 16.525 L 41.125 16.525 A 0.5 0.5 0 0 1 40.625 16.025 L 40.625 3.025 A 0.5 0.5 0 0 1 41.125 2.525 Z M 60.175 2.525 L 73.175 2.525 A 0.5 0.5 0 0 1 73.675 3.025 L 73.675 16.025 A 0.5 0.5 0 0 1 73.175 16.525 L 60.175 16.525 A 0.5 0.5 0 0 1 59.675 16.025 L 59.675 3.025 A 0.5 0.5 0 0 1 60.175 2.525 Z M 79.225 2.525 L 92.225 2.525 A 0.5 0.5 0 0 1 92.725 3.025 L 92.725 16.025 A 0.5 0.5 0 0 1 92.225 16.525 L 79.225 16.525 A 0.5 0.5 0 0 1 78.725 16.025 L 78.725 3.025 A 0.5 0.5 0 0 1 79.225 2.525 Z M 98.275 2.525 L 111.275 2.525 A 0.5 0.5 0 0 1 111.775 3.025 L 111.775 16.025 A 0.5 0.5 0 0 1 111.275 16.525 L 98.275 16.525 A 0.5 0.5 0 0 1 97.775 16.025 L 97.775 3.025 A 0.5 0.5 0 0 1 98.275 2.525 Z M 22.075 12.05 L 35.075 12.05 A 0.5 0.5 0 0 1 35.575 12.55 L 35.575 25.55 A 0.5 0.5 0 0 1 35.075 26.05 L 22.075 26.05 A 0.5 0.5 0 0 1 21.575 25.55 L 21.575 12.55 A 0.5 0.5 0 0 1 22.075 12.05 Z M 22.075 21.575 L 35.075 21.575 A 0.5 0.5 0 0 1 35.575 22.075 L 35.575 35.075 A 0.5 0.5 0 0 1 35.075 35.575 L 22.075 35.575 A 0.5 0.5 0 0 1 21.575 35.075 L 21.575 22.075 A 0.5 0.5 0 0 1 22.075 21.575 Z M 22.075 40.625 L 35.075 40.625 A 0.5 0.5 0 0 1 35.575 41.125 L 35.575 54.125 A 0.5 0.5 0 0 1 35.075 54.625 L 22.075 54.625 A 0.5 0.5 0 0 1 21.575 54.125 L 21.575 41.125 A 0.5 0.5 0 0 1 22.075 40.625 Z M 22.075 59.675 L 35.075 59.675 A 0.5 0.5 0 0 1 35.575 60.175 L 35.575 73.175 A 0.5 0.5 0 0 1 35.075 73.675 L 22.075 73.675 A 0.5 0.5 0 0 1 21.575 73.175 L 21.575 60.175 A 0.5 0.5 0 0 1 22.075 59.675 Z M 22.075 78.725 L 35.075 78.725 A 0.5 0.5 0 0 1 35.575 79.225 L 35.575 92.225 A 0.5 0.5 0 0 1 35.075 92.725 L 22.075 92.725 A 0.5 0.5 0 0 1 21.575 92.225 L 21.575 79.225 A 0.5 0.5 0 0 1 22.075 78.725 Z M 41.125 12.05 L 54.125 12.05 A 0.5 0.5 0 0 1 54.625 12.55 L 54.625 25.55 A 0.5 0.5 0 0 1 54.125 26.05 L 41.125 26.05 A 0.5 0.5 0 0 1 40.625 25.55 L 40.625 12.55 A 0.5 0.5 0 0 1 41.125 12.05 Z M 60.175 12.05 L 73.175 12.05 A 0.5 0.5 0 0 1 73.675 12.55 L 73.675 25.55 A 0.5 0.5 0 0 1 73.175 26.05 L 60.175 26.05 A 0.5 0.5 0 0 1 59.675 25.55 L 59.675 12.55 A 0.5 0.5 0 0 1 60.175 12.05 Z M 79.225 12.05 L 92.225 12.05 A 0.5 0.5 0 0 1 92.725 12.55 L 92.725 25.55 A 0.5 0.5 0 0 1 92.225 26.05 L 79.225 26.05 A 0.5 0.5 0 0 1 78.725 25.55 L 78.725 12.55 A 0.5 0.5 0 0 1 79.225 12.05 Z M 98.275 12.05 L 111.275 12.05 A 0.5 0.5 0 0 1 111.775 12.55 L 111.775 25.55 A 0.5 0.5 0 0 1 111.275 26.05 L 98.275 26.05 A 0.5 0.5 0 0 1 97.775 25.55 L 97.775 12.55 A 0.5 0.5 0 0 1 98.275 12.05 Z M 12.55 21.575 L 25.55 21.575 A 0.5 0.5 0 0 1 26.05 22.075 L 26.05 35.075 A 0.5 0.5 0 0 1 25.55 35.575 L 12.55 35.575 A 0.5 0.5 0 0 1 12.05 35.075 L 12.05 22.075 A 0.5 0.5 0 0 1 12.55 21.575 Z M 41.125 21.575 L 54.125 21.575 A 0.5 0.5 0 0 1 54.625 22.075 L 54.625 35.075 A 0.5 0.5 0 0 1 54.125 35.575 L 41.125 35.575 A 0.5 0.5 0 0 1 40.625 35.075 L 40.625 22.075 A 0.5 0.5 0 0 1 41.125 21.575 Z M 60.175 21.575 L 73.175 21.575 A 0.5 0.5 0 0 1 73.675 22.075 L 73.675 35.075 A 0.5 0.5 0 0 1 73.175 35.575 L 60.175 35.575 A 0.5 0.5 0 0 1 59.675 35.075 L 59.675 22.075 A 0.5 0.5 0 0 1 60.175 21.575 Z M 79.225 21.575 L 92.225 21.575 A 0.5 0.5 0 0 1 92.725 22.075 L 92.725 35.075 A 0.5 0.5 0 0 1 92.225 35.575 L 79.225 35.575 A 0.5 0.5 0 0 1 78.725 35.075 L 78.725 22.075 A 0.5 0.5 0 0 1 79.225 21.575 Z M 98.275 21.575 L 111.275 21.575 A 0.5 0.5 0 0 1 111.775 22.075 L 111.775 35.075 A 0.5 0.5 0 0 1 111.275 35.575 L 98.275 35.575 A 0.5 0.5 0 0 1 97.775 35.075 L 97.775 22.075 A 0.5 0.5 0 0 1 98.275 21.575 Z M 107.8 21.575 L 120.8 21.575 A 0.5 0.5 0 0 1 121.3 22.075 L 121.3 35.075 A 0.5 0.5 0 0 1 120.8 35.575 L 107.8 35.575 A 0.5 0.5 0 0 1 107.3 35.075 L 107.3 22.075 A 0.5 0.5 0 0 1 107.8 21.575 Z M 12.55 40.625 L 25.55 40.625 A 0.5 0.5 0 0 1 26.05 41.125 L 26.05 54.125 A 0.5 0.5 0 0 1 25.55 54.625 L 12.55 54.625 A 0.5 0.5 0 0 1 12.05 54.125 L 12.05 41.125 A 0.5 0.5 0 0 1 12.55 40.625 Z M 41.125 40.625 L 54.125 40.625 A 0.5 0.5 0 0 1 54.625 41.125 L 54.625 54.125 A 0.5 0.5 0 0 1 54.125 54.625 L 41.125 54.625 A 0.5 0.5 0 0 1 40.625 54.125 L 40.625 41.125 A 0.5 0.5 0 0 1 41.125 40.625 Z M 60.175 40.625 L 73.175 40.625 A 0.5 0.5 0 0 1 73.675 41.125 L 73.675 54.125 A 0.5 0.5 0 0 1 73.175 54.625 L 60.175 54.625 A 0.5 0.5 0 0 1 59.675 54.125 L 59.675 41.125 A 0.5 0.5 0 0 1 60.175 40.625 Z M 79.225 40.625 L 92.225 40.625 A 0.5 0.5 0 0 1 92.725 41.125 L 92.725 54.125 A 0.5 0.5 0 0 1 92.225 54.625 L 79.225 54.625 A 0.5 0.5 0 0 1 78.725 54.125 L 78.725 41.125 A 0.5 0.5 0 0 1 79.225 40.625 Z M 98.275 40.625 L 111.275 40.625 A 0.5 0.5 0 0 1 111.775 41.125 L 111.775 54.125 A 0.5 0.5 0 0 1 111.275 54.625 L 98.275 54.625 A 0.5 0.5 0 0 1 97.775 54.125 L 97.775 41.125 A 0.5 0.5 0 0 1 98.275 40.625 Z M 107.8 40.625 L 120.8 40.625 A 0.5 0.5 0 0 1 121.3 41.125 L 121.3 54.125 A 0.5 0.5 0 0 1 120.8 54.625 L 107.8 54.625 A 0.5 0.5 0 0 1 107.3 54.125 L 107.3 41.125 A 0.5 0.5 0 0 1 107.8 40.625 Z M 12.55 59.675 L 25.55 59.675 A 0.5 0.5 0 0 1 26.05 60.175 L 26.05 73.175 A 0.5 0.5 0 0 1 25.55 73.675 L 12.55 73.675 A 0.5 0.5 0 0 1 12.05 73.175 L 12.05 60.175 A 0.5 0.5 0 0 1 12.55 59.675 Z M 41.125 59.675 L 54.125 59.675 A 0.5 0.5 0 0 1 54.625 60.175 L 54.625 73.175 A 0.5 0.5 0 0 1 54.125 73.675 L 41.125 73.675 A 0.5 0.5 0 0 1 40.625 73.175 L 40.625 60.175 A 0.5 0.5 0 0 1 41.125 59.675 Z M 60.175 59.675 L 73.175 59.675 A 0.5 0.5 0 0 1 73.675 60.175 L 73.675 73.175 A 0.5 0.5 0 0 1 73.175 73.675 L 60.175 73.675 A 0.5 0.5 0 0 1 59.675 73.175 L 59.675 60.175 A 0.5 0.5 0 0 1 60.175 59.675 Z M 79.225 59.675 L 92.225 59.675 A 0.5 0.5 0 0 1 92.725 60.175 L 92.725 73.175 A 0.5 0.5 0 0 1 92.225 73.675 L 79.225 73.675 A 0.5 0.5 0 0 1 78.725 73.175 L 78.725 60.175 A 0.5 0.5 0 0 1 79.225 59.675 Z M 98.275 59.675 L 111.275 59.675 A 0.5 0.5 0 0 1 111.775 60.175 L 111.775 73.175 A 0.5 0.5 0 0 1 111.275 73.675 L 98.275 73.675 A 0.5 0.5 0 0 1 97.775 73.175 L 97.775 60.175 A 0.5 0.5 0 0 1 98.275 59.675 Z M 107.8 59.675 L 120.8 59.675 A 0.5 0.5 0 0 1 121.3 60.175 L 121.3 73.175 A 0.5 0.5 0 0 1 120.8 73.675 L 107.8 73.675 A 0.5 0.5 0 0 1 107.3 73.175 L 107.3 60.175 A 0.5 0.5 0 0 1 107.8 59.675 Z M 12.55 78.725 L 25.55 78.725 A 0.5 0.5 0 0 1 26.05 79.225 L 26.05 92.225 A 0.5 0.5 0 0 1 25.55 92.725 L 12.55 92.725 A 0.5 0.5 0 0 1 12.05 92.225 L 12.05 79.225 A 0.5 0.5 0 0 1 12.55 78.725 Z M 41.125 78.725 L 54.125 78.725 A 0.5 0.5 0 0 1 54.625 79.225 L 54.625 92.225 A 0.5 0.5 0 0 1 54.125 92.725 L 41.125 92.725 A 0.5 0.5 0 0 1 40.625 92.225 L 40.625 79.225 A 0.5 0.5 0 0 1 41.125 78.725 Z M 60.175 78.725 L 73.175 78.725 A 0.5 0.5 0 0 1 73.675 79.225 L 73.675 92.225 A 0.5 0.5 0 0 1 73.175 92.725 L 60.175 92.725 A 0.5 0.5 0 0 1 59.675 92.225 L 59.675 79.225 A 0.5 0.5 0 0 1 60.175 78.725 Z M 79.225 78.725 L 92.225 78.725 A 0.5 0.5 0 0 1 92.725 79.225 L 92.725 92.225 A 0.5 0.5 0 0 1 92.225 92.725 L 79.225 92.725 A 0.5 0.5 0 0 1 78.725 92.225 L 78.725 79.225 A 0.5 0.5 0 0 1 79.225 78.725 Z M 98.275 78.725 L 111.275 78.725 A 0.5 0.5 0 0 1 111.775 79.225 L 111.775 92.225 A 0.5 0.5 0 0 1 111.275 92.725 L 98.275 92.725 A 0.5 0.5 0 0 1 97.775 92.225 L 97.775 79.225 A 0.5 0.5 0 0 1 98.275 78.725 Z M 107.8 78.725 L 120.8 78.725 A 0.5 0.5 0 0 1 121.3 79.225 L 121.3 92.225 A 0.5 0.5 0 0 1 120.8 92.725 L 107.8 92.725 A 0.5 0.5 0 0 1 107.3 92.225 L 107.3 79.225 A 0.5 0.5 0 0 1 107.8 78.725 Z M 3.025 2.525 L 16.025 2.525 A 0.5 0.5 0 0 1 16.525 3.025 L 16.525 16.025 A 0.5 0.5 0 0 1 16.025 16.525 L 3.025 16.525 A 0.5 0.5 0 0 1 2.525 16.025 L 2.525 3.025 A 0.5 0.5 0 0 1 3.025 2.525 Z M 3.025 21.575 L 16.025 21.575 A 0.5 0.5 0 0 1 16.525 22.075 L 16.525 35.075 A 0.5 0.5 0 0 1 16.025 35.575 L 3.025 35.575 A 0.5 0.5 0 0 1 2.525 35.075 L 2.525 22.075 A 0.5 0.5 0 0 1 3.025 21.575 Z M 3.025 40.625 L 16.025 40.625 A 0.5 0.5 0 0 1 16.525 41.125 L 16.525 54.125 A 0.5 0.5 0 0 1 16.025 54.625 L 3.025 54.625 A 0.5 0.5 0 0 1 2.525 54.125 L 2.525 41.125 A 0.5 0.5 0 0 1 3.025 40.625 Z M 3.025 59.675 L 16.025 59.675 A 0.5 0.5 0 0 1 16.525 60.175 L 16.525 73.175 A 0.5 0.5 0 0 1 16.025 73.675 L 3.025 73.675 A 0.5 0.5 0 0 1 2.525 73.175 L 2.525 60.175 A 0.5 0.5 0 0 1 3.025 59.675 Z M 3.025 78.725 L 16.025 78.725 A 0.5 0.5 0 0 1 16.525 79.225 L 16.525 92.225 A 0.5 0.5 0 0 1 16.025 92.725 L 3.025 92.725 A 0.5 0.5 0 0 1 2.525 92.225 L 2.525 79.225 A 0.5 0.5 0 0 1 3.025 78.725 Z M 117.325 2.525 L 130.325 2.525 A 0.5 0.5 0 0 1 130.825 3.025 L 130.825 16.025 A 0.5 0.5 0 0 1 130.325 16.525 L 117.325 16.525 A 0.5 0.5 0 0 1 116.825 16.025 L 116.825 3.025 A 0.5 0.5 0 0 1 117.325 2.525 Z M 117.325 21.575 L 130.325 21.575 A 0.5 0.5 0 0 1 130.825 22.075 L 130.825 35.075 A 0.5 0.5 0 0 1 130.325 35.575 L 117.325 35.575 A 0.5 0.5 0 0 1 116.825 35.075 L 116.825 22.075 A 0.5 0.5 0 0 1 117.325 21.575 Z M 117.325 40.625 L 130.325 40.625 A 0.5 0.5 0 0 1 130.825 41.125 L 130.825 54.125 A 0.5 0.5 0 0 1 130.325 54.625 L 117.325 54.625 A 0.5 0.5 0 0 1 116.825 54.125 L 116.825 41.125 A 0.5 0.5 0 0 1 117.325 40.625 Z M 117.325 59.675 L 130.325 59.675 A 0.5 0.5 0 0 1 130.825 60.175 L 130.825 73.175 A 0.5 0.5 0 0 1 130.325 73.675 L 117.325 73.675 A 0.5 0.5 0 0 1 116.825 73.175 L 116.825 60.175 A 0.5 0.5 0 0 1 117.325 59.675 Z M 117.325 78.725 L 130.325 78.725 A 0.5 0.5 0 0 1 130.825 79.225 L 130.825 92.225 A 0.5 0.5 0 0 1 130.325 92.725 L 117.325 92.725 A 0.5 0.5 0 0 1 116.825 92.225 L 116.825 79.225 A 0.5 0.5 0 0 1 117.325 78.725 Z" vector-effect="non-scaling-stroke"/></g></svg>