0
SECTION
2
HEADER
9
$INSUNITS
70
4
0
ENDSEC
0
SECTION
2
TABLES
0
TABLE
2
LTYPE
0
LTYPE
72
65
70
64
2
CONTINUOUS
3
______
73
0
40
0
0
ENDTAB
0
TABLE
2
LAYER
0
ENDTAB
0
ENDSEC
0
SECTION
2
ENTITIES
0
LINE
8
0
10
3.025
20
-7.2875
11
16.025
21
-7.2875
0
LINE
8
0
10
3.025
20
-21.2875
11
16.025
21
-21.2875
0
LINE
8
0
10
2.525
20
-7.7875
11
2.525
21
-20.7875
0
LINE
8
0
10
16.525
20
-7.7875
11
16.525
21
-20.7875
0
ARC
8
0
10
3.025
20
-7.7875
40
0.5
50
90
51
180
0
ARC
8
0
10
16.025
20
-7.7875
40
0.5
50
0
51
90
0
ARC
8
0
10
3.025
20
-20.7875
40
0.5
50
180
51
270
0
ARC
8
0
10
16.025
20
-20.7875
40
0.5
50
270
51
0
0
LINE
8
0
10
22.075
20
-7.2875
11
35.075
21
-7.2875
0
LINE
8
0
10
22.075
20
-21.2875
11
35.075
21
-21.2875
0
LINE
8
0
10
21.575
20
-7.7875
11
21.575
21
-20.7875
0
LINE
8
0
10
35.575
20
-7.7875
11
35.575
21
-20.7875
0
ARC
8
0
10
22.075
20
-7.7875
40
0.5
50
90
51
180
0
ARC
8
0
10
35.075
20
-7.7875
40
0.5
50
0
51
90
0
ARC
8
0
10
22.075
20
-20.7875
40
0.5
50
180
51
270
0
ARC
8
0
10
35.075
20
-20.7875
40
0.5
50
270
51
0
0
LINE
8
0
10
41.125
20
-7.2875
11
54.125
21
-7.2875
0
LINE
8
0
10
41.125
20
-21.2875
11
54.125
21
-21.2875
0
LINE
8
0
10
40.625
20
-7.7875
11
40.625
21
-20.7875
0
LINE
8
0
10
54.625
20
-7.7875
11
54.625
21
-20.7875
0
ARC
8
0
10
41.125
20
-7.7875
40
0.5
50
90
51
180
0
ARC
8
0
10
54.125
20
-7.7875
40
0.5
50
0
51
90
0
ARC
8
0
10
41.125
20
-20.7875
40
0.5
50
180
51
270
0
ARC
8
0
10
54.125
20
-20.7875
40
0.5
50
270
51
0
0
LINE
8
0
10
60.175
20
-7.2875
11
73.175
21
-7.2875
0
LINE
8
0
10
60.175
20
-21.2875
11
73.175
21
-21.2875
0
LINE
8
0
10
59.675
20
-7.7875
11
59.675
21
-20.7875
0
LINE
8
0
10
73.675
20
-7.7875
11
73.675
21
-20.7875
0
ARC
8
0
10
60.175
20
-7.7875
40
0.5
50
90
51
180
0
ARC
8
0
10
73.175
20
-7.7875
40
0.5
50
0
51
90
0
ARC
8
0
10
60.175
20
-20.7875
40
0.5
50
180
51
270
0
ARC
8
0
10
73.175
20
-20.7875
40
0.5
50
270
51
0
0
LINE
8
0
10
79.225
20
-7.2875
11
92.225
21
-7.2875
0
LINE
8
0
10
79.225
20
-21.2875
11
92.225
21
-21.2875
0
LINE
8
0
10
78.725
20
-7.7875
11
78.725
21
-20.7875
0
LINE
8
0
10
92.725
20
-7.7875
11
92.725
21
-20.7875
0
ARC
8
0
10
79.225
20
-7.7875
40
0.5
50
90
51
180
0
ARC
8
0
10
92.225
20
-7.7875
40
0.5
50
0
51
90
0
ARC
8
0
10
79.225
20
-20.7875
40
0.5
50
180
51
270
0
ARC
8
0
10
92.225
20
-20.7875
40
0.5
50
270
51
0
0
LINE
8
0
10
98.275
20
-7.2875
11
111.275
21
-7.2875
0
LINE
8
0
10
98.275
20
-21.2875
11
111.275
21
-21.2875
0
LINE
8
0
10
97.775
20
-7.7875
11
97.775
21
-20.7875
0
LINE
8
0
10
111.775
20
-7.7875
11
111.775
21
-20.7875
0
ARC
8
0
10
98.275
20
-7.7875
40
0.5
50
90
51
180
0
ARC
8
0
10
111.275
20
-7.7875
40
0.5
50
0
51
90
0
ARC
8
0
10
98.275
20
-20.7875
40
0.5
50
180
51
270
0
ARC
8
0
10
111.275
20
-20.7875
40
0.5
50
270
51
0
0
LINE
8
0
10
117.325
20
-7.2875
11
130.325
21
-7.2875
0
LINE
8
0
10
117.325
20
-21.2875
11
130.325
21
-21.2875
0
LINE
8
0
10
116.825
20
-7.7875
11
116.825
21
-20.7875
0
LINE
8
0
10
130.825
20
-7.7875
11
130.825
21
-20.7875
0
ARC
8
0
10
117.325
20
-7.7875
40
0.5
50
90
51
180
0
ARC
8
0
10
130.325
20
-7.7875
40
0.5
50
0
51
90
0
ARC
8
0
10
117.325
20
-20.7875
40
0.5
50
180
51
270
0
ARC
8
0
10
130.325
20
-20.7875
40
0.5
50
270
51
0
0
LINE
8
0
10
22.075
20
-16.8125
11
35.075
21
-16.8125
0
LINE
8
0
10
22.075
20
-30.8125
11
35.075
21
-30.8125
0
LINE
8
0
10
21.575
20
-17.3125
11
21.575
21
-30.3125
0
LINE
8
0
10
35.575
20
-17.3125
11
35.575
21
-30.3125
0
ARC
8
0
10
22.075
20
-17.3125
40
0.5
50
90
51
180
0
ARC
8
0
10
35.075
20
-17.3125
40
0.5
50
0
51
90
0
ARC
8
0
10
22.075
20
-30.3125
40
0.5
50
180
51
270
0
ARC
8
0
10
35.075
20
-30.3125
40
0.5
50
270
51
0
0
LINE
8
0
10
41.125
20
-16.8125
11
54.125
21
-16.8125
0
LINE
8
0
10
41.125
20
-30.8125
11
54.125
21
-30.8125
0
LINE
8
0
10
40.625
20
-17.3125
11
40.625
21
-30.3125
0
LINE
8
0
10
54.625
20
-17.3125
11
54.625
21
-30.3125
0
ARC
8
0
10
41.125
20
-17.3125
40
0.5
50
90
51
180
0
ARC
8
0
10
54.125
20
-17.3125
40
0.5
50
0
51
90
0
ARC
8
0
10
41.125
20
-30.3125
40
0.5
50
180
51
270
0
ARC
8
0
10
54.125
20
-30.3125
40
0.5
50
270
51
0
0
LINE
8
0
10
60.175
20
-16.8125
11
73.175
21
-16.8125
0
LINE
8
0
10
60.175
20
-30.8125
11
73.175
21
-30.8125
0
LINE
8
0
10
59.675
20
-17.3125
11
59.675
21
-30.3125
0
LINE
8
0
10
73.675
20
-17.3125
11
73.675
21
-30.3125
0
ARC
8
0
10
60.175
20
-17.3125
40
0.5
50
90
51
180
0
ARC
8
0
10
73.175
20
-17.3125
40
0.5
50
0
51
90
0
ARC
8
0
10
60.175
20
-30.3125
40
0.5
50
180
51
270
0
ARC
8
0
10
73.175
20
-30.3125
40
0.5
50
270
51
0
0
LINE
8
0
10
79.225
20
-16.8125
11
92.225
21
-16.8125
0
LINE
8
0
10
79.225
20
-30.8125
11
92.225
21
-30.8125
0
LINE
8
0
10
78.725
20
-17.3125
11
78.725
21
-30.3125
0
LINE
8
0
10
92.725
20
-17.3125
11
92.725
21
-30.3125
0
ARC
8
0
10
79.225
20
-17.3125
40
0.5
50
90
51
180
0
ARC
8
0
10
92.225
20
-17.3125
40
0.5
50
0
51
90
0
ARC
8
0
10
79.225
20
-30.3125
40
0.5
50
180
51
270
0
ARC
8
0
10
92.225
20
-30.3125
40
0.5
50
270
51
0
0
LINE
8
0
10
98.275
20
-16.8125
11
111.275
21
-16.8125
0
LINE
8
0
10
98.275
20
-30.8125
11
111.275
21
-30.8125
0
LINE
8
0
10
97.775
20
-17.3125
11
97.775
21
-30.3125
0
LINE
8
0
10
111.775
20
-17.3125
11
111.775
21
-30.3125
0
ARC
8
0
10
98.275
20
-17.3125
40
0.5
50
90
51
180
0
ARC
8
0
10
111.275
20
-17.3125
40
0.5
50
0
51
90
0
ARC
8
0
10
98.275
20
-30.3125
40
0.5
50
180
51
270
0
ARC
8
0
10
111.275
20
-30.3125
40
0.5
50
270
51
0
0
LINE
8
0
10
3.025
20
-26.3375
11
16.025
21
-26.3375
0
LINE
8
0
10
3.025
20
-40.3375
11
16.025
21
-40.3375
0
LINE
8
0
10
2.525
20
-26.8375
11
2.525
21
-39.8375
0
LINE
8
0
10
16.525
20
-26.8375
11
16.525
21
-39.8375
0
ARC
8
0
10
3.025
20
-26.8375
40
0.5
50
90
51
180
0
ARC
8
0
10
16.025
20
-26.8375
40
0.5
50
0
51
90
0
ARC
8
0
10
3.025
20
-39.8375
40
0.5
50
180
51
270
0
ARC
8
0
10
16.025
20
-39.8375
40
0.5
50
270
51
0
0
LINE
8
0
10
12.55
20
-26.3375
11
25.55
21
-26.3375
0
LINE
8
0
10
12.55
20
-40.3375
11
25.55
21
-40.3375
0
LINE
8
0
10
12.05
20
-26.8375
11
12.05
21
-39.8375
0
LINE
8
0
10
26.05
20
-26.8375
11
26.05
21
-39.8375
0
ARC
8
0
10
12.55
20
-26.8375
40
0.5
50
90
51
180
0
ARC
8
0
10
25.55
20
-26.8375
40
0.5
50
0
51
90
0
ARC
8
0
10
12.55
20
-39.8375
40
0.5
50
180
51
270
0
ARC
8
0
10
25.55
20
-39.8375
40
0.5
50
270
51
0
0
LINE
8
0
10
22.075
20
-26.3375
11
35.075
21
-26.3375
0
LINE
8
0
10
22.075
20
-40.3375
11
35.075
21
-40.3375
0
LINE
8
0
10
21.575
20
-26.8375
11
21.575
21
-39.8375
0
LINE
8
0
10
35.575
20
-26.8375
11
35.575
21
-39.8375
0
ARC
8
0
10
22.075
20
-26.8375
40
0.5
50
90
51
180
0
ARC
8
0
10
35.075
20
-26.8375
40
0.5
50
0
51
90
0
ARC
8
0
10
22.075
20
-39.8375
40
0.5
50
180
51
270
0
ARC
8
0
10
35.075
20
-39.8375
40
0.5
50
270
51
0
0
LINE
8
0
10
41.125
20
-26.3375
11
54.125
21
-26.3375
0
LINE
8
0
10
41.125
20
-40.3375
11
54.125
21
-40.3375
0
LINE
8
0
10
40.625
20
-26.8375
11
40.625
21
-39.8375
0
LINE
8
0
10
54.625
20
-26.8375
11
54.625
21
-39.8375
0
ARC
8
0
10
41.125
20
-26.8375
40
0.5
50
90
51
180
0
ARC
8
0
10
54.125
20
-26.8375
40
0.5
50
0
51
90
0
ARC
8
0
10
41.125
20
-39.8375
40
0.5
50
180
51
270
0
ARC
8
0
10
54.125
20
-39.8375
40
0.5
50
270
51
0
0
LINE
8
0
10
60.175
20
-26.3375
11
73.175
21
-26.3375
0
LINE
8
0
10
60.175
20
-40.3375
11
73.175
21
-40.3375
0
LINE
8
0
10
59.675
20
-26.8375
11
59.675
21
-39.8375
0
LINE
8
0
10
73.675
20
-26.8375
11
73.675
21
-39.8375
0
ARC
8
0
10
60.175
20
-26.8375
40
0.5
50
90
51
180
0
ARC
8
0
10
73.175
20
-26.8375
40
0.5
50
0
51
90
0
ARC
8
0
10
60.175
20
-39.8375
40
0.5
50
180
51
270
0
ARC
8
0
10
73.175
20
-39.8375
40
0.5
50
270
51
0
0
LINE
8
0
10
79.225
20
-26.3375
11
92.225
21
-26.3375
0
LINE
8
0
10
79.225
20
-40.3375
11
92.225
21
-40.3375
0
LINE
8
0
10
78.725
20
-26.8375
11
78.725
21
-39.8375
0
LINE
8
0
10
92.725
20
-26.8375
11
92.725
21
-39.8375
0
ARC
8
0
10
79.225
20
-26.8375
40
0.5
50
90
51
180
0
ARC
8
0
10
92.225
20
-26.8375
40
0.5
50
0
51
90
0
ARC
8
0
10
79.225
20
-39.8375
40
0.5
50
180
51
270
0
ARC
8
0
10
92.225
20
-39.8375
40
0.5
50
270
51
0
0
LINE
8
0
10
98.275
20
-26.3375
11
111.275
21
-26.3375
0
LINE
8
0
10
98.275
20
-40.3375
11
111.275
21
-40.3375
0
LINE
8
0
10
97.775
20
-26.8375
11
97.775
21
-39.8375
0
LINE
8
0
10
111.775
20
-26.8375
11
111.775
21
-39.8375
0
ARC
8
0
10
98.275
20
-26.8375
40
0.5
50
90
51
180
0
ARC
8
0
10
111.275
20
-26.8375
40
0.5
50
0
51
90
0
ARC
8
0
10
98.275
20
-39.8375
40
0.5
50
180
51
270
0
ARC
8
0
10
111.275
20
-39.8375
40
0.5
50
270
51
0
0
LINE
8
0
10
107.8
20
-26.3375
11
120.8
21
-26.3375
0
LINE
8
0
10
107.8
20
-40.3375
11
120.8
21
-40.3375
0
LINE
8
0
10
107.3
20
-26.8375
11
107.3
21
-39.8375
0
LINE
8
0
10
121.3
20
-26.8375
11
121.3
21
-39.8375
0
ARC
8
0
10
107.8
20
-26.8375
40
0.5
50
90
51
180
0
ARC
8
0
10
120.8
20
-26.8375
40
0.5
50
0
51
90
0
ARC
8
0
10
107.8
20
-39.8375
40
0.5
50
180
51
270
0
ARC
8
0
10
120.8
20
-39.8375
40
0.5
50
270
51
0
0
LINE
8
0
10
117.325
20
-26.3375
11
130.325
21
-26.3375
0
LINE
8
0
10
117.325
20
-40.3375
11
130.325
21
-40.3375
0
LINE
8
0
10
116.825
20
-26.8375
11
116.825
21
-39.8375
0
LINE
8
0
10
130.825
20
-26.8375
11
130.825
21
-39.8375
0
ARC
8
0
10
117.325
20
-26.8375
40
0.5
50
90
51
180
0
ARC
8
0
10
130.325
20
-26.8375
40
0.5
50
0
51
90
0
ARC
8
0
10
117.325
20
-39.8375
40
0.5
50
180
51
270
0
ARC
8
0
10
130.325
20
-39.8375
40
0.5
50
270
51
0
0
LINE
8
0
10
3.025
20
-45.3875
11
16.025
21
-45.3875
0
LINE
8
0
10
3.025
20
-59.3875
11
16.025
21
-59.3875
0
LINE
8
0
10
2.525
20
-45.8875
11
2.525
21
-58.8875
0
LINE
8
0
10
16.525
20
-45.8875
11
16.525
21
-58.8875
0
ARC
8
0
10
3.025
20
-45.8875
40
0.5
50
90
51
180
0
ARC
8
0
10
16.025
20
-45.8875
40
0.5
50
0
51
90
0
ARC
8
0
10
3.025
20
-58.8875
40
0.5
50
180
51
270
0
ARC
8
0
10
16.025
20
-58.8875
40
0.5
50
270
51
0
0
LINE
8
0
10
12.55
20
-45.3875
11
25.55
21
-45.3875
0
LINE
8
0
10
12.55
20
-59.3875
11
25.55
21
-59.3875
0
LINE
8
0
10
12.05
20
-45.8875
11
12.05
21
-58.8875
0
LINE
8
0
10
26.05
20
-45.8875
11
26.05
21
-58.8875
0
ARC
8
0
10
12.55
20
-45.8875
40
0.5
50
90
51
180
0
ARC
8
0
10
25.55
20
-45.8875
40
0.5
50
0
51
90
0
ARC
8
0
10
12.55
20
-58.8875
40
0.5
50
180
51
270
0
ARC
8
0
10
25.55
20
-58.8875
40
0.5
50
270
51
0
0
LINE
8
0
10
22.075
20
-45.3875
11
35.075
21
-45.3875
0
LINE
8
0
10
22.075
20
-59.3875
11
35.075
21
-59.3875
0
LINE
8
0
10
21.575
20
-45.8875
11
21.575
21
-58.8875
0
LINE
8
0
10
35.575
20
-45.8875
11
35.575
21
-58.8875
0
ARC
8
0
10
22.075
20
-45.8875
40
0.5
50
90
51
180
0
ARC
8
0
10
35.075
20
-45.8875
40
0.5
50
0
51
90
0
ARC
8
0
10
22.075
20
-58.8875
40
0.5
50
180
51
270
0
ARC
8
0
10
35.075
20
-58.8875
40
0.5
50
270
51
0
0
LINE
8
0
10
41.125
20
-45.3875
11
54.125
21
-45.3875
0
LINE
8
0
10
41.125
20
-59.3875
11
54.125
21
-59.3875
0
LINE
8
0
10
40.625
20
-45.8875
11
40.625
21
-58.8875
0
LINE
8
0
10
54.625
20
-45.8875
11
54.625
21
-58.8875
0
ARC
8
0
10
41.125
20
-45.8875
40
0.5
50
90
51
180
0
ARC
8
0
10
54.125
20
-45.8875
40
0.5
50
0
51
90
0
ARC
8
0
10
41.125
20
-58.8875
40
0.5
50
180
51
270
0
ARC
8
0
10
54.125
20
-58.8875
40
0.5
50
270
51
0
0
LINE
8
0
10
60.175
20
-45.3875
11
73.175
21
-45.3875
0
LINE
8
0
10
60.175
20
-59.3875
11
73.175
21
-59.3875
0
LINE
8
0
10
59.675
20
-45.8875
11
59.675
21
-58.8875
0
LINE
8
0
10
73.675
20
-45.8875
11
73.675
21
-58.8875
0
ARC
8
0
10
60.175
20
-45.8875
40
0.5
50
90
51
180
0
ARC
8
0
10
73.175
20
-45.8875
40
0.5
50
0
51
90
0
ARC
8
0
10
60.175
20
-58.8875
40
0.5
50
180
51
270
0
ARC
8
0
10
73.175
20
-58.8875
40
0.5
50
270
51
0
0
LINE
8
0
10
79.225
20
-45.3875
11
92.225
21
-45.3875
0
LINE
8
0
10
79.225
20
-59.3875
11
92.225
21
-59.3875
0
LINE
8
0
10
78.725
20
-45.8875
11
78.725
21
-58.8875
0
LINE
8
0
10
92.725
20
-45.8875
11
92.725
21
-58.8875
0
ARC
8
0
10
79.225
20
-45.8875
40
0.5
50
90
51
180
0
ARC
8
0
10
92.225
20
-45.8875
40
0.5
50
0
51
90
0
ARC
8
0
10
79.225
20
-58.8875
40
0.5
50
180
51
270
0
ARC
8
0
10
92.225
20
-58.8875
40
0.5
50
270
51
0
0
LINE
8
0
10
98.275
20
-45.3875
11
111.275
21
-45.3875
0
LINE
8
0
10
98.275
20
-59.3875
11
111.275
21
-59.3875
0
LINE
8
0
10
97.775
20
-45.8875
11
97.775
21
-58.8875
0
LINE
8
0
10
111.775
20
-45.8875
11
111.775
21
-58.8875
0
ARC
8
0
10
98.275
20
-45.8875
40
0.5
50
90
51
180
0
ARC
8
0
10
111.275
20
-45.8875
40
0.5
50
0
51
90
0
ARC
8
0
10
98.275
20
-58.8875
40
0.5
50
180
51
270
0
ARC
8
0
10
111.275
20
-58.8875
40
0.5
50
270
51
0
0
LINE
8
0
10
107.8
20
-45.3875
11
120.8
21
-45.3875
0
LINE
8
0
10
107.8
20
-59.3875
11
120.8
21
-59.3875
0
LINE
8
0
10
107.3
20
-45.8875
11
107.3
21
-58.8875
0
LINE
8
0
10
121.3
20
-45.8875
11
121.3
21
-58.8875
0
ARC
8
0
10
107.8
20
-45.8875
40
0.5
50
90
51
180
0
ARC
8
0
10
120.8
20
-45.8875
40
0.5
50
0
51
90
0
ARC
8
0
10
107.8
20
-58.8875
40
0.5
50
180
51
270
0
ARC
8
0
10
120.8
20
-58.8875
40
0.5
50
270
51
0
0
LINE
8
0
10
117.325
20
-45.3875
11
130.325
21
-45.3875
0
LINE
8
0
10
117.325
20
-59.3875
11
130.325
21
-59.3875
0
LINE
8
0
10
116.825
20
-45.8875
11
116.825
21
-58.8875
0
LINE
8
0
10
130.825
20
-45.8875
11
130.825
21
-58.8875
0
ARC
8
0
10
117.325
20
-45.8875
40
0.5
50
90
51
180
0
ARC
8
0
10
130.325
20
-45.8875
40
0.5
50
0
51
90
0
ARC
8
0
10
117.325
20
-58.8875
40
0.5
50
180
51
270
0
ARC
8
0
10
130.325
20
-58.8875
40
0.5
50
270
51
0
0
LINE
8
0
10
3.025
20
-64.4375
11
16.025
21
-64.4375
0
LINE
8
0
10
3.025
20
-78.4375
11
16.025
21
-78.4375
0
LINE
8
0
10
2.525
20
-64.9375
11
2.525
21
-77.9375
0
LINE
8
0
10
16.525
20
-64.9375
11
16.525
21
-77.9375
0
ARC
8
0
10
3.025
20
-64.9375
40
0.5
50
90
51
180
0
ARC
8
0
10
16.025
20
-64.9375
40
0.5
50
0
51
90
0
ARC
8
0
10
3.025
20
-77.9375
40
0.5
50
180
51
270
0
ARC
8
0
10
16.025
20
-77.9375
40
0.5
50
270
51
0
0
LINE
8
0
10
12.55
20
-64.4375
11
25.55
21
-64.4375
0
LINE
8
0
10
12.55
20
-78.4375
11
25.55
21
-78.4375
0
LINE
8
0
10
12.05
20
-64.9375
11
12.05
21
-77.9375
0
LINE
8
0
10
26.05
20
-64.9375
11
26.05
21
-77.9375
0
ARC
8
0
10
12.55
20
-64.9375
40
0.5
50
90
51
180
0
ARC
8
0
10
25.55
20
-64.9375
40
0.5
50
0
51
90
0
ARC
8
0
10
12.55
20
-77.9375
40
0.5
50
180
51
270
0
ARC
8
0
10
25.55
20
-77.9375
40
0.5
50
270
51
0
0
LINE
8
0
10
22.075
20
-64.4375
11
35.075
21
-64.4375
0
LINE
8
0
10
22.075
20
-78.4375
11
35.075
21
-78.4375
0
LINE
8
0
10
21.575
20
-64.9375
11
21.575
21
-77.9375
0
LINE
8
0
10
35.575
20
-64.9375
11
35.575
21
-77.9375
0
ARC
8
0
10
22.075
20
-64.9375
40
0.5
50
90
51
180
0
ARC
8
0
10
35.075
20
-64.9375
40
0.5
50
0
51
90
0
ARC
8
0
10
22.075
20
-77.9375
40
0.5
50
180
51
270
0
ARC
8
0
10
35.075
20
-77.9375
40
0.5
50
270
51
0
0
LINE
8
0
10
41.125
20
-64.4375
11
54.125
21
-64.4375
0
LINE
8
0
10
41.125
20
-78.4375
11
54.125
21
-78.4375
0
LINE
8
0
10
40.625
20
-64.9375
11
40.625
21
-77.9375
0
LINE
8
0
10
54.625
20
-64.9375
11
54.625
21
-77.9375
0
ARC
8
0
10
41.125
20
-64.9375
40
0.5
50
90
51
180
0
ARC
8
0
10
54.125
20
-64.9375
40
0.5
50
0
51
90
0
ARC
8
0
10
41.125
20
-77.9375
40
0.5
50
180
51
270
0
ARC
8
0
10
54.125
20
-77.9375
40
0.5
50
270
51
0
0
LINE
8
0
10
60.175
20
-64.4375
11
73.175
21
-64.4375
0
LINE
8
0
10
60.175
20
-78.4375
11
73.175
21
-78.4375
0
LINE
8
0
10
59.675
20
-64.9375
11
59.675
21
-77.9375
0
LINE
8
0
10
73.675
20
-64.9375
11
73.675
21
-77.9375
0
ARC
8
0
10
60.175
20
-64.9375
40
0.5
50
90
51
180
0
ARC
8
0
10
73.175
20
-64.9375
40
0.5
50
0
51
90
0
ARC
8
0
10
60.175
20
-77.9375
40
0.5
50
180
51
270
0
ARC
8
0
10
73.175
20
-77.9375
40
0.5
50
270
51
0
0
LINE
8
0
10
79.225
20
-64.4375
11
92.225
21
-64.4375
0
LINE
8
0
10
79.225
20
-78.4375
11
92.225
21
-78.4375
0
LINE
8
0
10
78.725
20
-64.9375
11
78.725
21
-77.9375
0
LINE
8
0
10
92.725
20
-64.9375
11
92.725
21
-77.9375
0
ARC
8
0
10
79.225
20
-64.9375
40
0.5
50
90
51
180
0
ARC
8
0
10
92.225
20
-64.9375
40
0.5
50
0
51
90
0
ARC
8
0
10
79.225
20
-77.9375
40
0.5
50
180
51
270
0
ARC
8
0
10
92.225
20
-77.9375
40
0.5
50
270
51
0
0
LINE
8
0
10
98.275
20
-64.4375
11
111.275
21
-64.4375
0
LINE
8
0
10
98.275
20
-78.4375
11
111.275
21
-78.4375
0
LINE
8
0
10
97.775
20
-64.9375
11
97.775
21
-77.9375
0
LINE
8
0
10
111.775
20
-64.9375
11
111.775
21
-77.9375
0
ARC
8
0
10
98.275
20
-64.9375
40
0.5
50
90
51
180
0
ARC
8
0
10
111.275
20
-64.9375
40
0.5
50
0
51
90
0
ARC
8
0
10
98.275
20
-77.9375
40
0.5
50
180
51
270
0
ARC
8
0
10
111.275
20
-77.9375
40
0.5
50
270
51
0
0
LINE
8
0
10
107.8
20
-64.4375
11
120.8
21
-64.4375
0
LINE
8
0
10
107.8
20
-78.4375
11
120.8
21
-78.4375
0
LINE
8
0
10
107.3
20
-64.9375
11
107.3
21
-77.9375
0
LINE
8
0
10
121.3
20
-64.9375
11
121.3
21
-77.9375
0
ARC
8
0
10
107.8
20
-64.9375
40
0.5
50
90
51
180
0
ARC
8
0
10
120.8
20
-64.9375
40
0.5
50
0
51
90
0
ARC
8
0
10
107.8
20
-77.9375
40
0.5
50
180
51
270
0
ARC
8
0
10
120.8
20
-77.9375
40
0.5
50
270
51
0
0
LINE
8
0
10
117.325
20
-64.4375
11
130.325
21
-64.4375
0
LINE
8
0
10
117.325
20
-78.4375
11
130.325
21
-78.4375
0
LINE
8
0
10
116.825
20
-64.9375
11
116.825
21
-77.9375
0
LINE
8
0
10
130.825
20
-64.9375
11
130.825
21
-77.9375
0
ARC
8
0
10
117.325
20
-64.9375
40
0.5
50
90
51
180
0
ARC
8
0
10
130.325
20
-64.9375
40
0.5
50
0
51
90
0
ARC
8
0
10
117.325
20
-77.9375
40
0.5
50
180
51
270
0
ARC
8
0
10
130.325
20
-77.9375
40
0.5
50
270
51
0
0
LINE
8
0
10
3.025
20
-83.4875
11
16.025
21
-83.4875
0
LINE
8
0
10
3.025
20
-97.4875
11
16.025
21
-97.4875
0
LINE
8
0
10
2.525
20
-83.9875
11
2.525
21
-96.9875
0
LINE
8
0
10
16.525
20
-83.9875
11
16.525
21
-96.9875
0
ARC
8
0
10
3.025
20
-83.9875
40
0.5
50
90
51
180
0
ARC
8
0
10
16.025
20
-83.9875
40
0.5
50
0
51
90
0
ARC
8
0
10
3.025
20
-96.9875
40
0.5
50
180
51
270
0
ARC
8
0
10
16.025
20
-96.9875
40
0.5
50
270
51
0
0
LINE
8
0
10
12.55
20
-83.4875
11
25.55
21
-83.4875
0
LINE
8
0
10
12.55
20
-97.4875
11
25.55
21
-97.4875
0
LINE
8
0
10
12.05
20
-83.9875
11
12.05
21
-96.9875
0
LINE
8
0
10
26.05
20
-83.9875
11
26.05
21
-96.9875
0
ARC
8
0
10
12.55
20
-83.9875
40
0.5
50
90
51
180
0
ARC
8
0
10
25.55
20
-83.9875
40
0.5
50
0
51
90
0
ARC
8
0
10
12.55
20
-96.9875
40
0.5
50
180
51
270
0
ARC
8
0
10
25.55
20
-96.9875
40
0.5
50
270
51
0
0
LINE
8
0
10
22.075
20
-83.4875
11
35.075
21
-83.4875
0
LINE
8
0
10
22.075
20
-97.4875
11
35.075
21
-97.4875
0
LINE
8
0
10
21.575
20
-83.9875
11
21.575
21
-96.9875
0
LINE
8
0
10
35.575
20
-83.9875
11
35.575
21
-96.9875
0
ARC
8
0
10
22.075
20
-83.9875
40
0.5
50
90
51
180
0
ARC
8
0
10
35.075
20
-83.9875
40
0.5
50
0
51
90
0
ARC
8
0
10
22.075
20
-96.9875
40
0.5
50
180
51
270
0
ARC
8
0
10
35.075
20
-96.9875
40
0.5
50
270
51
0
0
LINE
8
0
10
41.125
20
-83.4875
11
54.125
21
-83.4875
0
LINE
8
0
10
41.125
20
-97.4875
11
54.125
21
-97.4875
0
LINE
8
0
10
40.625
20
-83.9875
11
40.625
21
-96.9875
0
LINE
8
0
10
54.625
20
-83.9875
11
54.625
21
-96.9875
0
ARC
8
0
10
41.125
20
-83.9875
40
0.5
50
90
51
180
0
ARC
8
0
10
54.125
20
-83.9875
40
0.5
50
0
51
90
0
ARC
8
0
10
41.125
20
-96.9875
40
0.5
50
180
51
270
0
ARC
8
0
10
54.125
20
-96.9875
40
0.5
50
270
51
0
0
LINE
8
0
10
60.175
20
-83.4875
11
73.175
21
-83.4875
0
LINE
8
0
10
60.175
20
-97.4875
11
73.175
21
-97.4875
0
LINE
8
0
10
59.675
20
-83.9875
11
59.675
21
-96.9875
0
LINE
8
0
10
73.675
20
-83.9875
11
73.675
21
-96.9875
0
ARC
8
0
10
60.175
20
-83.9875
40
0.5
50
90
51
180
0
ARC
8
0
10
73.175
20
-83.9875
40
0.5
50
0
51
90
0
ARC
8
0
10
60.175
20
-96.9875
40
0.5
50
180
51
270
0
ARC
8
0
10
73.175
20
-96.9875
40
0.5
50
270
51
0
0
LINE
8
0
10
79.225
20
-83.4875
11
92.225
21
-83.4875
0
LINE
8
0
10
79.225
20
-97.4875
11
92.225
21
-97.4875
0
LINE
8
0
10
78.725
20
-83.9875
11
78.725
21
-96.9875
0
LINE
8
0
10
92.725
20
-83.9875
11
92.725
21
-96.9875
0
ARC
8
0
10
79.225
20
-83.9875
40
0.5
50
90
51
180
0
ARC
8
0
10
92.225
20
-83.9875
40
0.5
50
0
51
90
0
ARC
8
0
10
79.225
20
-96.9875
40
0.5
50
180
51
270
0
ARC
8
0
10
92.225
20
-96.9875
40
0.5
50
270
51
0
0
LINE
8
0
10
98.275
20
-83.4875
11
111.275
21
-83.4875
0
LINE
8
0
10
98.275
20
-97.4875
11
111.275
21
-97.4875
0
LINE
8
0
10
97.775
20
-83.9875
11
97.775
21
-96.9875
0
LINE
8
0
10
111.775
20
-83.9875
11
111.775
21
-96.9875
0
ARC
8
0
10
98.275
20
-83.9875
40
0.5
50
90
51
180
0
ARC
8
0
10
111.275
20
-83.9875
40
0.5
50
0
51
90
0
ARC
8
0
10
98.275
20
-96.9875
40
0.5
50
180
51
270
0
ARC
8
0
10
111.275
20
-96.9875
40
0.5
50
270
51
0
0
LINE
8
0
10
107.8
20
-83.4875
11
120.8
21
-83.4875
0
LINE
8
0
10
107.8
20
-97.4875
11
120.8
21
-97.4875
0
LINE
8
0
10
107.3
20
-83.9875
11
107.3
21
-96.9875
0
LINE
8
0
10
121.3
20
-83.9875
11
121.3
21
-96.9875
0
ARC
8
0
10
107.8
20
-83.9875
40
0.5
50
90
51
180
0
ARC
8
0
10
120.8
20
-83.9875
40
0.5
50
0
51
90
0
ARC
8
0
10
107.8
20
-96.9875
40
0.5
50
180
51
270
0
ARC
8
0
10
120.8
20
-96.9875
40
0.5
50
270
51
0
0
LINE
8
0
10
117.325
20
-83.4875
11
130.325
21
-83.4875
0
LINE
8
0
10
117.325
20
-97.4875
11
130.325
21
-97.4875
0
LINE
8
0
10
116.825
20
-83.9875
11
116.825
21
-96.9875
0
LINE
8
0
10
130.825
20
-83.9875
11
130.825
21
-96.9875
0
ARC
8
0
10
117.325
20
-83.9875
40
0.5
50
90
51
180
0
ARC
8
0
10
130.325
20
-83.9875
40
0.5
50
0
51
90
0
ARC
8
0
10
117.325
20
-96.9875
40
0.5
50
180
51
270
0
ARC
8
0
10
130.325
20
-96.9875
40
0.5
50
270
51
0
0
LINE
8
0
10
0
20
-100.0125
11
133.35
21
-100.0125
0
LINE
8
0
10
0
20
-4.7625
11
133.35
21
-4.7625
0
LINE
8
0
10
0
20
-100.0125
11
0
21
-4.7625
0
LINE
8
0
10
133.35
20
-100.0125
11
133.35
21
-4.7625
0
ENDSEC
0
EOF