M48
METRIC,TZ
T1C0.400
T2C1.000
T3C1.500
%
G90
G05
T1
X123825Y-50800
X123825Y-84931
X125413Y-52388
X125413Y-102394
X126206Y-53975
X126206Y-104775
X126276Y-43656
X126851Y-49064
X127000Y-69056
X127724Y-46038
X127794Y-43656
X127794Y-83344
X132556Y-38100
X133350Y-42069
X138906Y-43656
X140494Y-46038
X140494Y-104775
X141213Y-77788
X141213Y-81756
X141490Y-75204
X142081Y-88106
X142662Y-81756
X143784Y-88222
X144463Y-46831
X144463Y-50800
X144463Y-53975
X152400Y-41444
T2
X123850Y-41444
X123850Y-43984
X123850Y-46524
X123850Y-49064
X135612Y-68950
X135612Y-83450
X135612Y-88000
X135612Y-102500
X135612Y-107050
X135612Y-121550
X138112Y-83450
X138112Y-102500
X138112Y-121550
X140612Y-68950
X140612Y-83450
X140612Y-88000
X140612Y-102500
X140612Y-107050
X140612Y-121550
X152400Y-41444
X152400Y-43984
X152400Y-46524
X152400Y-49064
T3
X132513Y-76600G85X132513Y-75300
G05
X132513Y-95650G85X132513Y-94350
G05
X132513Y-114700G85X132513Y-113400
G05
X143713Y-76600G85X143713Y-75300
G05
X143713Y-95650G85X143713Y-94350
G05
X143713Y-114700G85X143713Y-113400
G05
T0
M30
