%TF.GenerationSoftware,KiCad,Pcbnew,(6.0.4-0)*%
%TF.CreationDate,2022-07-29T07:15:44-05:00*%
%TF.ProjectId,knoblin3,6b6e6f62-6c69-46e3-932e-6b696361645f,rev?*%
%TF.SameCoordinates,Original*%
%TF.FileFunction,Legend,Bot*%
%TF.FilePolarity,Positive*%
%FSLAX46Y46*%
G04 Gerber Fmt 4.6, Leading zero omitted, Abs format (unit mm)*
G04 Created by KiCad (PCBNEW (6.0.4-0)) date 2022-07-29 07:15:44*
%MOMM*%
%LPD*%
G01*
G04 APERTURE LIST*
%ADD10C,0.238110*%
%ADD11C,0.500000*%
%ADD12C,0.300000*%
%ADD13C,0.150000*%
%ADD14C,0.101600*%
%ADD15C,0.076200*%
%ADD16C,0.127000*%
%ADD17C,0.066040*%
%ADD18C,0.254000*%
G04 APERTURE END LIST*
D10*
G36*
X130968753Y-132387630D02*
G01*
X122865886Y-127709441D01*
X122865888Y-123176505D01*
X124227066Y-123176505D01*
X124233222Y-123466991D01*
X124251522Y-123754350D01*
X124281718Y-124038334D01*
X124323562Y-124318695D01*
X124376804Y-124595183D01*
X124441195Y-124867549D01*
X124516486Y-125135546D01*
X124602430Y-125398922D01*
X124698776Y-125657431D01*
X124805276Y-125910823D01*
X124921680Y-126158849D01*
X125047741Y-126401260D01*
X125183209Y-126637807D01*
X125327836Y-126868242D01*
X125481372Y-127092316D01*
X125643568Y-127309779D01*
X125667028Y-127147630D01*
X125695287Y-126987076D01*
X125728268Y-126828194D01*
X125765898Y-126671060D01*
X125808099Y-126515749D01*
X125854797Y-126362337D01*
X125904744Y-126214368D01*
X128182774Y-126214368D01*
X128183280Y-126226240D01*
X128184337Y-126238082D01*
X128185946Y-126249874D01*
X128188107Y-126261594D01*
X128190820Y-126273222D01*
X128194085Y-126284736D01*
X128197901Y-126296116D01*
X128202270Y-126307341D01*
X128207190Y-126318389D01*
X128212662Y-126329240D01*
X128218686Y-126339873D01*
X128225261Y-126350266D01*
X128232389Y-126360400D01*
X128240068Y-126370252D01*
X128248300Y-126379803D01*
X128257083Y-126389030D01*
X128266310Y-126397813D01*
X128275861Y-126406044D01*
X128285713Y-126413724D01*
X128295846Y-126420851D01*
X128306240Y-126427427D01*
X128316873Y-126433451D01*
X128327724Y-126438923D01*
X128338772Y-126443843D01*
X128349996Y-126448211D01*
X128361376Y-126452028D01*
X128372891Y-126455292D01*
X128384518Y-126458005D01*
X128396239Y-126460166D01*
X128408030Y-126461775D01*
X128419873Y-126462833D01*
X128431745Y-126463338D01*
X128443626Y-126463292D01*
X128455495Y-126462693D01*
X128467330Y-126461543D01*
X128479111Y-126459841D01*
X128490818Y-126457587D01*
X128502428Y-126454782D01*
X128513921Y-126451424D01*
X128525276Y-126447515D01*
X128536473Y-126443054D01*
X128547490Y-126438041D01*
X128558306Y-126432476D01*
X128568900Y-126426359D01*
X128579251Y-126419691D01*
X128589339Y-126412470D01*
X128599143Y-126404698D01*
X128608641Y-126396374D01*
X128608659Y-126396393D01*
X128608677Y-126396413D01*
X128608755Y-126396491D01*
X128608794Y-126396529D01*
X128616292Y-126389030D01*
X129178843Y-125826480D01*
X129748896Y-126396529D01*
X129748971Y-126396452D01*
X129749049Y-126396374D01*
X129758546Y-126404698D01*
X129768349Y-126412470D01*
X129778437Y-126419691D01*
X129788788Y-126426359D01*
X129799382Y-126432476D01*
X129810198Y-126438041D01*
X129821215Y-126443054D01*
X129832411Y-126447515D01*
X129843766Y-126451424D01*
X129855259Y-126454782D01*
X129866869Y-126457587D01*
X129878576Y-126459841D01*
X129890357Y-126461543D01*
X129902192Y-126462693D01*
X129914061Y-126463292D01*
X129925942Y-126463338D01*
X129937814Y-126462833D01*
X129949656Y-126461775D01*
X129961448Y-126460166D01*
X129973169Y-126458005D01*
X129984796Y-126455292D01*
X129996311Y-126452028D01*
X130007691Y-126448211D01*
X130018915Y-126443843D01*
X130029963Y-126438923D01*
X130040814Y-126433451D01*
X130051447Y-126427427D01*
X130061841Y-126420851D01*
X130071974Y-126413724D01*
X130081827Y-126406044D01*
X130091377Y-126397813D01*
X130100605Y-126389030D01*
X130109388Y-126379803D01*
X130117619Y-126370252D01*
X130125299Y-126360400D01*
X130132427Y-126350266D01*
X130139002Y-126339873D01*
X130145026Y-126329240D01*
X130150498Y-126318389D01*
X130155419Y-126307341D01*
X130159787Y-126296116D01*
X130163604Y-126284736D01*
X130166868Y-126273222D01*
X130169581Y-126261594D01*
X130171742Y-126249874D01*
X130173351Y-126238082D01*
X130174409Y-126226240D01*
X130174914Y-126214368D01*
X130174868Y-126202487D01*
X130174270Y-126190618D01*
X130173120Y-126178783D01*
X130171418Y-126167002D01*
X130169164Y-126155295D01*
X130166358Y-126143685D01*
X130163001Y-126132192D01*
X130159092Y-126120837D01*
X130154631Y-126109640D01*
X130149618Y-126098624D01*
X130144053Y-126087808D01*
X130137936Y-126077214D01*
X130131268Y-126066863D01*
X130124048Y-126056775D01*
X130116276Y-126046972D01*
X130107952Y-126037474D01*
X130108103Y-126037319D01*
X129538054Y-125467269D01*
X129538056Y-125467267D01*
X131455091Y-125467267D01*
X131455405Y-125480002D01*
X131456338Y-125492576D01*
X131457874Y-125504973D01*
X131460000Y-125517179D01*
X131462699Y-125529178D01*
X131465958Y-125540956D01*
X131469762Y-125552498D01*
X131474095Y-125563789D01*
X131478943Y-125574815D01*
X131484291Y-125585561D01*
X131490125Y-125596011D01*
X131496428Y-125606152D01*
X131503188Y-125615967D01*
X131510388Y-125625443D01*
X131518014Y-125634565D01*
X131526052Y-125643317D01*
X131534486Y-125651685D01*
X131543301Y-125659655D01*
X131552483Y-125667210D01*
X131562017Y-125674338D01*
X131571888Y-125681021D01*
X131582082Y-125687247D01*
X131592583Y-125693000D01*
X131603376Y-125698265D01*
X131614448Y-125703028D01*
X131625782Y-125707273D01*
X131637365Y-125710986D01*
X131649181Y-125714152D01*
X131661216Y-125716756D01*
X131673454Y-125718784D01*
X131685882Y-125720220D01*
X131698484Y-125721050D01*
X131698484Y-125721267D01*
X132504658Y-125721267D01*
X132504658Y-126527439D01*
X132504876Y-126527439D01*
X132505705Y-126540041D01*
X132507142Y-126552469D01*
X132509169Y-126564708D01*
X132511773Y-126576743D01*
X132514939Y-126588559D01*
X132518653Y-126600142D01*
X132522898Y-126611476D01*
X132527660Y-126622548D01*
X132532925Y-126633342D01*
X132538678Y-126643842D01*
X132544904Y-126654036D01*
X132551588Y-126663907D01*
X132558715Y-126673441D01*
X132566271Y-126682623D01*
X132574240Y-126691438D01*
X132582608Y-126699872D01*
X132591361Y-126707910D01*
X132600482Y-126715536D01*
X132609958Y-126722736D01*
X132619773Y-126729495D01*
X132629914Y-126735799D01*
X132640364Y-126741632D01*
X132651109Y-126746980D01*
X132662135Y-126751828D01*
X132673426Y-126756161D01*
X132684968Y-126759965D01*
X132696746Y-126763224D01*
X132708745Y-126765923D01*
X132720950Y-126768049D01*
X132733347Y-126769585D01*
X132745920Y-126770518D01*
X132758655Y-126770832D01*
X132771391Y-126770518D01*
X132783964Y-126769585D01*
X132796361Y-126768049D01*
X132808567Y-126765923D01*
X132820566Y-126763224D01*
X132832344Y-126759965D01*
X132843886Y-126756161D01*
X132855178Y-126751828D01*
X132866204Y-126746980D01*
X132876949Y-126741632D01*
X132887400Y-126735799D01*
X132897540Y-126729495D01*
X132907356Y-126722736D01*
X132916832Y-126715536D01*
X132925954Y-126707910D01*
X132934706Y-126699872D01*
X132943074Y-126691438D01*
X132951044Y-126682623D01*
X132958599Y-126673441D01*
X132965727Y-126663907D01*
X132972411Y-126654036D01*
X132978636Y-126643842D01*
X132984389Y-126633342D01*
X132989654Y-126622548D01*
X132994417Y-126611476D01*
X132998662Y-126600142D01*
X133002375Y-126588559D01*
X133005541Y-126576743D01*
X133008146Y-126564708D01*
X133010173Y-126552469D01*
X133011609Y-126540041D01*
X133012439Y-126527439D01*
X133012654Y-126527439D01*
X133012654Y-125721267D01*
X133818829Y-125721267D01*
X133818829Y-125721050D01*
X133831431Y-125720220D01*
X133843858Y-125718784D01*
X133856097Y-125716756D01*
X133868131Y-125714152D01*
X133879948Y-125710986D01*
X133891530Y-125707273D01*
X133902865Y-125703028D01*
X133913936Y-125698265D01*
X133924730Y-125693000D01*
X133935231Y-125687247D01*
X133945424Y-125681021D01*
X133955295Y-125674338D01*
X133964830Y-125667210D01*
X133974012Y-125659655D01*
X133982827Y-125651685D01*
X133991261Y-125643317D01*
X133999298Y-125634565D01*
X134006924Y-125625443D01*
X134014125Y-125615967D01*
X134020884Y-125606152D01*
X134027188Y-125596011D01*
X134033021Y-125585561D01*
X134038369Y-125574815D01*
X134043217Y-125563789D01*
X134047551Y-125552498D01*
X134051354Y-125540956D01*
X134054613Y-125529178D01*
X134057313Y-125517179D01*
X134059438Y-125504973D01*
X134060975Y-125492576D01*
X134061908Y-125480002D01*
X134062222Y-125467267D01*
X134061908Y-125454532D01*
X134060975Y-125441958D01*
X134059438Y-125429561D01*
X134057313Y-125417356D01*
X134054613Y-125405357D01*
X134051354Y-125393579D01*
X134047551Y-125382037D01*
X134043218Y-125370746D01*
X134038370Y-125359720D01*
X134033022Y-125348974D01*
X134027188Y-125338524D01*
X134020885Y-125328384D01*
X134014125Y-125318568D01*
X134006925Y-125309092D01*
X133999299Y-125299971D01*
X133991262Y-125291219D01*
X133982828Y-125282850D01*
X133974013Y-125274881D01*
X133964831Y-125267325D01*
X133955297Y-125260198D01*
X133945425Y-125253514D01*
X133935232Y-125247289D01*
X133924731Y-125241536D01*
X133913937Y-125236271D01*
X133902866Y-125231508D01*
X133891531Y-125227263D01*
X133879948Y-125223550D01*
X133868132Y-125220384D01*
X133856097Y-125217780D01*
X133843859Y-125215752D01*
X133831431Y-125214316D01*
X133818829Y-125213486D01*
X133818829Y-125213269D01*
X133012654Y-125213269D01*
X133012654Y-124407094D01*
X133012439Y-124407094D01*
X133011609Y-124394492D01*
X133010173Y-124382065D01*
X133008146Y-124369826D01*
X133005541Y-124357792D01*
X133002375Y-124345975D01*
X132998662Y-124334393D01*
X132994417Y-124323058D01*
X132989654Y-124311987D01*
X132984389Y-124301193D01*
X132978636Y-124290692D01*
X132972411Y-124280498D01*
X132965727Y-124270627D01*
X132958599Y-124261093D01*
X132951044Y-124251911D01*
X132943074Y-124243096D01*
X132934706Y-124234662D01*
X132925954Y-124226624D01*
X132916832Y-124218998D01*
X132907356Y-124211798D01*
X132897540Y-124205038D01*
X132887400Y-124198734D01*
X132876949Y-124192901D01*
X132866204Y-124187553D01*
X132855178Y-124182705D01*
X132843886Y-124178371D01*
X132832344Y-124174568D01*
X132820566Y-124171309D01*
X132808567Y-124168609D01*
X132796361Y-124166484D01*
X132783964Y-124164947D01*
X132771391Y-124164014D01*
X132758655Y-124163700D01*
X132745920Y-124164014D01*
X132733347Y-124164947D01*
X132720950Y-124166484D01*
X132708745Y-124168609D01*
X132696746Y-124171309D01*
X132684968Y-124174568D01*
X132673426Y-124178371D01*
X132662135Y-124182705D01*
X132651109Y-124187553D01*
X132640363Y-124192901D01*
X132629913Y-124198734D01*
X132619773Y-124205038D01*
X132609957Y-124211798D01*
X132600481Y-124218998D01*
X132591360Y-124226624D01*
X132582607Y-124234662D01*
X132574239Y-124243096D01*
X132566269Y-124251911D01*
X132558714Y-124261093D01*
X132551586Y-124270627D01*
X132544902Y-124280498D01*
X132538677Y-124290692D01*
X132532924Y-124301193D01*
X132527658Y-124311987D01*
X132522896Y-124323058D01*
X132518650Y-124334393D01*
X132514937Y-124345975D01*
X132511771Y-124357792D01*
X132509167Y-124369826D01*
X132507139Y-124382065D01*
X132505703Y-124394492D01*
X132504873Y-124407094D01*
X132504658Y-124407094D01*
X132504658Y-125213271D01*
X131708776Y-125213271D01*
X131698484Y-125213269D01*
X131698484Y-125213484D01*
X131685882Y-125214314D01*
X131673454Y-125215750D01*
X131661216Y-125217777D01*
X131649181Y-125220382D01*
X131637365Y-125223548D01*
X131625782Y-125227261D01*
X131614448Y-125231506D01*
X131603376Y-125236268D01*
X131592583Y-125241534D01*
X131582082Y-125247286D01*
X131571888Y-125253512D01*
X131562017Y-125260196D01*
X131552483Y-125267323D01*
X131543301Y-125274879D01*
X131534486Y-125282848D01*
X131526052Y-125291217D01*
X131518014Y-125299969D01*
X131510388Y-125309090D01*
X131503188Y-125318566D01*
X131496428Y-125328382D01*
X131490125Y-125338522D01*
X131484291Y-125348973D01*
X131478943Y-125359718D01*
X131474095Y-125370744D01*
X131469762Y-125382036D01*
X131465958Y-125393578D01*
X131462699Y-125405356D01*
X131460000Y-125417355D01*
X131457874Y-125429561D01*
X131456338Y-125441958D01*
X131455405Y-125454531D01*
X131455091Y-125467267D01*
X129538056Y-125467267D01*
X130100605Y-124904716D01*
X130108105Y-124897217D01*
X130107952Y-124897064D01*
X130116276Y-124887566D01*
X130124048Y-124877763D01*
X130131268Y-124867675D01*
X130137936Y-124857323D01*
X130144053Y-124846729D01*
X130149618Y-124835913D01*
X130154631Y-124824897D01*
X130159092Y-124813700D01*
X130163001Y-124802345D01*
X130166358Y-124790852D01*
X130169164Y-124779242D01*
X130171418Y-124767536D01*
X130173120Y-124755754D01*
X130174270Y-124743919D01*
X130174868Y-124732050D01*
X130174914Y-124720169D01*
X130174409Y-124708297D01*
X130173351Y-124696455D01*
X130171742Y-124684663D01*
X130169581Y-124672943D01*
X130166868Y-124661315D01*
X130163604Y-124649801D01*
X130159787Y-124638421D01*
X130155419Y-124627196D01*
X130150498Y-124616148D01*
X130145026Y-124605297D01*
X130139002Y-124594664D01*
X130132427Y-124584270D01*
X130125299Y-124574137D01*
X130117619Y-124564284D01*
X130109388Y-124554734D01*
X130100605Y-124545506D01*
X130091377Y-124536723D01*
X130081827Y-124528492D01*
X130071974Y-124520812D01*
X130061841Y-124513685D01*
X130051447Y-124507109D01*
X130040814Y-124501085D01*
X130029963Y-124495613D01*
X130018915Y-124490693D01*
X130007691Y-124486324D01*
X129996311Y-124482508D01*
X129984796Y-124479243D01*
X129973169Y-124476530D01*
X129961448Y-124474369D01*
X129949656Y-124472760D01*
X129937814Y-124471703D01*
X129925942Y-124471197D01*
X129914061Y-124471244D01*
X129902192Y-124471842D01*
X129890357Y-124472992D01*
X129878576Y-124474694D01*
X129866869Y-124476948D01*
X129855259Y-124479753D01*
X129843766Y-124483111D01*
X129832411Y-124487020D01*
X129821215Y-124491481D01*
X129810198Y-124496494D01*
X129799382Y-124502059D01*
X129788788Y-124508176D01*
X129778437Y-124514844D01*
X129768349Y-124522065D01*
X129758546Y-124529837D01*
X129749049Y-124538161D01*
X129748896Y-124538007D01*
X129741393Y-124545506D01*
X129178843Y-125108059D01*
X128616290Y-124545508D01*
X128616181Y-124545397D01*
X128616070Y-124545286D01*
X128608796Y-124538007D01*
X128608736Y-124538064D01*
X128608717Y-124538084D01*
X128608641Y-124538161D01*
X128599143Y-124529837D01*
X128589339Y-124522065D01*
X128579251Y-124514845D01*
X128568900Y-124508176D01*
X128558306Y-124502060D01*
X128547490Y-124496495D01*
X128536473Y-124491482D01*
X128525277Y-124487021D01*
X128513921Y-124483112D01*
X128502428Y-124479754D01*
X128490818Y-124476949D01*
X128479112Y-124474695D01*
X128467331Y-124472993D01*
X128455495Y-124471843D01*
X128443627Y-124471245D01*
X128431746Y-124471199D01*
X128419874Y-124471704D01*
X128408031Y-124472761D01*
X128396240Y-124474370D01*
X128384519Y-124476531D01*
X128372892Y-124479244D01*
X128361377Y-124482509D01*
X128349997Y-124486326D01*
X128338773Y-124490694D01*
X128327725Y-124495614D01*
X128316874Y-124501086D01*
X128306241Y-124507110D01*
X128295847Y-124513686D01*
X128285714Y-124520814D01*
X128275861Y-124528493D01*
X128266310Y-124536725D01*
X128257083Y-124545508D01*
X128248300Y-124554736D01*
X128240068Y-124564286D01*
X128232389Y-124574139D01*
X128225261Y-124584272D01*
X128218686Y-124594666D01*
X128212662Y-124605298D01*
X128207190Y-124616149D01*
X128202270Y-124627198D01*
X128197901Y-124638422D01*
X128194085Y-124649802D01*
X128190820Y-124661316D01*
X128188107Y-124672944D01*
X128185946Y-124684664D01*
X128184337Y-124696456D01*
X128183280Y-124708299D01*
X128182774Y-124720171D01*
X128182821Y-124732051D01*
X128183419Y-124743920D01*
X128184569Y-124755755D01*
X128186271Y-124767537D01*
X128188525Y-124779243D01*
X128191330Y-124790853D01*
X128194688Y-124802346D01*
X128198597Y-124813701D01*
X128203058Y-124824898D01*
X128208071Y-124835914D01*
X128213636Y-124846730D01*
X128219753Y-124857324D01*
X128226421Y-124867675D01*
X128233642Y-124877763D01*
X128241414Y-124887566D01*
X128249738Y-124897064D01*
X128249699Y-124897102D01*
X128249582Y-124897219D01*
X128257083Y-124904719D01*
X128819635Y-125467269D01*
X128257083Y-126029819D01*
X128249582Y-126037319D01*
X128249738Y-126037474D01*
X128241414Y-126046972D01*
X128233642Y-126056775D01*
X128226421Y-126066863D01*
X128219753Y-126077214D01*
X128213636Y-126087808D01*
X128208071Y-126098624D01*
X128203058Y-126109640D01*
X128198597Y-126120837D01*
X128194688Y-126132192D01*
X128191330Y-126143685D01*
X128188525Y-126155295D01*
X128186271Y-126167002D01*
X128184569Y-126178783D01*
X128183419Y-126190618D01*
X128182821Y-126202487D01*
X128182774Y-126214368D01*
X125904744Y-126214368D01*
X125905915Y-126210898D01*
X125961379Y-126061510D01*
X126021113Y-125914246D01*
X126085040Y-125769184D01*
X126153086Y-125626398D01*
X126225176Y-125485965D01*
X126301232Y-125347959D01*
X126381181Y-125212456D01*
X126464945Y-125079532D01*
X126552451Y-124949263D01*
X126446337Y-124863857D01*
X126345273Y-124772698D01*
X126249507Y-124676035D01*
X126159286Y-124574115D01*
X126074859Y-124467186D01*
X125996473Y-124355496D01*
X125924377Y-124239293D01*
X125858817Y-124118824D01*
X125800043Y-123994337D01*
X125748300Y-123866080D01*
X125703839Y-123734301D01*
X125666905Y-123599248D01*
X125637748Y-123461168D01*
X125616614Y-123320310D01*
X125603752Y-123176920D01*
X125599410Y-123031248D01*
X125602544Y-122907441D01*
X125611845Y-122785252D01*
X125627161Y-122664834D01*
X125648341Y-122546337D01*
X125675233Y-122429913D01*
X125707685Y-122315715D01*
X125745547Y-122203892D01*
X125788665Y-122094598D01*
X125836889Y-121987984D01*
X125890068Y-121884201D01*
X125948048Y-121783401D01*
X126010679Y-121685736D01*
X126077810Y-121591357D01*
X126149288Y-121500416D01*
X126224962Y-121413064D01*
X126304680Y-121329453D01*
X126388291Y-121249735D01*
X126475642Y-121174061D01*
X126566584Y-121102583D01*
X126660963Y-121035453D01*
X126758628Y-120972821D01*
X126859428Y-120914841D01*
X126963211Y-120861663D01*
X127069825Y-120813439D01*
X127179119Y-120770320D01*
X127290941Y-120732459D01*
X127405140Y-120700006D01*
X127521563Y-120673114D01*
X127640060Y-120651934D01*
X127760478Y-120636618D01*
X127882666Y-120627317D01*
X128006473Y-120624183D01*
X128118742Y-120626759D01*
X128229693Y-120634412D01*
X128339214Y-120647028D01*
X128447192Y-120664496D01*
X128553513Y-120686702D01*
X128658066Y-120713533D01*
X128760736Y-120744876D01*
X128861412Y-120780619D01*
X128959980Y-120820649D01*
X129056328Y-120864852D01*
X129150343Y-120913117D01*
X129241911Y-120965330D01*
X129330921Y-121021378D01*
X129417258Y-121081149D01*
X129500811Y-121144529D01*
X129581467Y-121211406D01*
X129659112Y-121281667D01*
X129733634Y-121355199D01*
X129804919Y-121431889D01*
X129872856Y-121511624D01*
X129937331Y-121594292D01*
X129998231Y-121679779D01*
X130055444Y-121767974D01*
X130108857Y-121858762D01*
X130158356Y-121952031D01*
X130203829Y-122047669D01*
X130245163Y-122145562D01*
X130282246Y-122245597D01*
X130314963Y-122347662D01*
X130343204Y-122451644D01*
X130366854Y-122557429D01*
X130385801Y-122664906D01*
X130457749Y-122657616D01*
X130529973Y-122651277D01*
X130602466Y-122645896D01*
X130675222Y-122641480D01*
X130748235Y-122638033D01*
X130821498Y-122635564D01*
X130895005Y-122634077D01*
X130968749Y-122633580D01*
X130968751Y-122633580D01*
X131047833Y-122634152D01*
X131126642Y-122635861D01*
X131205168Y-122638700D01*
X131283405Y-122642661D01*
X131361345Y-122647736D01*
X131438979Y-122653917D01*
X131516301Y-122661196D01*
X131593301Y-122669566D01*
X131613437Y-122563554D01*
X131638158Y-122459234D01*
X131667355Y-122356715D01*
X131700917Y-122256108D01*
X131738736Y-122157521D01*
X131780701Y-122061065D01*
X131826702Y-121966850D01*
X131876630Y-121874985D01*
X131930375Y-121785580D01*
X131987828Y-121698745D01*
X132048877Y-121614590D01*
X132113415Y-121533223D01*
X132181330Y-121454756D01*
X132252514Y-121379298D01*
X132326855Y-121306958D01*
X132404246Y-121237847D01*
X132484575Y-121172074D01*
X132567734Y-121109749D01*
X132653611Y-121050982D01*
X132742099Y-120995882D01*
X132833086Y-120944559D01*
X132926463Y-120897123D01*
X133022120Y-120853684D01*
X133119948Y-120814352D01*
X133219837Y-120779236D01*
X133321677Y-120748445D01*
X133425357Y-120722091D01*
X133530770Y-120700282D01*
X133637804Y-120683129D01*
X133746350Y-120670740D01*
X133856298Y-120663227D01*
X133967538Y-120660698D01*
X134091345Y-120663832D01*
X134213533Y-120673133D01*
X134333952Y-120688449D01*
X134452449Y-120709629D01*
X134568872Y-120736521D01*
X134683071Y-120768973D01*
X134794893Y-120806835D01*
X134904187Y-120849953D01*
X135010801Y-120898177D01*
X135114584Y-120951356D01*
X135215384Y-121009336D01*
X135313049Y-121071967D01*
X135407428Y-121139098D01*
X135498370Y-121210576D01*
X135585722Y-121286249D01*
X135669332Y-121365968D01*
X135749051Y-121449578D01*
X135824724Y-121536930D01*
X135896202Y-121627872D01*
X135963333Y-121722251D01*
X136025964Y-121819916D01*
X136083945Y-121920716D01*
X136137123Y-122024499D01*
X136185347Y-122131113D01*
X136228466Y-122240407D01*
X136266327Y-122352229D01*
X136298779Y-122466428D01*
X136325671Y-122582852D01*
X136346851Y-122701348D01*
X136362168Y-122821767D01*
X136371468Y-122943955D01*
X136374602Y-123067762D01*
X136374601Y-123067762D01*
X136370221Y-123214061D01*
X136357249Y-123358056D01*
X136335935Y-123499496D01*
X136306531Y-123638130D01*
X136269288Y-123773707D01*
X136224456Y-123905976D01*
X136172287Y-124034686D01*
X136113032Y-124159585D01*
X136046941Y-124280423D01*
X135974267Y-124396948D01*
X135895260Y-124508910D01*
X135810170Y-124616058D01*
X135719250Y-124718140D01*
X135622750Y-124814905D01*
X135520921Y-124906103D01*
X135414014Y-124991482D01*
X135498584Y-125119924D01*
X135579542Y-125250892D01*
X135656817Y-125384313D01*
X135701727Y-125467267D01*
X135730339Y-125520117D01*
X135800035Y-125658233D01*
X135865835Y-125798590D01*
X135927669Y-125941117D01*
X135985464Y-126085742D01*
X136039151Y-126232396D01*
X136088657Y-126381006D01*
X136133912Y-126531501D01*
X136174844Y-126683811D01*
X136211384Y-126837865D01*
X136243459Y-126993591D01*
X136270999Y-127150919D01*
X136293932Y-127309777D01*
X136456128Y-127092314D01*
X136609664Y-126868240D01*
X136754290Y-126637805D01*
X136889758Y-126401258D01*
X137015819Y-126158847D01*
X137132223Y-125910821D01*
X137238723Y-125657430D01*
X137335069Y-125398921D01*
X137421012Y-125135545D01*
X137496303Y-124867549D01*
X137560694Y-124595182D01*
X137613936Y-124318695D01*
X137655779Y-124038334D01*
X137685976Y-123754350D01*
X137704276Y-123466991D01*
X137710431Y-123176505D01*
X137701654Y-122829748D01*
X137675604Y-122487523D01*
X137632706Y-122150257D01*
X137573385Y-121818372D01*
X137498067Y-121492294D01*
X137407174Y-121172447D01*
X137301132Y-120859257D01*
X137180366Y-120553147D01*
X137045301Y-120254543D01*
X136896360Y-119963869D01*
X136733969Y-119681550D01*
X136558551Y-119408009D01*
X136370533Y-119143673D01*
X136170338Y-118888966D01*
X135958392Y-118644311D01*
X135735118Y-118410135D01*
X135500942Y-118186861D01*
X135256287Y-117974915D01*
X135001580Y-117774720D01*
X134737244Y-117586702D01*
X134463704Y-117411285D01*
X134181384Y-117248894D01*
X133890710Y-117099953D01*
X133592106Y-116964887D01*
X133285996Y-116844121D01*
X132972806Y-116738080D01*
X132652959Y-116647187D01*
X132326882Y-116571869D01*
X131994997Y-116512548D01*
X131657730Y-116469650D01*
X131315506Y-116443601D01*
X130968749Y-116434823D01*
X130621992Y-116443601D01*
X130279767Y-116469650D01*
X129942501Y-116512548D01*
X129610616Y-116571869D01*
X129284538Y-116647187D01*
X128964692Y-116738080D01*
X128651501Y-116844121D01*
X128345392Y-116964887D01*
X128046788Y-117099953D01*
X127756114Y-117248894D01*
X127473794Y-117411285D01*
X127200254Y-117586702D01*
X126935918Y-117774720D01*
X126681210Y-117974915D01*
X126436556Y-118186861D01*
X126202380Y-118410135D01*
X125979106Y-118644311D01*
X125767159Y-118888966D01*
X125566964Y-119143673D01*
X125378946Y-119408009D01*
X125203529Y-119681550D01*
X125041138Y-119963869D01*
X124892197Y-120254543D01*
X124757131Y-120553147D01*
X124636365Y-120859257D01*
X124530324Y-121172447D01*
X124439431Y-121492294D01*
X124364112Y-121818372D01*
X124304792Y-122150257D01*
X124261894Y-122487523D01*
X124235844Y-122829748D01*
X124227066Y-123176505D01*
X122865888Y-123176505D01*
X122865890Y-118353056D01*
X130968747Y-113674870D01*
X139071614Y-118353060D01*
X139071613Y-123176505D01*
X139071611Y-127709444D01*
X130968753Y-132387630D01*
G37*
X130968753Y-132387630D02*
X122865886Y-127709441D01*
X122865888Y-123176505D01*
X124227066Y-123176505D01*
X124233222Y-123466991D01*
X124251522Y-123754350D01*
X124281718Y-124038334D01*
X124323562Y-124318695D01*
X124376804Y-124595183D01*
X124441195Y-124867549D01*
X124516486Y-125135546D01*
X124602430Y-125398922D01*
X124698776Y-125657431D01*
X124805276Y-125910823D01*
X124921680Y-126158849D01*
X125047741Y-126401260D01*
X125183209Y-126637807D01*
X125327836Y-126868242D01*
X125481372Y-127092316D01*
X125643568Y-127309779D01*
X125667028Y-127147630D01*
X125695287Y-126987076D01*
X125728268Y-126828194D01*
X125765898Y-126671060D01*
X125808099Y-126515749D01*
X125854797Y-126362337D01*
X125904744Y-126214368D01*
X128182774Y-126214368D01*
X128183280Y-126226240D01*
X128184337Y-126238082D01*
X128185946Y-126249874D01*
X128188107Y-126261594D01*
X128190820Y-126273222D01*
X128194085Y-126284736D01*
X128197901Y-126296116D01*
X128202270Y-126307341D01*
X128207190Y-126318389D01*
X128212662Y-126329240D01*
X128218686Y-126339873D01*
X128225261Y-126350266D01*
X128232389Y-126360400D01*
X128240068Y-126370252D01*
X128248300Y-126379803D01*
X128257083Y-126389030D01*
X128266310Y-126397813D01*
X128275861Y-126406044D01*
X128285713Y-126413724D01*
X128295846Y-126420851D01*
X128306240Y-126427427D01*
X128316873Y-126433451D01*
X128327724Y-126438923D01*
X128338772Y-126443843D01*
X128349996Y-126448211D01*
X128361376Y-126452028D01*
X128372891Y-126455292D01*
X128384518Y-126458005D01*
X128396239Y-126460166D01*
X128408030Y-126461775D01*
X128419873Y-126462833D01*
X128431745Y-126463338D01*
X128443626Y-126463292D01*
X128455495Y-126462693D01*
X128467330Y-126461543D01*
X128479111Y-126459841D01*
X128490818Y-126457587D01*
X128502428Y-126454782D01*
X128513921Y-126451424D01*
X128525276Y-126447515D01*
X128536473Y-126443054D01*
X128547490Y-126438041D01*
X128558306Y-126432476D01*
X128568900Y-126426359D01*
X128579251Y-126419691D01*
X128589339Y-126412470D01*
X128599143Y-126404698D01*
X128608641Y-126396374D01*
X128608659Y-126396393D01*
X128608677Y-126396413D01*
X128608755Y-126396491D01*
X128608794Y-126396529D01*
X128616292Y-126389030D01*
X129178843Y-125826480D01*
X129748896Y-126396529D01*
X129748971Y-126396452D01*
X129749049Y-126396374D01*
X129758546Y-126404698D01*
X129768349Y-126412470D01*
X129778437Y-126419691D01*
X129788788Y-126426359D01*
X129799382Y-126432476D01*
X129810198Y-126438041D01*
X129821215Y-126443054D01*
X129832411Y-126447515D01*
X129843766Y-126451424D01*
X129855259Y-126454782D01*
X129866869Y-126457587D01*
X129878576Y-126459841D01*
X129890357Y-126461543D01*
X129902192Y-126462693D01*
X129914061Y-126463292D01*
X129925942Y-126463338D01*
X129937814Y-126462833D01*
X129949656Y-126461775D01*
X129961448Y-126460166D01*
X129973169Y-126458005D01*
X129984796Y-126455292D01*
X129996311Y-126452028D01*
X130007691Y-126448211D01*
X130018915Y-126443843D01*
X130029963Y-126438923D01*
X130040814Y-126433451D01*
X130051447Y-126427427D01*
X130061841Y-126420851D01*
X130071974Y-126413724D01*
X130081827Y-126406044D01*
X130091377Y-126397813D01*
X130100605Y-126389030D01*
X130109388Y-126379803D01*
X130117619Y-126370252D01*
X130125299Y-126360400D01*
X130132427Y-126350266D01*
X130139002Y-126339873D01*
X130145026Y-126329240D01*
X130150498Y-126318389D01*
X130155419Y-126307341D01*
X130159787Y-126296116D01*
X130163604Y-126284736D01*
X130166868Y-126273222D01*
X130169581Y-126261594D01*
X130171742Y-126249874D01*
X130173351Y-126238082D01*
X130174409Y-126226240D01*
X130174914Y-126214368D01*
X130174868Y-126202487D01*
X130174270Y-126190618D01*
X130173120Y-126178783D01*
X130171418Y-126167002D01*
X130169164Y-126155295D01*
X130166358Y-126143685D01*
X130163001Y-126132192D01*
X130159092Y-126120837D01*
X130154631Y-126109640D01*
X130149618Y-126098624D01*
X130144053Y-126087808D01*
X130137936Y-126077214D01*
X130131268Y-126066863D01*
X130124048Y-126056775D01*
X130116276Y-126046972D01*
X130107952Y-126037474D01*
X130108103Y-126037319D01*
X129538054Y-125467269D01*
X129538056Y-125467267D01*
X131455091Y-125467267D01*
X131455405Y-125480002D01*
X131456338Y-125492576D01*
X131457874Y-125504973D01*
X131460000Y-125517179D01*
X131462699Y-125529178D01*
X131465958Y-125540956D01*
X131469762Y-125552498D01*
X131474095Y-125563789D01*
X131478943Y-125574815D01*
X131484291Y-125585561D01*
X131490125Y-125596011D01*
X131496428Y-125606152D01*
X131503188Y-125615967D01*
X131510388Y-125625443D01*
X131518014Y-125634565D01*
X131526052Y-125643317D01*
X131534486Y-125651685D01*
X131543301Y-125659655D01*
X131552483Y-125667210D01*
X131562017Y-125674338D01*
X131571888Y-125681021D01*
X131582082Y-125687247D01*
X131592583Y-125693000D01*
X131603376Y-125698265D01*
X131614448Y-125703028D01*
X131625782Y-125707273D01*
X131637365Y-125710986D01*
X131649181Y-125714152D01*
X131661216Y-125716756D01*
X131673454Y-125718784D01*
X131685882Y-125720220D01*
X131698484Y-125721050D01*
X131698484Y-125721267D01*
X132504658Y-125721267D01*
X132504658Y-126527439D01*
X132504876Y-126527439D01*
X132505705Y-126540041D01*
X132507142Y-126552469D01*
X132509169Y-126564708D01*
X132511773Y-126576743D01*
X132514939Y-126588559D01*
X132518653Y-126600142D01*
X132522898Y-126611476D01*
X132527660Y-126622548D01*
X132532925Y-126633342D01*
X132538678Y-126643842D01*
X132544904Y-126654036D01*
X132551588Y-126663907D01*
X132558715Y-126673441D01*
X132566271Y-126682623D01*
X132574240Y-126691438D01*
X132582608Y-126699872D01*
X132591361Y-126707910D01*
X132600482Y-126715536D01*
X132609958Y-126722736D01*
X132619773Y-126729495D01*
X132629914Y-126735799D01*
X132640364Y-126741632D01*
X132651109Y-126746980D01*
X132662135Y-126751828D01*
X132673426Y-126756161D01*
X132684968Y-126759965D01*
X132696746Y-126763224D01*
X132708745Y-126765923D01*
X132720950Y-126768049D01*
X132733347Y-126769585D01*
X132745920Y-126770518D01*
X132758655Y-126770832D01*
X132771391Y-126770518D01*
X132783964Y-126769585D01*
X132796361Y-126768049D01*
X132808567Y-126765923D01*
X132820566Y-126763224D01*
X132832344Y-126759965D01*
X132843886Y-126756161D01*
X132855178Y-126751828D01*
X132866204Y-126746980D01*
X132876949Y-126741632D01*
X132887400Y-126735799D01*
X132897540Y-126729495D01*
X132907356Y-126722736D01*
X132916832Y-126715536D01*
X132925954Y-126707910D01*
X132934706Y-126699872D01*
X132943074Y-126691438D01*
X132951044Y-126682623D01*
X132958599Y-126673441D01*
X132965727Y-126663907D01*
X132972411Y-126654036D01*
X132978636Y-126643842D01*
X132984389Y-126633342D01*
X132989654Y-126622548D01*
X132994417Y-126611476D01*
X132998662Y-126600142D01*
X133002375Y-126588559D01*
X133005541Y-126576743D01*
X133008146Y-126564708D01*
X133010173Y-126552469D01*
X133011609Y-126540041D01*
X133012439Y-126527439D01*
X133012654Y-126527439D01*
X133012654Y-125721267D01*
X133818829Y-125721267D01*
X133818829Y-125721050D01*
X133831431Y-125720220D01*
X133843858Y-125718784D01*
X133856097Y-125716756D01*
X133868131Y-125714152D01*
X133879948Y-125710986D01*
X133891530Y-125707273D01*
X133902865Y-125703028D01*
X133913936Y-125698265D01*
X133924730Y-125693000D01*
X133935231Y-125687247D01*
X133945424Y-125681021D01*
X133955295Y-125674338D01*
X133964830Y-125667210D01*
X133974012Y-125659655D01*
X133982827Y-125651685D01*
X133991261Y-125643317D01*
X133999298Y-125634565D01*
X134006924Y-125625443D01*
X134014125Y-125615967D01*
X134020884Y-125606152D01*
X134027188Y-125596011D01*
X134033021Y-125585561D01*
X134038369Y-125574815D01*
X134043217Y-125563789D01*
X134047551Y-125552498D01*
X134051354Y-125540956D01*
X134054613Y-125529178D01*
X134057313Y-125517179D01*
X134059438Y-125504973D01*
X134060975Y-125492576D01*
X134061908Y-125480002D01*
X134062222Y-125467267D01*
X134061908Y-125454532D01*
X134060975Y-125441958D01*
X134059438Y-125429561D01*
X134057313Y-125417356D01*
X134054613Y-125405357D01*
X134051354Y-125393579D01*
X134047551Y-125382037D01*
X134043218Y-125370746D01*
X134038370Y-125359720D01*
X134033022Y-125348974D01*
X134027188Y-125338524D01*
X134020885Y-125328384D01*
X134014125Y-125318568D01*
X134006925Y-125309092D01*
X133999299Y-125299971D01*
X133991262Y-125291219D01*
X133982828Y-125282850D01*
X133974013Y-125274881D01*
X133964831Y-125267325D01*
X133955297Y-125260198D01*
X133945425Y-125253514D01*
X133935232Y-125247289D01*
X133924731Y-125241536D01*
X133913937Y-125236271D01*
X133902866Y-125231508D01*
X133891531Y-125227263D01*
X133879948Y-125223550D01*
X133868132Y-125220384D01*
X133856097Y-125217780D01*
X133843859Y-125215752D01*
X133831431Y-125214316D01*
X133818829Y-125213486D01*
X133818829Y-125213269D01*
X133012654Y-125213269D01*
X133012654Y-124407094D01*
X133012439Y-124407094D01*
X133011609Y-124394492D01*
X133010173Y-124382065D01*
X133008146Y-124369826D01*
X133005541Y-124357792D01*
X133002375Y-124345975D01*
X132998662Y-124334393D01*
X132994417Y-124323058D01*
X132989654Y-124311987D01*
X132984389Y-124301193D01*
X132978636Y-124290692D01*
X132972411Y-124280498D01*
X132965727Y-124270627D01*
X132958599Y-124261093D01*
X132951044Y-124251911D01*
X132943074Y-124243096D01*
X132934706Y-124234662D01*
X132925954Y-124226624D01*
X132916832Y-124218998D01*
X132907356Y-124211798D01*
X132897540Y-124205038D01*
X132887400Y-124198734D01*
X132876949Y-124192901D01*
X132866204Y-124187553D01*
X132855178Y-124182705D01*
X132843886Y-124178371D01*
X132832344Y-124174568D01*
X132820566Y-124171309D01*
X132808567Y-124168609D01*
X132796361Y-124166484D01*
X132783964Y-124164947D01*
X132771391Y-124164014D01*
X132758655Y-124163700D01*
X132745920Y-124164014D01*
X132733347Y-124164947D01*
X132720950Y-124166484D01*
X132708745Y-124168609D01*
X132696746Y-124171309D01*
X132684968Y-124174568D01*
X132673426Y-124178371D01*
X132662135Y-124182705D01*
X132651109Y-124187553D01*
X132640363Y-124192901D01*
X132629913Y-124198734D01*
X132619773Y-124205038D01*
X132609957Y-124211798D01*
X132600481Y-124218998D01*
X132591360Y-124226624D01*
X132582607Y-124234662D01*
X132574239Y-124243096D01*
X132566269Y-124251911D01*
X132558714Y-124261093D01*
X132551586Y-124270627D01*
X132544902Y-124280498D01*
X132538677Y-124290692D01*
X132532924Y-124301193D01*
X132527658Y-124311987D01*
X132522896Y-124323058D01*
X132518650Y-124334393D01*
X132514937Y-124345975D01*
X132511771Y-124357792D01*
X132509167Y-124369826D01*
X132507139Y-124382065D01*
X132505703Y-124394492D01*
X132504873Y-124407094D01*
X132504658Y-124407094D01*
X132504658Y-125213271D01*
X131708776Y-125213271D01*
X131698484Y-125213269D01*
X131698484Y-125213484D01*
X131685882Y-125214314D01*
X131673454Y-125215750D01*
X131661216Y-125217777D01*
X131649181Y-125220382D01*
X131637365Y-125223548D01*
X131625782Y-125227261D01*
X131614448Y-125231506D01*
X131603376Y-125236268D01*
X131592583Y-125241534D01*
X131582082Y-125247286D01*
X131571888Y-125253512D01*
X131562017Y-125260196D01*
X131552483Y-125267323D01*
X131543301Y-125274879D01*
X131534486Y-125282848D01*
X131526052Y-125291217D01*
X131518014Y-125299969D01*
X131510388Y-125309090D01*
X131503188Y-125318566D01*
X131496428Y-125328382D01*
X131490125Y-125338522D01*
X131484291Y-125348973D01*
X131478943Y-125359718D01*
X131474095Y-125370744D01*
X131469762Y-125382036D01*
X131465958Y-125393578D01*
X131462699Y-125405356D01*
X131460000Y-125417355D01*
X131457874Y-125429561D01*
X131456338Y-125441958D01*
X131455405Y-125454531D01*
X131455091Y-125467267D01*
X129538056Y-125467267D01*
X130100605Y-124904716D01*
X130108105Y-124897217D01*
X130107952Y-124897064D01*
X130116276Y-124887566D01*
X130124048Y-124877763D01*
X130131268Y-124867675D01*
X130137936Y-124857323D01*
X130144053Y-124846729D01*
X130149618Y-124835913D01*
X130154631Y-124824897D01*
X130159092Y-124813700D01*
X130163001Y-124802345D01*
X130166358Y-124790852D01*
X130169164Y-124779242D01*
X130171418Y-124767536D01*
X130173120Y-124755754D01*
X130174270Y-124743919D01*
X130174868Y-124732050D01*
X130174914Y-124720169D01*
X130174409Y-124708297D01*
X130173351Y-124696455D01*
X130171742Y-124684663D01*
X130169581Y-124672943D01*
X130166868Y-124661315D01*
X130163604Y-124649801D01*
X130159787Y-124638421D01*
X130155419Y-124627196D01*
X130150498Y-124616148D01*
X130145026Y-124605297D01*
X130139002Y-124594664D01*
X130132427Y-124584270D01*
X130125299Y-124574137D01*
X130117619Y-124564284D01*
X130109388Y-124554734D01*
X130100605Y-124545506D01*
X130091377Y-124536723D01*
X130081827Y-124528492D01*
X130071974Y-124520812D01*
X130061841Y-124513685D01*
X130051447Y-124507109D01*
X130040814Y-124501085D01*
X130029963Y-124495613D01*
X130018915Y-124490693D01*
X130007691Y-124486324D01*
X129996311Y-124482508D01*
X129984796Y-124479243D01*
X129973169Y-124476530D01*
X129961448Y-124474369D01*
X129949656Y-124472760D01*
X129937814Y-124471703D01*
X129925942Y-124471197D01*
X129914061Y-124471244D01*
X129902192Y-124471842D01*
X129890357Y-124472992D01*
X129878576Y-124474694D01*
X129866869Y-124476948D01*
X129855259Y-124479753D01*
X129843766Y-124483111D01*
X129832411Y-124487020D01*
X129821215Y-124491481D01*
X129810198Y-124496494D01*
X129799382Y-124502059D01*
X129788788Y-124508176D01*
X129778437Y-124514844D01*
X129768349Y-124522065D01*
X129758546Y-124529837D01*
X129749049Y-124538161D01*
X129748896Y-124538007D01*
X129741393Y-124545506D01*
X129178843Y-125108059D01*
X128616290Y-124545508D01*
X128616181Y-124545397D01*
X128616070Y-124545286D01*
X128608796Y-124538007D01*
X128608736Y-124538064D01*
X128608717Y-124538084D01*
X128608641Y-124538161D01*
X128599143Y-124529837D01*
X128589339Y-124522065D01*
X128579251Y-124514845D01*
X128568900Y-124508176D01*
X128558306Y-124502060D01*
X128547490Y-124496495D01*
X128536473Y-124491482D01*
X128525277Y-124487021D01*
X128513921Y-124483112D01*
X128502428Y-124479754D01*
X128490818Y-124476949D01*
X128479112Y-124474695D01*
X128467331Y-124472993D01*
X128455495Y-124471843D01*
X128443627Y-124471245D01*
X128431746Y-124471199D01*
X128419874Y-124471704D01*
X128408031Y-124472761D01*
X128396240Y-124474370D01*
X128384519Y-124476531D01*
X128372892Y-124479244D01*
X128361377Y-124482509D01*
X128349997Y-124486326D01*
X128338773Y-124490694D01*
X128327725Y-124495614D01*
X128316874Y-124501086D01*
X128306241Y-124507110D01*
X128295847Y-124513686D01*
X128285714Y-124520814D01*
X128275861Y-124528493D01*
X128266310Y-124536725D01*
X128257083Y-124545508D01*
X128248300Y-124554736D01*
X128240068Y-124564286D01*
X128232389Y-124574139D01*
X128225261Y-124584272D01*
X128218686Y-124594666D01*
X128212662Y-124605298D01*
X128207190Y-124616149D01*
X128202270Y-124627198D01*
X128197901Y-124638422D01*
X128194085Y-124649802D01*
X128190820Y-124661316D01*
X128188107Y-124672944D01*
X128185946Y-124684664D01*
X128184337Y-124696456D01*
X128183280Y-124708299D01*
X128182774Y-124720171D01*
X128182821Y-124732051D01*
X128183419Y-124743920D01*
X128184569Y-124755755D01*
X128186271Y-124767537D01*
X128188525Y-124779243D01*
X128191330Y-124790853D01*
X128194688Y-124802346D01*
X128198597Y-124813701D01*
X128203058Y-124824898D01*
X128208071Y-124835914D01*
X128213636Y-124846730D01*
X128219753Y-124857324D01*
X128226421Y-124867675D01*
X128233642Y-124877763D01*
X128241414Y-124887566D01*
X128249738Y-124897064D01*
X128249699Y-124897102D01*
X128249582Y-124897219D01*
X128257083Y-124904719D01*
X128819635Y-125467269D01*
X128257083Y-126029819D01*
X128249582Y-126037319D01*
X128249738Y-126037474D01*
X128241414Y-126046972D01*
X128233642Y-126056775D01*
X128226421Y-126066863D01*
X128219753Y-126077214D01*
X128213636Y-126087808D01*
X128208071Y-126098624D01*
X128203058Y-126109640D01*
X128198597Y-126120837D01*
X128194688Y-126132192D01*
X128191330Y-126143685D01*
X128188525Y-126155295D01*
X128186271Y-126167002D01*
X128184569Y-126178783D01*
X128183419Y-126190618D01*
X128182821Y-126202487D01*
X128182774Y-126214368D01*
X125904744Y-126214368D01*
X125905915Y-126210898D01*
X125961379Y-126061510D01*
X126021113Y-125914246D01*
X126085040Y-125769184D01*
X126153086Y-125626398D01*
X126225176Y-125485965D01*
X126301232Y-125347959D01*
X126381181Y-125212456D01*
X126464945Y-125079532D01*
X126552451Y-124949263D01*
X126446337Y-124863857D01*
X126345273Y-124772698D01*
X126249507Y-124676035D01*
X126159286Y-124574115D01*
X126074859Y-124467186D01*
X125996473Y-124355496D01*
X125924377Y-124239293D01*
X125858817Y-124118824D01*
X125800043Y-123994337D01*
X125748300Y-123866080D01*
X125703839Y-123734301D01*
X125666905Y-123599248D01*
X125637748Y-123461168D01*
X125616614Y-123320310D01*
X125603752Y-123176920D01*
X125599410Y-123031248D01*
X125602544Y-122907441D01*
X125611845Y-122785252D01*
X125627161Y-122664834D01*
X125648341Y-122546337D01*
X125675233Y-122429913D01*
X125707685Y-122315715D01*
X125745547Y-122203892D01*
X125788665Y-122094598D01*
X125836889Y-121987984D01*
X125890068Y-121884201D01*
X125948048Y-121783401D01*
X126010679Y-121685736D01*
X126077810Y-121591357D01*
X126149288Y-121500416D01*
X126224962Y-121413064D01*
X126304680Y-121329453D01*
X126388291Y-121249735D01*
X126475642Y-121174061D01*
X126566584Y-121102583D01*
X126660963Y-121035453D01*
X126758628Y-120972821D01*
X126859428Y-120914841D01*
X126963211Y-120861663D01*
X127069825Y-120813439D01*
X127179119Y-120770320D01*
X127290941Y-120732459D01*
X127405140Y-120700006D01*
X127521563Y-120673114D01*
X127640060Y-120651934D01*
X127760478Y-120636618D01*
X127882666Y-120627317D01*
X128006473Y-120624183D01*
X128118742Y-120626759D01*
X128229693Y-120634412D01*
X128339214Y-120647028D01*
X128447192Y-120664496D01*
X128553513Y-120686702D01*
X128658066Y-120713533D01*
X128760736Y-120744876D01*
X128861412Y-120780619D01*
X128959980Y-120820649D01*
X129056328Y-120864852D01*
X129150343Y-120913117D01*
X129241911Y-120965330D01*
X129330921Y-121021378D01*
X129417258Y-121081149D01*
X129500811Y-121144529D01*
X129581467Y-121211406D01*
X129659112Y-121281667D01*
X129733634Y-121355199D01*
X129804919Y-121431889D01*
X129872856Y-121511624D01*
X129937331Y-121594292D01*
X129998231Y-121679779D01*
X130055444Y-121767974D01*
X130108857Y-121858762D01*
X130158356Y-121952031D01*
X130203829Y-122047669D01*
X130245163Y-122145562D01*
X130282246Y-122245597D01*
X130314963Y-122347662D01*
X130343204Y-122451644D01*
X130366854Y-122557429D01*
X130385801Y-122664906D01*
X130457749Y-122657616D01*
X130529973Y-122651277D01*
X130602466Y-122645896D01*
X130675222Y-122641480D01*
X130748235Y-122638033D01*
X130821498Y-122635564D01*
X130895005Y-122634077D01*
X130968749Y-122633580D01*
X130968751Y-122633580D01*
X131047833Y-122634152D01*
X131126642Y-122635861D01*
X131205168Y-122638700D01*
X131283405Y-122642661D01*
X131361345Y-122647736D01*
X131438979Y-122653917D01*
X131516301Y-122661196D01*
X131593301Y-122669566D01*
X131613437Y-122563554D01*
X131638158Y-122459234D01*
X131667355Y-122356715D01*
X131700917Y-122256108D01*
X131738736Y-122157521D01*
X131780701Y-122061065D01*
X131826702Y-121966850D01*
X131876630Y-121874985D01*
X131930375Y-121785580D01*
X131987828Y-121698745D01*
X132048877Y-121614590D01*
X132113415Y-121533223D01*
X132181330Y-121454756D01*
X132252514Y-121379298D01*
X132326855Y-121306958D01*
X132404246Y-121237847D01*
X132484575Y-121172074D01*
X132567734Y-121109749D01*
X132653611Y-121050982D01*
X132742099Y-120995882D01*
X132833086Y-120944559D01*
X132926463Y-120897123D01*
X133022120Y-120853684D01*
X133119948Y-120814352D01*
X133219837Y-120779236D01*
X133321677Y-120748445D01*
X133425357Y-120722091D01*
X133530770Y-120700282D01*
X133637804Y-120683129D01*
X133746350Y-120670740D01*
X133856298Y-120663227D01*
X133967538Y-120660698D01*
X134091345Y-120663832D01*
X134213533Y-120673133D01*
X134333952Y-120688449D01*
X134452449Y-120709629D01*
X134568872Y-120736521D01*
X134683071Y-120768973D01*
X134794893Y-120806835D01*
X134904187Y-120849953D01*
X135010801Y-120898177D01*
X135114584Y-120951356D01*
X135215384Y-121009336D01*
X135313049Y-121071967D01*
X135407428Y-121139098D01*
X135498370Y-121210576D01*
X135585722Y-121286249D01*
X135669332Y-121365968D01*
X135749051Y-121449578D01*
X135824724Y-121536930D01*
X135896202Y-121627872D01*
X135963333Y-121722251D01*
X136025964Y-121819916D01*
X136083945Y-121920716D01*
X136137123Y-122024499D01*
X136185347Y-122131113D01*
X136228466Y-122240407D01*
X136266327Y-122352229D01*
X136298779Y-122466428D01*
X136325671Y-122582852D01*
X136346851Y-122701348D01*
X136362168Y-122821767D01*
X136371468Y-122943955D01*
X136374602Y-123067762D01*
X136374601Y-123067762D01*
X136370221Y-123214061D01*
X136357249Y-123358056D01*
X136335935Y-123499496D01*
X136306531Y-123638130D01*
X136269288Y-123773707D01*
X136224456Y-123905976D01*
X136172287Y-124034686D01*
X136113032Y-124159585D01*
X136046941Y-124280423D01*
X135974267Y-124396948D01*
X135895260Y-124508910D01*
X135810170Y-124616058D01*
X135719250Y-124718140D01*
X135622750Y-124814905D01*
X135520921Y-124906103D01*
X135414014Y-124991482D01*
X135498584Y-125119924D01*
X135579542Y-125250892D01*
X135656817Y-125384313D01*
X135701727Y-125467267D01*
X135730339Y-125520117D01*
X135800035Y-125658233D01*
X135865835Y-125798590D01*
X135927669Y-125941117D01*
X135985464Y-126085742D01*
X136039151Y-126232396D01*
X136088657Y-126381006D01*
X136133912Y-126531501D01*
X136174844Y-126683811D01*
X136211384Y-126837865D01*
X136243459Y-126993591D01*
X136270999Y-127150919D01*
X136293932Y-127309777D01*
X136456128Y-127092314D01*
X136609664Y-126868240D01*
X136754290Y-126637805D01*
X136889758Y-126401258D01*
X137015819Y-126158847D01*
X137132223Y-125910821D01*
X137238723Y-125657430D01*
X137335069Y-125398921D01*
X137421012Y-125135545D01*
X137496303Y-124867549D01*
X137560694Y-124595182D01*
X137613936Y-124318695D01*
X137655779Y-124038334D01*
X137685976Y-123754350D01*
X137704276Y-123466991D01*
X137710431Y-123176505D01*
X137701654Y-122829748D01*
X137675604Y-122487523D01*
X137632706Y-122150257D01*
X137573385Y-121818372D01*
X137498067Y-121492294D01*
X137407174Y-121172447D01*
X137301132Y-120859257D01*
X137180366Y-120553147D01*
X137045301Y-120254543D01*
X136896360Y-119963869D01*
X136733969Y-119681550D01*
X136558551Y-119408009D01*
X136370533Y-119143673D01*
X136170338Y-118888966D01*
X135958392Y-118644311D01*
X135735118Y-118410135D01*
X135500942Y-118186861D01*
X135256287Y-117974915D01*
X135001580Y-117774720D01*
X134737244Y-117586702D01*
X134463704Y-117411285D01*
X134181384Y-117248894D01*
X133890710Y-117099953D01*
X133592106Y-116964887D01*
X133285996Y-116844121D01*
X132972806Y-116738080D01*
X132652959Y-116647187D01*
X132326882Y-116571869D01*
X131994997Y-116512548D01*
X131657730Y-116469650D01*
X131315506Y-116443601D01*
X130968749Y-116434823D01*
X130621992Y-116443601D01*
X130279767Y-116469650D01*
X129942501Y-116512548D01*
X129610616Y-116571869D01*
X129284538Y-116647187D01*
X128964692Y-116738080D01*
X128651501Y-116844121D01*
X128345392Y-116964887D01*
X128046788Y-117099953D01*
X127756114Y-117248894D01*
X127473794Y-117411285D01*
X127200254Y-117586702D01*
X126935918Y-117774720D01*
X126681210Y-117974915D01*
X126436556Y-118186861D01*
X126202380Y-118410135D01*
X125979106Y-118644311D01*
X125767159Y-118888966D01*
X125566964Y-119143673D01*
X125378946Y-119408009D01*
X125203529Y-119681550D01*
X125041138Y-119963869D01*
X124892197Y-120254543D01*
X124757131Y-120553147D01*
X124636365Y-120859257D01*
X124530324Y-121172447D01*
X124439431Y-121492294D01*
X124364112Y-121818372D01*
X124304792Y-122150257D01*
X124261894Y-122487523D01*
X124235844Y-122829748D01*
X124227066Y-123176505D01*
X122865888Y-123176505D01*
X122865890Y-118353056D01*
X130968747Y-113674870D01*
X139071614Y-118353060D01*
X139071613Y-123176505D01*
X139071611Y-127709444D01*
X130968753Y-132387630D01*
D11*
X148209226Y-118836309D02*
X152209226Y-118836309D01*
X149733035Y-118455357D02*
X148209226Y-117312500D01*
X150875892Y-117312500D02*
X149352083Y-118836309D01*
X150875892Y-115598214D02*
X148209226Y-115598214D01*
X150494940Y-115598214D02*
X150685416Y-115407738D01*
X150875892Y-115026785D01*
X150875892Y-114455357D01*
X150685416Y-114074404D01*
X150304464Y-113883928D01*
X148209226Y-113883928D01*
X148209226Y-111979166D02*
X152209226Y-111979166D01*
X148209226Y-110264880D02*
X150304464Y-110264880D01*
X150685416Y-110455357D01*
X150875892Y-110836309D01*
X150875892Y-111407738D01*
X150685416Y-111788690D01*
X150494940Y-111979166D01*
X148209226Y-107788690D02*
X148399702Y-108169642D01*
X148590178Y-108360119D01*
X148971130Y-108550595D01*
X150113988Y-108550595D01*
X150494940Y-108360119D01*
X150685416Y-108169642D01*
X150875892Y-107788690D01*
X150875892Y-107217261D01*
X150685416Y-106836309D01*
X150494940Y-106645833D01*
X150113988Y-106455357D01*
X148971130Y-106455357D01*
X148590178Y-106645833D01*
X148399702Y-106836309D01*
X148209226Y-107217261D01*
X148209226Y-107788690D01*
X150875892Y-103026785D02*
X148209226Y-103026785D01*
X150875892Y-104741071D02*
X148780654Y-104741071D01*
X148399702Y-104550595D01*
X148209226Y-104169642D01*
X148209226Y-103598214D01*
X148399702Y-103217261D01*
X148590178Y-103026785D01*
X148209226Y-100550595D02*
X148399702Y-100931547D01*
X148780654Y-101122023D01*
X152209226Y-101122023D01*
X148399702Y-99217261D02*
X148209226Y-98836309D01*
X148209226Y-98074404D01*
X148399702Y-97693452D01*
X148780654Y-97502976D01*
X148971130Y-97502976D01*
X149352083Y-97693452D01*
X149542559Y-98074404D01*
X149542559Y-98645833D01*
X149733035Y-99026785D01*
X150113988Y-99217261D01*
X150304464Y-99217261D01*
X150685416Y-99026785D01*
X150875892Y-98645833D01*
X150875892Y-98074404D01*
X150685416Y-97693452D01*
X148209226Y-91026785D02*
X150304464Y-91026785D01*
X150685416Y-91217261D01*
X150875892Y-91598214D01*
X150875892Y-92360119D01*
X150685416Y-92741071D01*
X148399702Y-91026785D02*
X148209226Y-91407738D01*
X148209226Y-92360119D01*
X148399702Y-92741071D01*
X148780654Y-92931547D01*
X149161607Y-92931547D01*
X149542559Y-92741071D01*
X149733035Y-92360119D01*
X149733035Y-91407738D01*
X149923511Y-91026785D01*
X150875892Y-89122023D02*
X148209226Y-89122023D01*
X150494940Y-89122023D02*
X150685416Y-88931547D01*
X150875892Y-88550595D01*
X150875892Y-87979166D01*
X150685416Y-87598214D01*
X150304464Y-87407738D01*
X148209226Y-87407738D01*
X148209226Y-83788690D02*
X152209226Y-83788690D01*
X148399702Y-83788690D02*
X148209226Y-84169642D01*
X148209226Y-84931547D01*
X148399702Y-85312500D01*
X148590178Y-85502976D01*
X148971130Y-85693452D01*
X150113988Y-85693452D01*
X150494940Y-85502976D01*
X150685416Y-85312500D01*
X150875892Y-84931547D01*
X150875892Y-84169642D01*
X150685416Y-83788690D01*
X148209226Y-78836309D02*
X152209226Y-78836309D01*
X149733035Y-78455357D02*
X148209226Y-77312500D01*
X150875892Y-77312500D02*
X149352083Y-78836309D01*
X150875892Y-75598214D02*
X148209226Y-75598214D01*
X150494940Y-75598214D02*
X150685416Y-75407738D01*
X150875892Y-75026785D01*
X150875892Y-74455357D01*
X150685416Y-74074404D01*
X150304464Y-73883928D01*
X148209226Y-73883928D01*
X148209226Y-71407738D02*
X148399702Y-71788690D01*
X148590178Y-71979166D01*
X148971130Y-72169642D01*
X150113988Y-72169642D01*
X150494940Y-71979166D01*
X150685416Y-71788690D01*
X150875892Y-71407738D01*
X150875892Y-70836309D01*
X150685416Y-70455357D01*
X150494940Y-70264880D01*
X150113988Y-70074404D01*
X148971130Y-70074404D01*
X148590178Y-70264880D01*
X148399702Y-70455357D01*
X148209226Y-70836309D01*
X148209226Y-71407738D01*
X148209226Y-68360119D02*
X152209226Y-68360119D01*
X150685416Y-68360119D02*
X150875892Y-67979166D01*
X150875892Y-67217261D01*
X150685416Y-66836309D01*
X150494940Y-66645833D01*
X150113988Y-66455357D01*
X148971130Y-66455357D01*
X148590178Y-66645833D01*
X148399702Y-66836309D01*
X148209226Y-67217261D01*
X148209226Y-67979166D01*
X148399702Y-68360119D01*
X148209226Y-64169642D02*
X148399702Y-64550595D01*
X148780654Y-64741071D01*
X152209226Y-64741071D01*
X148209226Y-62645833D02*
X150875892Y-62645833D01*
X152209226Y-62645833D02*
X152018750Y-62836309D01*
X151828273Y-62645833D01*
X152018750Y-62455357D01*
X152209226Y-62645833D01*
X151828273Y-62645833D01*
X150875892Y-60741071D02*
X148209226Y-60741071D01*
X150494940Y-60741071D02*
X150685416Y-60550595D01*
X150875892Y-60169642D01*
X150875892Y-59598214D01*
X150685416Y-59217261D01*
X150304464Y-59026785D01*
X148209226Y-59026785D01*
X148399702Y-57312500D02*
X148209226Y-56931547D01*
X148209226Y-56169642D01*
X148399702Y-55788690D01*
X148780654Y-55598214D01*
X148971130Y-55598214D01*
X149352083Y-55788690D01*
X149542559Y-56169642D01*
X149542559Y-56741071D01*
X149733035Y-57122023D01*
X150113988Y-57312500D01*
X150304464Y-57312500D01*
X150685416Y-57122023D01*
X150875892Y-56741071D01*
X150875892Y-56169642D01*
X150685416Y-55788690D01*
D12*
X149764285Y-126851071D02*
X149764285Y-125351071D01*
X149621428Y-126279642D02*
X149192857Y-126851071D01*
X149192857Y-125851071D02*
X149764285Y-126422500D01*
X148550000Y-125851071D02*
X148550000Y-126851071D01*
X148550000Y-125993928D02*
X148478571Y-125922500D01*
X148335714Y-125851071D01*
X148121428Y-125851071D01*
X147978571Y-125922500D01*
X147907142Y-126065357D01*
X147907142Y-126851071D01*
X146978571Y-126851071D02*
X147121428Y-126779642D01*
X147192857Y-126708214D01*
X147264285Y-126565357D01*
X147264285Y-126136785D01*
X147192857Y-125993928D01*
X147121428Y-125922500D01*
X146978571Y-125851071D01*
X146764285Y-125851071D01*
X146621428Y-125922500D01*
X146550000Y-125993928D01*
X146478571Y-126136785D01*
X146478571Y-126565357D01*
X146550000Y-126708214D01*
X146621428Y-126779642D01*
X146764285Y-126851071D01*
X146978571Y-126851071D01*
X145835714Y-126851071D02*
X145835714Y-125351071D01*
X145835714Y-125922500D02*
X145692857Y-125851071D01*
X145407142Y-125851071D01*
X145264285Y-125922500D01*
X145192857Y-125993928D01*
X145121428Y-126136785D01*
X145121428Y-126565357D01*
X145192857Y-126708214D01*
X145264285Y-126779642D01*
X145407142Y-126851071D01*
X145692857Y-126851071D01*
X145835714Y-126779642D01*
X144264285Y-126851071D02*
X144407142Y-126779642D01*
X144478571Y-126636785D01*
X144478571Y-125351071D01*
X143692857Y-126851071D02*
X143692857Y-125851071D01*
X143692857Y-125351071D02*
X143764285Y-125422500D01*
X143692857Y-125493928D01*
X143621428Y-125422500D01*
X143692857Y-125351071D01*
X143692857Y-125493928D01*
X142978571Y-125851071D02*
X142978571Y-126851071D01*
X142978571Y-125993928D02*
X142907142Y-125922500D01*
X142764285Y-125851071D01*
X142550000Y-125851071D01*
X142407142Y-125922500D01*
X142335714Y-126065357D01*
X142335714Y-126851071D01*
X148192857Y-128266071D02*
X147835714Y-129266071D01*
X147478571Y-128266071D01*
X146621428Y-127766071D02*
X146478571Y-127766071D01*
X146335714Y-127837500D01*
X146264285Y-127908928D01*
X146192857Y-128051785D01*
X146121428Y-128337500D01*
X146121428Y-128694642D01*
X146192857Y-128980357D01*
X146264285Y-129123214D01*
X146335714Y-129194642D01*
X146478571Y-129266071D01*
X146621428Y-129266071D01*
X146764285Y-129194642D01*
X146835714Y-129123214D01*
X146907142Y-128980357D01*
X146978571Y-128694642D01*
X146978571Y-128337500D01*
X146907142Y-128051785D01*
X146835714Y-127908928D01*
X146764285Y-127837500D01*
X146621428Y-127766071D01*
X145478571Y-129123214D02*
X145407142Y-129194642D01*
X145478571Y-129266071D01*
X145550000Y-129194642D01*
X145478571Y-129123214D01*
X145478571Y-129266071D01*
X144478571Y-127766071D02*
X144335714Y-127766071D01*
X144192857Y-127837500D01*
X144121428Y-127908928D01*
X144050000Y-128051785D01*
X143978571Y-128337500D01*
X143978571Y-128694642D01*
X144050000Y-128980357D01*
X144121428Y-129123214D01*
X144192857Y-129194642D01*
X144335714Y-129266071D01*
X144478571Y-129266071D01*
X144621428Y-129194642D01*
X144692857Y-129123214D01*
X144764285Y-128980357D01*
X144835714Y-128694642D01*
X144835714Y-128337500D01*
X144764285Y-128051785D01*
X144692857Y-127908928D01*
X144621428Y-127837500D01*
X144478571Y-127766071D01*
X152728571Y-131681071D02*
X152728571Y-130181071D01*
X152728571Y-130752500D02*
X152585714Y-130681071D01*
X152300000Y-130681071D01*
X152157142Y-130752500D01*
X152085714Y-130823928D01*
X152014285Y-130966785D01*
X152014285Y-131395357D01*
X152085714Y-131538214D01*
X152157142Y-131609642D01*
X152300000Y-131681071D01*
X152585714Y-131681071D01*
X152728571Y-131609642D01*
X151514285Y-130681071D02*
X151157142Y-131681071D01*
X150800000Y-130681071D02*
X151157142Y-131681071D01*
X151300000Y-132038214D01*
X151371428Y-132109642D01*
X151514285Y-132181071D01*
X149157142Y-131609642D02*
X149014285Y-131681071D01*
X148728571Y-131681071D01*
X148585714Y-131609642D01*
X148514285Y-131466785D01*
X148514285Y-131395357D01*
X148585714Y-131252500D01*
X148728571Y-131181071D01*
X148942857Y-131181071D01*
X149085714Y-131109642D01*
X149157142Y-130966785D01*
X149157142Y-130895357D01*
X149085714Y-130752500D01*
X148942857Y-130681071D01*
X148728571Y-130681071D01*
X148585714Y-130752500D01*
X147871428Y-130681071D02*
X147871428Y-132181071D01*
X147871428Y-130752500D02*
X147728571Y-130681071D01*
X147442857Y-130681071D01*
X147300000Y-130752500D01*
X147228571Y-130823928D01*
X147157142Y-130966785D01*
X147157142Y-131395357D01*
X147228571Y-131538214D01*
X147300000Y-131609642D01*
X147442857Y-131681071D01*
X147728571Y-131681071D01*
X147871428Y-131609642D01*
X146300000Y-131681071D02*
X146442857Y-131609642D01*
X146514285Y-131538214D01*
X146585714Y-131395357D01*
X146585714Y-130966785D01*
X146514285Y-130823928D01*
X146442857Y-130752500D01*
X146300000Y-130681071D01*
X146085714Y-130681071D01*
X145942857Y-130752500D01*
X145871428Y-130823928D01*
X145800000Y-130966785D01*
X145800000Y-131395357D01*
X145871428Y-131538214D01*
X145942857Y-131609642D01*
X146085714Y-131681071D01*
X146300000Y-131681071D01*
X145157142Y-131681071D02*
X145157142Y-130681071D01*
X145157142Y-130966785D02*
X145085714Y-130823928D01*
X145014285Y-130752500D01*
X144871428Y-130681071D01*
X144728571Y-130681071D01*
X143657142Y-131609642D02*
X143800000Y-131681071D01*
X144085714Y-131681071D01*
X144228571Y-131609642D01*
X144300000Y-131466785D01*
X144300000Y-130895357D01*
X144228571Y-130752500D01*
X144085714Y-130681071D01*
X143800000Y-130681071D01*
X143657142Y-130752500D01*
X143585714Y-130895357D01*
X143585714Y-131038214D01*
X144300000Y-131181071D01*
X143085714Y-130681071D02*
X142800000Y-131681071D01*
X142514285Y-130966785D01*
X142228571Y-131681071D01*
X141942857Y-130681071D01*
X141157142Y-131681071D02*
X141300000Y-131609642D01*
X141371428Y-131538214D01*
X141442857Y-131395357D01*
X141442857Y-130966785D01*
X141371428Y-130823928D01*
X141300000Y-130752500D01*
X141157142Y-130681071D01*
X140942857Y-130681071D01*
X140800000Y-130752500D01*
X140728571Y-130823928D01*
X140657142Y-130966785D01*
X140657142Y-131395357D01*
X140728571Y-131538214D01*
X140800000Y-131609642D01*
X140942857Y-131681071D01*
X141157142Y-131681071D01*
X140014285Y-131681071D02*
X140014285Y-130181071D01*
X139371428Y-131681071D02*
X139371428Y-130895357D01*
X139442857Y-130752500D01*
X139585714Y-130681071D01*
X139800000Y-130681071D01*
X139942857Y-130752500D01*
X140014285Y-130823928D01*
D13*
%TO.C,SW6*%
X139445833Y-106449761D02*
X139302976Y-106497380D01*
X139064880Y-106497380D01*
X138969642Y-106449761D01*
X138922023Y-106402142D01*
X138874404Y-106306904D01*
X138874404Y-106211666D01*
X138922023Y-106116428D01*
X138969642Y-106068809D01*
X139064880Y-106021190D01*
X139255357Y-105973571D01*
X139350595Y-105925952D01*
X139398214Y-105878333D01*
X139445833Y-105783095D01*
X139445833Y-105687857D01*
X139398214Y-105592619D01*
X139350595Y-105545000D01*
X139255357Y-105497380D01*
X139017261Y-105497380D01*
X138874404Y-105545000D01*
X138541071Y-105497380D02*
X138302976Y-106497380D01*
X138112500Y-105783095D01*
X137922023Y-106497380D01*
X137683928Y-105497380D01*
X136874404Y-105497380D02*
X137064880Y-105497380D01*
X137160119Y-105545000D01*
X137207738Y-105592619D01*
X137302976Y-105735476D01*
X137350595Y-105925952D01*
X137350595Y-106306904D01*
X137302976Y-106402142D01*
X137255357Y-106449761D01*
X137160119Y-106497380D01*
X136969642Y-106497380D01*
X136874404Y-106449761D01*
X136826785Y-106402142D01*
X136779166Y-106306904D01*
X136779166Y-106068809D01*
X136826785Y-105973571D01*
X136874404Y-105925952D01*
X136969642Y-105878333D01*
X137160119Y-105878333D01*
X137255357Y-105925952D01*
X137302976Y-105973571D01*
X137350595Y-106068809D01*
%TO.C,SW4*%
X139445833Y-68349761D02*
X139302976Y-68397380D01*
X139064880Y-68397380D01*
X138969642Y-68349761D01*
X138922023Y-68302142D01*
X138874404Y-68206904D01*
X138874404Y-68111666D01*
X138922023Y-68016428D01*
X138969642Y-67968809D01*
X139064880Y-67921190D01*
X139255357Y-67873571D01*
X139350595Y-67825952D01*
X139398214Y-67778333D01*
X139445833Y-67683095D01*
X139445833Y-67587857D01*
X139398214Y-67492619D01*
X139350595Y-67445000D01*
X139255357Y-67397380D01*
X139017261Y-67397380D01*
X138874404Y-67445000D01*
X138541071Y-67397380D02*
X138302976Y-68397380D01*
X138112500Y-67683095D01*
X137922023Y-68397380D01*
X137683928Y-67397380D01*
X136874404Y-67730714D02*
X136874404Y-68397380D01*
X137112500Y-67349761D02*
X137350595Y-68064047D01*
X136731547Y-68064047D01*
%TO.C,SW5*%
X139445833Y-87399761D02*
X139302976Y-87447380D01*
X139064880Y-87447380D01*
X138969642Y-87399761D01*
X138922023Y-87352142D01*
X138874404Y-87256904D01*
X138874404Y-87161666D01*
X138922023Y-87066428D01*
X138969642Y-87018809D01*
X139064880Y-86971190D01*
X139255357Y-86923571D01*
X139350595Y-86875952D01*
X139398214Y-86828333D01*
X139445833Y-86733095D01*
X139445833Y-86637857D01*
X139398214Y-86542619D01*
X139350595Y-86495000D01*
X139255357Y-86447380D01*
X139017261Y-86447380D01*
X138874404Y-86495000D01*
X138541071Y-86447380D02*
X138302976Y-87447380D01*
X138112500Y-86733095D01*
X137922023Y-87447380D01*
X137683928Y-86447380D01*
X136826785Y-86447380D02*
X137302976Y-86447380D01*
X137350595Y-86923571D01*
X137302976Y-86875952D01*
X137207738Y-86828333D01*
X136969642Y-86828333D01*
X136874404Y-86875952D01*
X136826785Y-86923571D01*
X136779166Y-87018809D01*
X136779166Y-87256904D01*
X136826785Y-87352142D01*
X136874404Y-87399761D01*
X136969642Y-87447380D01*
X137207738Y-87447380D01*
X137302976Y-87399761D01*
X137350595Y-87352142D01*
D14*
%TO.C,U1*%
X138863493Y-34094726D02*
X138863493Y-34814393D01*
X138821160Y-34899060D01*
X138778826Y-34941393D01*
X138694160Y-34983726D01*
X138524826Y-34983726D01*
X138440160Y-34941393D01*
X138397826Y-34899060D01*
X138355493Y-34814393D01*
X138355493Y-34094726D01*
X137466493Y-34983726D02*
X137974493Y-34983726D01*
X137720493Y-34983726D02*
X137720493Y-34094726D01*
X137805160Y-34221726D01*
X137889826Y-34306393D01*
X137974493Y-34348726D01*
D15*
X141852831Y-45813802D02*
X141765745Y-45842831D01*
X141620602Y-45842831D01*
X141562545Y-45813802D01*
X141533517Y-45784774D01*
X141504488Y-45726717D01*
X141504488Y-45668660D01*
X141533517Y-45610602D01*
X141562545Y-45581574D01*
X141620602Y-45552545D01*
X141736717Y-45523517D01*
X141794774Y-45494488D01*
X141823802Y-45465460D01*
X141852831Y-45407402D01*
X141852831Y-45349345D01*
X141823802Y-45291288D01*
X141794774Y-45262260D01*
X141736717Y-45233231D01*
X141591574Y-45233231D01*
X141504488Y-45262260D01*
X141011002Y-45813802D02*
X141069060Y-45842831D01*
X141185174Y-45842831D01*
X141243231Y-45813802D01*
X141272260Y-45755745D01*
X141272260Y-45523517D01*
X141243231Y-45465460D01*
X141185174Y-45436431D01*
X141069060Y-45436431D01*
X141011002Y-45465460D01*
X140981974Y-45523517D01*
X140981974Y-45581574D01*
X141272260Y-45639631D01*
X140488488Y-45813802D02*
X140546545Y-45842831D01*
X140662660Y-45842831D01*
X140720717Y-45813802D01*
X140749745Y-45755745D01*
X140749745Y-45523517D01*
X140720717Y-45465460D01*
X140662660Y-45436431D01*
X140546545Y-45436431D01*
X140488488Y-45465460D01*
X140459460Y-45523517D01*
X140459460Y-45581574D01*
X140749745Y-45639631D01*
X139965974Y-45813802D02*
X140024031Y-45842831D01*
X140140145Y-45842831D01*
X140198202Y-45813802D01*
X140227231Y-45755745D01*
X140227231Y-45523517D01*
X140198202Y-45465460D01*
X140140145Y-45436431D01*
X140024031Y-45436431D01*
X139965974Y-45465460D01*
X139936945Y-45523517D01*
X139936945Y-45581574D01*
X140227231Y-45639631D01*
X139414431Y-45842831D02*
X139414431Y-45233231D01*
X139414431Y-45813802D02*
X139472488Y-45842831D01*
X139588602Y-45842831D01*
X139646660Y-45813802D01*
X139675688Y-45784774D01*
X139704717Y-45726717D01*
X139704717Y-45552545D01*
X139675688Y-45494488D01*
X139646660Y-45465460D01*
X139588602Y-45436431D01*
X139472488Y-45436431D01*
X139414431Y-45465460D01*
X138862888Y-45436431D02*
X138862888Y-45842831D01*
X139124145Y-45436431D02*
X139124145Y-45755745D01*
X139095117Y-45813802D01*
X139037060Y-45842831D01*
X138949974Y-45842831D01*
X138891917Y-45813802D01*
X138862888Y-45784774D01*
X138572602Y-45842831D02*
X138572602Y-45436431D01*
X138572602Y-45233231D02*
X138601631Y-45262260D01*
X138572602Y-45291288D01*
X138543574Y-45262260D01*
X138572602Y-45233231D01*
X138572602Y-45291288D01*
X138282317Y-45436431D02*
X138282317Y-45842831D01*
X138282317Y-45494488D02*
X138253288Y-45465460D01*
X138195231Y-45436431D01*
X138108145Y-45436431D01*
X138050088Y-45465460D01*
X138021060Y-45523517D01*
X138021060Y-45842831D01*
X137643688Y-45842831D02*
X137701745Y-45813802D01*
X137730774Y-45784774D01*
X137759802Y-45726717D01*
X137759802Y-45552545D01*
X137730774Y-45494488D01*
X137701745Y-45465460D01*
X137643688Y-45436431D01*
X137556602Y-45436431D01*
X137498545Y-45465460D01*
X137469517Y-45494488D01*
X137440488Y-45552545D01*
X137440488Y-45726717D01*
X137469517Y-45784774D01*
X137498545Y-45813802D01*
X137556602Y-45842831D01*
X137643688Y-45842831D01*
X137237288Y-45233231D02*
X136830888Y-45842831D01*
X136830888Y-45233231D02*
X137237288Y-45842831D01*
X136598660Y-45842831D02*
X136598660Y-45233231D01*
X136337402Y-45668660D02*
X136047117Y-45668660D01*
X136395460Y-45842831D02*
X136192260Y-45233231D01*
X135989060Y-45842831D01*
X135669745Y-45233231D02*
X135553631Y-45233231D01*
X135495574Y-45262260D01*
X135437517Y-45320317D01*
X135408488Y-45436431D01*
X135408488Y-45639631D01*
X135437517Y-45755745D01*
X135495574Y-45813802D01*
X135553631Y-45842831D01*
X135669745Y-45842831D01*
X135727802Y-45813802D01*
X135785860Y-45755745D01*
X135814888Y-45639631D01*
X135814888Y-45436431D01*
X135785860Y-45320317D01*
X135727802Y-45262260D01*
X135669745Y-45233231D01*
D13*
%TO.C,SW6*%
X132143500Y-113665000D02*
X131762500Y-113665000D01*
X143192500Y-111760000D02*
X138112500Y-111760000D01*
X131762500Y-113284000D02*
X131762500Y-113665000D01*
X131762500Y-109855000D02*
X131762500Y-110236000D01*
X134302500Y-107315000D02*
X143192500Y-107315000D01*
X143192500Y-107315000D02*
X143192500Y-107696000D01*
X135648338Y-113665000D02*
X133921500Y-113665000D01*
X143192500Y-110744000D02*
X143192500Y-111760000D01*
X138112500Y-111759999D02*
G75*
G03*
X135648338Y-113683960I0J-2540000D01*
G01*
X134302500Y-107315000D02*
G75*
G03*
X131762500Y-109855000I1J-2540001D01*
G01*
%TO.C,SW4*%
X132143500Y-75565000D02*
X131762500Y-75565000D01*
X135648338Y-75565000D02*
X133921500Y-75565000D01*
X143192500Y-72644000D02*
X143192500Y-73660000D01*
X143192500Y-73660000D02*
X138112500Y-73660000D01*
X134302500Y-69215000D02*
X143192500Y-69215000D01*
X131762500Y-71755000D02*
X131762500Y-72136000D01*
X143192500Y-69215000D02*
X143192500Y-69596000D01*
X131762500Y-75184000D02*
X131762500Y-75565000D01*
X138112500Y-73659999D02*
G75*
G03*
X135648338Y-75583960I0J-2540000D01*
G01*
X134302500Y-69215000D02*
G75*
G03*
X131762500Y-71755000I1J-2540001D01*
G01*
%TO.C,SW5*%
X143192500Y-91694000D02*
X143192500Y-92710000D01*
X134302500Y-88265000D02*
X143192500Y-88265000D01*
X135648338Y-94615000D02*
X133921500Y-94615000D01*
X132143500Y-94615000D02*
X131762500Y-94615000D01*
X143192500Y-88265000D02*
X143192500Y-88646000D01*
X143192500Y-92710000D02*
X138112500Y-92710000D01*
X131762500Y-90805000D02*
X131762500Y-91186000D01*
X131762500Y-94234000D02*
X131762500Y-94615000D01*
X138112500Y-92709999D02*
G75*
G03*
X135648338Y-94633960I0J-2540000D01*
G01*
X134302500Y-88265000D02*
G75*
G03*
X131762500Y-90805000I1J-2540001D01*
G01*
D16*
%TO.C,U1*%
X146850100Y-35363880D02*
X147520660Y-36034440D01*
X143121380Y-33938940D02*
X134127240Y-33938940D01*
D17*
X141170660Y-53187060D02*
X135455660Y-53187060D01*
D16*
X147520660Y-36034440D02*
X147520660Y-56362060D01*
D17*
X143837660Y-42013600D02*
X143837660Y-39344060D01*
X135201660Y-42013600D02*
X133423660Y-42013600D01*
D16*
X147520660Y-56362060D02*
X129722880Y-56362060D01*
D17*
X141170660Y-38582060D02*
X141170660Y-36042060D01*
X143837660Y-39344060D02*
X142059660Y-39344060D01*
X141170660Y-55727060D02*
X135455660Y-55727060D01*
X136090660Y-38582060D02*
X136090660Y-36042060D01*
X141170660Y-36042060D02*
X136090660Y-36042060D01*
X135201660Y-37947060D02*
X133423660Y-37947060D01*
X133423660Y-42013600D02*
X133423660Y-39344060D01*
X143837660Y-42013600D02*
X142059660Y-42013600D01*
X141170660Y-38582060D02*
X136090660Y-38582060D01*
X143837660Y-35280060D02*
X142059660Y-35280060D01*
X135201660Y-39344060D02*
X133423660Y-39344060D01*
D16*
X134127240Y-41292240D02*
X143126460Y-41292240D01*
D17*
X133423660Y-37947060D02*
X133423660Y-35280060D01*
X135455660Y-55727060D02*
X135455660Y-53187060D01*
D16*
X134127240Y-33938940D02*
X134127240Y-41292240D01*
D17*
X141170660Y-55727060D02*
X141170660Y-53187060D01*
X135201660Y-37947060D02*
X135201660Y-35280060D01*
X142059660Y-42013600D02*
X142059660Y-39344060D01*
X143837660Y-37947060D02*
X143837660Y-35280060D01*
X143837660Y-37947060D02*
X142059660Y-37947060D01*
D16*
X129722880Y-35363880D02*
X146850100Y-35363880D01*
D17*
X135201660Y-35280060D02*
X133423660Y-35280060D01*
D16*
X129722880Y-56362060D02*
X129722880Y-35363880D01*
D17*
X135201660Y-42013600D02*
X135201660Y-39344060D01*
X142059660Y-37947060D02*
X142059660Y-35280060D01*
D16*
X143126460Y-41292240D02*
X143126460Y-33938940D01*
D18*
X148536660Y-38201060D02*
G75*
G03*
X148536660Y-38201060I-127000J0D01*
G01*
%TD*%
M02*
