0
SECTION
2
HEADER
9
$INSUNITS
70
4
0
ENDSEC
0
SECTION
2
TABLES
0
TABLE
2
LTYPE
0
LTYPE
72
65
70
64
2
CONTINUOUS
3
______
73
0
40
0
0
ENDTAB
0
TABLE
2
LAYER
0
ENDTAB
0
ENDSEC
0
SECTION
2
ENTITIES
0
LINE
8
0
10
3.025
20
-16.8125
11
16.025
21
-16.8125
0
LINE
8
0
10
3.025
20
-30.8125
11
16.025
21
-30.8125
0
LINE
8
0
10
2.525
20
-17.3125
11
2.525
21
-30.3125
0
LINE
8
0
10
16.525
20
-17.3125
11
16.525
21
-30.3125
0
ARC
8
0
10
3.025
20
-17.3125
40
0.5
50
90
51
180
0
ARC
8
0
10
16.025
20
-17.3125
40
0.5
50
0
51
90
0
ARC
8
0
10
3.025
20
-30.3125
40
0.5
50
180
51
270
0
ARC
8
0
10
16.025
20
-30.3125
40
0.5
50
270
51
0
0
LINE
8
0
10
22.075
20
-16.8125
11
35.075
21
-16.8125
0
LINE
8
0
10
22.075
20
-30.8125
11
35.075
21
-30.8125
0
LINE
8
0
10
21.575
20
-17.3125
11
21.575
21
-30.3125
0
LINE
8
0
10
35.575
20
-17.3125
11
35.575
21
-30.3125
0
ARC
8
0
10
22.075
20
-17.3125
40
0.5
50
90
51
180
0
ARC
8
0
10
35.075
20
-17.3125
40
0.5
50
0
51
90
0
ARC
8
0
10
22.075
20
-30.3125
40
0.5
50
180
51
270
0
ARC
8
0
10
35.075
20
-30.3125
40
0.5
50
270
51
0
0
LINE
8
0
10
41.125
20
-16.8125
11
54.125
21
-16.8125
0
LINE
8
0
10
41.125
20
-30.8125
11
54.125
21
-30.8125
0
LINE
8
0
10
40.625
20
-17.3125
11
40.625
21
-30.3125
0
LINE
8
0
10
54.625
20
-17.3125
11
54.625
21
-30.3125
0
ARC
8
0
10
41.125
20
-17.3125
40
0.5
50
90
51
180
0
ARC
8
0
10
54.125
20
-17.3125
40
0.5
50
0
51
90
0
ARC
8
0
10
41.125
20
-30.3125
40
0.5
50
180
51
270
0
ARC
8
0
10
54.125
20
-30.3125
40
0.5
50
270
51
0
0
LINE
8
0
10
60.175
20
-16.8125
11
73.175
21
-16.8125
0
LINE
8
0
10
60.175
20
-30.8125
11
73.175
21
-30.8125
0
LINE
8
0
10
59.675
20
-17.3125
11
59.675
21
-30.3125
0
LINE
8
0
10
73.675
20
-17.3125
11
73.675
21
-30.3125
0
ARC
8
0
10
60.175
20
-17.3125
40
0.5
50
90
51
180
0
ARC
8
0
10
73.175
20
-17.3125
40
0.5
50
0
51
90
0
ARC
8
0
10
60.175
20
-30.3125
40
0.5
50
180
51
270
0
ARC
8
0
10
73.175
20
-30.3125
40
0.5
50
270
51
0
0
LINE
8
0
10
79.225
20
-16.8125
11
92.225
21
-16.8125
0
LINE
8
0
10
79.225
20
-30.8125
11
92.225
21
-30.8125
0
LINE
8
0
10
78.725
20
-17.3125
11
78.725
21
-30.3125
0
LINE
8
0
10
92.725
20
-17.3125
11
92.725
21
-30.3125
0
ARC
8
0
10
79.225
20
-17.3125
40
0.5
50
90
51
180
0
ARC
8
0
10
92.225
20
-17.3125
40
0.5
50
0
51
90
0
ARC
8
0
10
79.225
20
-30.3125
40
0.5
50
180
51
270
0
ARC
8
0
10
92.225
20
-30.3125
40
0.5
50
270
51
0
0
LINE
8
0
10
98.275
20
-16.8125
11
111.275
21
-16.8125
0
LINE
8
0
10
98.275
20
-30.8125
11
111.275
21
-30.8125
0
LINE
8
0
10
97.775
20
-17.3125
11
97.775
21
-30.3125
0
LINE
8
0
10
111.775
20
-17.3125
11
111.775
21
-30.3125
0
ARC
8
0
10
98.275
20
-17.3125
40
0.5
50
90
51
180
0
ARC
8
0
10
111.275
20
-17.3125
40
0.5
50
0
51
90
0
ARC
8
0
10
98.275
20
-30.3125
40
0.5
50
180
51
270
0
ARC
8
0
10
111.275
20
-30.3125
40
0.5
50
270
51
0
0
LINE
8
0
10
117.325
20
-16.8125
11
130.325
21
-16.8125
0
LINE
8
0
10
117.325
20
-30.8125
11
130.325
21
-30.8125
0
LINE
8
0
10
116.825
20
-17.3125
11
116.825
21
-30.3125
0
LINE
8
0
10
130.825
20
-17.3125
11
130.825
21
-30.3125
0
ARC
8
0
10
117.325
20
-17.3125
40
0.5
50
90
51
180
0
ARC
8
0
10
130.325
20
-17.3125
40
0.5
50
0
51
90
0
ARC
8
0
10
117.325
20
-30.3125
40
0.5
50
180
51
270
0
ARC
8
0
10
130.325
20
-30.3125
40
0.5
50
270
51
0
0
LINE
8
0
10
3.025
20
-21.575
11
16.025
21
-21.575
0
LINE
8
0
10
3.025
20
-35.575
11
16.025
21
-35.575
0
LINE
8
0
10
2.525
20
-22.075
11
2.525
21
-35.075
0
LINE
8
0
10
16.525
20
-22.075
11
16.525
21
-35.075
0
ARC
8
0
10
3.025
20
-22.075
40
0.5
50
90
51
180
0
ARC
8
0
10
16.025
20
-22.075
40
0.5
50
0
51
90
0
ARC
8
0
10
3.025
20
-35.075
40
0.5
50
180
51
270
0
ARC
8
0
10
16.025
20
-35.075
40
0.5
50
270
51
0
0
LINE
8
0
10
22.075
20
-21.575
11
35.075
21
-21.575
0
LINE
8
0
10
22.075
20
-35.575
11
35.075
21
-35.575
0
LINE
8
0
10
21.575
20
-22.075
11
21.575
21
-35.075
0
LINE
8
0
10
35.575
20
-22.075
11
35.575
21
-35.075
0
ARC
8
0
10
22.075
20
-22.075
40
0.5
50
90
51
180
0
ARC
8
0
10
35.075
20
-22.075
40
0.5
50
0
51
90
0
ARC
8
0
10
22.075
20
-35.075
40
0.5
50
180
51
270
0
ARC
8
0
10
35.075
20
-35.075
40
0.5
50
270
51
0
0
LINE
8
0
10
41.125
20
-21.575
11
54.125
21
-21.575
0
LINE
8
0
10
41.125
20
-35.575
11
54.125
21
-35.575
0
LINE
8
0
10
40.625
20
-22.075
11
40.625
21
-35.075
0
LINE
8
0
10
54.625
20
-22.075
11
54.625
21
-35.075
0
ARC
8
0
10
41.125
20
-22.075
40
0.5
50
90
51
180
0
ARC
8
0
10
54.125
20
-22.075
40
0.5
50
0
51
90
0
ARC
8
0
10
41.125
20
-35.075
40
0.5
50
180
51
270
0
ARC
8
0
10
54.125
20
-35.075
40
0.5
50
270
51
0
0
LINE
8
0
10
60.175
20
-21.575
11
73.175
21
-21.575
0
LINE
8
0
10
60.175
20
-35.575
11
73.175
21
-35.575
0
LINE
8
0
10
59.675
20
-22.075
11
59.675
21
-35.075
0
LINE
8
0
10
73.675
20
-22.075
11
73.675
21
-35.075
0
ARC
8
0
10
60.175
20
-22.075
40
0.5
50
90
51
180
0
ARC
8
0
10
73.175
20
-22.075
40
0.5
50
0
51
90
0
ARC
8
0
10
60.175
20
-35.075
40
0.5
50
180
51
270
0
ARC
8
0
10
73.175
20
-35.075
40
0.5
50
270
51
0
0
LINE
8
0
10
79.225
20
-21.575
11
92.225
21
-21.575
0
LINE
8
0
10
79.225
20
-35.575
11
92.225
21
-35.575
0
LINE
8
0
10
78.725
20
-22.075
11
78.725
21
-35.075
0
LINE
8
0
10
92.725
20
-22.075
11
92.725
21
-35.075
0
ARC
8
0
10
79.225
20
-22.075
40
0.5
50
90
51
180
0
ARC
8
0
10
92.225
20
-22.075
40
0.5
50
0
51
90
0
ARC
8
0
10
79.225
20
-35.075
40
0.5
50
180
51
270
0
ARC
8
0
10
92.225
20
-35.075
40
0.5
50
270
51
0
0
LINE
8
0
10
98.275
20
-21.575
11
111.275
21
-21.575
0
LINE
8
0
10
98.275
20
-35.575
11
111.275
21
-35.575
0
LINE
8
0
10
97.775
20
-22.075
11
97.775
21
-35.075
0
LINE
8
0
10
111.775
20
-22.075
11
111.775
21
-35.075
0
ARC
8
0
10
98.275
20
-22.075
40
0.5
50
90
51
180
0
ARC
8
0
10
111.275
20
-22.075
40
0.5
50
0
51
90
0
ARC
8
0
10
98.275
20
-35.075
40
0.5
50
180
51
270
0
ARC
8
0
10
111.275
20
-35.075
40
0.5
50
270
51
0
0
LINE
8
0
10
117.325
20
-21.575
11
130.325
21
-21.575
0
LINE
8
0
10
117.325
20
-35.575
11
130.325
21
-35.575
0
LINE
8
0
10
116.825
20
-22.075
11
116.825
21
-35.075
0
LINE
8
0
10
130.825
20
-22.075
11
130.825
21
-35.075
0
ARC
8
0
10
117.325
20
-22.075
40
0.5
50
90
51
180
0
ARC
8
0
10
130.325
20
-22.075
40
0.5
50
0
51
90
0
ARC
8
0
10
117.325
20
-35.075
40
0.5
50
180
51
270
0
ARC
8
0
10
130.325
20
-35.075
40
0.5
50
270
51
0
0
LINE
8
0
10
22.075
20
-31.1
11
35.075
21
-31.1
0
LINE
8
0
10
22.075
20
-45.1
11
35.075
21
-45.1
0
LINE
8
0
10
21.575
20
-31.6
11
21.575
21
-44.6
0
LINE
8
0
10
35.575
20
-31.6
11
35.575
21
-44.6
0
ARC
8
0
10
22.075
20
-31.6
40
0.5
50
90
51
180
0
ARC
8
0
10
35.075
20
-31.6
40
0.5
50
0
51
90
0
ARC
8
0
10
22.075
20
-44.6
40
0.5
50
180
51
270
0
ARC
8
0
10
35.075
20
-44.6
40
0.5
50
270
51
0
0
LINE
8
0
10
41.125
20
-31.1
11
54.125
21
-31.1
0
LINE
8
0
10
41.125
20
-45.1
11
54.125
21
-45.1
0
LINE
8
0
10
40.625
20
-31.6
11
40.625
21
-44.6
0
LINE
8
0
10
54.625
20
-31.6
11
54.625
21
-44.6
0
ARC
8
0
10
41.125
20
-31.6
40
0.5
50
90
51
180
0
ARC
8
0
10
54.125
20
-31.6
40
0.5
50
0
51
90
0
ARC
8
0
10
41.125
20
-44.6
40
0.5
50
180
51
270
0
ARC
8
0
10
54.125
20
-44.6
40
0.5
50
270
51
0
0
LINE
8
0
10
60.175
20
-31.1
11
73.175
21
-31.1
0
LINE
8
0
10
60.175
20
-45.1
11
73.175
21
-45.1
0
LINE
8
0
10
59.675
20
-31.6
11
59.675
21
-44.6
0
LINE
8
0
10
73.675
20
-31.6
11
73.675
21
-44.6
0
ARC
8
0
10
60.175
20
-31.6
40
0.5
50
90
51
180
0
ARC
8
0
10
73.175
20
-31.6
40
0.5
50
0
51
90
0
ARC
8
0
10
60.175
20
-44.6
40
0.5
50
180
51
270
0
ARC
8
0
10
73.175
20
-44.6
40
0.5
50
270
51
0
0
LINE
8
0
10
79.225
20
-31.1
11
92.225
21
-31.1
0
LINE
8
0
10
79.225
20
-45.1
11
92.225
21
-45.1
0
LINE
8
0
10
78.725
20
-31.6
11
78.725
21
-44.6
0
LINE
8
0
10
92.725
20
-31.6
11
92.725
21
-44.6
0
ARC
8
0
10
79.225
20
-31.6
40
0.5
50
90
51
180
0
ARC
8
0
10
92.225
20
-31.6
40
0.5
50
0
51
90
0
ARC
8
0
10
79.225
20
-44.6
40
0.5
50
180
51
270
0
ARC
8
0
10
92.225
20
-44.6
40
0.5
50
270
51
0
0
LINE
8
0
10
98.275
20
-31.1
11
111.275
21
-31.1
0
LINE
8
0
10
98.275
20
-45.1
11
111.275
21
-45.1
0
LINE
8
0
10
97.775
20
-31.6
11
97.775
21
-44.6
0
LINE
8
0
10
111.775
20
-31.6
11
111.775
21
-44.6
0
ARC
8
0
10
98.275
20
-31.6
40
0.5
50
90
51
180
0
ARC
8
0
10
111.275
20
-31.6
40
0.5
50
0
51
90
0
ARC
8
0
10
98.275
20
-44.6
40
0.5
50
180
51
270
0
ARC
8
0
10
111.275
20
-44.6
40
0.5
50
270
51
0
0
LINE
8
0
10
3.025
20
-40.625
11
16.025
21
-40.625
0
LINE
8
0
10
3.025
20
-54.625
11
16.025
21
-54.625
0
LINE
8
0
10
2.525
20
-41.125
11
2.525
21
-54.125
0
LINE
8
0
10
16.525
20
-41.125
11
16.525
21
-54.125
0
ARC
8
0
10
3.025
20
-41.125
40
0.5
50
90
51
180
0
ARC
8
0
10
16.025
20
-41.125
40
0.5
50
0
51
90
0
ARC
8
0
10
3.025
20
-54.125
40
0.5
50
180
51
270
0
ARC
8
0
10
16.025
20
-54.125
40
0.5
50
270
51
0
0
LINE
8
0
10
12.55
20
-40.625
11
25.55
21
-40.625
0
LINE
8
0
10
12.55
20
-54.625
11
25.55
21
-54.625
0
LINE
8
0
10
12.05
20
-41.125
11
12.05
21
-54.125
0
LINE
8
0
10
26.05
20
-41.125
11
26.05
21
-54.125
0
ARC
8
0
10
12.55
20
-41.125
40
0.5
50
90
51
180
0
ARC
8
0
10
25.55
20
-41.125
40
0.5
50
0
51
90
0
ARC
8
0
10
12.55
20
-54.125
40
0.5
50
180
51
270
0
ARC
8
0
10
25.55
20
-54.125
40
0.5
50
270
51
0
0
LINE
8
0
10
22.075
20
-40.625
11
35.075
21
-40.625
0
LINE
8
0
10
22.075
20
-54.625
11
35.075
21
-54.625
0
LINE
8
0
10
21.575
20
-41.125
11
21.575
21
-54.125
0
LINE
8
0
10
35.575
20
-41.125
11
35.575
21
-54.125
0
ARC
8
0
10
22.075
20
-41.125
40
0.5
50
90
51
180
0
ARC
8
0
10
35.075
20
-41.125
40
0.5
50
0
51
90
0
ARC
8
0
10
22.075
20
-54.125
40
0.5
50
180
51
270
0
ARC
8
0
10
35.075
20
-54.125
40
0.5
50
270
51
0
0
LINE
8
0
10
41.125
20
-40.625
11
54.125
21
-40.625
0
LINE
8
0
10
41.125
20
-54.625
11
54.125
21
-54.625
0
LINE
8
0
10
40.625
20
-41.125
11
40.625
21
-54.125
0
LINE
8
0
10
54.625
20
-41.125
11
54.625
21
-54.125
0
ARC
8
0
10
41.125
20
-41.125
40
0.5
50
90
51
180
0
ARC
8
0
10
54.125
20
-41.125
40
0.5
50
0
51
90
0
ARC
8
0
10
41.125
20
-54.125
40
0.5
50
180
51
270
0
ARC
8
0
10
54.125
20
-54.125
40
0.5
50
270
51
0
0
LINE
8
0
10
60.175
20
-40.625
11
73.175
21
-40.625
0
LINE
8
0
10
60.175
20
-54.625
11
73.175
21
-54.625
0
LINE
8
0
10
59.675
20
-41.125
11
59.675
21
-54.125
0
LINE
8
0
10
73.675
20
-41.125
11
73.675
21
-54.125
0
ARC
8
0
10
60.175
20
-41.125
40
0.5
50
90
51
180
0
ARC
8
0
10
73.175
20
-41.125
40
0.5
50
0
51
90
0
ARC
8
0
10
60.175
20
-54.125
40
0.5
50
180
51
270
0
ARC
8
0
10
73.175
20
-54.125
40
0.5
50
270
51
0
0
LINE
8
0
10
79.225
20
-40.625
11
92.225
21
-40.625
0
LINE
8
0
10
79.225
20
-54.625
11
92.225
21
-54.625
0
LINE
8
0
10
78.725
20
-41.125
11
78.725
21
-54.125
0
LINE
8
0
10
92.725
20
-41.125
11
92.725
21
-54.125
0
ARC
8
0
10
79.225
20
-41.125
40
0.5
50
90
51
180
0
ARC
8
0
10
92.225
20
-41.125
40
0.5
50
0
51
90
0
ARC
8
0
10
79.225
20
-54.125
40
0.5
50
180
51
270
0
ARC
8
0
10
92.225
20
-54.125
40
0.5
50
270
51
0
0
LINE
8
0
10
98.275
20
-40.625
11
111.275
21
-40.625
0
LINE
8
0
10
98.275
20
-54.625
11
111.275
21
-54.625
0
LINE
8
0
10
97.775
20
-41.125
11
97.775
21
-54.125
0
LINE
8
0
10
111.775
20
-41.125
11
111.775
21
-54.125
0
ARC
8
0
10
98.275
20
-41.125
40
0.5
50
90
51
180
0
ARC
8
0
10
111.275
20
-41.125
40
0.5
50
0
51
90
0
ARC
8
0
10
98.275
20
-54.125
40
0.5
50
180
51
270
0
ARC
8
0
10
111.275
20
-54.125
40
0.5
50
270
51
0
0
LINE
8
0
10
107.8
20
-40.625
11
120.8
21
-40.625
0
LINE
8
0
10
107.8
20
-54.625
11
120.8
21
-54.625
0
LINE
8
0
10
107.3
20
-41.125
11
107.3
21
-54.125
0
LINE
8
0
10
121.3
20
-41.125
11
121.3
21
-54.125
0
ARC
8
0
10
107.8
20
-41.125
40
0.5
50
90
51
180
0
ARC
8
0
10
120.8
20
-41.125
40
0.5
50
0
51
90
0
ARC
8
0
10
107.8
20
-54.125
40
0.5
50
180
51
270
0
ARC
8
0
10
120.8
20
-54.125
40
0.5
50
270
51
0
0
LINE
8
0
10
117.325
20
-40.625
11
130.325
21
-40.625
0
LINE
8
0
10
117.325
20
-54.625
11
130.325
21
-54.625
0
LINE
8
0
10
116.825
20
-41.125
11
116.825
21
-54.125
0
LINE
8
0
10
130.825
20
-41.125
11
130.825
21
-54.125
0
ARC
8
0
10
117.325
20
-41.125
40
0.5
50
90
51
180
0
ARC
8
0
10
130.325
20
-41.125
40
0.5
50
0
51
90
0
ARC
8
0
10
117.325
20
-54.125
40
0.5
50
180
51
270
0
ARC
8
0
10
130.325
20
-54.125
40
0.5
50
270
51
0
0
LINE
8
0
10
3.025
20
-59.675
11
16.025
21
-59.675
0
LINE
8
0
10
3.025
20
-73.675
11
16.025
21
-73.675
0
LINE
8
0
10
2.525
20
-60.175
11
2.525
21
-73.175
0
LINE
8
0
10
16.525
20
-60.175
11
16.525
21
-73.175
0
ARC
8
0
10
3.025
20
-60.175
40
0.5
50
90
51
180
0
ARC
8
0
10
16.025
20
-60.175
40
0.5
50
0
51
90
0
ARC
8
0
10
3.025
20
-73.175
40
0.5
50
180
51
270
0
ARC
8
0
10
16.025
20
-73.175
40
0.5
50
270
51
0
0
LINE
8
0
10
12.55
20
-59.675
11
25.55
21
-59.675
0
LINE
8
0
10
12.55
20
-73.675
11
25.55
21
-73.675
0
LINE
8
0
10
12.05
20
-60.175
11
12.05
21
-73.175
0
LINE
8
0
10
26.05
20
-60.175
11
26.05
21
-73.175
0
ARC
8
0
10
12.55
20
-60.175
40
0.5
50
90
51
180
0
ARC
8
0
10
25.55
20
-60.175
40
0.5
50
0
51
90
0
ARC
8
0
10
12.55
20
-73.175
40
0.5
50
180
51
270
0
ARC
8
0
10
25.55
20
-73.175
40
0.5
50
270
51
0
0
LINE
8
0
10
22.075
20
-59.675
11
35.075
21
-59.675
0
LINE
8
0
10
22.075
20
-73.675
11
35.075
21
-73.675
0
LINE
8
0
10
21.575
20
-60.175
11
21.575
21
-73.175
0
LINE
8
0
10
35.575
20
-60.175
11
35.575
21
-73.175
0
ARC
8
0
10
22.075
20
-60.175
40
0.5
50
90
51
180
0
ARC
8
0
10
35.075
20
-60.175
40
0.5
50
0
51
90
0
ARC
8
0
10
22.075
20
-73.175
40
0.5
50
180
51
270
0
ARC
8
0
10
35.075
20
-73.175
40
0.5
50
270
51
0
0
LINE
8
0
10
41.125
20
-59.675
11
54.125
21
-59.675
0
LINE
8
0
10
41.125
20
-73.675
11
54.125
21
-73.675
0
LINE
8
0
10
40.625
20
-60.175
11
40.625
21
-73.175
0
LINE
8
0
10
54.625
20
-60.175
11
54.625
21
-73.175
0
ARC
8
0
10
41.125
20
-60.175
40
0.5
50
90
51
180
0
ARC
8
0
10
54.125
20
-60.175
40
0.5
50
0
51
90
0
ARC
8
0
10
41.125
20
-73.175
40
0.5
50
180
51
270
0
ARC
8
0
10
54.125
20
-73.175
40
0.5
50
270
51
0
0
LINE
8
0
10
60.175
20
-59.675
11
73.175
21
-59.675
0
LINE
8
0
10
60.175
20
-73.675
11
73.175
21
-73.675
0
LINE
8
0
10
59.675
20
-60.175
11
59.675
21
-73.175
0
LINE
8
0
10
73.675
20
-60.175
11
73.675
21
-73.175
0
ARC
8
0
10
60.175
20
-60.175
40
0.5
50
90
51
180
0
ARC
8
0
10
73.175
20
-60.175
40
0.5
50
0
51
90
0
ARC
8
0
10
60.175
20
-73.175
40
0.5
50
180
51
270
0
ARC
8
0
10
73.175
20
-73.175
40
0.5
50
270
51
0
0
LINE
8
0
10
79.225
20
-59.675
11
92.225
21
-59.675
0
LINE
8
0
10
79.225
20
-73.675
11
92.225
21
-73.675
0
LINE
8
0
10
78.725
20
-60.175
11
78.725
21
-73.175
0
LINE
8
0
10
92.725
20
-60.175
11
92.725
21
-73.175
0
ARC
8
0
10
79.225
20
-60.175
40
0.5
50
90
51
180
0
ARC
8
0
10
92.225
20
-60.175
40
0.5
50
0
51
90
0
ARC
8
0
10
79.225
20
-73.175
40
0.5
50
180
51
270
0
ARC
8
0
10
92.225
20
-73.175
40
0.5
50
270
51
0
0
LINE
8
0
10
98.275
20
-59.675
11
111.275
21
-59.675
0
LINE
8
0
10
98.275
20
-73.675
11
111.275
21
-73.675
0
LINE
8
0
10
97.775
20
-60.175
11
97.775
21
-73.175
0
LINE
8
0
10
111.775
20
-60.175
11
111.775
21
-73.175
0
ARC
8
0
10
98.275
20
-60.175
40
0.5
50
90
51
180
0
ARC
8
0
10
111.275
20
-60.175
40
0.5
50
0
51
90
0
ARC
8
0
10
98.275
20
-73.175
40
0.5
50
180
51
270
0
ARC
8
0
10
111.275
20
-73.175
40
0.5
50
270
51
0
0
LINE
8
0
10
107.8
20
-59.675
11
120.8
21
-59.675
0
LINE
8
0
10
107.8
20
-73.675
11
120.8
21
-73.675
0
LINE
8
0
10
107.3
20
-60.175
11
107.3
21
-73.175
0
LINE
8
0
10
121.3
20
-60.175
11
121.3
21
-73.175
0
ARC
8
0
10
107.8
20
-60.175
40
0.5
50
90
51
180
0
ARC
8
0
10
120.8
20
-60.175
40
0.5
50
0
51
90
0
ARC
8
0
10
107.8
20
-73.175
40
0.5
50
180
51
270
0
ARC
8
0
10
120.8
20
-73.175
40
0.5
50
270
51
0
0
LINE
8
0
10
117.325
20
-59.675
11
130.325
21
-59.675
0
LINE
8
0
10
117.325
20
-73.675
11
130.325
21
-73.675
0
LINE
8
0
10
116.825
20
-60.175
11
116.825
21
-73.175
0
LINE
8
0
10
130.825
20
-60.175
11
130.825
21
-73.175
0
ARC
8
0
10
117.325
20
-60.175
40
0.5
50
90
51
180
0
ARC
8
0
10
130.325
20
-60.175
40
0.5
50
0
51
90
0
ARC
8
0
10
117.325
20
-73.175
40
0.5
50
180
51
270
0
ARC
8
0
10
130.325
20
-73.175
40
0.5
50
270
51
0
0
LINE
8
0
10
3.025
20
-78.725
11
16.025
21
-78.725
0
LINE
8
0
10
3.025
20
-92.725
11
16.025
21
-92.725
0
LINE
8
0
10
2.525
20
-79.225
11
2.525
21
-92.225
0
LINE
8
0
10
16.525
20
-79.225
11
16.525
21
-92.225
0
ARC
8
0
10
3.025
20
-79.225
40
0.5
50
90
51
180
0
ARC
8
0
10
16.025
20
-79.225
40
0.5
50
0
51
90
0
ARC
8
0
10
3.025
20
-92.225
40
0.5
50
180
51
270
0
ARC
8
0
10
16.025
20
-92.225
40
0.5
50
270
51
0
0
LINE
8
0
10
12.55
20
-78.725
11
25.55
21
-78.725
0
LINE
8
0
10
12.55
20
-92.725
11
25.55
21
-92.725
0
LINE
8
0
10
12.05
20
-79.225
11
12.05
21
-92.225
0
LINE
8
0
10
26.05
20
-79.225
11
26.05
21
-92.225
0
ARC
8
0
10
12.55
20
-79.225
40
0.5
50
90
51
180
0
ARC
8
0
10
25.55
20
-79.225
40
0.5
50
0
51
90
0
ARC
8
0
10
12.55
20
-92.225
40
0.5
50
180
51
270
0
ARC
8
0
10
25.55
20
-92.225
40
0.5
50
270
51
0
0
LINE
8
0
10
22.075
20
-78.725
11
35.075
21
-78.725
0
LINE
8
0
10
22.075
20
-92.725
11
35.075
21
-92.725
0
LINE
8
0
10
21.575
20
-79.225
11
21.575
21
-92.225
0
LINE
8
0
10
35.575
20
-79.225
11
35.575
21
-92.225
0
ARC
8
0
10
22.075
20
-79.225
40
0.5
50
90
51
180
0
ARC
8
0
10
35.075
20
-79.225
40
0.5
50
0
51
90
0
ARC
8
0
10
22.075
20
-92.225
40
0.5
50
180
51
270
0
ARC
8
0
10
35.075
20
-92.225
40
0.5
50
270
51
0
0
LINE
8
0
10
41.125
20
-78.725
11
54.125
21
-78.725
0
LINE
8
0
10
41.125
20
-92.725
11
54.125
21
-92.725
0
LINE
8
0
10
40.625
20
-79.225
11
40.625
21
-92.225
0
LINE
8
0
10
54.625
20
-79.225
11
54.625
21
-92.225
0
ARC
8
0
10
41.125
20
-79.225
40
0.5
50
90
51
180
0
ARC
8
0
10
54.125
20
-79.225
40
0.5
50
0
51
90
0
ARC
8
0
10
41.125
20
-92.225
40
0.5
50
180
51
270
0
ARC
8
0
10
54.125
20
-92.225
40
0.5
50
270
51
0
0
LINE
8
0
10
60.175
20
-78.725
11
73.175
21
-78.725
0
LINE
8
0
10
60.175
20
-92.725
11
73.175
21
-92.725
0
LINE
8
0
10
59.675
20
-79.225
11
59.675
21
-92.225
0
LINE
8
0
10
73.675
20
-79.225
11
73.675
21
-92.225
0
ARC
8
0
10
60.175
20
-79.225
40
0.5
50
90
51
180
0
ARC
8
0
10
73.175
20
-79.225
40
0.5
50
0
51
90
0
ARC
8
0
10
60.175
20
-92.225
40
0.5
50
180
51
270
0
ARC
8
0
10
73.175
20
-92.225
40
0.5
50
270
51
0
0
LINE
8
0
10
79.225
20
-78.725
11
92.225
21
-78.725
0
LINE
8
0
10
79.225
20
-92.725
11
92.225
21
-92.725
0
LINE
8
0
10
78.725
20
-79.225
11
78.725
21
-92.225
0
LINE
8
0
10
92.725
20
-79.225
11
92.725
21
-92.225
0
ARC
8
0
10
79.225
20
-79.225
40
0.5
50
90
51
180
0
ARC
8
0
10
92.225
20
-79.225
40
0.5
50
0
51
90
0
ARC
8
0
10
79.225
20
-92.225
40
0.5
50
180
51
270
0
ARC
8
0
10
92.225
20
-92.225
40
0.5
50
270
51
0
0
LINE
8
0
10
98.275
20
-78.725
11
111.275
21
-78.725
0
LINE
8
0
10
98.275
20
-92.725
11
111.275
21
-92.725
0
LINE
8
0
10
97.775
20
-79.225
11
97.775
21
-92.225
0
LINE
8
0
10
111.775
20
-79.225
11
111.775
21
-92.225
0
ARC
8
0
10
98.275
20
-79.225
40
0.5
50
90
51
180
0
ARC
8
0
10
111.275
20
-79.225
40
0.5
50
0
51
90
0
ARC
8
0
10
98.275
20
-92.225
40
0.5
50
180
51
270
0
ARC
8
0
10
111.275
20
-92.225
40
0.5
50
270
51
0
0
LINE
8
0
10
107.8
20
-78.725
11
120.8
21
-78.725
0
LINE
8
0
10
107.8
20
-92.725
11
120.8
21
-92.725
0
LINE
8
0
10
107.3
20
-79.225
11
107.3
21
-92.225
0
LINE
8
0
10
121.3
20
-79.225
11
121.3
21
-92.225
0
ARC
8
0
10
107.8
20
-79.225
40
0.5
50
90
51
180
0
ARC
8
0
10
120.8
20
-79.225
40
0.5
50
0
51
90
0
ARC
8
0
10
107.8
20
-92.225
40
0.5
50
180
51
270
0
ARC
8
0
10
120.8
20
-92.225
40
0.5
50
270
51
0
0
LINE
8
0
10
117.325
20
-78.725
11
130.325
21
-78.725
0
LINE
8
0
10
117.325
20
-92.725
11
130.325
21
-92.725
0
LINE
8
0
10
116.825
20
-79.225
11
116.825
21
-92.225
0
LINE
8
0
10
130.825
20
-79.225
11
130.825
21
-92.225
0
ARC
8
0
10
117.325
20
-79.225
40
0.5
50
90
51
180
0
ARC
8
0
10
130.325
20
-79.225
40
0.5
50
0
51
90
0
ARC
8
0
10
117.325
20
-92.225
40
0.5
50
180
51
270
0
ARC
8
0
10
130.325
20
-92.225
40
0.5
50
270
51
0
0
LINE
8
0
10
3.025
20
-97.775
11
16.025
21
-97.775
0
LINE
8
0
10
3.025
20
-111.775
11
16.025
21
-111.775
0
LINE
8
0
10
2.525
20
-98.275
11
2.525
21
-111.275
0
LINE
8
0
10
16.525
20
-98.275
11
16.525
21
-111.275
0
ARC
8
0
10
3.025
20
-98.275
40
0.5
50
90
51
180
0
ARC
8
0
10
16.025
20
-98.275
40
0.5
50
0
51
90
0
ARC
8
0
10
3.025
20
-111.275
40
0.5
50
180
51
270
0
ARC
8
0
10
16.025
20
-111.275
40
0.5
50
270
51
0
0
LINE
8
0
10
12.55
20
-97.775
11
25.55
21
-97.775
0
LINE
8
0
10
12.55
20
-111.775
11
25.55
21
-111.775
0
LINE
8
0
10
12.05
20
-98.275
11
12.05
21
-111.275
0
LINE
8
0
10
26.05
20
-98.275
11
26.05
21
-111.275
0
ARC
8
0
10
12.55
20
-98.275
40
0.5
50
90
51
180
0
ARC
8
0
10
25.55
20
-98.275
40
0.5
50
0
51
90
0
ARC
8
0
10
12.55
20
-111.275
40
0.5
50
180
51
270
0
ARC
8
0
10
25.55
20
-111.275
40
0.5
50
270
51
0
0
LINE
8
0
10
22.075
20
-97.775
11
35.075
21
-97.775
0
LINE
8
0
10
22.075
20
-111.775
11
35.075
21
-111.775
0
LINE
8
0
10
21.575
20
-98.275
11
21.575
21
-111.275
0
LINE
8
0
10
35.575
20
-98.275
11
35.575
21
-111.275
0
ARC
8
0
10
22.075
20
-98.275
40
0.5
50
90
51
180
0
ARC
8
0
10
35.075
20
-98.275
40
0.5
50
0
51
90
0
ARC
8
0
10
22.075
20
-111.275
40
0.5
50
180
51
270
0
ARC
8
0
10
35.075
20
-111.275
40
0.5
50
270
51
0
0
LINE
8
0
10
41.125
20
-97.775
11
54.125
21
-97.775
0
LINE
8
0
10
41.125
20
-111.775
11
54.125
21
-111.775
0
LINE
8
0
10
40.625
20
-98.275
11
40.625
21
-111.275
0
LINE
8
0
10
54.625
20
-98.275
11
54.625
21
-111.275
0
ARC
8
0
10
41.125
20
-98.275
40
0.5
50
90
51
180
0
ARC
8
0
10
54.125
20
-98.275
40
0.5
50
0
51
90
0
ARC
8
0
10
41.125
20
-111.275
40
0.5
50
180
51
270
0
ARC
8
0
10
54.125
20
-111.275
40
0.5
50
270
51
0
0
LINE
8
0
10
60.175
20
-97.775
11
73.175
21
-97.775
0
LINE
8
0
10
60.175
20
-111.775
11
73.175
21
-111.775
0
LINE
8
0
10
59.675
20
-98.275
11
59.675
21
-111.275
0
LINE
8
0
10
73.675
20
-98.275
11
73.675
21
-111.275
0
ARC
8
0
10
60.175
20
-98.275
40
0.5
50
90
51
180
0
ARC
8
0
10
73.175
20
-98.275
40
0.5
50
0
51
90
0
ARC
8
0
10
60.175
20
-111.275
40
0.5
50
180
51
270
0
ARC
8
0
10
73.175
20
-111.275
40
0.5
50
270
51
0
0
LINE
8
0
10
79.225
20
-97.775
11
92.225
21
-97.775
0
LINE
8
0
10
79.225
20
-111.775
11
92.225
21
-111.775
0
LINE
8
0
10
78.725
20
-98.275
11
78.725
21
-111.275
0
LINE
8
0
10
92.725
20
-98.275
11
92.725
21
-111.275
0
ARC
8
0
10
79.225
20
-98.275
40
0.5
50
90
51
180
0
ARC
8
0
10
92.225
20
-98.275
40
0.5
50
0
51
90
0
ARC
8
0
10
79.225
20
-111.275
40
0.5
50
180
51
270
0
ARC
8
0
10
92.225
20
-111.275
40
0.5
50
270
51
0
0
LINE
8
0
10
98.275
20
-97.775
11
111.275
21
-97.775
0
LINE
8
0
10
98.275
20
-111.775
11
111.275
21
-111.775
0
LINE
8
0
10
97.775
20
-98.275
11
97.775
21
-111.275
0
LINE
8
0
10
111.775
20
-98.275
11
111.775
21
-111.275
0
ARC
8
0
10
98.275
20
-98.275
40
0.5
50
90
51
180
0
ARC
8
0
10
111.275
20
-98.275
40
0.5
50
0
51
90
0
ARC
8
0
10
98.275
20
-111.275
40
0.5
50
180
51
270
0
ARC
8
0
10
111.275
20
-111.275
40
0.5
50
270
51
0
0
LINE
8
0
10
107.8
20
-97.775
11
120.8
21
-97.775
0
LINE
8
0
10
107.8
20
-111.775
11
120.8
21
-111.775
0
LINE
8
0
10
107.3
20
-98.275
11
107.3
21
-111.275
0
LINE
8
0
10
121.3
20
-98.275
11
121.3
21
-111.275
0
ARC
8
0
10
107.8
20
-98.275
40
0.5
50
90
51
180
0
ARC
8
0
10
120.8
20
-98.275
40
0.5
50
0
51
90
0
ARC
8
0
10
107.8
20
-111.275
40
0.5
50
180
51
270
0
ARC
8
0
10
120.8
20
-111.275
40
0.5
50
270
51
0
0
LINE
8
0
10
117.325
20
-97.775
11
130.325
21
-97.775
0
LINE
8
0
10
117.325
20
-111.775
11
130.325
21
-111.775
0
LINE
8
0
10
116.825
20
-98.275
11
116.825
21
-111.275
0
LINE
8
0
10
130.825
20
-98.275
11
130.825
21
-111.275
0
ARC
8
0
10
117.325
20
-98.275
40
0.5
50
90
51
180
0
ARC
8
0
10
130.325
20
-98.275
40
0.5
50
0
51
90
0
ARC
8
0
10
117.325
20
-111.275
40
0.5
50
180
51
270
0
ARC
8
0
10
130.325
20
-111.275
40
0.5
50
270
51
0
0
LINE
8
0
10
0
20
-114.3
11
133.35
21
-114.3
0
LINE
8
0
10
0
20
-14.2875
11
133.35
21
-14.2875
0
LINE
8
0
10
0
20
-114.3
11
0
21
-14.2875
0
LINE
8
0
10
133.35
20
-114.3
11
133.35
21
-14.2875
0
ENDSEC
0
EOF