<svg width="133.35mm" height="100.013mm" viewBox="0 0 133.35 100.013" xmlns="http://www.w3.org/2000/svg"><g id="svgGroup" stroke-linecap="round" fill-rule="evenodd" font-size="9pt" stroke="#000" stroke-width="0.25mm" fill="none" style="stroke:#000;stroke-width:0.25mm;fill:none"><path d="M 0 100.013 L 133.35 100.013 L 133.35 0 L 0 0 L 0 100.013 Z M 22.075 2.525 L 35.075 2.525 A 0.5 0.5 0 0 1 35.575 3.025 L 35.575 16.025 A 0.5 0.5 0 0 1 35.075 16.525 L 22.075 16.525 A 0.5 0.5 0 0 1 21.575 16.025 L 21.575 3.025 A 0.5 0.5 0 0 1 22.075 2.525 Z M 3.025 7.288 L 16.025 7.288 A 0.5 0.5 0 0 1 16.525 7.788 L 16.525 20.788 A 0.5 0.5 0 0 1 16.025 21.288 L 3.025 21.288 A 0.5 0.5 0 0 1 2.525 20.788 L 2.525 7.788 A 0.5 0.5 0 0 1 3.025 7.288 Z M 22.075 7.288 L 35.075 7.288 A 0.5 0.5 0 0 1 35.575 7.788 L 35.575 20.788 A 0.5 0.5 0 0 1 35.075 21.288 L 22.075 21.288 A 0.5 0.5 0 0 1 21.575 20.788 L 21.575 7.788 A 0.5 0.5 0 0 1 22.075 7.288 Z M 41.125 7.288 L 54.125 7.288 A 0.5 0.5 0 0 1 54.625 7.788 L 54.625 20.788 A 0.5 0.5 0 0 1 54.125 21.288 L 41.125 21.288 A 0.5 0.5 0 0 1 40.625 20.788 L 40.625 7.788 A 0.5 0.5 0 0 1 41.125 7.288 Z M 60.175 7.288 L 73.175 7.288 A 0.5 0.5 0 0 1 73.675 7.788 L 73.675 20.788 A 0.5 0.5 0 0 1 73.175 21.288 L 60.175 21.288 A 0.5 0.5 0 0 1 59.675 20.788 L 59.675 7.788 A 0.5 0.5 0 0 1 60.175 7.288 Z M 79.225 7.288 L 92.225 7.288 A 0.5 0.5 0 0 1 92.725 7.788 L 92.725 20.788 A 0.5 0.5 0 0 1 92.225 21.288 L 79.225 21.288 A 0.5 0.5 0 0 1 78.725 20.788 L 78.725 7.788 A 0.5 0.5 0 0 1 79.225 7.288 Z M 98.275 7.288 L 111.275 7.288 A 0.5 0.5 0 0 1 111.775 7.788 L 111.775 20.788 A 0.5 0.5 0 0 1 111.275 21.288 L 98.275 21.288 A 0.5 0.5 0 0 1 97.775 20.788 L 97.775 7.788 A 0.5 0.5 0 0 1 98.275 7.288 Z M 22.075 16.813 L 35.075 16.813 A 0.5 0.5 0 0 1 35.575 17.313 L 35.575 30.313 A 0.5 0.5 0 0 1 35.075 30.813 L 22.075 30.813 A 0.5 0.5 0 0 1 21.575 30.313 L 21.575 17.313 A 0.5 0.5 0 0 1 22.075 16.813 Z M 22.075 26.338 L 35.075 26.338 A 0.5 0.5 0 0 1 35.575 26.838 L 35.575 39.838 A 0.5 0.5 0 0 1 35.075 40.338 L 22.075 40.338 A 0.5 0.5 0 0 1 21.575 39.838 L 21.575 26.838 A 0.5 0.5 0 0 1 22.075 26.338 Z M 22.075 45.387 L 35.075 45.387 A 0.5 0.5 0 0 1 35.575 45.887 L 35.575 58.887 A 0.5 0.5 0 0 1 35.075 59.387 L 22.075 59.387 A 0.5 0.5 0 0 1 21.575 58.887 L 21.575 45.887 A 0.5 0.5 0 0 1 22.075 45.387 Z M 22.075 64.438 L 35.075 64.438 A 0.5 0.5 0 0 1 35.575 64.938 L 35.575 77.938 A 0.5 0.5 0 0 1 35.075 78.438 L 22.075 78.438 A 0.5 0.5 0 0 1 21.575 77.938 L 21.575 64.938 A 0.5 0.5 0 0 1 22.075 64.438 Z M 22.075 83.488 L 35.075 83.488 A 0.5 0.5 0 0 1 35.575 83.988 L 35.575 96.988 A 0.5 0.5 0 0 1 35.075 97.488 L 22.075 97.488 A 0.5 0.5 0 0 1 21.575 96.988 L 21.575 83.988 A 0.5 0.5 0 0 1 22.075 83.488 Z M 41.125 2.525 L 54.125 2.525 A 0.5 0.5 0 0 1 54.625 3.025 L 54.625 16.025 A 0.5 0.5 0 0 1 54.125 16.525 L 41.125 16.525 A 0.5 0.5 0 0 1 40.625 16.025 L 40.625 3.025 A 0.5 0.5 0 0 1 41.125 2.525 Z M 60.175 2.525 L 73.175 2.525 A 0.5 0.5 0 0 1 73.675 3.025 L 73.675 16.025 A 0.5 0.5 0 0 1 73.175 16.525 L 60.175 16.525 A 0.5 0.5 0 0 1 59.675 16.025 L 59.675 3.025 A 0.5 0.5 0 0 1 60.175 2.525 Z M 79.225 2.525 L 92.225 2.525 A 0.5 0.5 0 0 1 92.725 3.025 L 92.725 16.025 A 0.5 0.5 0 0 1 92.225 16.525 L 79.225 16.525 A 0.5 0.5 0 0 1 78.725 16.025 L 78.725 3.025 A 0.5 0.5 0 0 1 79.225 2.525 Z M 98.275 2.525 L 111.275 2.525 A 0.5 0.5 0 0 1 111.775 3.025 L 111.775 16.025 A 0.5 0.5 0 0 1 111.275 16.525 L 98.275 16.525 A 0.5 0.5 0 0 1 97.775 16.025 L 97.775 3.025 A 0.5 0.5 0 0 1 98.275 2.525 Z M 41.125 16.813 L 54.125 16.813 A 0.5 0.5 0 0 1 54.625 17.313 L 54.625 30.313 A 0.5 0.5 0 0 1 54.125 30.813 L 41.125 30.813 A 0.5 0.5 0 0 1 40.625 30.313 L 40.625 17.313 A 0.5 0.5 0 0 1 41.125 16.813 Z M 60.175 16.813 L 73.175 16.813 A 0.5 0.5 0 0 1 73.675 17.313 L 73.675 30.313 A 0.5 0.5 0 0 1 73.175 30.813 L 60.175 30.813 A 0.5 0.5 0 0 1 59.675 30.313 L 59.675 17.313 A 0.5 0.5 0 0 1 60.175 16.813 Z M 79.225 16.813 L 92.225 16.813 A 0.5 0.5 0 0 1 92.725 17.313 L 92.725 30.313 A 0.5 0.5 0 0 1 92.225 30.813 L 79.225 30.813 A 0.5 0.5 0 0 1 78.725 30.313 L 78.725 17.313 A 0.5 0.5 0 0 1 79.225 16.813 Z M 98.275 16.813 L 111.275 16.813 A 0.5 0.5 0 0 1 111.775 17.313 L 111.775 30.313 A 0.5 0.5 0 0 1 111.275 30.813 L 98.275 30.813 A 0.5 0.5 0 0 1 97.775 30.313 L 97.775 17.313 A 0.5 0.5 0 0 1 98.275 16.813 Z M 12.55 26.338 L 25.55 26.338 A 0.5 0.5 0 0 1 26.05 26.838 L 26.05 39.838 A 0.5 0.5 0 0 1 25.55 40.338 L 12.55 40.338 A 0.5 0.5 0 0 1 12.05 39.838 L 12.05 26.838 A 0.5 0.5 0 0 1 12.55 26.338 Z M 41.125 26.338 L 54.125 26.338 A 0.5 0.5 0 0 1 54.625 26.838 L 54.625 39.838 A 0.5 0.5 0 0 1 54.125 40.338 L 41.125 40.338 A 0.5 0.5 0 0 1 40.625 39.838 L 40.625 26.838 A 0.5 0.5 0 0 1 41.125 26.338 Z M 60.175 26.338 L 73.175 26.338 A 0.5 0.5 0 0 1 73.675 26.838 L 73.675 39.838 A 0.5 0.5 0 0 1 73.175 40.338 L 60.175 40.338 A 0.5 0.5 0 0 1 59.675 39.838 L 59.675 26.838 A 0.5 0.5 0 0 1 60.175 26.338 Z M 79.225 26.338 L 92.225 26.338 A 0.5 0.5 0 0 1 92.725 26.838 L 92.725 39.838 A 0.5 0.5 0 0 1 92.225 40.338 L 79.225 40.338 A 0.5 0.5 0 0 1 78.725 39.838 L 78.725 26.838 A 0.5 0.5 0 0 1 79.225 26.338 Z M 98.275 26.338 L 111.275 26.338 A 0.5 0.5 0 0 1 111.775 26.838 L 111.775 39.838 A 0.5 0.5 0 0 1 111.275 40.338 L 98.275 40.338 A 0.5 0.5 0 0 1 97.775 39.838 L 97.775 26.838 A 0.5 0.5 0 0 1 98.275 26.338 Z M 107.8 26.338 L 120.8 26.338 A 0.5 0.5 0 0 1 121.3 26.838 L 121.3 39.838 A 0.5 0.5 0 0 1 120.8 40.338 L 107.8 40.338 A 0.5 0.5 0 0 1 107.3 39.838 L 107.3 26.838 A 0.5 0.5 0 0 1 107.8 26.338 Z M 12.55 45.387 L 25.55 45.387 A 0.5 0.5 0 0 1 26.05 45.887 L 26.05 58.887 A 0.5 0.5 0 0 1 25.55 59.387 L 12.55 59.387 A 0.5 0.5 0 0 1 12.05 58.887 L 12.05 45.887 A 0.5 0.5 0 0 1 12.55 45.387 Z M 41.125 45.387 L 54.125 45.387 A 0.5 0.5 0 0 1 54.625 45.887 L 54.625 58.887 A 0.5 0.5 0 0 1 54.125 59.387 L 41.125 59.387 A 0.5 0.5 0 0 1 40.625 58.887 L 40.625 45.887 A 0.5 0.5 0 0 1 41.125 45.387 Z M 60.175 45.387 L 73.175 45.387 A 0.5 0.5 0 0 1 73.675 45.887 L 73.675 58.887 A 0.5 0.5 0 0 1 73.175 59.387 L 60.175 59.387 A 0.5 0.5 0 0 1 59.675 58.887 L 59.675 45.887 A 0.5 0.5 0 0 1 60.175 45.387 Z M 79.225 45.387 L 92.225 45.387 A 0.5 0.5 0 0 1 92.725 45.887 L 92.725 58.887 A 0.5 0.5 0 0 1 92.225 59.387 L 79.225 59.387 A 0.5 0.5 0 0 1 78.725 58.887 L 78.725 45.887 A 0.5 0.5 0 0 1 79.225 45.387 Z M 98.275 45.387 L 111.275 45.387 A 0.5 0.5 0 0 1 111.775 45.887 L 111.775 58.887 A 0.5 0.5 0 0 1 111.275 59.387 L 98.275 59.387 A 0.5 0.5 0 0 1 97.775 58.887 L 97.775 45.887 A 0.5 0.5 0 0 1 98.275 45.387 Z M 107.8 45.387 L 120.8 45.387 A 0.5 0.5 0 0 1 121.3 45.887 L 121.3 58.887 A 0.5 0.5 0 0 1 120.8 59.387 L 107.8 59.387 A 0.5 0.5 0 0 1 107.3 58.887 L 107.3 45.887 A 0.5 0.5 0 0 1 107.8 45.387 Z M 12.55 64.438 L 25.55 64.438 A 0.5 0.5 0 0 1 26.05 64.938 L 26.05 77.938 A 0.5 0.5 0 0 1 25.55 78.438 L 12.55 78.438 A 0.5 0.5 0 0 1 12.05 77.938 L 12.05 64.938 A 0.5 0.5 0 0 1 12.55 64.438 Z M 41.125 64.438 L 54.125 64.438 A 0.5 0.5 0 0 1 54.625 64.938 L 54.625 77.938 A 0.5 0.5 0 0 1 54.125 78.438 L 41.125 78.438 A 0.5 0.5 0 0 1 40.625 77.938 L 40.625 64.938 A 0.5 0.5 0 0 1 41.125 64.438 Z M 60.175 64.438 L 73.175 64.438 A 0.5 0.5 0 0 1 73.675 64.938 L 73.675 77.938 A 0.5 0.5 0 0 1 73.175 78.438 L 60.175 78.438 A 0.5 0.5 0 0 1 59.675 77.938 L 59.675 64.938 A 0.5 0.5 0 0 1 60.175 64.438 Z M 79.225 64.438 L 92.225 64.438 A 0.5 0.5 0 0 1 92.725 64.938 L 92.725 77.938 A 0.5 0.5 0 0 1 92.225 78.438 L 79.225 78.438 A 0.5 0.5 0 0 1 78.725 77.938 L 78.725 64.938 A 0.5 0.5 0 0 1 79.225 64.438 Z M 98.275 64.438 L 111.275 64.438 A 0.5 0.5 0 0 1 111.775 64.938 L 111.775 77.938 A 0.5 0.5 0 0 1 111.275 78.438 L 98.275 78.438 A 0.5 0.5 0 0 1 97.775 77.938 L 97.775 64.938 A 0.5 0.5 0 0 1 98.275 64.438 Z M 107.8 64.438 L 120.8 64.438 A 0.5 0.5 0 0 1 121.3 64.938 L 121.3 77.938 A 0.5 0.5 0 0 1 120.8 78.438 L 107.8 78.438 A 0.5 0.5 0 0 1 107.3 77.938 L 107.3 64.938 A 0.5 0.5 0 0 1 107.8 64.438 Z M 12.55 83.488 L 25.55 83.488 A 0.5 0.5 0 0 1 26.05 83.988 L 26.05 96.988 A 0.5 0.5 0 0 1 25.55 97.488 L 12.55 97.488 A 0.5 0.5 0 0 1 12.05 96.988 L 12.05 83.988 A 0.5 0.5 0 0 1 12.55 83.488 Z M 41.125 83.488 L 54.125 83.488 A 0.5 0.5 0 0 1 54.625 83.988 L 54.625 96.988 A 0.5 0.5 0 0 1 54.125 97.488 L 41.125 97.488 A 0.5 0.5 0 0 1 40.625 96.988 L 40.625 83.988 A 0.5 0.5 0 0 1 41.125 83.488 Z M 60.175 83.488 L 73.175 83.488 A 0.5 0.5 0 0 1 73.675 83.988 L 73.675 96.988 A 0.5 0.5 0 0 1 73.175 97.488 L 60.175 97.488 A 0.5 0.5 0 0 1 59.675 96.988 L 59.675 83.988 A 0.5 0.5 0 0 1 60.175 83.488 Z M 79.225 83.488 L 92.225 83.488 A 0.5 0.5 0 0 1 92.725 83.988 L 92.725 96.988 A 0.5 0.5 0 0 1 92.225 97.488 L 79.225 97.488 A 0.5 0.5 0 0 1 78.725 96.988 L 78.725 83.988 A 0.5 0.5 0 0 1 79.225 83.488 Z M 98.275 83.488 L 111.275 83.488 A 0.5 0.5 0 0 1 111.775 83.988 L 111.775 96.988 A 0.5 0.5 0 0 1 111.275 97.488 L 98.275 97.488 A 0.5 0.5 0 0 1 97.775 96.988 L 97.775 83.988 A 0.5 0.5 0 0 1 98.275 83.488 Z M 107.8 83.488 L 120.8 83.488 A 0.5 0.5 0 0 1 121.3 83.988 L 121.3 96.988 A 0.5 0.5 0 0 1 120.8 97.488 L 107.8 97.488 A 0.5 0.5 0 0 1 107.3 96.988 L 107.3 83.988 A 0.5 0.5 0 0 1 107.8 83.488 Z M 3.025 2.525 L 16.025 2.525 A 0.5 0.5 0 0 1 16.525 3.025 L 16.525 16.025 A 0.5 0.5 0 0 1 16.025 16.525 L 3.025 16.525 A 0.5 0.5 0 0 1 2.525 16.025 L 2.525 3.025 A 0.5 0.5 0 0 1 3.025 2.525 Z M 3.025 26.338 L 16.025 26.338 A 0.5 0.5 0 0 1 16.525 26.838 L 16.525 39.838 A 0.5 0.5 0 0 1 16.025 40.338 L 3.025 40.338 A 0.5 0.5 0 0 1 2.525 39.838 L 2.525 26.838 A 0.5 0.5 0 0 1 3.025 26.338 Z M 3.025 45.387 L 16.025 45.387 A 0.5 0.5 0 0 1 16.525 45.887 L 16.525 58.887 A 0.5 0.5 0 0 1 16.025 59.387 L 3.025 59.387 A 0.5 0.5 0 0 1 2.525 58.887 L 2.525 45.887 A 0.5 0.5 0 0 1 3.025 45.387 Z M 3.025 64.438 L 16.025 64.438 A 0.5 0.5 0 0 1 16.525 64.938 L 16.525 77.938 A 0.5 0.5 0 0 1 16.025 78.438 L 3.025 78.438 A 0.5 0.5 0 0 1 2.525 77.938 L 2.525 64.938 A 0.5 0.5 0 0 1 3.025 64.438 Z M 3.025 83.488 L 16.025 83.488 A 0.5 0.5 0 0 1 16.525 83.988 L 16.525 96.988 A 0.5 0.5 0 0 1 16.025 97.488 L 3.025 97.488 A 0.5 0.5 0 0 1 2.525 96.988 L 2.525 83.988 A 0.5 0.5 0 0 1 3.025 83.488 Z M 117.325 7.288 L 130.325 7.288 A 0.5 0.5 0 0 1 130.825 7.788 L 130.825 20.788 A 0.5 0.5 0 0 1 130.325 21.288 L 117.325 21.288 A 0.5 0.5 0 0 1 116.825 20.788 L 116.825 7.788 A 0.5 0.5 0 0 1 117.325 7.288 Z M 117.325 2.525 L 130.325 2.525 A 0.5 0.5 0 0 1 130.825 3.025 L 130.825 16.025 A 0.5 0.5 0 0 1 130.325 16.525 L 117.325 16.525 A 0.5 0.5 0 0 1 116.825 16.025 L 116.825 3.025 A 0.5 0.5 0 0 1 117.325 2.525 Z M 117.325 26.338 L 130.325 26.338 A 0.5 0.5 0 0 1 130.825 26.838 L 130.825 39.838 A 0.5 0.5 0 0 1 130.325 40.338 L 117.325 40.338 A 0.5 0.5 0 0 1 116.825 39.838 L 116.825 26.838 A 0.5 0.5 0 0 1 117.325 26.338 Z M 117.325 45.387 L 130.325 45.387 A 0.5 0.5 0 0 1 130.825 45.887 L 130.825 58.887 A 0.5 0.5 0 0 1 130.325 59.387 L 117.325 59.387 A 0.5 0.5 0 0 1 116.825 58.887 L 116.825 45.887 A 0.5 0.5 0 0 1 117.325 45.387 Z M 117.325 64.438 L 130.325 64.438 A 0.5 0.5 0 0 1 130.825 64.938 L 130.825 77.938 A 0.5 0.5 0 0 1 130.325 78.438 L 117.325 78.438 A 0.5 0.5 0 0 1 116.825 77.938 L 116.825 64.938 A 0.5 0.5 0 0 1 117.325 64.438 Z M 117.325 83.488 L 130.325 83.488 A 0.5 0.5 0 0 1 130.825 83.988 L 130.825 96.988 A 0.5 0.5 0 0 1 130.325 97.488 L 117.325 97.488 A 0.5 0.5 0 0 1 116.825 96.988 L 116.825 83.988 A 0.5 0.5 0 0 1 117.325 83.488 Z" vector-effect="non-scaling-stroke"/></g></svg>